<?xml version="1.0" encoding="utf-8"?>
<!-- Generator: Adobe Illustrator 21.0.0, SVG Export Plug-In . SVG Version: 6.00 Build 0)  -->
<svg version="1.1" id="Layer_1" xmlns="http://www.w3.org/2000/svg" xmlns:xlink="http://www.w3.org/1999/xlink" x="0px" y="0px"
	 viewBox="0 0 30 28.8" style="enable-background:new 0 0 30 28.8;" xml:space="preserve">
<style type="text/css">
	.st0{fill:#40404C;}
</style>
<g>
	<path class="st0" d="M26,1.1c-3.8,4.5-7.5,9-11.7,13c-4.2,4.1-9.3,7.2-13.1,11.7c-0.5,0.6,0.9,2.4,1.7,2c5.3-2.6,9.2-7.2,13.2-11.2
		c4.2-4.3,8.4-8.7,12-13.5C28.7,2.3,26.7,0.2,26,1.1z"/>
	<path class="st0" d="M28.7,25.8c-4.5-3.8-9-7.5-13-11.7C11.6,9.9,8.4,4.7,4,1C3.4,0.4,1.6,1.9,2,2.7C4.6,8,9.2,11.9,13.2,15.8
		c4.3,4.2,8.7,8.4,13.5,12C27.5,28.5,29.6,26.5,28.7,25.8z"/>
</g>
</svg>
