<?xml version="1.0" encoding="utf-8"?>
<!-- Generator: Adobe Illustrator 21.0.0, SVG Export Plug-In . SVG Version: 6.00 Build 0)  -->
<svg version="1.1" id="Layer_1" xmlns="http://www.w3.org/2000/svg" xmlns:xlink="http://www.w3.org/1999/xlink" x="0px" y="0px"
	 viewBox="0 0 301.5 205.5" style="enable-background:new 0 0 301.5 205.5;" xml:space="preserve">
<style type="text/css">
	.st0{fill:#F8F0F0;}
	.st1{fill:none;stroke:#F8F0F0;stroke-miterlimit:10;}
	.st2{fill:#40404C;}
	.st3{fill:none;}
	.st4{fill-rule:evenodd;clip-rule:evenodd;fill:#40404C;}
</style>
<g id="XMLID_1_">
	<g>
		<path class="st0" d="M295.7,161.4c0.3,9.5,1.6,19.1,0.2,28.4c-0.3,1.8-0.7,3.7-2.1,4.8c-1,0.7-2.3,0.9-3.5,1.1
			c-13.9,1.6-28.8,1.6-42.8,1.7c-12.5,0.1-25,0.1-37.5,0.2c-41.8,0.2-83.7,0.4-125.5,0.6c-21.1,0.1-42.2,0.2-63.3,0.3
			c-5.6,0-12.1-0.4-15.3-5c-2.1-3-2.1-6.9-2-10.5c0.4-10.9,1.7-22,2.7-33C8.9,123.6,9.4,97,8,70.6c-0.4-7.6-1.7-17-1.7-31.2
			c0-11.2,1.3-26.6,1.3-26.6s0-4.5,5.3-4.2c2.2-0.6,4-0.1,4.9,0.2c0.4,0.1,6.1,0.4,17.4,1.1c0,0,5.2,0.3,15,0.3
			c10.4,0,229.1-3.7,237.5-4.1c2.5-0.1,5.5,0,6.6,2.2c0.5,0.9,0.5,1.9,0.5,2.9C296.5,61.3,294.1,111.3,295.7,161.4z"/>
	</g>
	<g>
		<path class="st1" d="M17.8,8.8C16.9,8.5,15,8,12.9,8.6c-5.3-0.3-5.3,4.2-5.3,4.2S6.3,28.2,6.3,39.4C6.3,53.6,7.6,63,8,70.6
			c1.4,26.4,0.9,53-1.4,79.4c-1,11-2.3,22-2.7,33.1c-0.1,3.6-0.1,7.5,2,10.5c3.2,4.6,9.7,5,15.3,5c21.1-0.1,42.2-0.2,63.3-0.3
			c41.8-0.2,83.7-0.4,125.5-0.6c12.5-0.1,25-0.1,37.5-0.2c14-0.1,28.9-0.1,42.8-1.7c1.2-0.1,2.5-0.3,3.5-1.1c1.4-1.1,1.9-3,2.1-4.8
			c1.4-9.4,0.1-18.9-0.2-28.4c-1.6-50.1,0.8-100.2-0.9-150.3c0-1-0.1-2-0.5-2.9c-1.2-2.2-4.2-2.3-6.6-2.2
			c-8.4,0.4-227,4.1-237.5,4.1c-9.9,0-15-0.3-15-0.3C23.8,9.2,18.1,8.9,17.8,8.8z"/>
	</g>
</g>
<g>
	<g>
		<path class="st2" d="M150.2,96.9c-0.1-0.1-0.2-0.2-0.4-0.2l0.2-0.1c-0.1,0-0.3-0.1-0.2-0.3c-0.2-0.2-0.4-0.5-0.5-0.6
			c-0.2-0.2-0.5-0.3-0.7-0.4s-0.4-0.2-0.4-0.2l-0.2-0.4l-0.4,0.1c0-0.2,0-0.3,0-0.5l-0.3-0.3l-0.1-0.5c-0.2-0.2-0.4-0.4-0.5-0.6
			c0-0.4-0.4-0.3-0.7-0.7c-1-0.2-2.5-1.7-2-2.8c0-0.2,0-0.4,0-0.6c0.1-0.2,0.2-0.4,0.4-0.5c-0.1-0.2-0.1-0.4,0-0.5l0.2-0.1
			c0-0.2,0-0.4,0.1-0.6c0-0.1-0.1-0.2-0.1-0.3c0.2-0.4,0.2-0.8,0-1.1l0.1-0.2c-0.1-0.3,0-0.6,0.1-0.9c-0.6-0.6-0.1-2.1-1.1-2.7
			c0.2-0.2,0.1-0.3-0.1-0.5l-0.5-0.3c-0.2-0.2-0.3-0.5-0.3-0.8c-0.1-0.2-0.3-0.3-0.5-0.4c-0.1-0.6-0.7-0.8-0.7-1.5
			c-0.1-0.2-0.3-0.3-0.5-0.3c-0.1-0.3-0.4-0.5-0.8-0.5c-0.1-0.2-0.3-0.4-0.4-0.5l-0.2,0c-0.2-0.1-0.2-0.2-0.3-0.4
			c-0.7-0.5-2.3-1.7-3.1-1.4c-0.5-0.3-1.1-0.6-1.6-0.9c-0.3,0-0.6,0-0.9,0c-0.3-0.3-0.6-0.3-0.9-0.6c-0.7,0.2-1.3-0.2-2-0.2
			c-0.9,0-1.8,0-2.8,0l-0.3,0.2c-2.3-0.6-4.5,0.2-6.5,1.1c-0.3,0.3-0.4,0.6-0.9,0.6c-0.2,0.1-0.4,0.3-0.5,0.5l0.1,0.2
			c-0.1,0.1-0.2,0.2-0.2,0.4c0,0.2,0.1,0.4,0.2,0.5l0,0.3c0.9,0.6,2.7-0.1,3.6-0.4c0.4,0.2,1.3,0,1.7,0c0.5,0,1,0,1.5,0
			c0.9,0,1.8,0.3,2.7,0.2l0.2,0.2c1.1,0.2,2,0.6,3.1,0.6c0.1,0.1,0.2,0.2,0.4,0.2l0.1,0.2l0.2,0l0.2,0.2c0.6,0.2,1.1,0.6,1.7,0.7
			c0.5,0.5,1.2,0.9,1.9,1.1c0.1,0.6,0.7,0.5,1.1,0.9c0,0.2,0.3,0.4,0.5,0.4c0.5,0.9,1.5,1.6,1.7,2.8c0.3,1.3,0.5,2.8-0.5,4
			c-0.4,0-0.7-0.1-1.1-0.2c-0.3-0.1-0.6-0.3-0.9-0.5c-0.4-0.3-0.6,0.1-1,0.2c-0.2-0.4-0.5-0.4-0.9-0.2l-0.1-0.2l-0.3-0.1l-0.2,0.1
			l-0.2-0.2c-0.2,0.1-0.4,0-0.4-0.3c-0.2-0.2-0.5-0.2-0.7,0c0,0,0,0,0,0.1l-0.2-0.2c-0.4-0.2-0.8-0.2-1.1,0l-0.2-0.2l-0.3-0.1
			c-0.3-0.4-0.8-0.4-1.2-0.1c0,0-0.1,0-0.1,0.1c-0.5,0-1-0.2-1.4,0.1c-0.1-0.1-0.2-0.2-0.4-0.3c-0.4,0-0.7,0-1.1,0.3
			c-0.2,0-0.4,0-0.5,0l0-0.2l-0.1,0v-0.2c-0.7-0.2-1.7-0.4-2.4-0.3c-0.4,0-0.7,0-1.1,0c-0.5,0-0.8,0.5-1.2,0.4c-0.5-0.2-1-0.2-1.5,0
			c-0.4,0.1-0.8,0.3-1.1,0.4c-0.4-0.2-1,0.3-1.4,0.3c-0.8-0.1-0.8,0.4-1.4,0.5c-0.5,0-0.8-0.3-1.2,0c-0.3,0.2-0.9,0.4-1,0.5
			c-0.1,0.1-0.1,0.3-0.2,0.4c-0.2,0-0.5,0-0.7-0.1c-0.2,0.1-0.4,0.3-0.5,0.5c-0.4-0.1-0.9,0-1.1,0.3c-0.4,0-0.7,0.2-1,0.4
			c0,0-0.1,0-0.2,0c2.6,1.2,4.4-0.8,11-1.6c6.9-0.9,10.7,0.6,10.7,0.6c-2.7,0-5.5,0.5-8,1.3c-3.6,1.3-3.2,2-3.2,2s0.8-0.8,3.8-1.2
			c3.6-0.5,5.5,0,8.6,0s4.5-0.9,4.5-0.9s-1.8,4.7-13.2,4.2c-8.5-0.3-14-4.2-14.4-4.5c-0.4-0.2-0.7-0.3-1.1-0.5
			c-0.1,0-0.1-0.1-0.1-0.1c-0.2,0-0.3,0-0.4-0.2V89c-0.6-0.2-1-0.4-1.6-0.1V89c0.1,0,0.2,0.1,0.3,0.2c-0.1,0-0.1,0.1-0.2,0.1v0.1
			c0.2,0.1,0.4,0.2,0.6,0.3c0,0.3,0.2,0.5,0.4,0.7l-0.1,0.2v0.1c0.1,0,0.2,0.1,0.4,0.2c0.1,0,0.3,0,0.4,0.1c0,0.1-0.1,0.4-0.3,0.6
			c-0.2,0-0.3,0-0.5,0c-0.1,0.1,0,0.2-0.2,0.2c-0.3,0.1-0.5,0.3-0.8,0.5c-0.1,0.1,0,0.2-0.2,0.3c-0.1,0.1-0.2,0-0.3,0
			c-0.1,0.1,0,0.2,0,0.3c-0.1,0.1-0.3,0.1-0.5,0.2c-0.1,0.1-0.1,0.3-0.2,0.3c0,0-0.1,0-0.2,0c-0.3,0-0.5,0.3-0.5,0.6
			c-0.5,0-0.5,0.7-1.1,0.7c0,0.1,0,0.2,0,0.2c-0.1,0.1-0.4,0.2-0.4,0.5c-0.5,0-0.6,0.5-0.9,0.8c0.1,0.1,0.1,0.2,0,0.3
			c-0.7,0.2-0.3,0.9-0.7,1.1c-0.1,0.2-0.2,0.3-0.1,0.5l0.2,0.2c0.3,0.1,0.5,0,0.4-0.3c0.6-0.2,1-1,1.5-1.5c0.5-0.5,1.5-0.8,1.8-1.5
			c0.3-0.1,0.5-0.2,0.8-0.4c0,0,0-0.1,0.1-0.2c0.3-0.1,1.1-0.5,1.2-0.8c0,0,0-0.1,0.1-0.1c0.1,0,0.2,0,0.3,0
			c0.2-0.1,0.4-0.2,0.6-0.2c0-0.1,0-0.1,0.1-0.2c0.1-0.1,0.5-0.2,0.6-0.4l0.1-0.1c0.2,0,0.4,0,0.7-0.1c0.7,0.4,1.3,1.2,2.2,1.3
			c0.1,0.2,0.4,0.4,0.6,0.4c0.1,0,0.2,0.1,0.2,0.2c0.5,0,1,0.5,1.6,0.6l0.1,0.1c0.1,0,0.2,0,0.4-0.1c0.1,0.1,0.3,0.2,0.4,0.2
			c0,0.2,0,0.3,0.2,0.3l0.2,0c0.2,0.2,0.5,0.2,0.8,0.2l0,0.1c0.3-0.2,0.5-0.1,0.5,0.2c0.2,0.1,0.4,0.2,0.5,0.2
			c0.3,0.1,0.6,0.2,1,0.2l0.1,0c0,0,0.1,0.1,0.2,0.1l0.2-0.1l0.2,0.2c0.2,0,0.3,0,0.4-0.2c-0.2,0.5,0.2,0.4,0.4,0
			c-0.1,0-0.1,0.1-0.1,0.2c0,0.1,0.4-0.2,0.4-0.2c0,0.2,0,0.3,0.1,0.4c0.2,0,0.3-0.2,0.3-0.3c0,0.2,0,0.3,0.2,0.3l0.2-0.2
			c0,0.1,0,0.2,0.1,0.2c0.1,0,0.2,0,0.2,0l0.1-0.2l0,0.2c0.5,0.2,0.9,0.2,1.4,0.3c0.1,0,0.2-0.1,0.3-0.2l0.3,0.1
			c0.3,0.4,1.4,0,1.9,0.3c0.4-0.1,1.1-0.5,1.4-0.2c0.3-0.1,0.7-0.1,1,0c0.2-0.1,0.5-0.2,0.7-0.2c0.3,0.1,0.5,0.1,0.8,0.1
			c0.2,0,0.7-0.2,0.9-0.2s0.1,0.3,0.4-0.1c0.1,0,0.2,0.1,0.3,0c0-0.1,0.1-0.1,0.2-0.1c0,0,0,0,0,0c0.6,0,0.9-0.6,1.5-0.5
			s0.9-0.5,1.7-0.4l0.1-0.1l0-0.1c0.1,0,0.2,0.1,0.2,0.2h0.1c0.1-0.5,0.6-0.2,1.1-0.4c0-0.1,0-0.2,0-0.3c0.2,0,0.3,0,0.4,0
			c0.2-0.1,0.4-0.2,0.5-0.5l0.3-0.1l0.2-0.2l0.1,0c0.2-0.1,0.3-0.1,0.5-0.2c0.3-0.6,1-0.5,1.2-1l0.4,0c0-0.4,0.3-0.7,0.7-0.6
			l0.2-0.1c0-0.1,0.1-0.2,0.2-0.3c0.4-0.1,0.9-0.1,0.9,0.2c0.2,0.2,0.5,0.4,0.8,0.4c0.2,0.3,0.5,0.5,0.9,0.7
			c0.1,0.1,0.1,0.2,0.1,0.4c0.5,0.2,0.7,0.6,1.2,0.8c0,0.1,0.1,0.2,0.2,0.3c0.4,0.2,0.7,0.2,0.9,0.6c0.1,0,0.2,0.1,0.4,0.1
			c0.2,0.3,0.2,0.5,0.4,0.3l0.3,0.2c0,0,0,0.1,0.2,0.3c0.1,0.1,0.4,0.2,0.4,0.3c0.2,0.2,0.4,0.3,0.6,0.4c0,0.1,0,0.2,0.1,0.2
			c0.2,0.1,0.4,0.1,0.6,0C150,97.3,150.6,97.2,150.2,96.9L150.2,96.9z M111.2,89.8c0.1,0,0.2,0,0.2,0
			C111.4,89.9,111.4,89.8,111.2,89.8z"/>
		<g>
			<path class="st3" d="M150.2,96.9c-0.1-0.1-0.2-0.2-0.4-0.2l0.2-0.1c-0.1,0-0.3-0.1-0.2-0.3c-0.2-0.2-0.4-0.5-0.5-0.6
				c-0.2-0.2-0.5-0.3-0.7-0.4s-0.4-0.2-0.4-0.2l-0.2-0.4l-0.4,0.1c0-0.2,0-0.3,0-0.5l-0.3-0.3l-0.1-0.5c-0.2-0.2-0.4-0.4-0.5-0.6
				c0-0.4-0.4-0.3-0.7-0.7c-1-0.2-2.5-1.7-2-2.8c0-0.2,0-0.4,0-0.6c0.1-0.2,0.2-0.4,0.4-0.5c-0.1-0.2-0.1-0.4,0-0.5l0.2-0.1
				c0-0.2,0-0.4,0.1-0.6c0-0.1-0.1-0.2-0.1-0.3c0.2-0.4,0.2-0.8,0-1.1l0.1-0.2c-0.1-0.3,0-0.6,0.1-0.9c-0.6-0.6-0.1-2.1-1.1-2.7
				c0.2-0.2,0.1-0.3-0.1-0.5l-0.5-0.3c-0.2-0.2-0.3-0.5-0.3-0.8c-0.1-0.2-0.3-0.3-0.5-0.4c-0.1-0.6-0.7-0.8-0.7-1.5
				c-0.1-0.2-0.3-0.3-0.5-0.3c-0.1-0.3-0.4-0.5-0.8-0.5c-0.1-0.2-0.3-0.4-0.4-0.5l-0.2,0c-0.2-0.1-0.2-0.2-0.3-0.4
				c-0.7-0.5-2.3-1.7-3.1-1.4c-0.5-0.3-1.1-0.6-1.6-0.9c-0.3,0-0.6,0-0.9,0c-0.3-0.3-0.6-0.3-0.9-0.6c-0.7,0.2-1.3-0.2-2-0.2
				c-0.9,0-1.8,0-2.8,0l-0.3,0.2c-2.3-0.6-4.5,0.2-6.5,1.1c-0.3,0.3-0.4,0.6-0.9,0.6c-0.2,0.1-0.4,0.3-0.5,0.5l0.1,0.2
				c-0.1,0.1-0.2,0.2-0.2,0.4c0,0.2,0.1,0.4,0.2,0.5l0,0.3c0.9,0.6,2.7-0.1,3.6-0.4c0.4,0.2,1.3,0,1.7,0c0.5,0,1,0,1.5,0
				c0.9,0,1.8,0.3,2.7,0.2l0.2,0.2c1.1,0.2,2,0.6,3.1,0.6c0.1,0.1,0.2,0.2,0.4,0.2l0.1,0.2l0.2,0l0.2,0.2c0.6,0.2,1.1,0.6,1.7,0.7
				c0.5,0.5,1.2,0.9,1.9,1.1c0.1,0.6,0.7,0.5,1.1,0.9c0,0.2,0.3,0.4,0.5,0.4c0.5,0.9,1.5,1.6,1.7,2.8c0.3,1.3,0.5,2.8-0.5,4
				c-0.4,0-0.7-0.1-1.1-0.2c-0.3-0.1-0.6-0.3-0.9-0.5c-0.4-0.3-0.6,0.1-1,0.2c-0.2-0.4-0.5-0.4-0.9-0.2l-0.1-0.2l-0.3-0.1l-0.2,0.1
				l-0.2-0.2c-0.2,0.1-0.4,0-0.4-0.3c-0.2-0.2-0.5-0.2-0.7,0c0,0,0,0,0,0.1l-0.2-0.2c-0.4-0.2-0.8-0.2-1.1,0l-0.2-0.2l-0.3-0.1
				c-0.3-0.4-0.8-0.4-1.2-0.1c0,0-0.1,0-0.1,0.1c-0.5,0-1-0.2-1.4,0.1c-0.1-0.1-0.2-0.2-0.4-0.3c-0.4,0-0.7,0-1.1,0.3
				c-0.2,0-0.4,0-0.5,0l0-0.2l-0.1,0v-0.2c-0.7-0.2-1.7-0.4-2.4-0.3c-0.4,0-0.7,0-1.1,0c-0.5,0-0.8,0.5-1.2,0.4
				c-0.5-0.2-1-0.2-1.5,0c-0.4,0.1-0.8,0.3-1.1,0.4c-0.4-0.2-1,0.3-1.4,0.3c-0.8-0.1-0.8,0.4-1.4,0.5c-0.5,0-0.8-0.3-1.2,0
				c-0.3,0.2-0.9,0.4-1,0.5c-0.1,0.1-0.1,0.3-0.2,0.4c-0.2,0-0.5,0-0.7-0.1c-0.2,0.1-0.4,0.3-0.5,0.5c-0.4-0.1-0.9,0-1.1,0.3
				c-0.4,0-0.7,0.2-1,0.4c0,0-0.1,0-0.2,0c2.6,1.2,4.4-0.8,11-1.6c6.9-0.9,10.7,0.6,10.7,0.6c-2.7,0-5.5,0.5-8,1.3
				c-3.6,1.3-3.2,2-3.2,2s0.8-0.8,3.8-1.2c3.6-0.5,5.5,0,8.6,0s4.5-0.9,4.5-0.9s-1.8,4.7-13.2,4.2c-8.5-0.3-14-4.2-14.4-4.5
				c-0.4-0.2-0.7-0.3-1.1-0.5c-0.1,0-0.1-0.1-0.1-0.1c-0.2,0-0.3,0-0.4-0.2V89c-0.6-0.2-1-0.4-1.6-0.1V89c0.1,0,0.2,0.1,0.3,0.2
				c-0.1,0-0.1,0.1-0.2,0.1v0.1c0.2,0.1,0.4,0.2,0.6,0.3c0,0.3,0.2,0.5,0.4,0.7l-0.1,0.2v0.1c0.1,0,0.2,0.1,0.4,0.2
				c0.1,0,0.3,0,0.4,0.1c0,0.1-0.1,0.4-0.3,0.6c-0.2,0-0.3,0-0.5,0c-0.1,0.1,0,0.2-0.2,0.2c-0.3,0.1-0.5,0.3-0.8,0.5
				c-0.1,0.1,0,0.2-0.2,0.3c-0.1,0.1-0.2,0-0.3,0c-0.1,0.1,0,0.2,0,0.3c-0.1,0.1-0.3,0.1-0.5,0.2c-0.1,0.1-0.1,0.3-0.2,0.3
				c0,0-0.1,0-0.2,0c-0.3,0-0.5,0.3-0.5,0.6c-0.5,0-0.5,0.7-1.1,0.7c0,0.1,0,0.2,0,0.2c-0.1,0.1-0.4,0.2-0.4,0.5
				c-0.5,0-0.6,0.5-0.9,0.8c0.1,0.1,0.1,0.2,0,0.3c-0.7,0.2-0.3,0.9-0.7,1.1c-0.1,0.2-0.2,0.3-0.1,0.5l0.2,0.2
				c0.3,0.1,0.5,0,0.4-0.3c0.6-0.2,1-1,1.5-1.5c0.5-0.5,1.5-0.8,1.8-1.5c0.3-0.1,0.5-0.2,0.8-0.4c0,0,0-0.1,0.1-0.2
				c0.3-0.1,1.1-0.5,1.2-0.8c0,0,0-0.1,0.1-0.1c0.1,0,0.2,0,0.3,0c0.2-0.1,0.4-0.2,0.6-0.2c0-0.1,0-0.1,0.1-0.2
				c0.1-0.1,0.5-0.2,0.6-0.4l0.1-0.1c0.2,0,0.4,0,0.7-0.1c0.7,0.4,1.3,1.2,2.2,1.3c0.1,0.2,0.4,0.4,0.6,0.4c0.1,0,0.2,0.1,0.2,0.2
				c0.5,0,1,0.5,1.6,0.6l0.1,0.1c0.1,0,0.2,0,0.4-0.1c0.1,0.1,0.3,0.2,0.4,0.2c0,0.2,0,0.3,0.2,0.3l0.2,0c0.2,0.2,0.5,0.2,0.8,0.2
				l0,0.1c0.3-0.2,0.5-0.1,0.5,0.2c0.2,0.1,0.4,0.2,0.5,0.2c0.3,0.1,0.6,0.2,1,0.2l0.1,0c0,0,0.1,0.1,0.2,0.1l0.2-0.1l0.2,0.2
				c0.2,0,0.3,0,0.4-0.2c-0.2,0.5,0.2,0.4,0.4,0c-0.1,0-0.1,0.1-0.1,0.2c0,0.1,0.4-0.2,0.4-0.2c0,0.2,0,0.3,0.1,0.4
				c0.2,0,0.3-0.2,0.3-0.3c0,0.2,0,0.3,0.2,0.3l0.2-0.2c0,0.1,0,0.2,0.1,0.2c0.1,0,0.2,0,0.2,0l0.1-0.2l0,0.2
				c0.5,0.2,0.9,0.2,1.4,0.3c0.1,0,0.2-0.1,0.3-0.2l0.3,0.1c0.3,0.4,1.4,0,1.9,0.3c0.4-0.1,1.1-0.5,1.4-0.2c0.3-0.1,0.7-0.1,1,0
				c0.2-0.1,0.5-0.2,0.7-0.2c0.3,0.1,0.5,0.1,0.8,0.1c0.2,0,0.7-0.2,0.9-0.2s0.1,0.3,0.4-0.1c0.1,0,0.2,0.1,0.3,0
				c0-0.1,0.1-0.1,0.2-0.1c0,0,0,0,0,0c0.6,0,0.9-0.6,1.5-0.5s0.9-0.5,1.7-0.4l0.1-0.1l0-0.1c0.1,0,0.2,0.1,0.2,0.2h0.1
				c0.1-0.5,0.6-0.2,1.1-0.4c0-0.1,0-0.2,0-0.3c0.2,0,0.3,0,0.4,0c0.2-0.1,0.4-0.2,0.5-0.5l0.3-0.1l0.2-0.2l0.1,0
				c0.2-0.1,0.3-0.1,0.5-0.2c0.3-0.6,1-0.5,1.2-1l0.4,0c0-0.4,0.3-0.7,0.7-0.6l0.2-0.1c0-0.1,0.1-0.2,0.2-0.3
				c0.4-0.1,0.9-0.1,0.9,0.2c0.2,0.2,0.5,0.4,0.8,0.4c0.2,0.3,0.5,0.5,0.9,0.7c0.1,0.1,0.1,0.2,0.1,0.4c0.5,0.2,0.7,0.6,1.2,0.8
				c0,0.1,0.1,0.2,0.2,0.3c0.4,0.2,0.7,0.2,0.9,0.6c0.1,0,0.2,0.1,0.4,0.1c0.2,0.3,0.2,0.5,0.4,0.3l0.3,0.2c0,0,0,0.1,0.2,0.3
				c0.1,0.1,0.4,0.2,0.4,0.3c0.2,0.2,0.4,0.3,0.6,0.4c0,0.1,0,0.2,0.1,0.2c0.2,0.1,0.4,0.1,0.6,0C150,97.3,150.6,97.2,150.2,96.9
				L150.2,96.9z M111.2,89.8c0.1,0,0.2,0,0.2,0C111.4,89.9,111.4,89.8,111.2,89.8z"/>
			<g>
				<path class="st3" d="M111.2,90.2c0,0,0,0,0.2,0l0-0.8c0,0-0.1,0-0.1,0l-0.2,0.7c0.1,0,0.2,0,0.4,0.1l0-0.6c0,0,0,0,0-0.2
					c0,0,0,0,0,0c-0.1,0-0.2,0-0.2,0V90.2z"/>
				<path class="st4" d="M111.4,89.5C111.5,89.4,111.4,89.4,111.4,89.5C111.4,89.5,111.4,89.5,111.4,89.5c0,0.1,0,0.1-0.1,0.1
					C111.4,89.6,111.4,89.5,111.4,89.5C111.4,89.5,111.4,89.5,111.4,89.5C111.4,89.5,111.4,89.5,111.4,89.5
					c-0.1,0.1-0.1,0.2-0.1,0.2c0,0,0,0,0,0l0,0c0,0,0,0,0,0c0,0,0,0,0,0c0,0,0,0,0,0l0,0l0,0l0,0l0,0l0,0l0,0c0,0,0,0,0,0l0,0
					c0,0,0,0,0,0c0,0,0,0,0,0c0,0,0,0,0,0c0,0,0,0,0,0c0,0,0,0,0,0.1c0,0,0,0,0,0c0,0,0,0,0,0.1c0,0,0,0,0,0l0,0l0,0c0,0,0,0,0,0.1
					c0,0,0,0,0,0c0,0,0,0,0,0s0,0,0,0c0,0,0,0,0,0c0,0,0,0,0,0c0,0,0,0,0,0c0,0,0,0,0,0l0,0c0,0,0,0,0,0c0,0,0,0,0,0l0,0
					c0,0,0-0.1,0-0.1c0,0.1,0,0.1,0,0.1c0,0,0,0.1,0,0.1c0,0,0,0,0,0l0,0c0,0,0,0,0,0c0,0,0,0,0,0c0,0,0,0,0,0c0,0,0,0,0,0l0,0
					c0,0,0,0,0,0c0,0,0,0,0,0c0,0,0,0,0,0.1c0,0,0,0,0,0c0,0,0,0,0,0c0,0,0,0,0,0c0,0,0,0,0,0l0,0l0,0c0,0,0,0,0,0c0,0,0,0,0,0.1
					c0,0,0,0,0,0c0,0,0,0,0-0.1c0,0,0,0,0,0c0,0,0,0,0,0c0,0,0,0,0,0c0,0,0-0.1,0-0.1c0,0,0,0,0,0c0,0,0,0,0,0l0,0c0,0,0,0,0-0.1
					c0,0,0,0,0-0.1c0,0,0,0,0,0l0,0c0,0,0,0,0-0.1c0,0,0,0,0-0.1c0,0,0,0,0-0.1c0,0.1,0,0.2,0,0.3l0,0c0,0,0,0,0,0.1
					c0,0,0-0.1,0-0.2l0,0l0,0c0,0,0,0,0,0l0,0c0,0,0,0.1,0,0.1l0,0c0,0,0,0,0,0c0,0,0,0,0,0s0,0,0,0c0,0,0-0.1,0-0.1c0,0,0,0,0,0
					c0,0,0-0.1,0-0.1c0,0,0,0,0,0l0,0c0,0,0,0,0,0c0,0,0,0,0,0l0,0l0,0l0,0c0,0,0,0,0,0c0,0,0,0,0,0l0,0c0,0,0,0,0,0
					c0,0,0-0.1,0-0.1c0,0,0,0,0,0c0,0,0,0,0,0c0,0,0,0,0,0l0,0l0,0c0,0,0,0,0,0c0,0,0,0,0,0c0,0,0,0,0,0c0,0,0,0,0,0l0,0
					c0,0,0,0,0,0c0,0,0,0,0,0l0,0l0,0c0,0,0,0,0,0c0,0,0,0,0,0c0,0,0,0,0,0l0,0l0,0c0,0,0,0,0,0c0,0,0,0,0,0c0,0,0,0,0,0
					c0,0,0,0,0,0c0,0,0,0.1,0,0.1c0,0,0,0,0,0l0,0c0,0,0,0,0,0c0,0,0,0,0,0l0,0c0,0,0,0,0,0c0,0,0,0,0,0c0,0,0,0,0,0l0,0l0,0.1
					c0,0,0,0,0,0c0,0,0,0,0,0l0,0c0,0,0,0,0,0c0,0,0,0,0,0l0,0c0,0,0,0,0,0c0,0,0,0,0,0c0,0,0,0,0-0.1c0,0,0-0.1,0-0.1c0,0,0,0,0,0
					l0,0.1c0,0.1,0,0.1,0,0.2c0,0,0,0,0,0c0,0,0,0,0,0.1l0,0l0,0l0,0l0,0c0-0.2,0-0.4,0-0.6l0,0l0,0l0,0l0,0l0,0c0,0,0,0,0,0
					c0,0,0,0.1,0,0.1c0-0.1,0-0.1,0-0.2l0,0c0,0,0,0,0,0c0,0,0,0,0,0c0,0,0,0,0,0c0,0,0,0,0,0C111.5,89.6,111.5,89.6,111.4,89.5
					L111.4,89.5l0,0.1c0,0,0,0,0,0c0,0,0,0,0,0c0,0,0,0,0,0c0,0,0,0.1,0,0.1c0,0,0,0,0,0l0,0c0,0,0,0,0,0c0,0,0,0,0,0c0,0,0,0,0,0
					c0,0,0,0,0,0c0,0,0,0,0,0c0,0,0,0,0,0c0,0,0,0,0,0c0,0,0-0.1,0-0.1c0,0,0,0,0,0C111.4,89.6,111.4,89.6,111.4,89.5
					C111.4,89.6,111.4,89.5,111.4,89.5C111.4,89.5,111.4,89.5,111.4,89.5z M111.5,89.6L111.5,89.6L111.5,89.6L111.5,89.6z
					 M111.5,89.6L111.5,89.6L111.5,89.6z M111.5,89.7C111.5,89.7,111.5,89.7,111.5,89.7C111.5,89.7,111.5,89.7,111.5,89.7z
					 M111.5,89.7C111.5,89.7,111.5,89.7,111.5,89.7C111.5,89.7,111.5,89.7,111.5,89.7z M111.3,89.7
					C111.3,89.7,111.3,89.7,111.3,89.7C111.3,89.7,111.3,89.7,111.3,89.7L111.3,89.7z M111.4,89.9C111.4,89.9,111.4,89.9,111.4,89.9
					C111.4,89.9,111.4,89.9,111.4,89.9z M111.5,89.9L111.5,89.9C111.5,89.9,111.5,89.9,111.5,89.9L111.5,89.9z M111.5,89.8
					L111.5,89.8C111.5,89.8,111.5,89.8,111.5,89.8C111.5,89.8,111.5,89.8,111.5,89.8z M111.5,89.9C111.5,89.9,111.5,89.9,111.5,89.9
					C111.5,89.9,111.5,89.9,111.5,89.9z M111.4,89.8L111.4,89.8C111.4,89.8,111.4,89.8,111.4,89.8z M111.3,89.8L111.3,89.8
					C111.3,89.8,111.3,89.8,111.3,89.8z M111.5,89.8C111.5,89.8,111.5,89.8,111.5,89.8C111.5,89.8,111.5,89.8,111.5,89.8z
					 M111.3,89.8C111.3,89.8,111.3,89.8,111.3,89.8L111.3,89.8z M111.4,89.8C111.4,89.8,111.4,89.8,111.4,89.8
					C111.4,89.8,111.4,89.8,111.4,89.8z M111.5,89.8L111.5,89.8C111.5,89.8,111.5,89.8,111.5,89.8z M111.3,89.7
					C111.3,89.7,111.3,89.7,111.3,89.7L111.3,89.7L111.3,89.7z M111.5,89.8C111.5,89.8,111.5,89.8,111.5,89.8L111.5,89.8L111.5,89.8
					z"/>
			</g>
			<g>
				<path class="st3" d="M150.2,96.9l-0.3,0.3l0,0l0,0l0,0l0,0l0,0l0,0l0,0l0,0l0,0c0,0,0,0,0,0l0.1-0.1c0.1-0.1,0.1,0,0.1-0.1
					c-0.1,0-0.2-0.2-0.1-0.2c0,0.1,0-0.2,0,0.4l-0.1-0.4c-0.1,0-0.3,0-0.4,0l0,0.2c0,0,0,0,0,0l-0.1-0.4c-0.2-0.1-0.4-0.2-0.6-0.4
					l-0.3-0.2c-0.1,0-0.1-0.1-0.1-0.1c0,0,0,0-0.1,0c0,0-0.1,0-0.1,0l-0.1,0l0,0l0,0l0,0l0,0c-0.3-0.1,0.4,0.1,0.3,0.1l0,0l0,0
					l-0.1-0.4l-0.7-0.6c0,0,0,0.1,0,0.2l0,0.1l0,0l0,0l0,0l0,0.3l0,0l0,0c0,0,0,0,0,0c0,0,0.1-0.1,0.1-0.2l0.1-0.1l0,0l0,0l0,0
					l-0.2-0.4l-0.4-0.1c0,0,0,0,0,0c0,0,0,0,0-0.1c-0.1-0.1-0.1-0.1-0.2-0.2c-0.1-0.1-0.3-0.2-0.4-0.2l-0.3-0.1l-0.1-0.2
					c0-0.1-0.2-0.1-0.3-0.2c0,0-0.1,0-0.1-0.1c-0.1-0.1-0.2-0.1-0.3-0.2c-0.2-0.2-0.4-0.3-0.7-0.5l0.2,0.4c0-0.2-0.1-0.5-0.3-0.7
					l-0.3-0.1l-0.1,0c-0.1,0-0.1-0.1-0.2-0.1c-0.1,0-0.1-0.1-0.2-0.1c0,0,0,0-0.1-0.1l-0.2-0.2c-0.4,0-0.4,0-0.5-0.1
					c-0.1,0-0.2-0.1-0.2-0.2l0.1,0.3c0-0.3-0.2-0.5-0.4-0.6c-0.2-0.1-0.3-0.1-0.4-0.1c-0.1,0-0.2,0-0.3,0l-0.2,0
					c-0.1,0-0.2,0-0.3,0.1c-0.1,0.1-0.2,0.2-0.2,0.2c0,0-0.1,0.1-0.1,0.1c0,0,0,0,0,0l0,0l0,0c-0.1,0-0.1,0-0.2,0
					c-0.1,0-0.3,0.1-0.4,0.2c-0.1,0.1-0.2,0.2-0.2,0.3c0,0,0.2,0,0.1,0l-0.5,0c-0.2,0.5-0.2,0.3-0.3,0.4c-0.1,0.1-0.3,0.1-0.5,0.2
					c-0.1,0.1-0.2,0.1-0.3,0.2c-0.1,0.1-0.2,0.2-0.2,0.2c0,0-0.2,0.1-0.4,0.2l0.4,0l-0.1,0l-0.3-0.1l-0.2,0.2l-0.1,0.1l-0.3,0.1
					c-0.1,0.3-0.1,0.3-0.2,0.3c0,0,0,0-0.1,0.1l0,0l0,0c-0.1,0-0.1,0-0.2,0c-0.1,0-0.2,0-0.3,0l-0.4,0.1L137,95c0,0,0,0,0,0.3
					l0.3-0.4c-0.1,0-0.3,0-0.5,0.1c-0.1,0-0.3,0-0.5,0.1c-0.2,0.1-0.3,0.3-0.3,0.5l0.4-0.3h-0.1l0.4,0.2c-0.2-0.3-0.4-0.3-0.4-0.3
					l-0.3-0.3l-0.2,0.5l0,0.1l0.1-0.2c0,0,0,0-0.2,0c-0.2,0-0.4,0.1-0.5,0.1c-0.3,0.1-0.6,0.3-0.7,0.3c0,0-0.3,0-0.5,0
					c-0.2,0-0.4,0.1-0.5,0.2c-0.3,0.2-0.5,0.3-0.6,0.3l0.4,0.4c0-0.1,0-0.2-0.1-0.3c-0.1-0.1-0.2-0.1-0.3-0.1l0.2,0
					c-0.1-0.1-0.3-0.1-0.5,0c-0.1,0.1-0.2,0.2-0.3,0.3l0.3,0.1l0,0c0,0,0-0.1,0-0.1l0-0.1l0-0.1l0,0l0,0l-0.1,0l-0.3-0.1l-0.2,0.2
					l-0.1,0.1l0,0l0.1,0.2c0,0,0,0,0,0.1c0,0,0,0.1,0,0.1c0,0,0,0,0,0l0.2-0.3c0,0-0.1-0.1-0.1-0.1c-0.1,0-0.1-0.1-0.2-0.1
					c-0.1,0-0.4,0.1-0.5,0.1l-0.3,0.1c-0.1,0-0.2,0-0.2,0l-0.2,0c-0.1,0-0.2,0-0.2,0c-0.1,0-0.1,0-0.3-0.1l-0.7,0.2l0,0
					c-0.1,0-0.1,0-0.2,0c-0.1,0-0.2,0-0.3,0c-0.2,0-0.4,0-0.7,0.1l0.4,0.1c-0.2-0.2-0.5-0.2-0.7-0.2c-0.2,0-0.4,0.1-0.5,0.1
					l-0.4,0.1c0,0,0.1,0-0.2,0c-0.4-0.1-0.7,0-0.9,0c-0.3,0-0.5-0.1-0.5,0l-0.2-0.2l-0.3-0.1l-0.2,0.1l-0.2,0.1c0,0-0.1,0-0.1,0
					l-0.1,0l-0.4-0.1c-0.1,0-0.2,0-0.4-0.1l-0.2,0c0,0-0.1,0.1-0.1-0.2l-0.1-0.4c0,0,0-0.2-0.1-0.3l-0.1-0.4l-0.4,1.1l0,0
					c0.1,0.3-0.1,0,0,0.3c0,0.1,0,0.1,0,0.1l0.3,0c0-0.1,0-0.1-0.2-0.1l-0.5-0.3l-0.2,0.2l0.3,0c0,0,0,0,0,0.1l0,0l0,0l0,0l0-0.2
					l0,0l0,0l0,0l0,0l0,0.1c0,0,0,0,0,0l0,0l-0.1,0c0,0,0,0,0,0l0-0.2l0-0.1c0-0.1,0,0,0,0.1l0,0.2l0,0l0,0l0-0.4l0,0l0,0l0,0l0,0
					l0,0.4c0,0.1,0,0,0,0l0,0l-0.2,0l0,0l0,0c0,0,0-0.1-0.1-0.1c0,0,0,0,0,0l0,0l0.4,0.1c0,0,0,0,0-0.1l0.1-0.6L122,96
					c-0.1,0-0.3,0-0.5,0.2l-0.1,0c0,0,0.1,0.4,0.1,0.4c0,0,0,0,0-0.1c0,0,0,0,0-0.1c0,0,0,0,0,0l0,0l0-0.2c0-0.1,0-0.1,0-0.1l0,0
					l0,0l0,0c0,0,0,0-0.1,0l0,0c0,0,0,0.1,0,0.2l0,0.2l-0.2-0.3c0,0.1-0.1,0.1-0.1,0.1l0,0l0,0l0,0.1l0,0.1c0,0.1,0,0.1,0,0.2l0,0
					l0,0l0,0l0,0l0.2-0.3l0,0l0,0l0,0l0,0c0,0,0,0,0,0l-0.2-0.1l-0.4-0.2c-0.1,0,0,0-0.1,0l0.3,0.1l-0.2-0.2l-0.2-0.2l-0.3,0.1
					l-0.2,0.1l0.5,0.1l-0.2-0.2c-0.1-0.1-0.2-0.1-0.3-0.1c-0.1,0-0.2,0-0.2,0l-0.1,0c-0.1,0-0.2,0-0.3,0l-0.1,0l-0.2-0.1
					c-0.1,0-0.1,0-0.2,0c0,0-0.1,0-0.1,0l0,0c0,0,0,0-0.1-0.1c-0.1-0.1-0.2-0.3-0.4-0.3c-0.3-0.1-0.5,0.1-0.6,0.1l0.5,0.2l0-0.1
					l-0.1-0.2l-0.2,0c-0.1,0-0.2,0-0.3,0c-0.1,0-0.1,0-0.4-0.2l-0.3,0.1l0.1,0c0,0,0,0.1,0,0.1c0,0.1,0,0.1,0,0.1l0,0l0.2-0.1
					c0,0,0-0.1,0-0.1l0-0.3c-0.2,0-0.4,0-0.5,0l0,0c0,0-0.1-0.1-0.1-0.1l-0.2-0.2c-0.1,0.1-0.2,0.2-0.3,0.2c0,0,0,0-0.1,0l0.3,0.2
					l-0.1-0.1l-0.1-0.1l-0.2,0c-0.2,0-0.4-0.2-0.7-0.3c-0.1-0.1-0.3-0.1-0.4-0.2c-0.1-0.1-0.4-0.1-0.3-0.1l0,0c0,0-0.1-0.1-0.2-0.2
					c-0.1-0.1-0.2-0.1-0.3-0.1c0,0-0.1,0-0.1,0c-0.1,0-0.1,0-0.1-0.1l0,0c0,0-0.1-0.1-0.1-0.2c-0.1,0-0.3-0.1-0.4-0.1
					c-0.1,0-0.1,0-0.2-0.1c-0.1,0-0.2-0.1-0.3-0.2c-0.2-0.1-0.4-0.3-0.6-0.5l-0.3-0.3l-0.2-0.1l-0.1-0.1l-0.2-0.1
					c-0.1-0.1-0.3,0-0.4,0l-0.2,0l-0.3,0c-0.1,0-0.1,0-0.2,0l-0.1,0.1l0,0c0,0.1-0.1,0.2-0.1,0.2c0,0,0,0,0,0c0,0-0.1,0-0.2,0.1
					c-0.1,0-0.2,0.1-0.4,0.2c0,0-0.1,0.1-0.1,0.1l0,0c0,0-0.1,0-0.2,0c-0.1,0-0.1,0-0.2,0.1l0,0l0,0c-0.1,0-0.2,0-0.3,0
					c-0.1,0-0.1,0.1-0.2,0.1c0,0.1-0.2,0.1-0.2,0.4l0.2-0.1c0,0-0.1,0-0.1-0.1c0,0,0,0,0,0c0,0,0,0,0,0c0,0-0.1,0.1-0.1,0.1
					c-0.1,0.1-0.2,0.1-0.3,0.2c-0.2,0.1-0.4,0.2-0.6,0.3l-0.1,0l0,0l-0.1,0.2l-0.2,0.1c-0.1,0-0.1,0.1-0.2,0.1l-0.1,0l-0.2,0.1
					l-0.1,0.2l-0.1,0.1c0,0.1-0.1,0.1-0.2,0.2c-0.1,0.1-0.2,0.2-0.4,0.3c-0.3,0.2-0.6,0.4-1,0.6c-0.4,0.3-0.6,0.6-0.8,0.9
					c-0.1,0.1-0.2,0.3-0.3,0.4c-0.1,0.1-0.1,0.1-0.2,0.1c-0.1,0-0.3,0.1-0.5,0.2l0,0.4l0.2,0l0,0c0,0,0,0,0,0c0,0,0,0,0,0
					c0,0,0-0.1,0-0.2c0,0,0,0,0,0l0,0c0,0,0,0,0,0c-0.1,0.1,0.3-0.2,0.3-0.4c0.1-0.2,0.1-0.3,0.1-0.4c0.1-0.2,0-0.1,0.1-0.2l0.2-0.1
					l0.1-0.1c0.1-0.1,0.1-0.5-0.1-0.7l0,0.5c0.1-0.2,0.2-0.3,0.3-0.5c0-0.1,0.1-0.1,0.1-0.1c0.1,0,0,0,0.2-0.1l0.2-0.2l0.2-0.2
					c0,0,0.1-0.1,0.2-0.1c0,0,0.1-0.1,0.3-0.3l0-0.1c0,0,0,0,0.2-0.1c0.1-0.1,0.2-0.2,0.3-0.3c0.1-0.1,0.1-0.2,0.2-0.2
					c0,0,0,0,0.1,0l0.4-0.1c0-0.1,0-0.3,0-0.4c0,0,0,0,0-0.1c0,0,0.1-0.1,0.1-0.1l-0.3-0.1c0.3,0.2,0.5,0.2,0.7,0l-0.1,0.1
					c0.3-0.2,0.2-0.3,0.3-0.3l0,0l0.1,0c0.1,0,0.1,0,0.2-0.1c0.1,0,0.3-0.2,0.3-0.4l0,0l0,0c0.2,0,0.4-0.2,0.4-0.4c0-0.1,0,0,0,0
					c0,0,0.1,0,0.1-0.1c0.1-0.1,0.2-0.1,0.3-0.2L109,92c0,0,0,0,0.1,0c0.1,0,0.2-0.1,0.3-0.2c0,0,0,0,0,0l0.1,0l0.2,0
					c0.1-0.1,0.2-0.2,0.3-0.3c0.1-0.2,0.2-0.3,0.2-0.6c0,0,0-0.1-0.1-0.3c-0.1-0.1-0.2-0.2-0.2-0.2c-0.1,0-0.2,0-0.2,0l-0.1,0l0,0
					c0,0,0,0,0,0.1c0,0,0,0.1,0,0.1l0.1-0.1l-0.4-0.2l0.3,0.4v-0.1l-0.1,0.2l0.1-0.2l0.3-0.3l-0.3-0.2c-0.1,0-0.1-0.1-0.2-0.2
					c0-0.1-0.1-0.1-0.1-0.5l-0.8-0.4l0.2,0.3v-0.1l-0.2,0.4l0.2-0.1l0.5-0.3l-0.4-0.3c-0.1-0.1-0.3-0.3-0.6-0.3l0.4,0.4v-0.1
					l-0.2,0.4c0.5-0.2,0.8-0.1,1.4,0.1l-0.3-0.4V89v0.2l0.1,0.1c0.1,0.1,0.3,0.2,0.5,0.3l0.1,0l0.1,0l0,0l0,0l0,0l0,0l0-0.4l0,0l0,0
					l0,0c0,0,0,0,0,0l0,0l-0.3,0.2l0,0l0,0c0,0.1,0.1,0.2,0.2,0.2l0.9,0.4c0.1,0,0.2,0.1,0.2,0.1l0.2,0.1l0.4,0.3
					c0.6,0.3,1.1,0.7,1.7,1c1.2,0.6,2.4,1.1,3.7,1.5c2.5,0.9,5.1,1.4,7.8,1.5c2.6,0.1,5.3,0.1,7.9-0.5c1.3-0.3,2.6-0.7,3.8-1.4
					c0.6-0.3,1.2-0.7,1.7-1.2l0.1-0.1c0.1,0,0.1-0.1,0.2-0.2l0.3-0.4c0.2-0.2,0.3-0.5,0.4-0.7c0.1-0.2,0.2-0.4,0.3-0.6l0.2-0.5
					l-0.8,0.5c-0.2,0.1-0.5,0.2-0.6,0.3c-0.3,0.1-0.8,0.3-0.9,0.3c-0.3,0.1-0.7,0.2-1,0.2c-0.7,0.1-1.4,0.2-2,0.2
					c-1.4,0-2.8-0.1-4.2-0.2c-1.4-0.1-2.9,0-4.3,0.2c-0.7,0.1-1.4,0.2-2.1,0.4c-0.4,0.1-0.7,0.2-1,0.3c-0.4,0.2-0.7,0.3-1.1,0.6
					l0.6,0.1l0,0l0,0c-0.5,0.2-0.1,0.1-0.3,0.1l0,0l0.1,0c0,0,0.1,0,0.1,0c0,0,0.1,0,0.1,0c0,0,0,0,0-0.1c0-0.1,0.1-0.1,0.2-0.2
					c0.2-0.1,0.4-0.3,0.6-0.4c0.4-0.2,0.9-0.4,1.3-0.6c0.9-0.4,1.9-0.7,2.8-0.9c1.9-0.5,3.9-0.7,5.9-0.7l0.1-0.8
					c-1.8-0.6-3.7-0.8-5.5-0.9c-1.9-0.1-3.7,0-5.6,0.3c-1.8,0.2-3.7,0.6-5.4,1.2c-1.8,0.5-3.5,1.2-5.1,0.5l-0.2,0.8
					c0.1,0,0.2,0,0.4-0.2l0,0c0.1-0.1,0.2-0.2,0.4-0.2c0.1,0,0.1-0.1,0.2-0.1c0.1,0,0,0,0.2,0c0,0,0.1,0,0.1,0l0.1-0.1
					c0.1-0.1,0.2-0.2,0.4-0.2c0.1,0,0.1,0,0.2,0c0.1,0,0.4,0,0.5,0.1c0-0.1,0.1-0.3,0.1-0.4c0.1-0.1,0-0.1,0.1-0.1
					c0.1-0.1,0.1-0.1,0.1-0.1l0.2,0c0.1,0,0.2,0,0.4,0c0.2,0,0.4,0,0.5-0.2c0.1-0.1,0.1-0.2,0.1-0.2l0-0.1l0.1-0.1l0.3-0.1
					c0.1,0,0.2-0.1,0.3-0.2c0.1,0,0.1-0.1,0.2-0.1c0,0,0.1,0,0.1,0c0.1,0,0.2,0,0.4,0c0.1,0,0.2,0.1,0.4,0.1c0.1,0,0.2,0,0.3,0
					c0.1,0,0.1,0,0.2-0.1c0.3-0.1,0.5-0.3,0.6-0.4c0.1-0.1,0.2-0.1,0.4-0.1c0.4,0,0.6-0.1,0.8-0.2c0.2-0.1,0.4-0.1,0.4-0.1
					c0,0,0,0,0,0l0.1,0h0.1h0.2c0.7-0.2,1.1-0.5,1.7-0.5c0.1,0,0.3,0,0.4,0l0.2,0c0,0,0.3,0.1,0.4,0c0.3-0.1,0.5-0.2,0.6-0.3
					c0.1-0.1,0.2-0.1,0.3-0.2c0,0,0.1,0,0.1,0l0.2,0c0.2,0,0.4,0,0.5,0c0.2,0,0.4,0,0.5,0c0.1,0,0.3,0,0.4,0c0.6,0,1.2,0.1,1.7,0.3
					l-0.3-0.4v0.2v0.6l0.6-0.3l0.1,0l-0.6-0.3l0,0.2l0.1,0.3l0.3,0l0.7,0c0.1,0,0.2-0.1,0.2-0.1c0,0,0,0,0.1,0c0,0,0.1,0,0.2,0
					c0.1,0,0.1,0,0.2,0c0.1,0,0.2,0,0.2,0c0,0,0,0,0.1,0.1l0.4,0.3c0.1-0.1,0.2-0.2,0.3-0.2c0,0,0.1,0,0.1,0c0.1,0,0.1,0,0.2,0
					c0.2,0,0.5,0.1,0.7,0.1l0.1-0.4c0,0-0.1-0.1,0.2,0.3c0,0,0.1,0,0.1-0.1c0.1-0.1,0.3-0.1,0.4-0.1c0.1,0,0.1,0.1,0.2,0.1
					c0,0,0.1,0.1,0.1,0.1c0,0,0.1,0,0.2,0.1l0.1,0l0.1,0.1l0.2,0.2l0.2-0.1c0.1-0.1,0.3-0.1,0.5-0.1c0.1,0,0.2,0,0.2,0l0,0l0.1,0.1
					l0.4-0.2c0,0,0,0,0,0c0,0-0.1-0.1,0.3,0.2c0,0,0.2-0.2,0.1-0.3l-0.1,0.3c0,0,0.2,0,0.1,0c0-0.1,0.1,0.2,0.3,0.3
					c0.1,0.1,0.2,0.1,0.3,0.1l0,0l0,0l0.2,0.3l0.3-0.2l0,0l-0.1,0l0,0.1l0.1,0.4l0.4-0.2c0.1-0.1,0.2-0.1,0.3-0.1c0,0,0,0,0,0
					c0,0,0.2,0.3,0.3,0.4c0.2-0.1,0.3-0.1,0.5-0.2l0.3-0.2c0.1,0,0,0,0.1,0l0,0l0.6,0.3l0.3,0.1c0.1,0,0.1,0.1,0.2,0.1l0.2,0
					l0.6,0.1l0.5,0.1c0.1-0.1,0.3-0.3,0.4-0.4c0.6-0.7,0.7-1.7,0.7-2.5c0-0.4-0.1-0.8-0.2-1.2c-0.1-0.4-0.2-0.9-0.4-1.2
					c-0.2-0.4-0.5-0.7-0.7-1l-0.4-0.5l-0.2-0.2c-0.1-0.1-0.1-0.1-0.2-0.3l-0.2-0.1l-0.2-0.1c0,0,0,0,0,0c0,0,0,0-0.1-0.2
					c-0.1-0.1-0.2-0.1-0.3-0.2c-0.1,0-0.1-0.1-0.2-0.1l-0.3-0.1c-0.1,0-0.1-0.1-0.2-0.1c0,0,0,0,0-0.1l-0.1-0.3l-0.5-0.1l-0.2-0.1
					c-0.2-0.1-0.3-0.1-0.4-0.2c-0.1-0.1-0.3-0.2-0.4-0.3l-0.2-0.2l-0.3-0.3l-0.2-0.1l-0.1,0c-0.1,0-0.1,0-0.2-0.1
					c-0.1-0.1-0.3-0.1-0.5-0.2c-0.2-0.1-0.3-0.2-0.5-0.3l-0.1,0l-0.2-0.2l-0.2,0c-0.1,0,0,0,0,0l0.1,0l0,0l-0.3-0.5l-0.1,0.4
					c0,0,0-0.1,0-0.1l0,0l-0.1-0.2c-0.4,0-0.5,0-0.7,0c-0.2,0-0.4-0.1-0.5-0.1c-0.4-0.1-0.7-0.2-1.1-0.3c-0.2-0.1-0.4-0.1-0.6-0.1
					c-0.1,0-0.1,0-0.1,0c0.1,0.1-0.1-0.1-0.1-0.1c0,0-0.1-0.1-0.1-0.1l-0.1,0c-0.2,0-0.3,0-0.4,0l-0.3,0c-0.2,0-0.4,0-0.6-0.1
					c-0.4,0-0.8-0.1-1.2-0.2c-0.4,0-0.8,0-1.2,0l-0.6,0c-0.2,0-0.4,0-0.6,0c-0.2,0-0.4,0-0.6,0.1c-0.1,0-0.2,0-0.3,0
					c-0.1,0-0.1,0-0.3-0.1l-0.6,0.2l-0.4,0.2c-0.3,0.1-0.6,0.2-0.9,0.2c-0.6,0.1-1.2,0.2-1.5-0.1l0.2,0.4l0.1-0.4
					c-0.1-0.1-0.1-0.2-0.2-0.2l0-0.1l0-0.1l0,0c0-0.1,0.2-0.2,0.2-0.3l-0.1-0.2l0,0c0,0,0.1-0.1,0.1-0.1c0,0,0,0,0.1,0
					c0.3,0,0.6-0.2,0.7-0.4l0.2-0.2c0.1-0.1,0,0,0.1,0c0.7-0.3,1.3-0.5,2-0.8c0.7-0.2,1.4-0.4,2.1-0.4c0.3,0,0.7,0,1,0
					c0.2,0,0.3,0,0.5,0.1c0.2,0,0.3,0.1,0.7,0.2l0.4-0.3l0.1,0l0.6,0l1.3,0c0.2,0,0.4,0,0.6,0c0.2,0,0.4,0.1,0.6,0.1
					c0.2,0,0.4,0.1,0.7,0.1c0.1,0,0.3,0,0.4,0c0.1,0,0.2,0,0.2,0l0,0c0,0,0.1,0.1,0.1,0.1c0.1,0.1,0.2,0.1,0.3,0.2l0.2,0.1l0.1,0
					l0.2,0.2l1,0c0,0,0,0,0,0l0.1,0.1l0.3,0.2l0.7,0.4l0.2,0.1l0.2,0.1c0.1,0,0.1,0.1,0.2,0.1c0.1,0,0.2-0.1,0.3-0.1
					c0,0,0.1,0,0.1,0c0.4,0,0.9,0.2,1.3,0.5c0.2,0.1,0.4,0.3,0.6,0.4l0.5,0.4l0,0c0,0,0,0.1,0.1,0.1c0.1,0.1,0.1,0.2,0.2,0.2
					c0.1,0.1,0.2,0.1,0.3,0.1c0,0,0,0,0,0l0.5,0.6l0.3,0c0.1,0,0.1,0,0.1,0c0,0,0.1,0,0.1,0.1c0,0,0.1,0.1,0.1,0.1c0,0,0,0,0,0.1
					l0.1,0.2c0.1,0,0.2,0,0.3,0.1c0,0,0.1,0,0.1,0c0.1,0,0.1,0.1,0.1,0.1l0,0l0,0.2c0,0.1,0.1,0.2,0.2,0.3c0.1,0.2,0.3,0.4,0.4,0.5
					c0,0.1,0.1,0.1,0.1,0.2c0,0,0,0,0,0.1l0.1,0.3c0.1,0,0.2,0.1,0.3,0.1c0,0,0.1,0,0.1,0.1c0,0,0.1,0,0.1,0.1l0,0
					c0,0.1,0,0.1,0,0.2c0,0.1,0.1,0.2,0.1,0.3c0,0.1,0.1,0.2,0.2,0.3c0,0.1,0.2,0.3,0.3,0.3l0.3,0.2l0,0c0,0,0.1-0.1,0.1-0.1
					c0,0,0,0,0,0c0,0-0.1-0.1-0.1-0.1l0.1,0.6c0.3,0.2,0.4,0.6,0.5,1c0,0.2,0.1,0.5,0.1,0.8c0,0.1,0.1,0.3,0.1,0.4
					c0,0.1,0.1,0.1,0.1,0.2l0,0l0,0c0,0.1,0,0.2-0.1,0.3c0,0.2,0,0.5,0,0.4l-0.1,0.2l0.1,0.3c0,0.1,0,0.1,0,0.1c0,0.1,0,0.1,0,0.2
					c0,0.1,0,0.1,0,0.2l0,0.1l-0.1,0.2l0.1,0.3l0,0l0,0.1c0,0.1,0,0.1,0,0.2l0,0.2l-0.1,0.1c0,0.1-0.1,0.2-0.1,0.3
					c0,0.2,0,0.4,0,0.4l-0.3,0.4c-0.1,0.1-0.1,0.2-0.1,0.3c0,0.1,0,0.1,0,0.2c0,0.1,0,0.1,0,0.2l0,0.1c0-0.1-0.1,0.1-0.1,0.3
					c0,0.1,0,0.3,0,0.4c0,0.3,0.1,0.5,0.2,0.7c0.2,0.4,0.5,0.8,0.8,1.1c0.3,0.3,0.7,0.5,1.2,0.7l0.1,0l0,0c0.1,0.1,0.2,0.2,0.4,0.3
					c0.1,0,0.2,0.1,0.2,0.1c0-0.1,0.1-0.1,0,0c-0.1,0,0,0,0,0l0,0.1l0.6,0.6c0-0.1,0,0,0.1,0.5l0.3,0.3l0,0.1c0,0,0,0.1,0,0.1
					l-0.2,0.7l0.6-0.2l0.1,0l0.1-0.3c0,0.1-0.2,0.2-0.1,0.3c0,0.1,0.1,0.2,0.1,0.3c0.1,0.1,0.4,0.2,0.4,0.2c0,0,0,0,0,0
					c0,0,0.1,0.1,0.2,0.1c0.1,0.1,0.2,0.1,0.3,0.2c0.1,0,0.2,0.1,0.2,0.1c0.1,0,0.1,0.1,0.1,0.1c0.1,0.1,0.2,0.3,0.4,0.5l-0.1-0.4
					c-0.1,0.2,0,0.5,0.1,0.6c0.1,0.1,0.1,0.1,0.2,0.1l0.1,0l0,0l0,0l0,0l0,0c0,0,0,0,0-0.1l-0.1-0.6l-0.2,0.1l-0.7,0.5l0.8,0.2
					c0.1,0,0.1,0,0.2,0.1l0.6-0.6c-0.1-0.1-0.3-0.3-0.6-0.3l0.1,0.7L150.2,96.9l0.5-0.4l-0.6-0.3l-0.1,0l0,0c0,0-0.1,0.1-0.1,0.1
					c-0.1,0.1-0.1,0,0,0.1l0.1,0.1l-0.1-0.5c-0.1-0.4-1.8-1.5-1.5-1.3l-0.2-0.6l-0.8,0.2l0.5,0.5c0-0.1,0-0.3,0-0.4l0-0.1l-0.1-0.2
					c-0.2-0.3-0.4-0.4-0.3-0.3l0-0.2l0-0.3c0-0.1-0.1-0.2-0.2-0.3l-0.3-0.4c0,0.1-0.1-0.3-0.2-0.4c-0.2-0.1-0.3-0.2-0.3-0.2
					c-0.1,0-0.1-0.1-0.1-0.1c-0.1-0.1-0.1-0.2-0.2-0.2l-0.2-0.1c-0.3-0.1-0.6-0.3-0.9-0.5c-0.3-0.2-0.5-0.5-0.6-0.8
					c-0.1-0.1-0.1-0.3-0.1-0.4c0-0.1,0-0.1,0-0.2c0-0.1,0-0.1,0.1-0.3l0-0.2l0-0.1l0-0.1c0-0.1,0-0.2,0-0.1l0.4-0.7
					c-0.2-0.3-0.1-0.3-0.1-0.4l0.2-0.1l0-0.3c0-0.1,0-0.1,0-0.1c0,0,0-0.1,0-0.1c0,0,0.1-0.2,0.1-0.2l-0.1-0.3c0,0,0,0,0,0l0,0
					c0-0.1,0-0.1,0-0.2c0-0.1,0-0.2,0-0.4c0-0.1,0-0.2,0-0.4l0-0.1l0.1-0.1c-0.1-0.4-0.1-0.4-0.1-0.5c0-0.1,0-0.1,0-0.2
					c0-0.1,0.1-0.3,0.1-0.4l-0.2-0.3c0,0-0.1-0.1-0.1-0.1c0-0.1-0.1-0.2-0.1-0.3c0-0.2-0.1-0.5-0.1-0.7c-0.1-0.5-0.2-1.2-0.8-1.6
					l0.1,0.6c0.1-0.1,0.2-0.3,0.2-0.6c-0.1-0.2-0.1-0.3-0.2-0.4c0-0.1-0.1-0.1-0.2-0.1l-0.1-0.1l-0.2-0.1c-0.1,0,0,0,0,0
					c0,0-0.1-0.1-0.1-0.2c0-0.1,0-0.1-0.1-0.2l0-0.1l0-0.2c-0.1-0.1-0.1-0.2-0.2-0.3c-0.1-0.1-0.1-0.1-0.2-0.2
					c-0.1,0-0.1-0.1-0.2-0.1l0,0c0,0,0-0.1-0.1-0.1c-0.1-0.1-0.1-0.2-0.2-0.3c-0.1-0.2-0.2-0.3-0.3-0.4c0-0.1-0.1-0.1-0.1-0.2l0-0.1
					c0-0.1,0-0.2-0.1-0.2c-0.1-0.2-0.2-0.2-0.4-0.3c-0.1,0-0.1-0.1-0.2-0.1l0,0c0,0-0.1-0.1-0.1-0.1c-0.1-0.1-0.2-0.2-0.3-0.2
					c-0.1-0.1-0.2-0.1-0.3-0.1c0,0-0.1,0-0.2,0l0,0l-0.1-0.1l-0.3-0.4c-0.1-0.1-0.2-0.1-0.3-0.1c0,0,0,0,0,0s0,0,0,0l0,0l0-0.2
					l-0.4-0.3l-0.3-0.2c-0.2-0.2-0.4-0.3-0.7-0.4c-0.5-0.3-1-0.5-1.6-0.6c-0.1,0-0.2,0-0.3,0c-0.1,0-0.1,0-0.1,0c0,0,0,0,0,0
					c0,0,0,0,0,0l-0.2-0.1l-0.7-0.4l-0.4-0.2l-0.2-0.1c-0.1-0.1-0.2-0.1-0.4-0.1l-0.6,0l0,0c0,0-0.1-0.1-0.2-0.1
					c-0.1-0.1-0.2-0.1-0.3-0.1c-0.1,0-0.1-0.1-0.2-0.1c0,0,0,0-0.1-0.1l-0.2-0.2l-0.3,0.1c-0.1,0-0.1,0-0.1,0c-0.1,0-0.2,0-0.3,0
					c-0.2,0-0.4-0.1-0.6-0.1c-0.2-0.1-0.4-0.1-0.7-0.1c-0.2,0-0.4,0-0.7,0l-1.3,0l-0.7,0l-0.2,0c-0.1,0-0.2,0-0.3,0.1l-0.2,0.1
					c0.1,0-0.2-0.1-0.4-0.1c-0.2,0-0.4-0.1-0.6-0.1c-0.4,0-0.8,0-1.2,0c-0.8,0.1-1.5,0.2-2.2,0.4c-0.7,0.2-1.4,0.5-2.1,0.8l-0.2,0.1
					l-0.2,0.2l-0.2,0.2c-0.1,0.1-0.2,0.1-0.2,0.1c0,0-0.1,0-0.2,0c-0.1,0-0.2,0.1-0.2,0.1c-0.1,0.1-0.2,0.2-0.3,0.3
					c-0.1,0.1-0.2,0.3-0.3,0.5c0,0.1,0.1,0.2,0.1,0.2l0,0c0,0.1-0.1,0.2-0.1,0.4c0,0.1,0,0.2,0.1,0.3c0,0.1,0,0.1,0.1,0.2
					c0,0.1,0.1,0.1,0.1,0.2l0,0l0,0.1l0,0.3l0.2,0.1c0.8,0.5,1.5,0.3,2.2,0.2c0.3-0.1,0.6-0.2,1-0.3l0.8-0.3c-0.1,0,0.1,0,0.2,0
					c0.1,0,0.2,0,0.3,0c0.2,0,0.4,0,0.6-0.1c0.2,0,0.4,0,0.5,0l0.6,0c0.8,0,1.5,0.1,2.3,0.2c0.2,0,0.4,0,0.6,0.1l0.3,0l0.2,0h0
					c0,0-0.1-0.1,0.1,0.1c0.1,0.1,0.2,0.1,0.3,0.1l0.2,0c0.2,0,0.4,0.1,0.5,0.1c0.4,0.1,0.7,0.2,1.2,0.3c0.2,0,0.4,0.1,0.6,0.1
					c0.2,0,0.5,0,0.4,0l0,0c0,0,0.1,0.1,0.2,0.1c0.1,0.1,0.3,0.1,0.5,0.1l-0.4-0.2l0.2,0.3l0.3,0.1l0.1,0.1c0.1,0.2,0.3,0.1,0.4,0.2
					c0.1,0.1,0.3,0.1,0.5,0.2c0.2,0.1,0.3,0.2,0.5,0.3c0.1,0,0.2,0.1,0.3,0.1l0.2,0.1l0.1,0.1c0.1,0.1,0.2,0.1,0.2,0.2
					c0.2,0.1,0.3,0.2,0.5,0.3c0.2,0.1,0.4,0.2,0.6,0.3l0.3,0.1l0,0l0,0c0,0.1,0.1,0.2,0.2,0.2c0.1,0.2,0.3,0.3,0.4,0.3l0.4,0.1
					c0,0,0.1,0,0.1,0.1l0,0c0-0.1,0.1,0.2,0.2,0.3c0.1,0.1,0.2,0.2,0.4,0.2l0.1,0.2l0.2,0.3l0.4,0.5c0.2,0.3,0.5,0.6,0.6,0.9
					c0.2,0.3,0.2,0.6,0.3,1c0.1,0.4,0.1,0.8,0.2,1.1c0.1,0.7-0.1,1.4-0.5,2c0,0,0,0,0,0l0,0l-0.1,0l-0.6-0.1l-0.1,0l-0.1,0l-0.2-0.1
					l-0.5-0.3l0,0c-0.1-0.1-0.3-0.2-0.5-0.2c-0.2,0-0.4,0.1-0.5,0.1l-0.2,0.1l0,0c-0.1-0.1-0.3-0.1-0.4-0.1c-0.3,0-0.5,0.1-0.7,0.1
					l0.5,0.2l-0.1-0.4l-0.6-0.3l-0.4,0.2l0.5,0.1l-0.3-0.4l-0.3,0.1l0,0.1l0,0c0,0,0,0,0,0c0,0,0,0,0.1-0.1c0.1,0,0-0.1,0-0.2
					c-0.2-0.2-0.5-0.3-0.7-0.3c-0.2,0-0.5,0.1-0.7,0.3l-0.3,0.3l0.5,0c0,0,0,0,0,0c0,0,0.1,0.1-0.3-0.2c0,0-0.2,0.2-0.1,0.3l0.7-0.2
					l-0.1-0.2c-0.1-0.1-0.2-0.2-0.3-0.2c-0.2-0.1-0.3-0.1-0.5-0.1c-0.3,0-0.6,0-0.9,0.1l0.4,0.1l-0.2-0.2l-0.3-0.1l0,0
					c-0.1-0.1-0.3-0.2-0.5-0.3c-0.4-0.1-0.8,0-1.1,0.3l0,0c0,0,0,0-0.1,0.1c-0.1,0.1-0.1,0.2-0.1,0.3l0.4-0.4c-0.2,0-0.4,0-0.7-0.1
					c-0.1,0-0.3,0-0.5,0c-0.1,0-0.2,0.1-0.3,0.1l0,0l0,0l-0.2-0.1c-0.1,0-0.1-0.1-0.2-0.1l-0.4,0c-0.1,0-0.2,0-0.3,0
					c-0.1,0-0.2,0.1-0.4,0.1c-0.1,0-0.1,0.1-0.2,0.1l0,0l0,0c0,0,0,0,0,0l-0.1,0l-0.3,0l0.4,0.3l0-0.2l-0.1-0.5l-0.5,0.2l-0.1,0
					l0.6,0.4v-0.2v-0.3l-0.3-0.1c-0.6-0.2-1.3-0.3-2-0.3c-0.2,0-0.4,0-0.5,0c-0.1,0-0.3,0-0.4,0c-0.1,0-0.3,0-0.4,0l-0.2,0
					c-0.1,0-0.2,0-0.4,0c-0.4,0.1-0.7,0.4-0.8,0.4c0.1,0-0.2-0.1-0.3-0.1c-0.2,0-0.4,0-0.5-0.1c-0.7,0-1.4,0.3-1.9,0.5l0,0l0,0
					c-0.4,0-0.6,0.1-0.9,0.2c-0.2,0.1-0.4,0.1-0.5,0.1c-0.2,0-0.6,0-0.9,0.1c-0.3,0.2-0.4,0.3-0.5,0.4c0,0-0.1,0-0.1,0c0,0,0,0,0,0
					c-0.1,0-0.2,0-0.3-0.1c-0.2-0.1-0.6-0.2-0.9,0c-0.1,0-0.1,0.1-0.2,0.1l-0.1,0.1c-0.1,0-0.2,0.1-0.3,0.1l-0.3,0.1l-0.2,0.1
					c-0.1,0.1-0.2,0.1-0.3,0.2l-0.1,0.2c0,0-0.1,0-0.2,0l-0.1,0l-0.3-0.1c-0.2,0.1-0.5,0.2-0.6,0.3c-0.1,0.1-0.1,0.2-0.2,0.2l0,0
					l-0.1,0c-0.1,0-0.2,0-0.4,0c-0.2,0-0.5,0.2-0.7,0.3c0.1,0-0.3,0-0.5,0.1c-0.2,0.1-0.4,0.2-0.6,0.4l0.2,0.2c0,0,0-0.1-0.1-0.2
					l0-0.1l0,0l-0.2,0.8c0.9,0.4,2,0.5,2.9,0.3c0.9-0.2,1.8-0.5,2.7-0.7c1.7-0.5,3.5-0.9,5.3-1.1c1.8-0.2,3.6-0.3,5.4-0.3
					c1.8,0.1,3.6,0.3,5.3,0.8l0.1-0.8c-2,0-4.1,0.3-6.1,0.8c-1,0.2-2,0.5-2.9,0.9c-0.5,0.2-1,0.4-1.4,0.7c-0.2,0.1-0.5,0.3-0.7,0.5
					c-0.1,0.1-0.2,0.2-0.3,0.4c-0.1,0.1-0.1,0.2-0.1,0.3c0,0.1-0.1,0.2,0,0.5l0.2,0.4l0.4-0.4c0.2-0.1,0.5-0.3,0.8-0.4
					c0.3-0.1,0.6-0.2,1-0.3c0.7-0.2,1.3-0.3,2-0.4c1.4-0.2,2.8-0.2,4.1-0.2c1.4,0.1,2.8,0.2,4.3,0.2c0.7,0,1.4-0.1,2.2-0.2
					c0.4-0.1,0.7-0.1,1.1-0.2l0.2,0l-0.1,0.1c-0.4,0.4-1,0.8-1.5,1.1c-1.1,0.6-2.3,1-3.6,1.3c-2.5,0.5-5.1,0.6-7.7,0.5
					c-2.6-0.2-5.1-0.7-7.6-1.5c-1.2-0.4-2.4-0.9-3.6-1.5c-0.6-0.3-1.1-0.6-1.7-0.9l-0.4-0.3l-0.2-0.1c-0.2-0.1-0.2-0.1-0.3-0.1
					l-0.8-0.4l0,0c0,0,0-0.1-0.2-0.1c0,0-0.2,0-0.2,0l0,0l0,0l0,0c0,0-0.1,0-0.1,0l0.1,0.3V89v-0.3l-0.3-0.1
					c-0.3-0.1-0.6-0.2-0.9-0.3c-0.4,0-0.7,0.1-1,0.2l-0.2,0.1v0.3V89l0.4,0.3c0,0.2,0,0.1,0,0.2l0.1-0.6l-0.2,0.1l-0.2,0.1v0.2v0.1
					v0.2l0.2,0.1l0.5,0.2c0-0.1,0,0.2,0.1,0.3c0.1,0.2,0.2,0.3,0.4,0.4l-0.1-0.6l-0.1,0.2l-0.1,0.1v0.1v0.1v0.2l0.3,0.1
					c0.1,0,0.2,0.1,0.3,0.1l0.1,0c0.2,0,0.3,0,0.3,0l0,0c0-0.1,0-0.2,0.1-0.3c0-0.1,0.1,0-0.1-0.1c0,0-0.1,0-0.1,0c-0.1,0,0,0,0,0
					l0,0l0,0.1c0,0-0.1,0.1-0.1,0.1l0,0l0,0c0,0,0,0-0.1,0c-0.1,0-0.3,0-0.4,0.1c-0.1,0.1-0.2,0.2-0.2,0.3l0,0l0,0
					c-0.2-0.2,0.3,0.2,0.2,0.2l0,0l0,0l0,0c0,0,0,0,0,0c0,0,0-0.1-0.1-0.2c0-0.1-0.1,0-0.2,0l-0.2,0.1c-0.1,0.1-0.3,0.2-0.4,0.2
					c-0.1,0.1-0.1,0.1-0.2,0.2c-0.1,0.1-0.2,0.3-0.1,0.3c0.2,0.1,0.1,0.1,0.1,0.1l0,0l0,0l0,0l0,0l0,0l-0.1-0.2
					c-0.2,0-0.3,0-0.4,0.1c-0.1,0.1-0.1,0.1-0.2,0.2c0,0.1-0.1,0.1,0,0.3l0,0l0,0c0.5,0.1,0.1,0,0.3,0.1l0,0l0,0l0,0l0,0l0,0
					c0,0,0,0,0,0c0,0-0.1-0.1-0.1-0.2c0,0,0,0-0.1,0c0,0-0.3,0-0.5,0.2c-0.1,0.1-0.1,0.2-0.2,0.3c0,0.1,0,0,0,0.1
					c0.2,0.1,0.2,0.1,0.3,0.2l0,0c0-0.1,0-0.1,0,0l-0.1-0.3c-0.3,0-0.5,0.2-0.6,0.4c-0.1,0.1-0.1,0.2-0.2,0.3l0,0
					c-0.1,0-0.1,0.1-0.2,0.1c-0.1,0.1-0.2,0.2-0.3,0.3c-0.2,0.2,0,0.2-0.7,0.3l0,0.2l0,0.1c0,0,0,0,0,0.1l0,0l0,0l0,0l0.2,0.1l0,0
					l0,0l0,0l0,0c0,0,0,0-0.2-0.2l-0.1,0c-0.1,0.1-0.2,0.2-0.4,0.4c0,0-0.3,0.1-0.3,0.2c-0.1,0.1-0.2,0.2-0.3,0.3
					c-0.1,0.2-0.2,0.4-0.3,0.5l0.2,0.4c0,0,0,0-0.1,0c-0.1,0-0.1,0-0.1,0l0.3-0.3c-0.2,0-0.4,0.1-0.5,0.3c-0.1,0.2-0.2,0.4-0.2,0.5
					c0,0.1,0,0.2-0.1,0.3c0,0,0,0,0,0c0,0-0.1,0-0.2,0.1c-0.3,0.3-0.3,1,0.1,1.2c0.1,0.1,0.2,0.1,0.3,0.1c0.1,0,0.2,0,0.4,0
					c0.2,0,0.3-0.3,0.4-0.4l0,0l0.1,0c0.1-0.1,0.2-0.1,0.3-0.2c0.2-0.2,0.3-0.3,0.4-0.5c0.2-0.3,0.4-0.6,0.7-0.8
					c0.3-0.2,0.6-0.4,0.9-0.6c0.2-0.1,0.3-0.2,0.5-0.4c0.1-0.1,0.2-0.2,0.2-0.3l0.1-0.1l0,0l0.1,0c0.1,0,0.2-0.1,0.3-0.1
					c0.1-0.1,0.1-0.1,0.3-0.2c0.1,0,0.1-0.1,0.2-0.2c0,0,0-0.1,0.1-0.1l0,0l-0.2-0.1c0,0-0.1,0-0.1,0l0.1,0.3
					c0.3-0.1,0.5-0.2,0.7-0.4c0.1-0.1,0.2-0.1,0.3-0.2c0.1-0.1,0.2-0.2,0.4-0.4l-0.3-0.2c0,0,0.1,0.1,0.2,0.2c0.1,0.1,0,0,0,0
					c-0.1-0.1,0-0.1-0.1-0.1c0,0,0,0,0,0.1l0.2,0.1c0.1-0.1,0.2-0.1,0.2-0.2c0,0,0.1,0,0.1,0c0,0,0,0,0.1,0c0.1,0,0.2,0,0.3,0
					l0.1-0.2l0-0.1c0,0,0,0,0,0l0,0l0,0l0,0l-0.1-0.1l0,0l0,0l0,0l0.1,0.1l0,0l0,0l0,0l0,0l0,0l0,0l-0.2-0.2l0,0l0,0
					c0,0,0,0,0.1,0.1c0.1,0.1,0,0.1,0.1,0.1l0.1,0c0.1,0,0.2-0.1,0.3-0.2c0.1-0.1,0.3-0.3,0.2-0.2c-0.1,0,0,0,0.1,0l0.2,0
					c0,0,0,0,0,0l0.2,0.2l0.3,0.3c0.2,0.2,0.4,0.4,0.7,0.5c0.1,0.1,0.3,0.2,0.4,0.2c0.1,0,0.2,0.1,0.2,0.1l0.1,0l0,0
					c0,0.1,0.1,0.1,0.2,0.2c0.1,0.1,0.2,0.1,0.4,0.2c0.1,0,0.1,0,0.2,0h0c0,0,0,0,0,0c0,0.1,0.1,0.1,0.2,0.2c0.4,0,0.4,0.1,0.5,0.1
					c0.1,0,0.2,0.1,0.4,0.2c0.2,0.1,0.5,0.3,0.9,0.3l-0.2-0.2l0.1,0.1l0.1,0.2l0.2,0c0.1,0,0.2,0,0.3-0.1l0,0l0,0l0.1,0l0,0l0,0
					c0,0,0,0.1,0.1,0.1c0.2,0.2,0.4,0.2,0.5,0.2l0,0l0,0l0,0c-0.1,0,0.2,0.1,0.4,0.1c0.2,0,0.3,0.1,0.5,0.1l-0.4-0.2l0,0.1l0.2,0.3
					l0.4-0.2c0,0,0.1,0,0.1,0c0,0,0,0,0,0c0-0.1,0-0.1,0-0.1c0-0.1,0,0-0.1,0c-0.1,0.1-0.1,0-0.1,0.1l0,0.2c0.1,0.1,0.3,0.2,0.5,0.3
					c0.1,0,0.1,0,0.2,0l0.1,0l0.1,0l0.2,0.1c0.1,0,0.3,0.1,0.4,0.1c0.1,0,0.1,0,0.2,0l0.1,0l0,0c-0.1-0.1,0,0,0.1,0l0.2,0.2l0.2-0.1
					l0.2-0.1l-0.5-0.1l0.2,0.2l0.1,0.1l0.2,0c0,0,0.1,0,0.1,0c0,0,0,0.1,0.3,0.2c0.2,0,0.3,0,0.3,0c0.1,0,0.1-0.1,0.1-0.1l0.1,0
					c0,0,0.1,0.1,0.1,0.1l0.2,0.2l0.2-0.1l0.2-0.1c0,0-0.1,0,0.2,0l0.1,0l0.1-0.1l0.2-0.2l-0.7-0.3c0,0.2,0.1,0.3,0.1,0.4l0,0.1
					l0.1,0.1c0.1,0.1,0.3,0.1,0.4,0c0.1,0,0.2-0.1,0.2-0.1l0,0l0.3,0.1c0.1,0,0.3,0.1,0.4,0.1l0.4,0.1l0.1,0c0.1,0,0.1,0,0.2,0
					c0.1,0,0.2-0.1,0.3-0.1l0.1,0l-0.2-0.2c0.2,0.2,0.5,0.3,0.6,0.3c0.2,0,0.3,0,0.5,0c0.3,0,0.6,0,0.8,0c0.1,0,0,0,0.2,0.1
					c0.1,0.1,0.3,0,0.4-0.1l0.4-0.2c0.1,0,0.2-0.1,0.3-0.1c0,0,0.1,0,0.1,0c0,0,0-0.1,0,0l-0.2,0.3l0.6-0.2c0.1,0,0.2-0.1,0.4-0.1
					c0.1,0,0.1,0,0.2,0l0.1,0l0.2,0.1l0.7-0.2c0,0,0.1,0,0.2,0c0.1,0,0.2,0,0.3,0l0.3,0c0.2,0,0.3,0,0.4-0.1l0.3-0.1l0,0
					c0,0,0.1,0.1,0.2,0.1c0.1,0,0.2,0,0.2,0l0.1-0.1c0,0,0.2,0,0.3-0.1l0,0l0-0.3c0,0-0.1,0-0.1-0.1c0,0,0,0,0,0l0.1,0.2l0,0l0-0.4
					l0,0l0,0l0,0l0,0l0,0c0,0,0,0,0,0s0,0,0,0l0.1,0.4c0.4,0,0.7-0.2,1-0.4c0.1-0.1,0.2-0.1,0.3-0.1c0.1,0,0.1,0,0.4,0
					c0.5-0.1,0.7-0.3,0.9-0.4c0.1,0,0.2-0.1,0.3-0.1c0.1,0,0,0,0.2,0c0.1,0.1,0.3-0.1,0.4-0.1l0.1-0.1l0-0.1l0-0.1l-0.5,0.2l0.1,0.1
					c0,0,0,0,0,0c0,0,0.1-0.1,0.1-0.1c0-0.1,0.1-0.1,0.1-0.1l0.1,0.3h0.1h0.3l0.1-0.3c0,0,0,0,0,0l0.1,0c0.2,0,0.4,0,0.7-0.1
					l0.1-0.4c0.2,0,0.1,0,0.2-0.1c0-0.1,0-0.1,0-0.2l-0.3,0.4c0,0,0.1,0,0.1,0l0.1,0c0,0,0.1,0,0.2,0c0.1,0,0.2-0.1,0.3-0.1
					c0.1,0,0.2-0.1,0.2-0.2c0.1-0.1,0.3-0.3,0.2-0.3l0.2-0.1l0.2-0.3l-0.5,0.1l0.1,0l0.2,0.1l0.2-0.1c0.1-0.1,0.3-0.1,0.6-0.3
					c0.1-0.2,0.1-0.2,0.1-0.2c0,0,0.1-0.1,0.1-0.1c0.1-0.1,0.3-0.1,0.4-0.2c0.2-0.1,0.5-0.4,0.4-0.3l0.6,0.1c0-0.2,0-0.4,0.1-0.5
					c0-0.1,0-0.1,0.1-0.1c0,0,0,0,0.1,0c0,0,0,0,0,0c0,0,0.2,0,0.2,0l0.4-0.3l0-0.1l0,0l0,0l0.1,0c0.1,0,0.1,0,0.2,0
					c0.1,0,0.1,0,0.1,0c0.1-0.2,0.2-0.2,0.1-0.1l-0.2,0l0.2,0.2c0.1,0.2,0.3,0.3,0.5,0.4c0.2,0.1,0.5,0.1,0.4,0.1l0.1,0.1
					c0.1,0.1,0.2,0.2,0.3,0.2c0.1,0.1,0.2,0.1,0.3,0.2l0.2,0.1c0,0,0,0,0,0.1l0,0.3l0.2,0.1c0.2,0.1,0.3,0.2,0.5,0.3
					c0.1,0.1,0.2,0.2,0.3,0.2c0.1,0,0.1,0.1,0.2,0.1l0,0c0-0.1,0.1,0.3,0.3,0.4c0.2,0.1,0.3,0.1,0.4,0.2c0.1,0,0.2,0.1,0.2,0.1
					c0,0,0,0,0.1,0.1c0,0,0.1,0.1,0.1,0.2l0.4,0.1c0,0,0,0,0,0l0,0.1c0,0,0.1,0.1,0.1,0.2c0,0,0.1,0.1,0.2,0.1c0.1,0,0.1,0,0.2,0
					c0,0,0,0,0,0l0.1,0.1l-0.1-0.4c0,0.2,0,0.3,0,0.3c0,0.1,0.1,0.1,0.1,0.2c0.1,0.1,0.1,0.2,0.2,0.2l0.3,0.2
					c0.2,0.2,0.5,0.4,0.8,0.6l-0.2-0.4c0,0.2,0.1,0.4,0.3,0.5l0,0l0,0c0.3,0.1,0.6,0.1,0.8,0.1l-0.4-0.7c0,0-0.1,0.2-0.1,0.3
					c0,0.2,0.2,0.3,0.2,0.3c0,0,0.1,0,0.1,0c0,0,0.1,0,0.1,0l0.1,0l0.1,0c0,0,0.1,0,0.1,0c0.1,0,0.2-0.1,0.3-0.2
					c0.1-0.2,0.1-0.4,0-0.6c0-0.1-0.1-0.1-0.1-0.2l0-0.1l0,0l0,0l0,0l0,0l0,0l0,0l0,0l0,0L150.2,96.9z"/>
				<path class="st4" d="M106.1,93.3c0,0-0.1,0.1-0.1,0.2c0,0.1,0,0.1,0,0.1c0,0,0,0-0.1,0.1c-0.1,0.1-0.2,0.2-0.3,0.3
					c-0.1,0.1-0.1,0.2-0.2,0.2c0,0-0.1,0-0.1,0c-0.2,0-0.3,0.1-0.4,0.1l0,0.2l0,0.1l0,0.1c0,0,0,0,0,0l0,0l0,0l0,0l0,0l0.2,0.1l0,0
					l0,0c0,0,0,0,0,0c0,0-0.1,0,0,0c0,0-0.1-0.1-0.1-0.2l-0.1,0c-0.1,0.1-0.2,0.2-0.4,0.4l0,0l0,0c0,0-0.3,0.1-0.3,0.2
					c-0.1,0.1-0.2,0.2-0.3,0.3c-0.1,0.2-0.2,0.4-0.3,0.5l0.2,0.4c0,0,0,0-0.1,0c-0.1,0-0.1,0-0.1,0l0.3-0.3c-0.2,0-0.3,0.1-0.5,0.2
					c-0.1,0.1-0.2,0.3-0.2,0.4c-0.1,0.3-0.1,0.4-0.1,0.4c0,0,0,0-0.1,0.1c-0.1,0.1-0.1,0.2-0.2,0.2c-0.1,0.2-0.1,0.3-0.1,0.5
					c0,0.3,0.2,0.4,0.4,0.5c0.2,0.1,0.3,0.1,0.4,0.1c0.1,0,0.2,0,0.3-0.1c0.1-0.1,0.2-0.2,0.2-0.3c0-0.1-0.1,0-0.1-0.1c0,0,0,0,0,0
					c0,0,0.1,0,0.4-0.2c0.2-0.2,0.4-0.4,0.6-0.7c0.2-0.3,0.4-0.6,0.9-0.8c0.4-0.3,1-0.5,1.4-1.1l0,0l0,0l0.1,0
					c0.1,0,0.2-0.1,0.4-0.2l0.1-0.1c0,0,0.1-0.1,0.1-0.1c0,0,0.1-0.1,0.1-0.1l0-0.1c-0.2-0.1-0.2-0.1-0.2-0.1l0.1,0.2
					c0.2-0.1,0.5-0.2,0.7-0.3c0.2-0.2,0.5-0.2,0.7-0.6l-0.2-0.1c0,0,0.1,0.1,0.2,0.2l0,0l0-0.1c0,0,0,0.1,0,0.1l0.2,0.1
					c0.1,0,0.2-0.1,0.2-0.1c0,0,0.1,0,0.1,0c0,0,0,0,0.1,0c0.1,0,0.2,0,0.3,0c0-0.1,0.1-0.1,0.1-0.2c0,0,0.1-0.1,0-0.1c0,0,0,0,0,0
					c0,0,0,0,0.1-0.1c0.1,0,0.2-0.1,0.3-0.2c0.1,0,0.1-0.1,0.2-0.2c0.1-0.1,0-0.1,0-0.1l0,0c0,0,0,0,0.2,0c0.1,0,0.1,0,0.2,0
					c0,0,0,0,0,0c0,0,0.1,0.1,0.2,0.1c0.1,0,0.1,0.1,0.2,0.2c1.2,0.9,0-0.2,0.5,0.1c0.1,0.1-0.3-0.3-0.3-0.2c0.2,0.2,0,0,0.1,0.1
					c0.2,0.2,0.4,0.3,0.6,0.4c0.2,0.1,0.5,0.3,0.9,0.4l0,0c0,0.1,0.2,0.3,0.4,0.3c0.1,0,0.2,0.1,0.3,0.1c0.1,0,0.1,0.1,0.2,0.2
					c0.5,0,0.9,0.4,1.6,0.6l-0.1,0l0.1,0.1l0,0.1l0.1,0c0.1,0,0.2,0,0.2,0c0,0,0.1,0,0.1-0.1c0.1,0.1,0.3,0.2,0.3,0.2l0,0
					c0,0.1,0,0.1,0,0c0,0-0.1,0-0.2,0c-0.1-0.1-0.1-0.1-0.2-0.1l0,0l0,0c0.1,0,0,0,0.2,0.1c0.1,0,0.1,0,0.1,0c0,0,0,0,0,0.1
					c0,0,0,0,0,0.1c0.1,0.1,0.2,0.2,0.4,0.2l0,0l0,0c0,0,0.1,0,0.1,0c0,0,0.2,0.1,0.4,0.2c0.2,0,0.3,0.1,0.5,0.1l-0.2-0.1l0,0.1
					L118,96l0.2-0.1c0.1-0.1,0.2-0.1,0.2-0.1c0,0,0,0,0.1,0.2c0.2,0.2,0.4,0.2,0.5,0.2c0,0,0.1,0,0.1,0c0.1,0.1,0.3,0.1,0.4,0.1
					c0,0,0.1,0,0.1,0c0.1,0,0.3,0,0.4,0c0.1,0,0.1,0,0.2,0l0.1,0l0.1,0.1l0.1,0c0.1,0,0.1-0.1,0.2-0.1l-0.2,0
					c0.1,0.1,0.1,0.1,0.2,0.2l0,0l0.1,0l0.1,0c0.1,0,0.2,0,0.2-0.1c0,0,0,0.1,0,0.1c0,0,0,0.1,0,0.1c0.2,0.1,0.4-0.1,0.4-0.1
					c0,0,0.1-0.1,0.1-0.1c0,0,0,0,0,0c0,0,0,0,0,0c0,0,0,0.1,0.1,0.1c0,0,0.1,0,0.1-0.1c0,0,0.1,0,0.1-0.1c0,0,0,0.1,0,0.1
					c0,0.1,0,0.1,0.1,0.2l0.1,0.1l0.1,0c0.1,0,0.2-0.1,0.2-0.1c0,0,0-0.1,0-0.1c0-0.1,0,0,0,0.1c0,0.1,0,0.1,0.2,0.1l0,0l0,0l0,0
					c0.1-0.1,0.1-0.1,0.2-0.2l-0.2-0.1c0,0.1,0.1,0.2,0.1,0.3l0,0l0,0c0.1,0,0.2,0,0.2,0c0,0,0.1,0,0.1,0l0,0c0-0.1,0-0.1,0-0.2
					c0,0,0,0.1,0.1,0.1c0.2,0,0.4,0.1,0.7,0.2c0.1,0,0.3,0,0.4,0.1l0.2,0c0.1,0,0.2-0.1,0.3-0.1l0,0c0,0,0,0,0.1,0c0,0,0,0,0.1,0
					l0.2,0l-0.1,0c0.2,0.3,0.5,0.3,0.8,0.2c0.3,0,0.6-0.1,0.9,0c0.1,0,0.1,0,0.2,0.1c0.1,0,0.2,0,0.3,0c0.1-0.1,0.3-0.1,0.4-0.2
					c0.2-0.1,0.5-0.2,0.7,0l0,0l0,0c0,0,0.1,0,0.2-0.1c0.3,0,0.3,0,0.4,0c0.1,0,0.2,0,0.4,0.1c0.2-0.1,0.5-0.1,0.7-0.2
					c0.1,0,0.3,0.1,0.5,0.1c0.2,0,0.4,0,0.6-0.1c0.2,0,0.4-0.1,0.5-0.1c0,0,0.1,0,0.1,0c0,0,0,0,0,0c0,0,0.1,0.1,0.1,0
					c0.1-0.1,0.1-0.1,0.2-0.2c0.1,0,0.1,0.1,0.3,0l0,0l0,0c0,0,0,0,0,0c0,0,0,0,0,0l0,0l0,0c0-0.1,0,0,0,0l0.1,0.1
					c0.4,0,0.7-0.3,1.1-0.5c0.2-0.1,0.3-0.1,0.5-0.1c0.2,0,0.4-0.1,0.5-0.1c0.3-0.1,0.5-0.3,0.7-0.3c0.2-0.1,0.4,0,0.5-0.1l0,0
					l0-0.1l0,0c0.1,0,0.1,0.1,0.1,0.1c0,0,0.1,0,0.1,0.1l0,0l0,0l0.1,0l0,0l0,0c0.1-0.3,0.3-0.3,0.5-0.3c0.2,0,0.3,0,0.5-0.1l0,0
					c0-0.1,0-0.2,0-0.3l0,0l0,0c0.1,0,0.2,0,0.3,0c0,0,0.1,0,0.1,0c0.2,0,0.4-0.2,0.5-0.5c0.1,0,0.2-0.1,0.3-0.1
					c0.1-0.1,0.1-0.1,0.2-0.2l0,0l0,0c0,0,0.1,0,0.1,0h0c0,0,0.1,0,0.1-0.1c0.4-0.1,0.4-0.4,0.8-0.6c0.3-0.2,0.7-0.2,0.8-0.6
					c0.1,0,0.3,0,0.4,0c0-0.3,0.3-0.7,0.7-0.6c0.1,0,0.1-0.1,0.2-0.1c0-0.1,0.1-0.2,0.2-0.3c0.2-0.1,0.4-0.1,0.5-0.1
					c0.2,0,0.4,0.1,0.4,0.3l0,0c0,0,0.1,0.1,0.1,0.1c0.2,0.2,0.5,0.3,0.7,0.3c0.2,0.3,0.5,0.6,0.9,0.7c0.1,0.1,0.1,0.3,0.1,0.4l0,0
					c0.2,0.1,0.4,0.3,0.6,0.4c0.1,0.1,0.2,0.2,0.3,0.2c0.1,0,0.1,0.1,0.2,0.1l0.1,0l0,0.1c0,0.3,0.3,0.3,0.5,0.4
					c0.2,0.1,0.4,0.2,0.5,0.4l0.4,0.1l0.1,0.2c0,0.1,0.1,0.2,0.2,0.1c0,0,0.1-0.1,0.1-0.1l0.1,0.1l0.2,0.2l0,0l0,0
					c0,0.3,0.3,0.4,0.5,0.6c0.2,0.2,0.4,0.3,0.6,0.5l0,0l0,0c0,0.1,0,0.1,0.1,0.1l0,0c0.2,0.1,0.4,0.1,0.6,0l0,0.1c0,0,0,0,0-0.1
					c0,0,0,0,0,0.1l0-0.1c-0.1,0-0.1,0,0,0l0,0.1c0,0,0-0.1,0-0.1l0,0l0,0c0,0,0.1,0,0.1,0c0.1,0,0.1-0.1,0.1-0.1
					c0-0.1-0.1-0.2-0.1-0.2c0,0,0.1,0.1,0.1,0.1c0,0,0,0,0,0.1c0,0-0.1,0-0.1,0l-0.1,0c0,0,0-0.1,0,0.1l0-0.1c-0.2,0-0.3,0-0.5,0
					l0,0c0,0,0,0,0-0.1l0-0.1l-0.1,0c-0.2-0.1-0.4-0.3-0.6-0.5c-0.1-0.1-0.2-0.2-0.3-0.2c-0.1-0.1-0.1-0.2-0.1-0.2l0-0.1
					c-0.1-0.1-0.2-0.1-0.2-0.2l-0.1-0.1c0,0-0.1,0-0.1,0l0,0c0,0,0,0,0,0.1c0,0,0,0,0,0.1c0,0,0,0,0,0c0-0.1,0,0,0,0
					c0,0,0-0.1-0.1-0.1c0-0.1-0.1-0.2-0.2-0.3c-0.1,0-0.3-0.1-0.4-0.1c0-0.1-0.2-0.3-0.4-0.4c-0.2-0.1-0.4-0.1-0.5-0.2
					c-0.1,0-0.1-0.2-0.2-0.3c-0.2-0.1-0.3-0.1-0.4-0.2c-0.2-0.2-0.5-0.4-0.8-0.5l0.1,0.1c0-0.2,0-0.4-0.2-0.5
					c-0.4-0.1-0.6-0.3-0.9-0.7c-0.2,0-0.3,0-0.5-0.1c-0.1-0.1-0.2-0.1-0.3-0.2l0,0.1c0-0.1-0.1-0.3-0.2-0.3c-0.1,0-0.2-0.1-0.3-0.1
					c-0.2,0-0.4,0-0.6,0.1c-0.1,0.1-0.2,0.2-0.2,0.3c0,0-0.1,0.1-0.1,0.1c-0.1,0-0.4,0-0.5,0.2c-0.1,0.1-0.1,0.2-0.2,0.2
					c0,0.1,0,0.1,0,0.2c0,0-0.1,0-0.1,0c-0.1,0-0.2,0-0.3,0c-0.1,0.3-0.2,0.3-0.4,0.4c-0.2,0.1-0.3,0.1-0.5,0.2
					c-0.2,0.1-0.3,0.3-0.4,0.4c-0.1,0.1-0.3,0.1-0.4,0.2h0.1c0,0-0.1,0-0.1,0l-0.1,0l-0.1,0.1c-0.1,0.1-0.1,0.1-0.1,0.2
					c0,0,0,0-0.1,0c-0.1,0-0.2,0.1-0.2,0.1c-0.1,0.1-0.1,0.2-0.2,0.3c-0.1,0.1-0.2,0.1-0.2,0.1c-0.1,0-0.3,0-0.4,0l-0.1,0l0,0.1
					c0,0.1,0,0.1,0,0.3l0.1-0.1c-0.2,0.1-0.4,0.1-0.6,0.1c-0.2,0-0.5,0.1-0.6,0.4l0.1-0.1l-0.1,0l0.1,0.1c-0.1-0.1-0.2-0.2-0.3-0.2
					l0,0l-0.1-0.1l-0.1,0.1l0,0.1l0,0c-0.1,0.1-0.2,0-0.4,0.1c-0.2,0-0.3,0.1-0.4,0.1c-0.1,0.1-0.3,0.1-0.5,0.3
					c-0.1,0.1-0.3,0.1-0.4,0.1c-0.2,0-0.4,0-0.6,0.1c-0.3,0.2-0.6,0.4-0.9,0.4l0.1,0.1c0-0.1-0.1-0.1-0.1-0.1l0,0
					c-0.1,0-0.1,0-0.2,0c-0.1,0-0.1,0.1-0.1,0.1l0,0l0,0c0,0-0.2,0-0.3-0.1c-0.1,0.1-0.2,0.2-0.2,0.3c0-0.1-0.1-0.2-0.2-0.2l0,0
					c-0.3,0-0.5,0.1-0.7,0.2c-0.2,0-0.5,0-0.9-0.1c-0.2,0.1-0.5,0.1-0.7,0.2c-0.2-0.1-0.6-0.2-0.9-0.1c-0.1,0-0.1,0-0.2,0.1l0.2,0
					c-0.3-0.2-0.6-0.1-0.8-0.1c-0.2,0.1-0.4,0.1-0.6,0.2c-0.1,0-0.1,0.1-0.2,0c-0.1,0-0.2-0.1-0.3-0.1c-0.2,0-0.4,0-0.6,0
					c-0.2,0-0.3,0-0.4,0c-0.1,0-0.2,0-0.4-0.1l0,0l0,0l0,0c-0.1,0-0.2,0-0.3-0.1c0,0-0.1,0-0.1,0c0,0-0.1,0-0.1,0.1
					c-0.1,0-0.1,0.1-0.2,0.1l-0.2,0c-0.1,0-0.3,0-0.4-0.1c-0.1,0-0.2,0-0.4-0.1l-0.2,0c0,0-0.1-0.1-0.1-0.1c0,0-0.1-0.1-0.1-0.3
					c0,0-0.1,0.1-0.1,0.1l0,0c0,0,0-0.1,0,0c0,0.1-0.1,0.2-0.1,0.3l0,0c0,0.1-0.1,0.1-0.1,0.1l0,0c0-0.1-0.1-0.1-0.1-0.2l0-0.2
					l-0.1,0.1c-0.1,0.1-0.2,0.2-0.2,0.2l0,0c0,0,0,0,0,0c0,0,0,0-0.1,0c0,0-0.1-0.1-0.1-0.1c0,0,0-0.2,0-0.1c0,0.1-0.1,0.1-0.1,0.2
					c0,0-0.1,0-0.2,0.1l0.1,0c0,0-0.1-0.1-0.1-0.3c-0.1,0,0-0.2-0.1-0.1c-0.1,0-0.2,0.1-0.3,0.1c-0.1,0-0.1,0-0.1,0.1
					c0,0,0-0.1,0-0.1c0,0,0,0,0,0c0-0.1,0-0.1,0-0.1c0,0,0,0,0,0c0,0,0,0-0.1,0c0,0,0,0-0.1,0.1l0,0.1c0,0,0,0-0.1,0
					c0,0.1-0.1,0.1-0.1,0.1c0,0,0,0,0,0c0,0,0,0,0,0l0,0c-0.1-0.1,0-0.2,0-0.2c-0.1,0.1-0.2,0.1-0.3,0c0,0,0,0-0.1,0l0.1,0l-0.2-0.2
					l-0.1-0.1l-0.1,0l-0.2,0.1l0.1,0c-0.1-0.1-0.2-0.2-0.4-0.2c-0.1,0-0.2,0-0.3,0c-0.2,0-0.4-0.1-0.6-0.2c-0.2,0-0.4,0-0.4-0.1
					c0,0,0-0.1,0-0.1c0,0,0-0.1-0.2-0.2c-0.2-0.1-0.4,0-0.5,0l0.2,0.1l0-0.1l0-0.1l-0.1,0c-0.1,0-0.2,0-0.4-0.1
					c-0.1,0-0.2-0.1-0.4-0.2l-0.2,0.1l0,0c-0.1,0-0.1,0-0.1,0l0,0c0,0,0-0.1,0-0.1c0-0.1,0-0.1,0-0.2c-0.1,0-0.3,0-0.3-0.1
					c0,0-0.2-0.1-0.3-0.2c-0.1,0-0.2,0.1-0.2,0.1c-0.1,0-0.1,0-0.1,0l0.1,0.1c0,0-0.1-0.1-0.1-0.1l0-0.1l-0.1,0l-0.1,0
					c-0.3-0.1-1-0.5-1.4-0.6c0,0-0.1,0-0.1,0c0,0,0,0,0,0c0,0-0.1-0.1-0.2-0.2c-0.2-0.1-0.3-0.1-0.3-0.1c0,0-0.1,0-0.1-0.1
					c0,0,0,0-0.1-0.1c0,0-0.1-0.1-0.1-0.2c-0.1,0-0.2,0-0.3-0.1l-0.2,0c-0.1,0-0.2-0.1-0.3-0.1c-0.2-0.1-0.4-0.3-0.6-0.5
					c-0.2-0.2-0.4-0.4-0.8-0.6c-0.1,0-0.1-0.1-0.2-0.1l-0.2,0l-0.2,0l-0.3,0c-0.1,0-0.1,0-0.2,0l-0.1,0.1l0,0l0,0
					c0,0.1,0,0.1-0.1,0.1c0,0,0,0-0.1,0c-0.1,0-0.1,0.1-0.2,0.1c-0.1,0-0.2,0.1-0.3,0.2c-0.1,0.1,0,0.1-0.1,0.1c0,0-0.5,0.2-0.5,0.2
					c0,0,0,0,0,0c0,0-0.1,0-0.2,0c-0.1,0-0.1,0-0.2,0.1c0,0-0.1,0.1-0.2,0.3l0-0.1c-0.1,0.2-0.6,0.5-1.1,0.7l0,0l0,0
					c0,0-0.1,0.1-0.1,0.1c0,0.1-0.2,0.2-0.8,0.3c-0.1,0.2-0.2,0.3-0.3,0.4c-0.1,0.1-0.2,0.2-0.4,0.3c-0.3,0.2-0.6,0.4-1,0.7
					c-0.4,0.3-0.6,0.7-0.8,1c-0.1,0.2-0.2,0.3-0.3,0.4c-0.1,0.1-0.1,0.1-0.2,0.1c-0.1,0-0.2,0.1-0.4,0.1l0,0.1c0,0,0,0,0,0.1l0,0.1
					c0,0,0.1,0,0.1,0c0,0,0,0,0,0c-0.1-0.1-0.2-0.1-0.1-0.3c0,0,0,0,0.1,0c0.1-0.1,0.1-0.1,0.2-0.2c0.1-0.2,0.1-0.3,0.1-0.4
					c0.1-0.3,0.1-0.2,0.2-0.3l0.2-0.1l0.1-0.1c0.1-0.1,0.1-0.4-0.1-0.6l0,0.4c0.2-0.3,0.3-0.6,0.6-0.7c0.1-0.1,0.1-0.1,0.2-0.1
					c0,0,0.1-0.1,0.2-0.2c0,0,0,0,0,0c0,0,0.1-0.1,0.2-0.1c0,0,0.2-0.1,0.2-0.3c0,0,0,0,0,0c0,0,0,0,0.2-0.1
					c0.1-0.1,0.2-0.2,0.3-0.3c0.1-0.1,0.1-0.2,0.2-0.2c0,0,0,0,0.1-0.1l0.3-0.1c0-0.1,0-0.3,0-0.4c0,0,0-0.1,0-0.1
					c0-0.1,0.1-0.1,0.1-0.1l-0.3-0.1c0.2,0.2,0.4,0.2,0.6,0l-0.1,0.1c0.3-0.2,0.2-0.3,0.2-0.3c0,0,0,0,0,0c0,0,0,0,0.1,0
					c0.1,0,0.1,0,0.2-0.1c0.1,0,0.2-0.2,0.3-0.3c0,0,0,0,0,0l0,0c0,0,0,0,0.1,0c0.1,0,0.1-0.1,0.2-0.1c0.1-0.1,0.2-0.2,0.2-0.3
					c0,0,0,0,0,0c0,0,0.3-0.2,0.4-0.3c0.1,0,0.1-0.1,0.2-0.1c0,0,0,0,0.1,0c0,0,0.1,0,0.2-0.1c0,0,0.1-0.1,0.1-0.1c0,0,0,0,0,0
					c0,0,0,0,0.1,0c0.1,0,0.3,0,0.4-0.1c0.1-0.1,0.1-0.1,0.2-0.2c0-0.1,0.1-0.1,0.1-0.2c0-0.1,0.1-0.1,0.1-0.2c0-0.1,0-0.1,0-0.2
					c0-0.2-0.2-0.3-0.3-0.4c-0.2-0.1-0.2,0-0.3-0.1l-0.1,0l0,0c0,0,0,0.1,0,0.1l0.1-0.1c-0.1,0-0.1-0.1-0.2-0.1l-0.3-0.1l0.3,0.4
					l0-0.1l-0.1,0.2l0.1-0.2l0.2-0.3l-0.3-0.2c-0.1,0-0.1-0.1-0.2-0.2c0-0.1-0.1-0.1-0.1-0.5c-0.3-0.1-0.5-0.3-0.8-0.4l0.2,0.3
					l0-0.1l-0.2,0.3l0.2-0.1l0.5-0.3l-0.4-0.3c-0.1-0.1-0.3-0.3-0.6-0.3l0.4,0.4l0-0.1l-0.2,0.4c0.4-0.2,0.7-0.2,1.2,0l0.2,0.1
					l-0.3-0.4l0,0.1l0,0.2l0.1,0.1c0.1,0.1,0.3,0.2,0.5,0.3l0.1,0l0.1,0l0,0l0,0h0h0l0,0l0-0.4l0,0l0,0c0,0,0,0,0,0l0,0l-0.3,0.2
					l0,0l0,0l0,0l0,0l0,0c0,0.1,0.1,0.2,0.2,0.2c0.3,0.1,0.6,0.3,0.9,0.4l0.2,0.1c0,0,0,0,0,0l0.1,0c0.1,0.1,0.2,0.1,0.3,0.2
					c0,0,0.1,0,0.4,0.2c2,1.3,5,2.4,5.6,2.5c0.9,0.3,0.5,0.2,1.4,0.4c0.3,0.1,0.2,0.1,0.4,0.1c2.3,0.7,5.3,0.9,6.6,0.9
					c0.8,0,1.4,0.1,2.4,0c0.9,0,2.4-0.2,3.2-0.3c2.1-0.4,2.8-0.7,3.4-1c1.6-0.6,2.6-1.3,3.3-2.1c0.2-0.2,0.3-0.3,0.4-0.5
					c0.1-0.2,0.2-0.3,0.3-0.5c0.1-0.2,0.2-0.3,0.2-0.5c0-0.1-0.1-0.1,0-0.2c-0.8,0.4-1.1,0.6-1.6,0.7c-1.2,0.4-2.6,0.5-3.4,0.5
					c-0.5,0-1,0.1-1.7,0.1c-0.6,0-1.7-0.1-2.4-0.2c-0.7-0.1-2.4-0.1-3.2,0c-0.7,0.1-1.1,0.1-1.8,0.2c-1.2,0.2-2,0.5-2.9,1
					c-0.1,0.1-0.2,0.1-0.4,0.3l0,0c-0.1-0.2,0.2-0.5,0.4-0.7c0.1-0.1-0.1,0.1-0.1,0.1c0.2-0.2,0.3-0.2,0.7-0.4
					c0.3-0.2,1.3-0.7,1.2-0.6c0.9-0.4,1.5-0.6,1.8-0.7c1-0.3,1-0.3,1.9-0.5c0.3,0,0.6,0.1,0.8,0.1c0.2,0,0.4-0.1,0.6-0.1
					c0,0,0.3,0,0.7-0.1c0.4,0,0.8-0.1,1-0.1c0.4,0,0.5,0,0.9-0.1c0.3,0,0.3,0,0.3,0c0.3,0,0.6,0,1,0l0.1-0.3
					c-2.3-0.8-5.3-0.9-6.8-0.9c-0.2,0-0.2,0-0.6,0c-1.6,0.1-2.9,0.3-4.3,0.5c-0.2,0-0.4,0.1-0.6,0.1c-0.4,0.1-1.6,0.3-1.9,0.4
					c-1.4,0.3-1.6,0.4-2.9,0.8c-0.3,0.1-0.6,0.2-0.7,0.2c-1.5,0.4-2.8,0.6-3.9,0.1l-0.1-0.1l0,0.1c0.1,0,0.1,0,0.2,0l0,0
					c0.2-0.2,0.4-0.3,0.6-0.3c0.1,0,0.2,0,0.3-0.1c0.1,0,0.1-0.1,0.2-0.1c0.3-0.2,0.6-0.2,1-0.2c0.1-0.3,0.3-0.4,0.5-0.5
					c0.1,0,0.4,0.1,0.6,0.1c0.1,0,0.2,0,0.3-0.1c0.1-0.1,0.1-0.2,0.1-0.3c0.2-0.2,0.5-0.2,0.8-0.4c0.2-0.1,0.3-0.2,0.4-0.2
					c0.1,0,0.3,0,0.4,0c0.2,0,0.3,0.1,0.6,0.1c0.2-0.1,0.4-0.1,0.5-0.3c0.3-0.2,0.5-0.3,0.9-0.3c0.4,0,0.8-0.3,1.2-0.3l0.1,0
					c0,0,0.1,0,0.1,0c0.4-0.1,0.8-0.3,1.1-0.4c0.4-0.1,0.8-0.1,1.1,0c0.1,0,0.1,0,0.2,0c0,0,0.1,0,0.3,0c-0.1,0,0.1,0,0.2-0.1
					c0.1-0.1,0.3-0.2,0.4-0.2c0.1-0.1,0.2-0.1,0.3-0.1c0.1,0,0.3,0,0.4,0c0.3,0,0.7,0,1,0c0.7,0,1.4,0.1,2.1,0.3l-0.1-0.1l0,0.2
					l0,0.2l0.2-0.1l0.1,0l-0.1-0.1l0,0.2l0,0.1l0.1,0l0.3,0c0.1,0,0.3,0,0.4-0.1c0.2-0.1,0.3-0.1,0.5-0.2c0.2,0,0.3-0.1,0.4,0
					c0.1,0.1,0.3,0.2,0.4,0.3c0.1-0.1,0.1-0.1,0.2-0.2c0.1,0,0.1,0,0.2,0c0.1,0,0.2,0,0.3,0c0.2,0,0.4,0.1,0.7,0.1l0.1-0.1
					c0,0,0,0,0,0c0,0,0,0,0,0l0,0c0,0,0,0,0.1,0c0.1-0.1,0.2-0.2,0.4-0.2c0.1,0,0.2,0,0.4,0.1c0.1,0,0.2,0.1,0.3,0.2
					c0.1,0.1,0.3,0.1,0.3,0.1c0,0,0.1,0.1,0.1,0.1l0,0l0.1,0c0.1,0,0.2-0.1,0.3-0.1c0.2,0,0.3,0,0.5,0c0.1,0,0.2,0,0.2,0.1
					c0,0,0.1,0.1,0.2,0.2l0.1-0.1c0,0,0,0,0,0l0,0l0,0c0,0,0-0.1,0-0.1l0,0.1c0.2-0.2,0.5-0.2,0.6,0c0,0.1,0.1,0.2,0.2,0.2
					c0.1,0.1,0.2,0.1,0.3,0c0.1,0,0.1,0.1,0.2,0.2l0,0l0,0l0.2-0.1l0.2,0.1l0.1,0.2l0,0.1l0.1,0c0.3-0.1,0.6-0.2,0.8,0.2
					c0.2,0,0.4-0.2,0.5-0.3c0.2-0.1,0.3-0.1,0.5,0l0,0c0.1,0.1,0.2,0.1,0.3,0.2c0.3,0.1,0.5,0.3,0.9,0.3c0.2,0,0.3,0,0.5,0.1l0.3,0
					c0.1,0,0.1-0.1,0.2-0.2c0.5-0.6,0.7-1.4,0.6-2.2c0-0.4-0.1-0.8-0.2-1.2c-0.1-0.4-0.2-0.8-0.4-1.2c-0.4-0.7-1-1.3-1.4-2
					c0,0,0-0.1-0.1-0.1c0,0-0.1,0-0.1,0c-0.2,0-0.3-0.2-0.3-0.4c-0.2-0.2-0.5-0.2-0.7-0.3c-0.3-0.2-0.4-0.2-0.4-0.5
					c-0.1,0-0.2,0-0.3-0.1c-0.6-0.2-1.1-0.5-1.6-1c-0.3-0.1-0.6-0.2-0.9-0.4c-0.2-0.1-0.3-0.2-0.5-0.2c-0.2-0.1-0.4-0.1-0.5-0.2
					l-0.1-0.1c-0.1,0-0.1,0-0.2,0l-0.1-0.2l0,0l0,0c-0.1,0-0.2,0-0.4-0.2c-0.7,0-1.6-0.3-2.3-0.5c-2.1-0.6-4.7-0.7-7-0.6
					c-0.8,0.3-1.5,0.5-2.2,0.7c-0.5,0.1-1,0.1-1.4-0.2l0,0.1l0-0.3c-0.1-0.1-0.1-0.2-0.2-0.3c0-0.1-0.1-0.2-0.1-0.2
					c0-0.1,0-0.1,0.1-0.2c0-0.1,0.1-0.2,0.1-0.2l-0.1-0.2c0-0.1,0-0.1,0.1-0.2c0.1-0.1,0.2-0.2,0.3-0.3c0.1,0,0.3,0,0.5-0.2
					c0.1-0.1,0.3-0.2,0.4-0.4c0.1-0.1,0.1-0.1,0.1-0.1l0.2-0.1l0.4-0.2c0.3-0.1,0.6-0.2,0.9-0.3c1.2-0.4,2.4-0.7,3.6-0.6
					c0.2,0,0.4,0,0.6,0.1c0.2,0,0.4,0.1,0.7,0.2l0.3-0.2c0.1-0.1,0.1,0,0.2,0l0.6,0c0.4,0,0.8,0,1.2,0c0.5,0,0.9,0,1.4,0.1
					c0.2,0.1,0.5,0.1,0.7,0.2c0.1,0,0.2,0,0.4,0c0.1,0,0.1,0,0.2,0l0.1,0c0,0.1,0.3,0.2,0.4,0.3c0.1,0,0.2,0.1,0.2,0.1
					c0.1,0,0.1,0.1,0.2,0.2c0.2,0,0.5,0,0.7,0l0.2,0c0,0,0.1,0,0.1,0l0.3,0.2c0.2,0.1,0.5,0.2,0.7,0.4l0.4,0.2
					c0.1,0,0.2,0.1,0.2,0.1c0.1,0,0.2-0.1,0.2,0c0.2,0,0.5,0,0.7,0.1c0.7,0.3,1.5,0.8,2,1.2c0,0,0.1,0.2,0.2,0.3
					c0.1,0,0.1,0.1,0.2,0.1c0,0,0.1,0,0.1,0c0.1,0.2,0.3,0.4,0.4,0.5l0.2,0c0,0,0.1,0,0.1,0c0.1,0,0.1,0,0.2,0.1
					c0.1,0.1,0.2,0.1,0.3,0.4c0.1,0,0.1,0,0.2,0.1c0,0,0.1,0,0.1,0.1c0.1,0,0.1,0.1,0.2,0.1c0,0,0,0.1,0.1,0.3
					c0,0.1,0.1,0.2,0.1,0.3c0.1,0.2,0.2,0.3,0.3,0.5c0.1,0.2,0.2,0.2,0.2,0.5c0.1,0,0.2,0.1,0.2,0.1c0,0,0.1,0,0.1,0.1
					c0.1,0.1,0.1,0.1,0.2,0.2c0,0.1,0,0.2,0.1,0.3c0,0.1,0.1,0.3,0.2,0.4c0,0.1,0.1,0.1,0.2,0.2l0.2,0.1c0.3,0.1,0.4,0.3,0.3,0.4
					l-0.1,0.1l0.2,0.1c0.8,0.6,0.4,1.9,1,2.7c-0.1,0.1-0.1,0.7-0.1,0.8c0,0.1-0.1,0.1-0.1,0.2c0.1,0.5,0.1,0.7,0,1.2
					c0,0.1,0.1,0.2,0.1,0.3c0,0,0,0,0,0c-0.1,0.1-0.1,0.5-0.1,0.6l-0.1,0.1c0,0.1,0,0.1,0,0.2c0,0.1,0,0.3,0,0.4
					c-0.1,0.1-0.2,0.3-0.3,0.5c-0.1,0.2-0.1,0.5,0,0.7c-0.2,0.5,0,1.1,0.3,1.5c0.1,0.1-0.1-0.1,0.2,0.2l0,0c0.3,0.4,0.7,0.8,1.2,1
					c0.1,0.1,0.2,0.1,0.4,0.2c0.1,0,0.2,0.1,0.3,0.2c0.2,0.2,0.5,0.2,0.5,0.5l0.5,0.5c0.1,0.1,0.1,0.1,0.1,0.3l0.1,0.3
					c0.1,0.1,0.3,0.2,0.3,0.3c0,0.1,0.1,0.3,0,0.4l0,0.1l0.1,0c0.1,0,0.3-0.1,0.4-0.1l0.1,0.1c0,0.1,0.1,0.3,0.1,0.3
					c0.1,0,0.2,0.1,0.3,0.1c0.1,0-0.1-0.1-0.3-0.1c-0.1-0.2-0.1-0.3-0.1-0.1c0,0,0,0.1,0,0.1c0,0,0.1,0,0.1,0c0.1,0,0.1,0,0.2,0.1
					c0.1,0.1,0.2,0.2,0.3,0.2c-0.1,0-0.4-0.3,0,0c0.2,0.1,0.3,0.2,0.5,0.3c0.2,0.1,0.3,0.4,0.5,0.6l0,0c-0.1,0.2,0.1,0.3,0.2,0.3
					l0,0c0,0,0,0-0.1,0.1c0,0-0.1,0-0.1,0.1l0,0l0,0c0.2,0,0.4,0.2,0.4,0.2c-0.1-0.1-0.2-0.2-0.4-0.2l0,0c0,0,0.1-0.1,0.2-0.1l0,0
					l0,0c-0.1,0-0.3-0.1-0.2-0.3l0,0l0,0c-0.3-0.2-0.4-0.6-0.8-0.8c-0.2-0.1-0.3-0.2-0.5-0.3c-0.1-0.1-0.2-0.1-0.3-0.1
					c0-0.1-0.1-0.2-0.1-0.3c0-0.1,0-0.1-0.1-0.2c-0.1,0-0.3,0.1-0.4,0.1l0,0c0-0.1,0-0.3,0-0.4c-0.1-0.1-0.2-0.2-0.3-0.3l-0.1-0.3
					l0-0.2c0-0.1-0.1-0.1-0.1-0.1l-0.5-0.5c0-0.2-0.2-0.3-0.4-0.4c-0.2-0.1-0.3-0.3-0.5-0.3c-0.4-0.1-0.7-0.4-1-0.7
					c-0.6-0.5-1.1-1.3-0.8-2.1c0-0.2-0.1-0.4,0-0.6c0.1-0.2,0.2-0.4,0.3-0.5c-0.1-0.2-0.1-0.5,0-0.6c0.3-0.2-0.2,0.1,0.1-0.1
					c0,0,0-0.1,0-0.1c0-0.2,0,0,0,0c0-0.2,0-0.4,0.1-0.5c0-0.1-0.1-0.2-0.1-0.3c0.2-0.4,0.2-0.7,0-1.1l0.1-0.2
					c-0.1-0.3,0-0.6,0.1-0.9c-0.6-0.8-0.1-2.1-1-2.7l-0.1,0l0,0c0.1-0.1,0.1-0.2,0-0.4c-0.1-0.1-0.3-0.2-0.4-0.2
					c-0.3-0.2-0.4-0.6-0.4-0.9c-0.1-0.2-0.3-0.3-0.5-0.4c-0.1-0.4-0.4-0.6-0.6-1c-0.1-0.2-0.2-0.4-0.2-0.5c-0.1-0.1-0.2-0.2-0.5-0.3
					c-0.1-0.4-0.4-0.5-0.8-0.5l-0.4-0.5l-0.1-0.1c0,0-0.1,0-0.1,0c-0.1,0-0.2-0.1-0.3-0.2c-0.1-0.1-0.1-0.2-0.1-0.2
					c-0.8-0.6-1.7-1.3-2.7-1.4c-0.1,0-0.2,0-0.4,0l-0.4-0.2l-0.7-0.4l-0.3-0.2c-0.1-0.1-0.2-0.1-0.3-0.1l-0.8,0
					c-0.2-0.2-0.3-0.2-0.5-0.3c-0.2-0.1-0.3-0.2-0.4-0.3c-0.4,0.1-0.9,0-1.3-0.1c-0.4-0.1-0.8-0.1-1.3-0.1l-1.3,0l-0.6,0l-0.3,0
					c-0.1,0-0.1,0.1-0.2,0.2c0,0-0.1,0-0.1,0.1c-1.3-0.4-2.7-0.3-4,0.1c-0.7,0.2-1.3,0.4-1.9,0.7c-0.3,0.1-0.6,0.2-0.8,0.5
					c-0.1,0.1-0.2,0.2-0.4,0.3c-0.1,0.1-0.3,0-0.4,0.1c-0.2,0.2-0.5,0.4-0.2,0.7c-0.1,0.1-0.2,0.3-0.2,0.4c0,0.2,0.1,0.3,0.2,0.5
					l0,0.3l0,0c0.5,0.3,1.2,0.3,1.8,0.1c0.6-0.1,1.2-0.4,1.8-0.6c0.6,0.2,1.3-0.1,1.9,0c0.6,0,1.1,0,1.6,0.1
					c0.4,0.1,0.7,0.1,1.1,0.2c0.2,0,0.4,0.1,0.6,0.1c0.1,0,0.3,0,0.4,0c0.1,0,0.2,0,0.2,0c0.1,0,0.1,0,0.2,0c0,0,0.1,0.2,0.3,0.2
					l0.4,0.1c0.3,0.1,0.5,0.1,0.8,0.2c0.5,0.2,1.3,0.3,1.8,0.3c0,0.1,0.3,0.2,0.4,0.2l-0.1,0c0,0.1,0.1,0.2,0.1,0.2
					c0.1,0,0.1,0,0.2,0l0.1,0l0.2,0.2c0.1,0.1,0.2,0.1,0.3,0.1c0.2,0.1,0.3,0.2,0.5,0.2c0.3,0.2,0.7,0.3,1,0.4
					c0.4,0.5,1.1,0.8,1.6,1c0.1,0,0.2,0,0.2,0.1c0,0.1,0.1,0.2,0.2,0.3c0.1,0.1,0.2,0.2,0.3,0.2c0.2,0.1,0.5,0.2,0.6,0.3
					c0,0.2,0.2,0.4,0.4,0.4c0,0,0.1,0,0.1,0c0,0,0,0.1,0.1,0.1c0.7,1,1.6,1.8,1.8,3.1c0.2,1,0.3,2-0.2,2.9c-0.1,0.2-0.3,0.4-0.4,0.6
					c-0.2,0-0.4,0-0.7-0.1l-0.4-0.1c-0.1,0-0.2-0.1-0.3-0.1l-0.6-0.3l0,0c-0.2-0.1-0.4-0.2-0.6,0c-0.2,0.1-0.3,0.3-0.5,0.2
					c0,0,0-0.1-0.1-0.1c-0.2-0.2-0.6-0.2-0.8,0l0.1,0c0-0.1-0.1-0.2-0.1-0.3c-0.1,0-0.2-0.1-0.3-0.1c-0.1,0-0.1,0.1-0.2,0.1l0,0
					c-0.1-0.1-0.1-0.2-0.2-0.2c-0.2,0.1-0.4,0-0.4-0.2c-0.2-0.2-0.6-0.2-0.8,0l0,0l0,0c0,0,0,0,0,0.1l0,0c-0.1-0.2-0.4-0.3-0.6-0.3
					c-0.2,0-0.5,0-0.7,0.1l0,0l-0.1-0.1l-0.1-0.1c-0.1,0-0.2,0-0.3-0.1c-0.1-0.1-0.2-0.2-0.3-0.2c-0.3-0.1-0.6,0-0.8,0.2
					c0,0-0.1,0-0.1,0.1l0,0c-0.3,0-0.6-0.1-0.9-0.1c-0.1,0-0.4,0-0.5,0.2c-0.1,0-0.2-0.2-0.4-0.2c-0.2,0-0.3,0-0.5,0
					c-0.2,0-0.4,0.1-0.5,0.2c-0.1,0.1-0.4,0-0.6,0.1l0,0l0-0.2l0,0l0,0l-0.1,0l0,0l0-0.2l0,0l0,0c-0.5-0.2-1.1-0.3-1.7-0.3
					c-0.3,0-0.6,0-0.8,0c-0.3,0-0.5,0-0.8,0c0,0-0.1,0-0.4,0c-0.2,0-0.5,0.3-0.8,0.4c-0.2,0.1-0.4-0.1-0.6-0.1c-0.2,0-0.5,0-0.7,0
					c-0.2,0-0.5,0.1-0.7,0.2c-0.2,0.1-0.5,0.2-0.7,0.3c0,0-0.1,0-0.1,0c0,0-0.1,0-0.1,0c-0.1,0-0.2,0-0.3,0
					c-0.4,0.1-0.7,0.3-1.4,0.3c-0.3,0-0.5,0.3-0.8,0.4c-0.3,0.2-0.6,0-0.9-0.1c-0.1,0-0.3,0-0.4,0c-0.1,0.1-0.2,0.2-0.4,0.2
					c-0.3,0.1-0.6,0.2-0.8,0.4c-0.1,0.1-0.1,0.2-0.2,0.3c-0.1,0.1-0.2,0-0.3,0c-0.1,0-0.2,0-0.4-0.1c-0.2,0-0.5,0.3-0.6,0.5
					c-0.2,0-0.5,0-0.7,0.1c-0.2,0.1-0.4,0.2-0.5,0.3c-0.2,0-0.4,0.1-0.7,0.2c-0.1,0-0.2,0.1-0.3,0.2l0,0c0-0.1,0,0-0.1,0l-0.1,0.2
					l0,0c0.5,0.2,1,0.4,1.7,0.4c0.6,0,1.4-0.2,1.7-0.2c1.2-0.3,2.5-0.7,3.9-1.1c0.8-0.2,1.4-0.3,2.5-0.5c0.3,0,0.4-0.1,0.7-0.1
					c1.7-0.2,2.9-0.3,3.9-0.4c1.1,0,1.7,0,2.3,0c0.6,0,1.3,0,2.5,0.2c-0.1,0,0.3,0.1,0.4,0.1c-0.3,0,0.3,0.1,0.3,0.2
					c0.1,0.1,0.1,0.2,0.3,0.3c0.3,0.1,0.6,0.1,0.9,0.2c-1-0.3-0.2,0-0.3,0c0.2,0.1,0.4,0.1,0.6,0.2l0.1-0.7l-0.7,0
					c-0.9,0-1.4,0.1-2.2,0.1c-0.8,0.1-1.6,0.2-2.5,0.4c-1.6,0.4-3.1,0.9-3.6,1.2c-0.2,0.1-0.3,0.1-0.4,0.2c-0.5,0.3-1.6,0.7-2,1.3
					c0,0.1-0.2,0.2-0.1,0.6l0.1,0.3l0.3-0.2c0.2-0.2,0.6-0.4,0.7-0.4c0.8-0.3,1.2-0.5,1.7-0.6c0.5-0.1,0.9-0.2,1.9-0.4
					c0.2,0-0.3,0.2-0.2,0.2c1-0.1,1.5-0.1,2.9-0.1c0.9,0,1.7,0.1,2.7,0.1c0.6,0,1,0,1.5,0c0.5,0,0.9,0,1.3,0c0.4,0,0.2,0,0.2,0
					c0.6,0,1.7-0.1,2.6-0.3c0.6-0.1,0.5-0.1,0.7-0.2l0.1,0c0,0,0,0.1,0,0.1c0,0.1-0.1,0.1-0.1,0.2c0,0-0.2,0.2-0.4,0.4
					c-0.2,0.2-0.4,0.3-0.6,0.5c-0.7,0.5-1.6,0.9-2.4,1.2c-0.1,0-0.6,0.2-0.9,0.3c-0.3,0-1,0.3-1.9,0.4c-0.4,0.1-0.9,0.1-1.3,0.2
					c-0.4,0-0.8,0.1-1.2,0.1c-1.2,0.1-1.8,0.1-2.2,0.1c-0.4,0-0.7,0-1.4,0c-0.2,0,0.3,0,0.1,0c-0.3,0,0.1,0-0.3,0
					c-0.3,0-0.1,0-0.7,0c-0.1,0-0.8-0.1-0.7-0.1c-0.7-0.1-1.8-0.2-2.5-0.4c-0.4-0.1-1.3-0.3-2-0.4c-1.2-0.3-2.7-0.8-4.7-1.6
					c-0.4-0.2-0.6-0.3-1-0.5c-0.6-0.3-1.3-0.7-1.8-1c-0.3-0.2-0.5-0.4-0.9-0.6c-0.3-0.1-0.6-0.3-0.9-0.4c0,0,0,0-0.1-0.1
					c0,0-0.1-0.1-0.1-0.1l0,0l0,0l-0.1,0c-0.1,0-0.1,0-0.2-0.1l0.1,0.1l0-0.1l0-0.1l-0.1,0c-0.3-0.1-0.5-0.2-0.8-0.2
					c-0.2-0.1-0.5-0.1-1,0.1l-0.1,0.1l0,0.2l0,0.1l0,0.3l0.2-0.1c0,0,0.1,0,0.1,0.1l0.1-0.4L108,89l-0.1,0.1l0,0.1l0,0.1l0,0.2
					l0.1,0.1c0.2,0.1,0.4,0.2,0.5,0.3c0,0,0,0,0,0.1c0.1,0.2,0.2,0.5,0.5,0.6l-0.1-0.4l-0.1,0.2l-0.1,0.1l0,0.1l0,0.1l0,0.2l0.2,0.1
					l0.3,0.1l0.1,0c0.1,0,0.2,0,0.2,0l0.1,0l0,0l0,0l0-0.1c0-0.1,0.1-0.1,0-0.1c0,0-0.1,0-0.1,0c-0.1,0,0,0,0,0c0,0,0,0.1,0,0.1
					c-0.1,0.2-0.1,0.2-0.2,0.2c-0.1,0-0.5,0-0.5,0.2c0,0,0,0.1,0,0.1l0,0l0,0l0,0c-0.1-0.1,0.2,0.1,0.1,0.1l0,0l0,0l0,0l0,0
					c0,0,0-0.1-0.1-0.1c0,0-0.2,0-0.2,0.1c-0.2,0.1-0.4,0.2-0.6,0.3c-0.1,0-0.1,0.1-0.2,0.2c-0.1,0.1-0.2,0.3-0.1,0.3c0.1,0,0,0,0,0
					c0,0,0,0,0,0l0,0l0,0l0,0l0-0.1l0,0l0,0l0,0c0,0,0,0,0,0c-0.1,0-0.2,0-0.3,0.1c-0.1,0-0.1,0.1-0.1,0.2c0,0,0,0.1,0,0.1l0,0.1
					c0,0,0,0,0,0l0,0l0,0l0,0c0.1,0-0.2,0,0.2,0l0,0l0,0l0,0c0,0,0,0-0.1,0c0,0,0,0,0-0.1c0,0,0,0,0,0c0,0-0.1,0-0.1,0
					c-0.1,0-0.3,0-0.4,0.2c-0.1,0.1-0.1,0.1-0.1,0.2l0,0.1c0,0,0.1,0.1,0.1,0.1c0,0,0,0,0.1,0.1l0.1,0.2l-0.1-0.2c0-0.1,0-0.1,0,0
					l-0.1-0.2c-0.1,0-0.2,0.1-0.3,0.1C105.7,93.7,106.3,93,106.1,93.3z M125.5,89.7c0.1,0-0.3,0.1-0.3,0.1c-0.2,0.1-0.2,0.1-0.2,0.1
					C125.1,89.9,125.3,89.8,125.5,89.7z M124.6,90c0.3-0.1,0.4-0.1,0.3-0.1L124.6,90L124.6,90z M122.3,92.1
					c-0.1,0.1-0.2,0.1-0.2,0.2l-0.2,0.2l-0.1-0.2c-0.1-0.2,0-0.2,0-0.2c0,0.1,0,0.1,0,0.2l0.1,0.2l0.2-0.2
					C122.2,92.2,122.3,92.1,122.3,92.1z M127.4,91c-0.3,0-0.6,0.1-0.6,0C127,91,127.3,91,127.4,91z M120.6,96.5
					C120.5,96.5,120.6,96.6,120.6,96.5L120.6,96.5l0.1,0.1l0,0l0.1,0c0.1,0,0.2-0.1,0.2-0.1l0,0l0,0c0,0.1-0.1,0.1-0.2,0.1l-0.1,0
					l0,0L120.6,96.5C120.6,96.6,120.6,96.6,120.6,96.5z M112.3,89.4c-0.2,0-0.6,0.3-0.5,0.2C111.9,89.5,112.4,89.3,112.3,89.4z
					 M132.9,88.8l-0.3-0.1C132.5,88.7,132.6,88.7,132.9,88.8L132.9,88.8z M122.3,91.5c0.1-0.1,0.2-0.1,0.3-0.2
					C122.6,91.3,122.4,91.4,122.3,91.5C122.2,91.6,122.3,91.5,122.3,91.5z M127.1,88c-0.2,0-0.5,0-0.5,0
					C126.9,88,127.1,87.9,127.1,88z M122.6,86.5c-0.1,0-0.4,0-0.6,0C122,86.5,122.7,86.5,122.6,86.5z M144.1,87.7
					C144.1,88.2,144.1,87.8,144.1,87.7C144.2,87.5,144.2,87.5,144.1,87.7C144,87.6,144.1,87.8,144.1,87.7z M124.7,88
					c-0.2,0-0.3,0-0.3,0C124.8,87.9,124.7,87.9,124.7,88z M120.1,77.3c-0.1,0-0.2-0.1-0.3-0.1l0,0.1c0-0.2,0.1-0.4,0,0l0-0.1
					C119.9,77.2,119.9,77.3,120.1,77.3z M123.6,86.4c-0.1,0.1-0.3,0.2-0.4,0.2c-0.1,0-0.2,0-0.2,0C123.2,86.7,123.6,86.4,123.6,86.4
					z M124.8,87.9c0.4,0,0.6,0,0.9,0C125.7,87.9,124.7,87.9,124.8,87.9z M143.9,82.3c0.1,0.3,0.1,0.4,0.1,0.4
					C143.9,82.5,143.9,82.5,143.9,82.3C143.8,82.1,143.8,82.1,143.9,82.3z M126.3,87.8c-0.3,0-0.5,0-0.5,0c0.3,0,0.4,0,0.6,0
					C126.3,87.8,126.3,87.8,126.3,87.8z"/>
			</g>
		</g>
	</g>
	<g>
		<path class="st2" d="M140.2,118.8c-3.7,1.8-8.2,0.2-9.9-3.6c-1.8-3.7-0.2-8.2,3.6-9.9c3.1-1.5,6.9-0.6,9,2.1l-8.1,3.7l1.5,3.2
			l11.4-5.3l-0.7-1.5l0,0c-2.6-5.6-9.1-8-14.7-5.4c-5.5,2.5-7.9,9.1-5.3,14.7c2.6,5.5,9.1,7.9,14.7,5.3c1.7-0.8,3.2-2,4.3-3.5
			l-2-3.5C143.2,116.6,141.9,118,140.2,118.8L140.2,118.8z M160.1,101c-6.1,0-11,4.9-11,11v18.4h3.5v-10.3
			c4.5,4.1,11.4,3.8,15.6-0.6c4.1-4.5,3.8-11.4-0.6-15.6C165.5,102,162.9,101,160.1,101 M160.1,119.5c-4.1,0-7.5-3.3-7.5-7.5
			c0-4.2,3.3-7.5,7.5-7.5s7.5,3.3,7.5,7.5C167.6,116.1,164.2,119.5,160.1,119.5z"/>
		<g>
			<path class="st3" d="M140.2,118.8c-3.7,1.8-8.2,0.2-9.9-3.6c-1.8-3.7-0.2-8.2,3.6-9.9c3.1-1.5,6.9-0.6,9,2.1l-8.1,3.7l1.5,3.2
				l11.4-5.3l-0.7-1.5l0,0c-2.6-5.6-9.1-8-14.7-5.4c-5.5,2.5-7.9,9.1-5.3,14.7c2.6,5.5,9.1,7.9,14.7,5.3c1.7-0.8,3.2-2,4.3-3.5
				l-2-3.5C143.2,116.6,141.9,118,140.2,118.8L140.2,118.8z M160.1,101c-6.1,0-11,4.9-11,11v18.4h3.5v-10.3
				c4.5,4.1,11.4,3.8,15.6-0.6c4.1-4.5,3.8-11.4-0.6-15.6C165.5,102,162.9,101,160.1,101 M160.1,119.5c-4.1,0-7.5-3.3-7.5-7.5
				c0-4.2,3.3-7.5,7.5-7.5s7.5,3.3,7.5,7.5C167.6,116.1,164.2,119.5,160.1,119.5z"/>
			<g>
				<path class="st3" d="M160.1,119.9c2.1,0,4.1-0.8,5.6-2.3c1.5-1.5,2.3-3.5,2.3-5.6c0-2.1-0.8-4.1-2.3-5.6
					c-1.5-1.5-3.5-2.3-5.6-2.3c-2.1,0-4.1,0.8-5.6,2.3c-1.5,1.5-2.3,3.5-2.3,5.6c0,2.1,0.8,4.1,2.3,5.6
					C156,119,158,119.9,160.1,119.9v-0.8c-1.9,0-3.7-0.8-5-2.1c-1.3-1.3-2.1-3.2-2.1-5c0-1.9,0.8-3.7,2.1-5c1.3-1.3,3.2-2.1,5-2.1
					c1.9,0,3.7,0.7,5,2.1c1.3,1.3,2.1,3.2,2.1,5c0,1.9-0.7,3.7-2.1,5c-1.3,1.3-3.2,2.1-5,2.1V119.9z"/>
				<path class="st4" d="M167.2,112.3c0,0.1-0.1,0.6-0.1,0.9c0,0.2,0,0.2,0,0.3c0,0,0.1,0,0.1,0c-0.1,0-0.1,0.3-0.3,0.7
					c0,0-0.1,0.1-0.1,0.1c-0.1,0.3-0.3,0.7-0.3,0.8c-0.1,0.3,0.1,0.1,0.1,0.2c0,0,0-0.1,0,0c0,0,0,0,0,0c0,0.1-0.1,0.1-0.1,0.3
					c-0.1,0.1-0.2,0.3-0.4,0.5c0,0,0-0.1,0-0.1c0,0.1-0.1,0.1-0.2,0.2c-0.1,0.1-0.1,0.2-0.2,0.2c0,0.1,0,0-0.1,0.1c0,0,0,0,0,0
					c0,0,0,0,0,0c0,0,0,0,0,0.1c0,0.1-0.1,0.2-0.1,0.2c-0.1,0.1-0.1,0.1-0.1,0.1c0,0.1-0.1,0.1-0.2,0.2c0,0-0.1,0.1-0.1,0.1
					c-0.1,0.1-0.2,0.1-0.3,0.3c-0.1,0.1-0.1,0.2-0.3,0.3c-0.1,0.1-0.2,0.2-0.2,0.2c0,0,0,0-0.1,0c-0.4,0.3-1.1,0.7-1.1,0.7
					c-0.2,0.1-0.1,0.1-0.3,0.2c-0.2,0.1-0.2,0.1-0.3,0.1c-0.3,0.1-0.6,0.2-0.9,0.3c-0.7,0.2-1.2,0.2-1.6,0.2c0.1,0-0.1,0-0.1,0
					c0,0,0.4,0,0.6,0c0.1,0,0.2,0,0.4-0.1c0.5-0.1,1.3-0.3,1.7-0.4c0.2,0,0.4-0.1,0.5-0.2c0.1-0.1,0.2-0.1,0.2-0.1
					c0.2-0.1,0.4-0.2,0.5-0.3l0,0c0.1,0,0.3-0.2,0.5-0.3c0.2-0.1,0.2-0.2,0.4-0.3c0,0,0.1-0.1,0.1-0.1c0.4-0.3,0.3-0.4,0.5-0.6
					c0.1,0,0.4-0.4,0.6-0.7c0,0,0.2-0.2,0.4-0.4c0,0,0.1-0.2,0.2-0.2c0,0,0,0,0-0.1c0.1-0.1,0.2-0.4,0.4-0.7
					c0.1-0.3,0.1-0.3,0.2-0.6c0.1-0.1,0.2-0.6,0.3-1c0,0,0.1-0.1,0.1-0.2c0-0.1,0,0,0-0.1c0-0.2,0.1-0.3,0.1-0.5
					c0-0.3,0.1-0.9,0-1.2c0-0.1,0-0.2,0-0.3c0-0.3,0-0.5-0.1-0.8c0-0.2-0.1-0.4-0.1-0.5c0,0,0,0,0-0.1c-0.1-0.4-0.3-1-0.4-1.1
					c-0.1-0.2-0.1-0.1-0.1-0.2c0-0.1,0,0,0-0.1c-0.2-0.4-0.5-0.9-0.6-1c-0.1-0.1-0.2-0.3-0.2-0.4c-0.1-0.1-0.3-0.3-0.4-0.5
					c-0.3-0.3-0.4-0.3-0.5-0.4c-0.2-0.2-0.4-0.3-0.6-0.4c-0.3-0.2-0.1-0.1-0.4-0.3c-0.2-0.1-0.4-0.2-0.6-0.3c-0.1,0-0.2,0-0.3-0.1
					c-0.2-0.1-0.2-0.1-0.4-0.2c-0.1-0.1-0.4-0.2-0.5-0.2c0,0-0.2-0.1-0.3-0.1c-0.2,0-0.4,0-0.5-0.1c-0.1,0-0.1,0-0.2,0c0,0,0,0,0,0
					c-0.1,0-0.1,0-0.1,0c-0.1,0-0.3,0-0.2,0c-0.2,0-0.3,0-0.3,0c-0.2,0-0.2,0-0.3,0c0-0.1-0.1-0.2-0.1-0.3c0,0-0.1,0-0.1,0
					c0,0-0.2-0.1-0.3-0.1c0,0-0.1,0-0.2,0c0,0,0,0-0.1,0c-0.4,0-1.1,0.1-1.4,0.2c0,0,0,0-0.1,0c-0.3,0.1-0.5,0.2-0.7,0.3l-0.1,0
					c-0.1,0-0.3,0.1-0.3,0.2c-0.2,0.1-0.3,0.1-0.5,0.3c-0.1,0-0.1,0-0.1,0c-0.3,0.1-0.4,0.2-0.6,0.3c-0.1,0-0.2,0.1-0.2,0.1
					c-0.3,0.2-0.7,0.4-1,0.8c-0.1,0.1-0.3,0.3-0.5,0.5c0,0,0,0,0,0.1c0,0-0.1,0.1-0.1,0.1c-0.1,0.2-0.4,0.6-0.6,0.9
					c-0.1,0.2-0.2,0.3-0.2,0.5c0,0,0,0,0,0.1c0,0-0.1,0.2-0.1,0.2c-0.2,0.4-0.2,0.7-0.4,1c-0.1,0.5-0.3,1.3-0.3,1.9
					c0,0.1,0,0.1,0,0.2c0,0.2,0,0.4,0.1,0.7c0,0.1,0,0.4,0,0.6c0.1,0.5,0.2,1.1,0.4,1.6c0.2,0.6,0.5,1.1,0.9,1.6
					c0.1,0.2,0.2,0.4,0.4,0.5c0.2,0.2,0.4,0.4,0.6,0.6c0.1,0.1,0.2,0.2,0.4,0.4c0.4,0.3,0.9,0.6,1.2,0.8c0.4,0.2,0.8,0.4,1.2,0.5
					c0.2,0.1,0.5,0.1,0.7,0.2c0,0,0,0,0,0l0,0c0.4,0.1,0.8,0.1,1.2,0.1c0,0-0.2,0-0.1,0c0,0,0.1,0,0.1,0c0,0-0.1,0,0,0
					c0.1,0,0.1,0,0.3,0c0,0,0.1,0,0.1,0c-0.6,0-1.7-0.2-2.3-0.3c-0.1,0,0,0,0,0c0,0,0,0,0,0c-0.7-0.2-1.4-0.5-2.1-1
					c-0.6-0.4-1.2-1-1.6-1.6c-0.3-0.4-0.5-0.8-0.7-1.2c-0.3-0.5-0.5-1.2-0.6-1.6c0-0.1,0-0.4,0-0.5c0-0.2-0.1-0.5-0.1-0.7
					c0-0.3-0.1-0.5,0-0.7c0-0.4,0-0.7,0.1-1.1c0.1-0.4,0.2-0.8,0.3-1.2c0.1-0.3,0.2-0.5,0.3-0.8c0-0.1,0.1-0.3,0.2-0.4
					c0.1-0.1,0.4-0.6,0.7-0.9c0,0,0.2-0.4,0.5-0.6c0.1-0.1,0.1-0.1,0.2-0.2c0.2-0.2,0.4-0.3,0.6-0.4c0.1,0,0.2-0.1,0.3-0.2
					c0.1,0,0.1-0.1,0.2-0.1c0.1,0,0,0,0.1-0.1c0.1,0,0.2-0.1,0.3-0.1c0.1,0,0.2-0.1,0.3-0.1c0.3-0.1,0.4-0.2,0.6-0.3
					c0.1-0.1,0.2-0.1,0.4-0.2c0,0,0.1,0,0.1-0.1c0.3-0.1,0.5-0.2,0.6-0.3c0.4-0.1,0.4-0.2,0.8-0.2c0,0,0.1,0,0.1,0
					c0,0,0.1,0.1,0.1,0.1c0,0.1,0,0.1,0.1,0.2c0.1,0,0,0,0.2,0c-0.2,0,0,0-0.1,0.1l0.2,0c0.1,0,0.2,0,0.4,0c0.1,0,0.3,0,0.4,0
					c0.3,0,0.5,0,0.6,0c0,0,0,0,0.1,0c0.1,0,0.3,0,0.4,0c0.1,0,0.2,0,0.2,0c0.3,0,0.3,0,0.7,0.1c0,0.1-0.1,0.1-0.1,0.1
					c0.2,0.1,0.2,0.1,0.5,0.2c0.2,0.1,0.1,0,0.4,0.2c0.1,0,0.1,0.1,0.2,0.1c0,0,0.1,0,0.2,0.1c0,0,0,0,0,0.1
					c0.1,0.1,0.2,0.2,0.4,0.3c0.3,0.2,0.2,0.1,0.4,0.3c0.1,0.1,0.2,0.1,0.2,0.2c0.1,0.1,0.2,0.2,0.3,0.3c0,0,0.1,0.1,0.2,0.1
					c0,0.1,0.4,0.4,0.5,0.6c0.3,0.3,0.3,0.3,0.5,0.4c0,0,0-0.1,0,0c0,0,0,0,0,0.1c0,0,0,0,0.1,0.1c0,0,0,0.1,0,0.1
					c0.1,0.2,0.1,0.2,0.2,0.4c0,0.1,0.1,0.2,0.2,0.3c0.1,0.2,0.2,0.4,0.3,0.8c0,0,0,0.1,0,0.2c0.1,0.3,0.2,0.7,0.2,0.9
					c0,0.1,0,0.2,0,0.4c0,0.1,0,0.3,0,0.4c0,0.1,0,0.2,0,0.2C167.3,112,167.3,112.1,167.2,112.3
					C167.2,112.3,167.2,112.2,167.2,112.3z M161,104.9C161,104.8,161,104.9,161,104.9C161.1,104.9,161.1,104.9,161,104.9
					C161,104.9,161,104.9,161,104.9z M161.1,104.8C161.1,104.8,161.1,104.8,161.1,104.8L161.1,104.8L161.1,104.8z M161.8,104.9
					C161.8,104.9,161.7,104.9,161.8,104.9C161.8,104.9,161.8,104.9,161.8,104.9z M162.7,105.1C162.6,105.1,162.6,105.1,162.7,105.1
					C162.6,105.1,162.7,105.1,162.7,105.1z M165.8,116.7C165.8,116.7,165.8,116.7,165.8,116.7C165.7,116.8,165.7,116.8,165.8,116.7
					C165.7,116.8,165.7,116.7,165.8,116.7z M155.9,105.8C155.9,105.8,156,105.8,155.9,105.8C156,105.8,155.9,105.9,155.9,105.8z
					 M159.6,104.6L159.6,104.6C159.6,104.6,159.6,104.6,159.6,104.6L159.6,104.6z M161.6,104.7C161.6,104.7,161.6,104.7,161.6,104.7
					C161.6,104.7,161.6,104.7,161.6,104.7C161.7,104.7,161.6,104.7,161.6,104.7z M158.6,104.6C158.6,104.6,158.5,104.7,158.6,104.6
					C158.5,104.6,158.6,104.6,158.6,104.6z M154.4,107.1C154.4,107,154.4,107,154.4,107.1C154.5,107,154.4,107.1,154.4,107.1z
					 M157.8,119.2C157.9,119.2,157.9,119.2,157.8,119.2C157.8,119.1,157.9,119.2,157.8,119.2z M158.2,104.7
					C158.1,104.7,158.1,104.7,158.2,104.7C158.2,104.7,158.2,104.7,158.2,104.7z M153.1,114.9C153.2,115,153.2,115.1,153.1,114.9
					L153.1,114.9z M154.2,107.2C154.3,107.1,154.3,107.1,154.2,107.2C154.3,107.1,154.2,107.2,154.2,107.2z M158.2,104.6
					c0.1,0,0.1,0,0.2,0C158.3,104.6,158.2,104.7,158.2,104.6z M156.9,118.8C156.9,118.8,156.9,118.8,156.9,118.8
					C156.9,118.8,156.9,118.8,156.9,118.8C156.8,118.8,156.9,118.8,156.9,118.8z M158.4,104.6C158.4,104.6,158.4,104.6,158.4,104.6
					C158.4,104.6,158.4,104.6,158.4,104.6C158.4,104.6,158.4,104.6,158.4,104.6z"/>
			</g>
			<g>
				<path class="st3" d="M160.1,101.4c2.1,0,4.3,0.7,6,1.9c1.7,1.2,3.1,3,3.9,5c0.8,2,0.9,4.2,0.4,6.3c-0.3,1-0.7,2-1.2,2.9
					c-0.6,0.9-1.2,1.7-2,2.5c-0.8,0.7-1.7,1.3-2.7,1.7c-1,0.4-2,0.7-3.1,0.9c-2.1,0.3-4.3-0.1-6.2-1.1c-0.2-0.1-0.5-0.2-0.7-0.4
					l-0.7-0.4c-0.1-0.1-0.2-0.2-0.3-0.2l-0.6-0.5l-0.6-0.5c0,0-0.1-0.1-0.1-0.1v0.2v0.4v3.8v6.2h-2.7v-17.4
					c-0.1-2.9,0.9-5.8,2.9-7.8C154.4,102.6,157.2,101.4,160.1,101.4v-0.8c-3.1,0-6.1,1.3-8.3,3.5c-2.1,2.2-3.3,5.4-3.2,8.4v18.2h4.3
					v-7v-2.8l0,0l0.1,0.1c0.1,0.1,0.2,0.2,0.3,0.3l0.7,0.5c0.2,0.1,0.5,0.3,0.8,0.4c2,1.1,4.4,1.4,6.7,1.2c1.1-0.2,2.2-0.5,3.3-0.9
					c1-0.5,2-1.1,2.9-1.9c0.8-0.8,1.6-1.7,2.2-2.6c0.6-1,1-2.1,1.3-3.2c0.5-2.2,0.4-4.6-0.4-6.7c-0.8-2.1-2.3-4-4.2-5.3
					c-1.9-1.3-4.2-2-6.5-2V101.4z"/>
				<path class="st4" d="M170.2,117.1c0.1-0.1,0.2-0.3,0.4-0.7c0.2-0.3,0.3-0.8,0.4-1.1c0.1-0.3,0.1-0.4,0.1-0.5c0,0-0.1,0-0.1-0.1
					c0-0.1,0.2-0.6,0.3-1.5c0,0,0-0.2,0.1-0.3c0.1-0.6,0.1-1.6,0-1.9c-0.1-0.5-0.1,0-0.2-0.1c0,0,0,0.1,0,0.1c0-0.1,0,0,0,0
					c0-0.2,0-0.4-0.1-0.6c0-0.2-0.1-0.7-0.2-1.3c0-0.1,0.1,0.1,0.1,0.2c0-0.1-0.1-0.5-0.1-0.5c-0.1-0.2-0.1-0.4-0.2-0.6
					c0-0.1,0-0.1-0.1-0.2c0,0,0,0,0,0c0,0,0-0.1,0-0.1c0-0.1,0,0-0.1-0.1c-0.1-0.1-0.2-0.4-0.2-0.4c-0.1-0.2-0.1-0.2-0.2-0.3
					c-0.1-0.1-0.1-0.3-0.3-0.5c0-0.1-0.1-0.1-0.1-0.2c-0.1-0.2-0.2-0.4-0.4-0.6c-0.1-0.2-0.3-0.3-0.5-0.6c-0.1-0.1-0.3-0.3-0.5-0.5
					c-0.1-0.1-0.1-0.1-0.1-0.1c-0.6-0.8-2-1.8-2.1-1.7c-0.3-0.2-0.3-0.2-0.6-0.3c-0.2-0.1-0.4-0.2-0.5-0.3c-0.5-0.3-1.1-0.5-1.7-0.7
					c-1.3-0.4-2.3-0.5-3.1-0.5c0.1,0-0.2,0-0.2,0c0,0,0.2,0,0.5,0c0.3,0,0.6,0,0.8,0.1c0.2,0,0.4,0,0.7,0.1c1,0.1,2.4,0.6,3.2,1.1
					c0.3,0.2,0.6,0.4,0.9,0.6c0.2,0.1,0.4,0.3,0.5,0.3c0.3,0.2,0.7,0.5,0.9,0.7l0,0c0.4,0.5,0.4,0.4,0.7,0.8
					c0.2,0.2,0.4,0.5,0.6,0.7c0.1,0.1,0.1,0.1,0.2,0.2c0.5,0.8,0.6,0.7,0.8,1.1c0,0.1,0.1,0.3,0.3,0.6c0.2,0.5,0.3,0.7,0.4,1
					c0,0.1,0.1,0.5,0.2,1.1c0,0.2,0,0.3,0,0.5c0,0.1,0,0.1,0,0.1c0,0.3,0.1,0.9,0.1,1.4c0,0.5,0.1,0.7,0,1.2c0,0.1-0.1,0.4-0.1,0.8
					c-0.1,0.5-0.1,0.6-0.2,1.1c0,0-0.1,0.1-0.2,0.4c0,0.1,0,0.1-0.1,0.2c-0.1,0.3-0.2,0.5-0.3,0.8c-0.2,0.5-0.7,1.4-1,1.9
					c-0.1,0.1-0.2,0.3-0.3,0.3c-0.3,0.4-0.6,0.7-1,1.1c-0.2,0.2-0.4,0.5-0.6,0.6c0,0,0,0-0.1,0.1c-0.6,0.5-1.5,1-1.7,1.2
					c-0.3,0.1-0.2,0.1-0.4,0.2c-0.1,0.1-0.1,0-0.1,0.1c-0.4,0.2-0.8,0.3-1.1,0.5c-0.4,0.1-0.7,0.2-0.9,0.3c-0.3,0.1-0.5,0.1-0.8,0.1
					c-0.3,0.1-0.8,0.1-1.1,0.1c-0.7,0.1-0.9,0.1-1.2,0.1c-0.2,0-0.7,0-1.3-0.1c-0.6-0.1-0.3-0.1-0.9-0.2c-0.3-0.1-0.6-0.2-1.1-0.3
					c-0.2,0-0.3-0.1-0.6-0.1c-0.3-0.1-0.4-0.2-0.7-0.4c-0.2-0.1-0.7-0.4-0.9-0.6c-0.1-0.1-0.3-0.2-0.5-0.3c-0.3-0.2-0.6-0.4-0.9-0.7
					l-0.1,0l0,0l0,0.1c0,0.1,0,0.2,0,0.3c0,0,0,0,0,0c0,0.1,0,0.2,0,0.3c0,0.1,0,0.5,0.1,0.4c0,0.3,0,0.5,0.1,0.7
					c0,0.4,0,0.4,0.1,0.7c-0.1,0.1-0.2,0.2-0.3,0.3c0,0.1,0,0.1,0,0.2c0,0,0,0.4-0.1,0.6c0,0.1,0,0.2,0,0.3c0,0.1,0,0.1,0,0.1
					c0,0.8,0,2.1,0,2.7c0,0.2,0,0.1,0,0.2c0,0.4,0.1,1,0.1,1.5v0.2c0,0.1,0,0.6,0.1,0.7c0,0.3,0,0.9,0,1.1c0,0,0,0.1,0,0.2
					c-0.1,0-0.1,0-0.1,0c-0.6,0-1-0.1-1.4-0.1c-0.2,0-0.5,0-0.5,0c-0.6,0-1.1,0-1.4,0c0-0.3,0-0.6,0-0.8c0-1.1,0-0.8,0-1.3
					c0-0.1,0,0,0-0.2c0,0,0-0.2,0-0.2c0-0.5,0-1.4,0-2c0-0.3,0-0.7,0-1c0,0,0-0.1,0-0.2c0-0.1,0-0.4,0-0.4c0-0.8,0-1.4,0-2.1
					c0-0.9,0-2.5,0-3.7c0-0.1,0-0.3,0-0.4c0-0.5,0-1,0-1.4c0-0.2,0.1-0.8,0.1-1.2c0-1.7,0-2.4,0-3.2c0-1.2,0.2-2.3,0.5-3.5
					c0.1-0.3,0.3-0.8,0.5-1.1c0.2-0.5,0.5-0.9,0.7-1.4c0.2-0.3,0.4-0.6,0.6-0.9c0.6-0.8,1.4-1.5,1.9-2c0.4-0.3,0.7-0.5,1.1-0.8
					c0.3-0.2,0.7-0.4,1-0.6c0.4-0.2,0.9-0.4,1.3-0.6c0.1,0-0.1,0,0.1,0l0,0c0.7-0.2,1.5-0.4,2.2-0.5c0.1,0-0.3,0-0.2,0
					c0,0,0.2,0,0.3,0c0,0-0.2,0,0,0c0.2,0,0.3,0,0.7,0c0.1,0,0.2,0,0.2,0c-0.3,0-0.7,0-1.1,0.1c-0.4,0-0.8,0.1-1.2,0.2
					c-0.4,0.1-0.8,0.2-1.2,0.3c-0.4,0.1-0.7,0.3-1,0.4c-0.1,0.1,0.1,0-0.1,0c-0.1,0,0,0,0,0c-1.4,0.6-2.5,1.5-3.6,2.7
					c-1,1.1-1.8,2.4-2.2,3.7c-0.3,0.8-0.5,1.9-0.6,2.7c-0.1,1.1,0,2.4-0.1,3.2c0,0.3-0.1,0.4-0.1,0.9c0,0.7,0,1.2,0,1.4
					c0,0.4,0,1.1,0,1.4c0,0.6,0,1.5,0,2.1c0,1.1,0,1.7,0,2.5c0,0.5,0,1.3,0,1.7c0,0.4,0,0.6,0,0.9c0,0.4,0,1.5,0,2.3
					c0,0,0,0.8,0.1,1.6c0,0.2,0,0.4,0,0.5c0,0.2,0,0.5,0,0.8c0.3,0,0.5,0,0.8,0c0.1,0,0.4,0,0.7,0c0.1,0,0.3,0,0.4,0
					c0.1,0,0.1,0,0.2,0c0.1,0,0.4,0,0.6,0c0.3,0,0.3,0,0.6,0c0.2,0,0.3,0,0.5,0c0-0.4,0-0.8,0-1.2c0-0.3,0-0.7,0-0.9
					c0-0.1,0-0.2,0-0.2c0-0.6,0-1-0.1-1.4c0-0.7-0.1-0.8-0.1-1.7c0,0,0-0.1,0-0.2c0,0.1,0.1-0.1,0.1-0.1c0.1,0,0.1,0,0.2-0.1
					c0-0.3,0,0,0-0.3c0,0.4,0,0.1,0.1,0.1l0-0.5c0-0.3,0-0.5,0-0.7c0-0.2,0-0.3,0-0.9c0-0.6,0-1.1-0.1-1.3c0-0.1,0-0.1,0-0.2
					c0-0.1,0-0.2-0.1-0.3c-0.1-0.1,0.1,0,0.1-0.1c0.2,0.1,0.7,0.4,0.9,0.5c0,0.1-0.2,0-0.2,0.1c0.3,0.2,0.4,0.4,0.9,0.6
					c0.3,0.2,0.5,0.3,0.9,0.4c0.2,0.1,0.3,0.1,0.5,0.2c0.1,0,0.2,0.1,0.4,0.1c0.1,0,0.1,0,0.1,0.1c0.2,0.1,0.6,0.2,0.9,0.3
					c0.3,0.1,0.6,0.1,1,0.2c0.2,0,0.4,0,0.6,0.1c0.3,0,0.7,0.1,1,0.1c0,0,0.2,0,0.4,0c0.2,0.1,1.1,0,1.6-0.1
					c0.8-0.2,0.8-0.2,1.2-0.4c0.1,0-0.1,0,0,0c0.1,0,0,0,0.1,0c0.1,0,0,0,0.2-0.1c0,0,0.3,0,0.2,0c0.2,0,0.6-0.2,0.8-0.3
					c0.1-0.1,0.4-0.2,0.7-0.3c0.4-0.2,0.9-0.4,1.5-0.8c0.1-0.1,0.2-0.1,0.3-0.2c0.3-0.2,0.6-0.4,0.8-0.7c0.2-0.2,0.5-0.5,0.6-0.7
					c0.1-0.1,0.2-0.2,0.6-0.7c0.2-0.2,0.4-0.5,0.5-0.7c0-0.1,0.2-0.3,0.3-0.4c0.2-0.3,0.3-0.5,0.4-0.8
					C170.2,117,170.1,117.2,170.2,117.1z M152.9,121.6c0,0,0-0.1,0-0.1c0-0.1,0-0.1,0-0.1C152.9,121.5,152.9,121.6,152.9,121.6z
					 M152.9,121.3c0,0.1,0,0.1,0,0.1L152.9,121.3L152.9,121.3z M152.8,120.5C152.8,120.5,152.8,120.5,152.8,120.5
					C152.8,120.5,152.8,120.5,152.8,120.5C152.8,120.4,152.8,120.5,152.8,120.5z M154,121.4c-0.1-0.1-0.2-0.1-0.2-0.1
					C153.9,121.3,154,121.4,154,121.4z M170.3,107.6C170.3,107.7,170.3,107.6,170.3,107.6c-0.1-0.1-0.1-0.2-0.1-0.2
					C170.2,107.5,170.3,107.6,170.3,107.6z M150.8,130.4c0.1,0,0.2,0,0.2,0C150.9,130.5,150.7,130.5,150.8,130.4z M152.7,124.4v0.1
					C152.7,124.5,152.7,124.5,152.7,124.4L152.7,124.4z M152.6,120.4c0,0,0,0.1,0,0.1C152.6,120.5,152.6,120.5,152.6,120.4
					C152.6,120.4,152.6,120.4,152.6,120.4z M152.6,126.4c0,0.1,0,0.2,0,0.2C152.6,126.5,152.6,126.4,152.6,126.4z M149.1,128.2
					c0,0.1,0,0.1,0,0.2C149.1,128.4,149.1,128.1,149.1,128.2z M155.8,101.9C155.9,101.8,155.8,101.9,155.8,101.9
					C155.6,102,155.8,101.9,155.8,101.9z M152.6,127.2c0,0.1,0,0.1,0,0.1C152.5,127.2,152.5,127.2,152.6,127.2z M149.1,111.9
					C149.1,111.7,149.2,111.5,149.1,111.9L149.1,111.9z M149.1,127.8c0,0.1,0,0.2,0,0.2C149.1,128,149.1,127.8,149.1,127.8z
					 M152.5,127.2c0-0.1,0-0.2,0-0.3C152.5,126.9,152.5,127.2,152.5,127.2z M154.1,102.9c0.1-0.1,0.1-0.1,0.1-0.1
					C154.2,102.8,154.1,102.9,154.1,102.9C154,102.9,154,102.9,154.1,102.9z M152.5,126.7c0,0.1,0,0.2,0,0.2
					C152.5,126.8,152.5,126.7,152.5,126.7C152.5,126.7,152.5,126.7,152.5,126.7z"/>
			</g>
			<g>
				<path class="st3" d="M140.2,119.2l0.2,0l0,0l0,0l0,0l0,0l0,0l0,0l0.1,0l0.2-0.1l0.3-0.2c0.2-0.1,0.4-0.3,0.6-0.4
					c0.4-0.3,0.8-0.6,1.1-0.9s0.6-0.7,0.9-1.1c0.1-0.2,0.3-0.4,0.4-0.6l0,0l1.5,2.7l0,0l-0.3,0.4c-0.2,0.2-0.4,0.5-0.6,0.7
					c-0.4,0.4-0.9,0.8-1.4,1.2c-2,1.4-4.6,2.1-7,1.9c-2.5-0.2-4.9-1.3-6.6-3.1c-1.8-1.7-2.9-4.1-3.1-6.6c-0.2-2.5,0.4-5,1.9-7
					c1.4-2,3.6-3.5,6-4.2c2.4-0.6,5-0.4,7.3,0.6c2.2,1.1,4.1,2.9,5.1,5.2l0,0.1l0,0l0,0l-0.1-0.1l0.5,1.2l-10.7,5l-1.2-2.5l4.5-2
					l2.4-1.1l0.8-0.4l0.3-0.1c0.1-0.1,0.3-0.1,0.1-0.2l-0.4-0.5c-0.1-0.1-0.3-0.4-0.4-0.4l-0.3-0.2c-0.2-0.2-0.3-0.3-0.5-0.5
					c-1.5-1.2-3.3-1.8-5.2-1.7c-1.9,0.1-3.7,0.8-5.1,2.1c-1.4,1.3-2.3,3-2.5,4.9c-0.2,1.8,0.3,3.8,1.3,5.3c1,1.6,2.6,2.7,4.4,3.2
					c1.8,0.5,3.8,0.3,5.4-0.5l-0.3-0.7c-1.5,0.7-3.3,0.9-4.9,0.4c-1.6-0.4-3.1-1.5-4-2.9c-0.9-1.4-1.4-3.1-1.2-4.8
					c0.2-1.7,1-3.2,2.2-4.4c1.2-1.1,2.9-1.8,4.5-1.9c1.7-0.1,3.4,0.5,4.7,1.5c0.2,0.1,0.3,0.3,0.5,0.4l0.2,0.2c0.1,0.1,0,0,0.1,0.1
					l0,0l-0.4,0.2l-2.4,1.1l-5.2,2.4l1.8,3.9l12.2-5.7l-0.9-1.9l0-0.1l0,0l0,0l0.1,0.1c-1.1-2.4-3.1-4.4-5.5-5.6
					c-2.4-1.1-5.2-1.4-7.8-0.7c-2.6,0.7-4.9,2.3-6.4,4.5c-1.5,2.2-2.3,4.9-2,7.6c0.2,2.7,1.4,5.2,3.3,7.1c1.9,1.9,4.4,3.1,7.1,3.3
					c2.7,0.2,5.4-0.5,7.6-2.1c0.5-0.4,1.1-0.8,1.5-1.3c0.2-0.2,0.5-0.5,0.7-0.7l0.3-0.4l0.3-0.4c0-0.1-0.1-0.3-0.2-0.4l-2.3-4
					c-0.2,0.4-0.4,0.8-0.6,1.3c-0.1,0.2-0.2,0.4-0.3,0.6c-0.2,0.4-0.5,0.7-0.8,1s-0.6,0.6-1,0.8c-0.2,0.1-0.4,0.2-0.5,0.4l-0.3,0.2
					l-0.1,0.1l-0.1,0l0,0l0,0l0,0l0,0l0,0l0,0c0.1,0-0.2,0,0.2,0L140.2,119.2z"/>
				<path class="st4" d="M127.4,118.1c0.1,0.2,1,1.5,1.7,2.1c0.4,0.3,0.4,0.3,0.6,0.4c0.1,0,0-0.1,0.1,0c0.1,0.1,0.6,0.7,1.7,1.3
					c0,0,0.2,0.1,0.3,0.2c0.3,0.2,0.9,0.4,1.3,0.6c0.5,0.1,0.9,0.3,1.2,0.3c0.7,0.1,0-0.1,0.3-0.2c0.1,0-0.2,0-0.2,0
					c0.1,0,0,0,0.1,0c0.3,0.1,0.5,0.1,0.8,0.2c0.3,0.1,1,0.2,1.8,0.2c0.1,0-0.1,0-0.3,0c0.3,0,0.4,0,0.8,0c0.2,0,0.7-0.1,0.8-0.1
					c0.1,0,0.2,0,0.3,0c0,0,0,0,0.1,0c0.1,0,0.1,0,0.2,0c0,0,0.1,0,0.2,0c0.2,0,0.6-0.1,0.6-0.1c0.2-0.1,0.3-0.1,0.5-0.1
					c0.2-0.1,0.4-0.1,0.7-0.3c0.1,0,0.2-0.1,0.3-0.1c0.3-0.1,0.6-0.2,0.9-0.4c0.3-0.1,0.5-0.3,0.9-0.5c0.3-0.2,0.5-0.3,0.7-0.6
					c0.1-0.1,0.1-0.1,0.2-0.1c0.5-0.4,1.2-1,1.7-1.6c0.1-0.2,0.2-0.3,0.3-0.4l0.1-0.1c0,0,0.1-0.1,0-0.1c0-0.1-0.1-0.1-0.1-0.2
					c-0.1-0.2-0.2-0.3-0.2-0.3c-0.2-0.4-0.3-0.4-0.5-0.8c-0.1-0.2-0.3-0.5-0.4-0.7c-0.3-0.5-0.6-1-0.8-1.5c-0.1,0.2-0.2,0.5-0.3,0.7
					c-0.9,1.6-2.1,2.5-3.1,3.1c0.2-0.1-0.3,0.2-0.3,0.2l0,0c0,0,1.1-0.5,1.5-0.9c0.3-0.2,0.5-0.4,0.7-0.7c0.3-0.3,0.6-0.7,0.8-1
					c0.1-0.2,0.3-0.4,0.4-0.6c0.1-0.2,0.2-0.3,0.2-0.5c0.3,0.5,0.6,1,0.9,1.5c0.4,0.8,0.4,0.7,0.7,1.3c0.2,0.3,0.3,0.5,0.2,0.5
					c-0.3,0.4-0.7,0.9-1,1.2l0,0c-0.3,0.2-0.8,0.7-1.1,1c-0.4,0.3-0.7,0.5-1,0.7c-0.1,0.1-0.2,0.1-0.4,0.2c-0.6,0.3-0.9,0.4-1.1,0.5
					c-0.2,0.1-0.4,0.2-0.7,0.3c-0.1,0-0.4,0.1-0.9,0.2c-0.5,0.1-1,0.2-1.5,0.2c-0.1,0-0.7,0-1.5,0c-0.1,0-0.5-0.1-0.7-0.1
					c-0.1,0-0.2,0-0.2,0c-0.2,0-0.5-0.1-0.8-0.2c-0.3-0.1-0.7-0.2-1.1-0.3c-0.7-0.2-0.9-0.3-1.6-0.6c-0.2-0.1-1.5-0.9-2.1-1.4
					c0,0-0.1-0.1-0.4-0.5c-0.1-0.1-0.1-0.1-0.2-0.2c-0.4-0.3-0.5-0.5-0.8-0.9c-0.2-0.3-0.5-0.7-0.8-1.2c-0.3-0.5-0.5-1-0.7-1.3
					c0-0.1-0.1-0.4-0.2-0.6c-0.1-0.2-0.2-0.6-0.3-0.9c-0.1-0.3-0.1-0.6-0.2-1c-0.1-0.4-0.1-0.9-0.1-1.2c0,0,0,0,0-0.2
					c-0.1-1.1,0.3-2.5,0.3-2.8c0.1-0.4,0.1-0.2,0.2-0.7c0-0.1,0-0.1,0.1-0.2c0.4-1,1-2.2,1.4-2.7c0.2-0.3,0.4-0.5,0.7-0.8
					c0.3-0.3,0.8-0.8,1-1c0.7-0.6,1-0.8,1.3-1c0.7-0.4,1.2-0.7,1.6-0.9c0.3-0.1,0.8-0.3,1.1-0.4c0.6-0.2,1.2-0.3,1.6-0.4
					c0.2-0.1,0.5-0.1,0.8-0.2c0.5,0,0.6,0,1.1,0c0.3,0,1.1,0.1,1.5,0.2c0.3,0.1,0.5,0.1,0.8,0.2c0.5,0.2,1,0.2,1.4,0.4
					c0.1,0,0.3,0.1,0.6,0.2c0,0,0,0,0,0c0.1,0.1,0.2,0.1,0.3,0.2c0.1,0,0.6,0.3,0.6,0.2c0.4,0.2,0.6,0.4,0.8,0.5
					c0.4,0.3,0.4,0.3,0.8,0.5c0,0.2,0.1,0.3,0.1,0.4c0.1,0.1,0.1,0.1,0.2,0.2c0,0,0.4,0.4,0.5,0.6c0.1,0.1,0.2,0.2,0.3,0.3
					c0.1,0.1,0.1,0.1,0.1,0.1c0.5,0.6,1,1.6,1.4,2.3l0,0l0,0l0,0l0,0c0.2,0.3,0.3,0.6,0.4,0.8c0.1,0.2,0.1,0.1,0.1,0.2
					c0.1,0.1,0.1,0.2,0.2,0.4c-0.4,0.2-0.8,0.5-1.3,0.7l-0.2,0.1c-0.2,0.1-0.7,0.3-0.8,0.4c-0.3,0.2-1,0.5-1.3,0.6
					c-0.2,0.1-0.3,0.1-0.3,0.1c-0.5,0.2-1.1,0.5-1.7,0.7c-0.3,0.1-0.6,0.3-0.7,0.3c-0.9,0.4-1.9,0.8-3.1,1.4c-1.1,0.5-1,0.5-1.6,0.8
					c-0.1,0,0,0-0.1,0.1c0,0,0,0,0,0c0,0,0-0.1-0.1-0.2c-0.3-0.6-0.8-1.7-1.1-2.5c-0.1-0.2-0.1-0.3-0.2-0.4c0.2-0.1,0.5-0.2,0.7-0.3
					c0,0,0.1,0,0.2-0.1c0.1-0.1,0.4-0.2,0.5-0.3c0.9-0.4,1.7-0.8,2.6-1.2c1.1-0.5,1.6-0.8,2.2-1c0.4-0.2,0.8-0.4,1.2-0.6l0.3-0.2
					l0.2-0.1c0,0-0.1-0.1-0.1-0.1c-0.2-0.2-0.3-0.4-0.4-0.5c-0.1-0.1-0.3-0.3-0.3-0.3c-0.4-0.4-1-0.7-1.6-1
					c-0.3-0.2-0.9-0.5-1.5-0.7c-1.4-0.4-3.1-0.4-4.5,0.1c-1.6,0.6-3,1.6-3.9,3c-0.3,0.4-0.6,1-0.8,1.6c-0.2,0.7-0.4,1.5-0.4,2.1
					c0,0.5,0,1,0.1,1.5c0.2,1.4,0.8,2.8,1.6,3.6c0.8,1,1.8,1.7,2.7,2.2c0.6,0.3,1.3,0.5,1.9,0.6c0.1,0-0.1,0,0.1,0l0,0
					c1.1,0.2,2.2,0.1,3.1-0.2c0.1,0-0.4,0.1-0.2,0c0.1,0,0.3-0.1,0.4-0.1c0,0-0.2,0.1,0,0c0.2-0.1,0.4-0.1,0.9-0.3
					c0.1,0,0.3-0.1,0.2-0.1c-0.8,0.4-1.9,0.7-3,0.7c-1.1,0-2.2-0.2-3-0.5c-0.2-0.1,0.1,0.1-0.1,0c-0.1,0,0,0,0,0
					c-1.9-0.8-3.4-2.3-4.2-4.5c-0.7-2-0.4-4.2,0.5-5.9c0.6-1.1,1.6-2.2,2.6-2.8c1.3-0.9,3.2-1.3,4.3-1.1c0.4,0,0.6,0.1,1.2,0.2
					c0.5,0.1,1.3,0.3,1.9,0.6c0.7,0.3,1.2,0.7,1.6,1.1c0.2,0.2,0.4,0.4,0.6,0.6l0.2,0.2c0.1,0,0,0.1-0.1,0.1l-0.1,0.1
					c-0.4,0.2-0.9,0.4-1.2,0.6c-1.3,0.6-2.1,1-3.1,1.4c-0.7,0.3-1.5,0.7-2.1,1c-0.5,0.3-0.8,0.4-1.2,0.6c-0.1,0-0.1,0-0.2,0.1
					c0.2,0.6,0.8,1.8,1.2,2.7c0,0,0.1,0.2,0.3,0.5c0.7-0.3,1-0.5,1.5-0.7c0.2-0.1,0.4-0.2,0.6-0.3c0.6-0.3,1.3-0.5,1.9-0.8
					c0.1,0,0.6-0.2,0.8-0.3c0.2-0.1,0.4-0.2,0.6-0.2c0.1-0.1,0.1-0.1,0.2-0.1c0.2-0.1,0.5-0.2,0.7-0.3c0.3-0.1,0.4-0.2,0.7-0.3
					c0.5-0.3,1.1-0.5,1.8-0.8c0.4-0.2,0.9-0.4,1.1-0.5c0.1-0.1,0.1-0.1,0.3-0.2c0.3-0.2,0.8-0.4,1.3-0.6c-0.1-0.2-0.2-0.4-0.3-0.6
					c-0.2-0.5-0.4-0.7-0.5-1l0,0l0,0l0,0c-0.2-0.2-0.3-0.5-0.6-1c0,0-0.1-0.1-0.1-0.2c0.1,0.1,0-0.1,0-0.2c0-0.1,0.1-0.1,0.1-0.2
					c-0.2-0.3,0-0.1-0.2-0.4c0.3,0.4,0.1,0.1,0.1,0.1c-0.1-0.2-0.2-0.4-0.4-0.6c-0.3-0.3-0.4-0.5-0.7-0.8c-0.3-0.3-0.5-0.6-0.9-0.8
					c-0.6-0.5-1.3-0.9-1.5-1c-0.1-0.1-0.1,0-0.2-0.1c-0.3-0.1-0.7-0.4-1-0.5c-0.2,0-0.5-0.2-0.6-0.2c-0.4-0.2-0.6-0.2-0.9-0.2
					c-0.2-0.1-0.5-0.1-0.9-0.2c-0.1-0.1,0.2-0.1,0.1-0.1c-0.5-0.1-0.7-0.2-1.4-0.3c-0.4-0.1-0.8,0-1.3,0c-0.2,0-0.5,0.1-0.7,0.1
					c-0.1,0-0.3,0.1-0.6,0.1c-0.2,0-0.1,0-0.1,0c-0.3,0-0.8,0.1-1.2,0.2c-0.5,0.1-0.9,0.3-1.3,0.5c-0.3,0.1-0.5,0.2-0.7,0.3
					c-0.4,0.2-0.8,0.4-1.1,0.7c0,0-0.3,0.2-0.4,0.3c-0.2,0.1-1.3,1-1.7,1.4c-0.8,0.9-0.7,0.9-1,1.4c0,0.1,0.1-0.1,0.1,0
					c-0.1,0.1,0,0-0.1,0.1c-0.1,0.1,0,0.1-0.2,0.3c-0.1,0-0.2,0.3-0.2,0.3c-0.2,0.3-0.4,0.7-0.6,1.1c-0.1,0.2-0.3,0.6-0.4,0.9
					c-0.2,0.6-0.5,1.3-0.6,2.3c0,0.1-0.1,0.4-0.1,0.5c-0.1,1,0,2.1,0.2,2.7c0,0.2,0,0.4,0.2,1.2c0.1,0.4,0.3,0.8,0.4,1.1
					c0.1,0.3,0.2,0.5,0.2,0.6c0.2,0.4,0.4,0.7,0.6,1.1C127.6,118.3,127.4,118,127.4,118.1z M143.4,102.6c0,0-0.1-0.1-0.1-0.1
					c-0.1-0.1-0.1-0.1-0.1-0.1C143.3,102.6,143.3,102.6,143.4,102.6z M143,102.4c0.1,0.1,0.1,0.1,0.1,0.1L143,102.4L143,102.4z
					 M141.3,101.6c0.1,0,0.2,0.1,0.2,0.1C141.4,101.7,141.3,101.6,141.3,101.6z M138.9,100.9c0.2,0,0.3,0.1,0.3,0.1
					C139,101,138.9,100.9,138.9,100.9z M139.3,122.9C139.2,122.9,139.3,122.9,139.3,122.9c0.2,0,0.3-0.1,0.3-0.1
					C139.4,122.9,139.4,122.9,139.3,122.9z M141.5,112c0.1,0,0.3-0.1,0.2-0.1C141.7,111.9,141.5,112,141.5,112z M146,105.5l0.1,0.1
					C146.1,105.6,146.1,105.6,146,105.5L146,105.5z M141.8,102c0.1,0,0.1,0,0.1,0.1C141.9,102.1,141.8,102,141.8,102
					C141.7,102,141.8,102,141.8,102z M147.3,107.9c0,0.1,0.1,0.2,0.1,0.2C147.4,108.1,147.3,108,147.3,107.9z M136.6,114.1
					c0.1-0.1,0.1,0,0.2-0.1C136.9,114,136.6,114.1,136.6,114.1z M134.2,119C134.4,119.1,134.3,119,134.2,119
					C134,118.9,134.3,119,134.2,119z M147.7,108.9c-0.1,0-0.1,0.1-0.1,0.1C147.7,108.9,147.7,108.9,147.7,108.9z M134.1,105.1
					C133.9,105.2,133.6,105.3,134.1,105.1L134.1,105.1z M136.3,114.1c0,0,0,0.1,0,0.1c0.1,0,0.1,0,0.1,0c-0.1,0-0.1,0-0.1,0
					C136.3,114.1,136.3,114.1,136.3,114.1z M147.7,108.9c-0.1-0.1-0.1-0.2-0.1-0.3C147.6,108.6,147.7,109,147.7,108.9z M131.9,117.5
					c0.1,0.1,0.1,0.1,0.2,0.2C132,117.6,132,117.6,131.9,117.5C131.8,117.5,131.8,117.5,131.9,117.5z M147.4,108.3
					c0.1,0.1,0.1,0.2,0.1,0.2C147.4,108.5,147.4,108.4,147.4,108.3C147.4,108.3,147.4,108.3,147.4,108.3z"/>
			</g>
		</g>
	</g>
	<g>
		<path class="st2" d="M190.8,102.3l0.1,1.7c-4.4-4.2-11.4-4-15.6,0.4c-4.2,4.4-4,11.4,0.4,15.6c4.2,4,10.8,4,15.1,0.1v1.6h3.5
			v-19.4H190.8z M183.4,119.5c-4.1,0-7.5-3.3-7.5-7.5c0-4.2,3.3-7.5,7.5-7.5c4.1,0,7.5,3.3,7.5,7.5
			C190.9,116.1,187.5,119.5,183.4,119.5z"/>
		<g>
			<path class="st3" d="M190.8,102.3l0.1,1.7c-4.4-4.2-11.4-4-15.6,0.4c-4.2,4.4-4,11.4,0.4,15.6c4.2,4,10.8,4,15.1,0.1v1.6h3.5
				v-19.4H190.8z M183.4,119.5c-4.1,0-7.5-3.3-7.5-7.5c0-4.2,3.3-7.5,7.5-7.5c4.1,0,7.5,3.3,7.5,7.5
				C190.9,116.1,187.5,119.5,183.4,119.5z"/>
			<g>
				<path class="st3" d="M183.4,119.9c2.1,0,4.1-0.8,5.6-2.3c1.5-1.5,2.3-3.5,2.3-5.6c0-2.1-0.8-4.1-2.3-5.6
					c-1.5-1.5-3.5-2.3-5.6-2.3c-2.1,0-4.1,0.8-5.6,2.3c-1.5,1.5-2.3,3.5-2.3,5.6c0,2.1,0.8,4.1,2.3,5.6
					C179.3,119,181.3,119.9,183.4,119.9v-0.8c-1.9,0-3.7-0.8-5-2.1c-1.3-1.3-2.1-3.2-2.1-5c0-1.9,0.7-3.7,2.1-5
					c1.3-1.3,3.2-2.1,5-2.1c1.9,0,3.7,0.8,5,2.1c1.3,1.3,2.1,3.2,2.1,5c0,1.9-0.8,3.7-2.1,5c-1.3,1.3-3.2,2.1-5,2.1V119.9z"/>
				<path class="st4" d="M190.5,112.3c0,0.1-0.1,0.6-0.1,0.9c0,0.2,0,0.2,0,0.3c0,0,0.1,0,0.1,0c-0.1,0-0.1,0.3-0.3,0.7
					c0,0-0.1,0.1-0.1,0.1c-0.1,0.3-0.3,0.7-0.3,0.8c-0.1,0.3,0.1,0.1,0.1,0.2c0,0,0-0.1,0,0c0,0,0,0,0,0c0,0.1-0.1,0.1-0.1,0.3
					c-0.1,0.1-0.2,0.3-0.4,0.5c0,0,0-0.1,0-0.1c0,0.1-0.1,0.1-0.2,0.2c-0.1,0.1-0.1,0.2-0.2,0.2c0,0.1,0,0-0.1,0.1c0,0,0,0,0,0
					c0,0,0,0,0,0c0,0,0,0,0,0.1c0,0.1-0.1,0.2-0.1,0.2c-0.1,0.1-0.1,0.1-0.1,0.1c0,0.1-0.1,0.1-0.2,0.2c0,0-0.1,0.1-0.1,0.1
					c-0.1,0.1-0.2,0.1-0.3,0.2c-0.1,0.1-0.1,0.2-0.3,0.3c-0.1,0.1-0.2,0.2-0.2,0.2c0,0,0,0-0.1,0c-0.4,0.3-1.1,0.7-1.1,0.7
					c-0.2,0.1-0.1,0.1-0.3,0.2c-0.2,0.1-0.2,0.1-0.3,0.1c-0.3,0.1-0.6,0.2-0.9,0.3c-0.7,0.2-1.2,0.2-1.6,0.3c0.1,0-0.1,0-0.1,0
					c0,0,0.4,0,0.6,0c0.1,0,0.2,0,0.4-0.1c0.5-0.1,1.3-0.3,1.7-0.4c0.2,0,0.4-0.1,0.5-0.2c0.1-0.1,0.2-0.1,0.2-0.1
					c0.2-0.1,0.4-0.2,0.5-0.3l0,0c0.1,0,0.3-0.2,0.5-0.3c0.2-0.1,0.2-0.2,0.4-0.3c0,0,0.1-0.1,0.1-0.1c0.4-0.3,0.3-0.4,0.5-0.6
					c0.1,0,0.4-0.4,0.6-0.7c0,0,0.2-0.2,0.4-0.4c0,0,0.1-0.2,0.2-0.2c0,0,0,0,0-0.1c0.1-0.1,0.2-0.4,0.4-0.7
					c0.1-0.3,0.1-0.3,0.2-0.6c0.1-0.1,0.2-0.6,0.3-1c0,0,0-0.1,0.1-0.2c0-0.1,0,0,0-0.1c0-0.2,0.1-0.3,0.1-0.5c0-0.3,0.1-0.9,0-1.2
					c0-0.1,0-0.2,0-0.3c0-0.3,0-0.5-0.1-0.8c0-0.2-0.1-0.4-0.1-0.5c0,0,0,0,0-0.1c-0.1-0.4-0.3-1-0.4-1.1c-0.1-0.2-0.1-0.1-0.1-0.2
					c0-0.1,0,0,0-0.1c-0.2-0.4-0.5-0.9-0.6-1c-0.1-0.1-0.2-0.3-0.2-0.4c-0.1-0.1-0.3-0.3-0.4-0.5c-0.3-0.3-0.4-0.3-0.5-0.4
					c-0.2-0.2-0.4-0.3-0.6-0.4c-0.3-0.2-0.1-0.1-0.4-0.3c-0.2-0.1-0.4-0.2-0.6-0.3c-0.1,0-0.2,0-0.3-0.1c-0.2-0.1-0.2-0.1-0.4-0.2
					c-0.1-0.1-0.4-0.2-0.5-0.2c0,0-0.2-0.1-0.3-0.1c-0.2,0-0.4,0-0.5-0.1c-0.1,0-0.1,0-0.2,0c0,0,0,0,0,0c-0.1,0-0.1,0-0.1,0
					c-0.1,0-0.3,0-0.2,0c-0.2,0-0.3,0-0.3,0c-0.2,0-0.2,0-0.3,0c0-0.1-0.1-0.2-0.1-0.3c0,0-0.1,0-0.1,0c0,0-0.2-0.1-0.3-0.1
					c0,0-0.1,0-0.2,0c0,0,0,0-0.1,0c-0.4,0-1.1,0.1-1.4,0.2c0,0,0,0-0.1,0c-0.3,0.1-0.5,0.2-0.7,0.3l-0.1,0c-0.1,0-0.3,0.1-0.3,0.2
					c-0.2,0.1-0.3,0.1-0.5,0.3c-0.1,0-0.1,0-0.1,0c-0.3,0.1-0.4,0.2-0.6,0.3c-0.1,0-0.2,0.1-0.2,0.1c-0.3,0.2-0.7,0.4-1,0.8
					c-0.1,0.1-0.3,0.3-0.5,0.5c0,0,0,0,0,0.1c0,0-0.1,0.1-0.1,0.1c-0.1,0.2-0.4,0.6-0.6,0.9c-0.1,0.2-0.2,0.3-0.2,0.5c0,0,0,0,0,0.1
					c0,0-0.1,0.2-0.1,0.2c-0.2,0.4-0.2,0.7-0.4,1c-0.1,0.5-0.3,1.3-0.3,1.9c0,0.1,0,0.1,0,0.2c0,0.2,0,0.4,0.1,0.7
					c0,0.1,0,0.4,0,0.6c0.1,0.5,0.2,1.1,0.4,1.6c0.2,0.6,0.5,1.1,0.9,1.6c0.1,0.2,0.2,0.4,0.4,0.5c0.2,0.2,0.4,0.4,0.6,0.6
					c0.1,0.1,0.2,0.2,0.4,0.4c0.4,0.3,0.9,0.6,1.2,0.8c0.4,0.2,0.8,0.4,1.2,0.5c0.2,0.1,0.5,0.1,0.7,0.2c0,0,0,0,0,0l0,0
					c0.4,0.1,0.8,0.1,1.2,0.1c0,0-0.2,0-0.1,0c0,0,0.1,0,0.1,0c0,0-0.1,0,0,0c0.1,0,0.1,0,0.3,0c0,0,0.1,0,0.1,0
					c-0.6,0-1.7-0.2-2.3-0.3c-0.1,0,0,0,0,0c0,0,0,0,0,0c-0.7-0.2-1.4-0.5-2.1-1c-0.6-0.4-1.2-1-1.6-1.6c-0.3-0.4-0.5-0.8-0.7-1.2
					c-0.3-0.5-0.5-1.2-0.6-1.6c0-0.1,0-0.4,0-0.5c0-0.2-0.1-0.5-0.1-0.7c0-0.3-0.1-0.5,0-0.7c0-0.4,0-0.7,0.1-1.1
					c0-0.4,0.2-0.8,0.3-1.2c0.1-0.3,0.2-0.5,0.3-0.8c0-0.1,0.1-0.3,0.2-0.4c0.1-0.1,0.4-0.6,0.7-0.9c0,0,0.2-0.4,0.5-0.6
					c0.1-0.1,0.1-0.1,0.2-0.2c0.2-0.2,0.4-0.3,0.6-0.4c0.1,0,0.2-0.1,0.3-0.2c0.1,0,0.1-0.1,0.2-0.1c0.1,0,0,0,0.1-0.1
					c0.1,0,0.2-0.1,0.3-0.1c0.1,0,0.2-0.1,0.3-0.1c0.3-0.1,0.4-0.2,0.6-0.3c0.1-0.1,0.2-0.1,0.4-0.2c0,0,0.1,0,0.1-0.1
					c0.3-0.1,0.5-0.2,0.6-0.3c0.4-0.1,0.4-0.2,0.8-0.2c0,0,0.1,0,0.1,0c0,0,0.1,0.1,0.1,0.1c0,0.1,0,0.1,0.1,0.2c0.1,0,0,0,0.2,0
					c-0.2,0,0,0-0.1,0.1l0.2,0c0.1,0,0.2,0,0.4,0c0.1,0,0.3,0,0.4,0c0.3,0,0.5,0,0.6,0c0,0,0,0,0.1,0c0.1,0,0.3,0,0.4,0
					c0.1,0,0.2,0,0.2,0c0.3,0,0.3,0,0.7,0.1c0,0.1-0.1,0.1-0.1,0.1c0.2,0.1,0.2,0.1,0.5,0.2c0.2,0.1,0.1,0,0.4,0.2
					c0.1,0,0.1,0.1,0.2,0.1c0,0,0.1,0,0.2,0.1c0,0,0,0,0,0.1c0.1,0.1,0.2,0.2,0.4,0.3c0.3,0.2,0.2,0.1,0.4,0.3
					c0.1,0.1,0.2,0.1,0.2,0.2c0.1,0.1,0.2,0.2,0.3,0.3c0,0,0.1,0.1,0.2,0.1c0,0.1,0.4,0.4,0.5,0.6c0.3,0.3,0.3,0.3,0.5,0.4
					c0,0,0-0.1,0,0c0,0,0,0,0,0.1c0,0,0,0,0.1,0.1c0,0,0,0.1,0,0.1c0.1,0.2,0.1,0.2,0.2,0.4c0,0.1,0.1,0.2,0.2,0.3
					c0.1,0.2,0.2,0.4,0.3,0.8c0,0,0,0.1,0,0.2c0.1,0.3,0.2,0.7,0.2,0.9c0,0.1,0,0.2,0,0.4c0,0.1,0,0.3,0,0.4c0,0.1,0,0.2,0,0.2
					C190.6,112,190.6,112.1,190.5,112.3C190.5,112.3,190.5,112.2,190.5,112.3z M184.3,104.9C184.2,104.8,184.3,104.9,184.3,104.9
					C184.4,104.9,184.4,104.9,184.3,104.9C184.3,104.9,184.3,104.9,184.3,104.9z M184.4,104.8C184.4,104.8,184.3,104.8,184.4,104.8
					L184.4,104.8L184.4,104.8z M185.1,104.9C185,104.9,185,104.9,185.1,104.9C185,104.9,185.1,104.9,185.1,104.9z M185.9,105.1
					C185.9,105.1,185.8,105.1,185.9,105.1C185.9,105.1,185.9,105.1,185.9,105.1z M189.1,116.7C189.1,116.7,189,116.7,189.1,116.7
					C189,116.8,189,116.8,189.1,116.7C189,116.8,189,116.7,189.1,116.7z M179.2,105.8C179.2,105.8,179.3,105.8,179.2,105.8
					C179.3,105.8,179.2,105.9,179.2,105.8z M182.9,104.6L182.9,104.6C182.8,104.6,182.9,104.6,182.9,104.6L182.9,104.6z
					 M184.9,104.7C184.9,104.7,184.9,104.7,184.9,104.7C184.9,104.7,184.9,104.7,184.9,104.7C184.9,104.7,184.9,104.7,184.9,104.7z
					 M181.9,104.6C181.8,104.7,181.8,104.7,181.9,104.6C181.8,104.6,181.9,104.6,181.9,104.6z M177.7,107.1
					C177.7,107,177.7,107,177.7,107.1C177.7,107,177.7,107.1,177.7,107.1z M181.1,119.2C181.2,119.2,181.1,119.2,181.1,119.2
					C181,119.1,181.2,119.2,181.1,119.2z M181.5,104.7C181.4,104.7,181.4,104.7,181.5,104.7C181.5,104.7,181.5,104.7,181.5,104.7z
					 M176.4,114.9C176.5,115,176.5,115.1,176.4,114.9L176.4,114.9z M177.5,107.2C177.6,107.1,177.6,107.1,177.5,107.2
					C177.6,107.1,177.5,107.2,177.5,107.2z M181.5,104.7c0.1,0,0.1,0,0.2,0C181.6,104.6,181.4,104.7,181.5,104.7z M180.2,118.8
					C180.2,118.8,180.2,118.8,180.2,118.8C180.2,118.8,180.2,118.8,180.2,118.8C180.1,118.8,180.1,118.8,180.2,118.8z M181.7,104.6
					C181.7,104.6,181.6,104.6,181.7,104.6C181.7,104.6,181.7,104.6,181.7,104.6C181.7,104.6,181.7,104.6,181.7,104.6z"/>
			</g>
			<g>
				<path class="st3" d="M190.8,102.7h3.2v18.6h-2.7v-0.5v-0.9v-0.4v-0.2c0,0-0.1,0.1-0.1,0.1l-1.2,1c-0.2,0.2-0.3,0.2-0.4,0.3
					l-0.3,0.2c-0.9,0.6-1.9,1.1-3,1.4c-2.1,0.6-4.4,0.5-6.5-0.2c-1-0.4-2-0.9-2.9-1.6c-0.9-0.7-1.6-1.5-2.3-2.4
					c-1.2-1.8-1.9-4-1.9-6.2c0-2.2,0.7-4.4,2-6.1c1.3-1.8,3.1-3.1,5.2-3.8c2.1-0.7,4.4-0.7,6.5-0.1c1.1,0.3,2,0.8,2.9,1.4
					c0.3,0.2,1.3,1,2,1.6c0-0.5-0.1-1.1-0.1-1.7l-0.1-1l-0.8,0.1l0.1,0.7l0,0c-0.1-0.1,0,0-0.7-0.5c-1-0.7-2-1.2-3.2-1.5
					c-2.3-0.7-4.7-0.6-6.9,0.1c-2.2,0.8-4.2,2.2-5.6,4.1c-1.4,1.9-2.2,4.2-2.2,6.6c0,2.4,0.7,4.7,2.1,6.6c0.7,1,1.5,1.8,2.4,2.5
					c0.9,0.7,2,1.3,3.1,1.7c2.2,0.8,4.7,0.9,6.9,0.2c1.1-0.3,2.2-0.8,3.2-1.5l0.6-0.4l0.2-0.1l0,0v1.2h4.3v-20.2h-4V102.7z"/>
				<path class="st4" d="M194.8,118.5c0-0.1,0-1.1,0-1.6c0-0.3-0.1-0.3-0.1-0.4c0,0-0.1,0-0.1,0c0-0.1,0.1-0.6,0.1-1.3
					c0,0,0-0.1,0-0.2c0-0.5,0-1.3,0-1.6c0-0.5-0.1,0-0.2-0.1c0,0,0,0.1,0,0.1c0-0.1,0,0,0,0c0-0.2,0-0.4,0-0.5c0-0.2,0-0.6,0-1.2
					c0-0.1,0,0.1,0,0.2c0-0.1,0-0.4,0-0.5c0-0.1,0-0.4,0-0.5c0-0.1,0,0,0-0.2c0,0,0,0,0,0c0,0,0-0.1,0-0.1c0-0.1,0,0,0-0.1
					c0-0.1,0-0.4,0-0.4c0-0.2,0-0.2,0-0.3c0-0.1,0-0.3,0-0.5c0-0.1,0-0.1,0-0.2c0-0.2,0-0.4,0-0.7c0-0.3,0-0.5,0-0.7
					c0-0.2,0-0.4-0.1-0.6c0-0.1,0-0.1,0-0.1c0-0.9,0-2.3-0.1-2.3c0-0.3,0-0.3,0-0.6c0-0.2,0-0.4,0-0.5c0-0.3,0-0.7,0-1
					c-0.2,0-0.4,0-0.6,0c-1.2,0-2.1,0-2.8,0.1c0.1,0-0.2,0-0.2,0c0,0,0.7,0,1.1,0c0.1,0,0.4,0,0.6,0c1,0,1.3,0,1.7,0
					c0,0.4,0,0.6,0,1.1c0,0.6,0,0.4,0,1c0,0.2,0,0.4,0,0.5c0,0.3,0,0.7,0,1h0c0,0.2,0,0.7,0,1c0,0.3,0,0.5,0,0.8c0,0.1,0,0.1,0,0.3
					c0,0.8,0.1,0.8,0.1,1.2c-0.1,0.1-0.1,0.9-0.1,1.5c0,0-0.1,0.4-0.1,1c0,0.1,0,0.4-0.1,0.4c0,0,0,0.1,0,0.1c0,0.2,0,0.8,0,1.3
					c0,0.5,0,0.6,0,1.1c0,0.2,0,1.1,0,1.7c0,0,0,0.1,0,0.4c0,0.1,0,0.1,0,0.2c0,0.3,0,0.5,0,0.8c0,0.5,0,1.5,0,2
					c0,0.1,0,0.3-0.1,0.4c0,0.3,0,1,0,1.2c0,0,0,0,0,0l0,0c0,0,0,0,0,0c0,0-0.1,0-0.1,0c0,0,0,0-0.1,0c-0.7,0-1.7,0-1.9,0
					c-0.3,0-0.2,0-0.4,0c-0.1,0-0.1,0-0.1,0c-0.1,0-0.1,0-0.1,0c0-0.1,0-0.1,0-0.1c0-0.1,0-0.3,0-0.5c0-0.5,0-0.9,0-1.1
					c0,0,0-0.2,0-0.1l-0.1,0.1l-0.2,0.1c-0.2,0.1-0.3,0.3-0.5,0.4c-0.2,0.1-0.4,0.4-0.6,0.5c-0.1,0.1-0.2,0.1-0.4,0.2
					c-0.5,0.4-0.7,0.5-0.8,0.6c-0.4,0.3-0.7,0.4-1,0.5c-0.2,0.1-0.5,0.2-0.7,0.3c-0.4,0.1-0.7,0.3-1,0.3c-0.1,0.1-0.3,0.1-0.5,0.2
					c-0.3,0-0.4,0-0.7,0.1c-0.2,0-0.7,0.1-0.9,0.1c-0.2,0-0.3,0-0.5,0c-0.3,0-0.6,0-0.9,0c-0.1,0-0.2,0-0.4,0c0,0,0,0,0,0
					c-0.1,0-0.1,0-0.2,0c-0.1,0-0.4,0-0.4,0c-0.3-0.1-0.5-0.1-0.6-0.1c-0.3-0.1-0.3,0-0.6-0.1c-0.1-0.1-0.1-0.2-0.1-0.3
					c-0.1,0-0.1,0-0.2-0.1c0,0-0.3-0.1-0.5-0.2c0,0-0.2-0.1-0.2-0.1c-0.1,0-0.1,0-0.1-0.1c-0.7-0.3-1.6-0.9-2-1.2
					c-0.1-0.1-0.1-0.1-0.1-0.1c-0.4-0.3-0.7-0.5-1.1-0.8l-0.1-0.1c-0.1-0.1-0.4-0.3-0.4-0.4c-0.3-0.3-0.3-0.4-0.6-0.7
					c-0.1-0.1-0.1-0.2-0.1-0.2c-0.3-0.4-0.4-0.7-0.6-1c-0.1-0.1-0.2-0.4-0.2-0.4c-0.3-0.6-0.5-1.2-0.7-2c-0.1-0.3-0.2-0.7-0.3-1.1
					c0-0.1,0,0,0-0.1c0,0,0-0.1,0-0.2c-0.1-0.2-0.1-0.5-0.1-0.8c0-0.3,0-0.6,0-0.9c0-0.4,0-0.6,0-0.9c0,0,0-0.1,0-0.1
					c0-0.1,0-0.3,0-0.4c0-0.3,0.1-0.6,0.2-0.9c0-0.3,0.1-0.6,0.2-0.9c0.2-0.8,0.8-2.1,1.4-2.9c0,0,0.2-0.2,0.2-0.2
					c0.2-0.3,0.5-0.6,0.7-0.9c0.2-0.1,0.5-0.4,0.8-0.7c0.3-0.3,0.7-0.6,1.1-0.9c0.4-0.2,0.8-0.5,1.2-0.7c0.9-0.5,1.9-0.8,2.9-1
					c0.3,0,0.7-0.1,1.1-0.1c0.4,0,0.9-0.1,1.3,0c0.3,0,0.6,0,0.9,0.1c0.8,0.1,1.7,0.3,2.4,0.5c0.8,0.3,1.4,0.6,2,0.9
					c0.4,0.2,0.7,0.5,1.1,0.7c0,0,0,0,0.1,0l0,0c0.2,0.2,0.5,0.4,0.9,0.7l0.1,0.1l0-0.1c0-0.1,0-0.2,0-0.3c0-0.2,0-0.3-0.1-0.5
					c0-0.1,0,0.3,0,0.1c0,0,0-0.2,0-0.2c0,0,0,0.2,0,0c0-0.2,0-0.2-0.1-0.6c0,0,0-0.2,0-0.2c0,0.3,0,0.6,0.1,0.9c0,0.2,0,0.3,0,0.5
					c0,0.1,0,0.2,0,0.2c-0.1-0.1-0.1-0.1-0.2-0.2c-0.5-0.5-1.1-0.9-1.6-1.2c-0.1-0.1,0.1,0.1-0.1,0c-0.1,0,0,0,0,0
					c-1.1-0.7-2.3-1.1-3.7-1.4c-1.3-0.2-2.6-0.2-3.8,0c-0.8,0.1-1.7,0.4-2.3,0.6c-0.9,0.4-1.9,1-2.5,1.4c-0.2,0.2-0.3,0.2-0.7,0.4
					c-0.2,0.2-0.7,0.6-0.9,0.9c-0.3,0.4-0.6,0.7-0.8,1c-0.5,0.6-0.7,1.1-1,1.6c-0.2,0.5-0.3,0.7-0.4,1c-0.1,0.3-0.2,0.7-0.3,1
					c-0.1,0.6-0.2,0.9-0.3,1.5c0,0.2-0.1,0.5-0.1,0.8c0,0.2,0,0.5-0.1,0.9c0,0.4,0.1,0.8,0.1,1.1c0.1,0,0.1,0.7,0.3,1.4
					c0,0.1,0.1,0.3,0.1,0.4c0.1,0.4,0.3,0.8,0.4,1.2c0,0.1,0.1,0.4,0.2,0.5c0,0.1,0.1,0.3,0.1,0.4c0,0,0.1,0.1,0.1,0.1
					c0.1,0.1,0.2,0.3,0.3,0.5c0.1,0.2,0.1,0.2,0.3,0.4c0.2,0.3,0.5,0.6,0.8,1c0.2,0.2,0.5,0.5,0.6,0.6c0,0,0.1,0.1,0.2,0.1
					c0.4,0.3,0.7,0.6,1,0.7c0.5,0.3,0.6,0.4,1.3,0.7c0,0,0.1,0.1,0.1,0.1c-0.1,0,0,0.1,0,0.1c0,0.1,0,0.1,0,0.2
					c0.1,0,0.2,0.1,0.2,0.1c-0.3-0.1-0.1,0-0.1,0l0.4,0.2c0.2,0.1,0.4,0.2,0.6,0.3c0.2,0.1,0.3,0.1,0.7,0.2c0.5,0.1,1,0.2,1.1,0.2
					c0.1,0,0.1,0,0.1,0c0.3,0,0.4,0,0.7,0c0.1,0,0.3,0,0.4,0c0.5,0,0.6,0,1.1-0.1c0.1,0.1-0.1,0.1-0.1,0.2c0.3,0,0.5,0,0.9,0
					c0.3,0,0.3,0,0.8-0.1c0.1,0,0.3-0.1,0.4-0.1c0.1,0,0.2-0.1,0.4-0.1c0.1,0,0.1,0,0.1,0c0.2,0,0.5-0.1,0.8-0.2
					c0.3-0.1,0.5-0.2,0.8-0.3c0.1,0,0.4-0.2,0.4-0.2c0.3-0.1,0.5-0.3,0.7-0.4c0,0,0.2-0.1,0.3-0.2c0.1,0,0.3-0.2,0.5-0.3
					c0.1-0.1,0.2-0.1,0.4-0.2c0,0,0.1-0.1,0.2-0.1c0,0,0,0,0.1,0c0.1-0.1,0.2-0.2,0.3-0.3c0.1-0.1,0.2-0.3,0.2-0.1c0,0,0-0.1,0-0.1
					c0,0.1,0,0,0,0.1c0,0,0,0,0,0.1c0,0.1,0,0.2,0,0.2c0,0.1,0,0.2,0,0.3c0,0.1,0,0.3,0,0.5c0,0.1,0,0.2,0,0.3c0.2,0,0.4,0,0.6,0
					c0.4,0,0.8,0,1.5,0c0.1,0,0.2,0,0.3,0c0.6,0,1,0,1.5,0c0-0.1,0-0.3,0-0.7c0-0.1,0.1-0.3,0.1-0.8c0-0.3,0-0.3,0-0.8
					c0-0.2,0-0.3,0-0.4C194.7,119,194.7,119,194.8,118.5C194.7,118.4,194.7,118.5,194.8,118.5z M180.7,123c0,0,0.1,0,0.1,0
					c0.1,0,0.1,0,0.1,0C180.8,123,180.8,123,180.7,123z M181,123.1c-0.1,0-0.1,0-0.1,0L181,123.1L181,123.1z M182.2,123.2
					c-0.1,0-0.1,0-0.1,0C182.2,123.1,182.2,123.2,182.2,123.2z M183.9,123.2c-0.1,0-0.2,0-0.2,0
					C183.7,123.2,183.8,123.2,183.9,123.2z M194.5,110C194.5,110,194.5,110,194.5,110c0-0.1,0-0.2,0-0.2
					C194.5,109.9,194.5,110,194.5,110z M173.6,117.3c0,0.1,0.1,0.2,0.1,0.2C173.7,117.4,173.6,117.2,173.6,117.3z M178.5,122
					L178.5,122C178.4,121.9,178.4,121.9,178.5,122L178.5,122z M181.9,123c0,0-0.1,0-0.1,0C181.8,122.9,181.8,122.9,181.9,123
					C181.9,123,181.9,123,181.9,123z M177,121c-0.1,0-0.1-0.1-0.1-0.1C177,121,177,121,177,121z M172.6,114c0,0,0,0.1,0,0.2
					C172.6,114.2,172.6,114,172.6,114z M189.2,102.7C189.3,102.8,189.2,102.7,189.2,102.7C189,102.6,189.2,102.7,189.2,102.7z
					 M176.5,120.5C176.4,120.5,176.4,120.5,176.5,120.5C176.5,120.5,176.5,120.5,176.5,120.5z M178.6,102.2
					C178.6,102.1,178.9,102,178.6,102.2L178.6,102.2z M172.6,113.7c0,0.1,0,0.2,0,0.2C172.6,113.8,172.6,113.7,172.6,113.7z
					 M176.5,120.5c0.1,0.1,0.1,0.1,0.2,0.2C176.7,120.7,176.5,120.5,176.5,120.5z M187.6,101.9c0.1,0,0.1,0.1,0.1,0.1
					C187.7,102,187.6,102,187.6,101.9C187.6,101.9,187.6,101.9,187.6,101.9z M176.9,120.8c-0.1-0.1-0.1-0.1-0.1-0.1
					C176.8,120.7,176.9,120.7,176.9,120.8C176.9,120.8,176.9,120.8,176.9,120.8z"/>
			</g>
		</g>
	</g>
</g>
</svg>
