<?xml version="1.0" encoding="utf-8"?>
<!-- Generator: Adobe Illustrator 21.0.0, SVG Export Plug-In . SVG Version: 6.00 Build 0)  -->
<svg version="1.1" id="Layer_1" xmlns="http://www.w3.org/2000/svg" xmlns:xlink="http://www.w3.org/1999/xlink" x="0px" y="0px"
	 viewBox="0 0 301.5 205.5" style="enable-background:new 0 0 301.5 205.5;" xml:space="preserve">
<style type="text/css">
	.st0{fill:#9E9EA5;}
</style>
<g>
	<path class="st0" d="M14.8,7.4c-1.1-0.1-2.2-0.2-3.2,0.1c-0.9,0.2-0.9,1.9,0,2.1c1.1,0.2,2.2,0.2,3.2,0.1C16,9.6,16,7.6,14.8,7.4z"
		/>
	<path class="st0" d="M27.7,8.2c-1.6-0.2-3.2-0.1-4.8,0c-1.2,0-1.2,2.1,0,2.1c1.6,0.1,3.2,0.1,4.8,0C28.8,10.2,28.8,8.3,27.7,8.2z"
		/>
	<path class="st0" d="M36.5,9.4c-0.4-0.2-0.8-0.3-1.2-0.3S34.4,9,34,9c-0.6-0.1-0.8,1.2-0.2,1.3c0.4,0.1,0.8,0.2,1.3,0.3
		c0.4,0.1,0.8,0.1,1.3,0.1C37,10.6,37.1,9.6,36.5,9.4z"/>
	<path class="st0" d="M48.5,9.1c-1.2-0.3-2.3-0.5-3.5-0.6c-0.5,0-1,0.6-1,1.1c0,0.7,0.5,1.1,1,1.1c1.1,0.2,2.2,0.2,3.3,0.2
		C49.2,10.9,49.4,9.3,48.5,9.1z"/>
	<path class="st0" d="M63.2,8.8c-1-0.2-1.9-0.1-2.9,0c-0.9,0.1-0.9,1.6,0,1.6c1,0.1,1.9,0.2,2.9,0C63.8,10.2,63.8,9,63.2,8.8z"/>
	<path class="st0" d="M76.2,8.1c-0.3,0-0.6,0-0.9,0c-0.6,0-0.6,1,0,1c0.3,0,0.6,0,0.9,0C76.7,9,76.7,8.1,76.2,8.1z"/>
	<path class="st0" d="M89.9,6.6c-0.9,0-1.7,0.1-2.6-0.1c-0.6-0.1-1.1,0.9-0.5,1.3c1,0.6,2.1,0.9,3.2,0.5C90.9,8,90.8,6.6,89.9,6.6z"
		/>
	<path class="st0" d="M104.6,5.4c-1.5-0.2-3,0.2-4.5,0.5c-1,0.2-0.8,2.2,0.2,2.1c1.5-0.1,3,0,4.4-0.6C105.9,7.1,105.6,5.6,104.6,5.4
		z"/>
	<path class="st0" d="M120.2,5.9c-1.3-0.1-2.6-0.1-3.9-0.1c-1.1,0.1-1.1,1.9,0,2c1.3,0.1,2.6,0,3.9-0.1C121.2,7.6,121.2,6,120.2,5.9
		z"/>
	<path class="st0" d="M135.5,6.4c-1.8-0.3-3.5-0.1-5.3,0.3c-0.8,0.2-0.6,1.8,0.2,1.7c1.7-0.2,3.4-0.3,5.1-0.4
		C136.4,7.9,136.3,6.5,135.5,6.4z"/>
	<path class="st0" d="M146.6,6.6c-1,0.2-2,0.3-3,0.2c-0.9-0.1-1.2,1.7-0.2,1.9c1.3,0.2,2.4,0.2,3.6-0.5
		C147.6,7.9,147.3,6.5,146.6,6.6z"/>
	<path class="st0" d="M158.8,7.3c-0.5,0-1,0-1.5,0c-0.6,0-0.6,1.1,0,1.1c0.5,0,1,0,1.5,0C159.4,8.4,159.4,7.4,158.8,7.3z"/>
	<path class="st0" d="M170.5,5.6c-1.1-0.4-2.2-0.3-3.3-0.3c-1.7,0.1-1.7,2.9,0,3c1.1,0,2.2,0.1,3.3-0.3C171.5,7.6,171.5,6,170.5,5.6
		z"/>
	<path class="st0" d="M184.1,5.6c-1.1-0.1-2.2-0.2-3.2,0.1c-0.9,0.2-0.9,1.9,0,2.1c1.1,0.2,2.2,0.2,3.2,0.1
		C185.3,7.7,185.3,5.7,184.1,5.6z"/>
	<path class="st0" d="M197,6.3c-1.6-0.2-3.2-0.1-4.8,0c-1.2,0-1.2,2.1,0,2.1c1.6,0.1,3.2,0.1,4.8,0C198.1,8.3,198.1,6.5,197,6.3z"/>
	<path class="st0" d="M205.8,7.5c-0.4-0.2-0.8-0.3-1.2-0.3s-0.9-0.1-1.3-0.1c-0.6-0.1-0.8,1.2-0.2,1.3c0.4,0.1,0.8,0.2,1.3,0.3
		c0.4,0.1,0.8,0.1,1.3,0.1C206.3,8.7,206.4,7.7,205.8,7.5z"/>
	<path class="st0" d="M217.8,7.2c-1.2-0.3-2.3-0.5-3.5-0.6c-0.5,0-1,0.6-1,1.1c0,0.7,0.5,1.1,1,1.1c1.1,0.2,2.2,0.2,3.3,0.2
		C218.5,9,218.8,7.4,217.8,7.2z"/>
	<path class="st0" d="M232.5,7c-1-0.2-1.9-0.1-2.9,0c-0.9,0.1-0.9,1.6,0,1.6c1,0.1,1.9,0.2,2.9,0C233.1,8.4,233.1,7.1,232.5,7z"/>
	<path class="st0" d="M245.5,6.2c-0.3,0-0.6,0-0.9,0c-0.6,0-0.6,1,0,1c0.3,0,0.6,0,0.9,0C246,7.2,246,6.2,245.5,6.2z"/>
	<path class="st0" d="M259.3,4.7c-0.9,0-1.7,0.1-2.6-0.1c-0.6-0.1-1.1,0.9-0.5,1.3c1,0.6,2.1,0.9,3.2,0.5
		C260.3,6.1,260.1,4.7,259.3,4.7z"/>
	<path class="st0" d="M273.9,3.6c-1.5-0.2-3,0.2-4.5,0.5c-1,0.2-0.8,2.2,0.2,2.1c1.5-0.1,3,0,4.4-0.6C275.2,5.2,274.9,3.7,273.9,3.6
		z"/>
	<path class="st0" d="M289.5,4c-1.3-0.1-2.6-0.1-3.9-0.1c-1.1,0.1-1.1,1.9,0,2c1.3,0.1,2.6,0,3.9-0.1C290.5,5.8,290.5,4.1,289.5,4z"
		/>
	<path class="st0" d="M14.9,198c-1.1-0.1-2.2-0.2-3.2,0.1c-0.9,0.2-0.9,1.9,0,2.1c1.1,0.2,2.2,0.2,3.2,0.1
		C16.1,200.1,16.1,198.1,14.9,198z"/>
	<path class="st0" d="M27.8,198.8c-1.6-0.2-3.2-0.1-4.8,0c-1.2,0-1.2,2.1,0,2.1c1.6,0.1,3.2,0.1,4.8,0
		C28.9,200.8,28.9,198.9,27.8,198.8z"/>
	<path class="st0" d="M36.6,200c-0.4-0.2-0.8-0.3-1.2-0.3s-0.9-0.1-1.3-0.1c-0.6-0.1-0.8,1.2-0.2,1.3c0.4,0.1,0.8,0.2,1.3,0.3
		c0.4,0.1,0.8,0.1,1.3,0.1C37.1,201.2,37.2,200.2,36.6,200z"/>
	<path class="st0" d="M48.6,199.7c-1.2-0.3-2.3-0.5-3.5-0.6c-0.5,0-1,0.6-1,1.1c0,0.7,0.5,1.1,1,1.1c1.1,0.2,2.2,0.2,3.3,0.2
		C49.3,201.5,49.6,199.9,48.6,199.7z"/>
	<path class="st0" d="M63.3,199.4c-1-0.2-1.9-0.1-2.9,0c-0.9,0.1-0.9,1.6,0,1.6c1,0.1,1.9,0.2,2.9,0
		C63.9,200.8,63.9,199.5,63.3,199.4z"/>
	<path class="st0" d="M76.3,198.6c-0.3,0-0.6,0-0.9,0c-0.6,0-0.6,1,0,1c0.3,0,0.6,0,0.9,0C76.8,199.6,76.8,198.6,76.3,198.6z"/>
	<path class="st0" d="M90.1,197.2c-0.9,0-1.7,0.1-2.6-0.1c-0.6-0.1-1.1,0.9-0.5,1.3c1,0.6,2.1,0.9,3.2,0.5
		C91.1,198.6,90.9,197.2,90.1,197.2z"/>
	<path class="st0" d="M104.7,196c-1.5-0.2-3,0.2-4.5,0.5c-1,0.2-0.8,2.2,0.2,2.1c1.5-0.1,3,0,4.4-0.6
		C106,197.7,105.7,196.2,104.7,196z"/>
	<path class="st0" d="M120.3,196.5c-1.3-0.1-2.6-0.1-3.9-0.1c-1.1,0.1-1.1,1.9,0,2c1.3,0.1,2.6,0,3.9-0.1
		C121.3,198.2,121.3,196.5,120.3,196.5z"/>
	<path class="st0" d="M135.6,196.9c-1.8-0.3-3.5-0.1-5.3,0.3c-0.8,0.2-0.6,1.8,0.2,1.7c1.7-0.2,3.4-0.3,5.1-0.4
		C136.5,198.5,136.4,197.1,135.6,196.9z"/>
	<path class="st0" d="M146.7,197.2c-1,0.2-2,0.3-3,0.2c-0.9-0.1-1.2,1.7-0.2,1.9c1.3,0.2,2.4,0.2,3.6-0.5
		C147.7,198.5,147.4,197.1,146.7,197.2z"/>
	<path class="st0" d="M158.9,197.9c-0.5,0-1,0-1.5,0c-0.6,0-0.6,1.1,0,1.1c0.5,0,1,0,1.5,0C159.5,198.9,159.5,197.9,158.9,197.9z"/>
	<path class="st0" d="M170.6,196.2c-1.1-0.4-2.2-0.3-3.3-0.3c-1.7,0.1-1.7,2.9,0,3c1.1,0,2.2,0.1,3.3-0.3
		C171.6,198.2,171.6,196.6,170.6,196.2z"/>
	<path class="st0" d="M184.2,196.1c-1.1-0.1-2.2-0.2-3.2,0.1c-0.9,0.2-0.9,1.9,0,2.1c1.1,0.2,2.2,0.2,3.2,0.1
		C185.4,198.3,185.4,196.3,184.2,196.1z"/>
	<path class="st0" d="M197.1,196.9c-1.6-0.2-3.2-0.1-4.8,0c-1.2,0-1.2,2.1,0,2.1c1.6,0.1,3.2,0.1,4.8,0
		C198.2,198.9,198.2,197,197.1,196.9z"/>
	<path class="st0" d="M205.9,198.1c-0.4-0.2-0.8-0.3-1.2-0.3s-0.9-0.1-1.3-0.1c-0.6-0.1-0.8,1.2-0.2,1.3c0.4,0.1,0.8,0.2,1.3,0.3
		c0.4,0.1,0.8,0.1,1.3,0.1C206.4,199.3,206.5,198.3,205.9,198.1z"/>
	<path class="st0" d="M218,197.8c-1.2-0.3-2.3-0.5-3.5-0.6c-0.5,0-1,0.6-1,1.1c0,0.7,0.5,1.1,1,1.1c1.1,0.2,2.2,0.2,3.3,0.2
		C218.6,199.6,218.9,198,218,197.8z"/>
	<path class="st0" d="M232.6,197.5c-1-0.2-1.9-0.1-2.9,0c-0.9,0.1-0.9,1.6,0,1.6c1,0.1,1.9,0.2,2.9,0
		C233.3,198.9,233.3,197.7,232.6,197.5z"/>
	<path class="st0" d="M245.6,196.7c-0.3,0-0.6,0-0.9,0c-0.6,0-0.6,1,0,1c0.3,0,0.6,0,0.9,0C246.2,197.7,246.2,196.8,245.6,196.7z"/>
	<path class="st0" d="M259.4,195.3c-0.9,0-1.7,0.1-2.6-0.1c-0.6-0.1-1.1,0.9-0.5,1.3c1,0.6,2.1,0.9,3.2,0.5
		C260.4,196.7,260.3,195.3,259.4,195.3z"/>
	<path class="st0" d="M274.1,194.1c-1.5-0.2-3,0.2-4.5,0.5c-1,0.2-0.8,2.2,0.2,2.1c1.5-0.1,3,0,4.4-0.6
		C275.3,195.8,275,194.3,274.1,194.1z"/>
	<path class="st0" d="M289.6,194.6c-1.3-0.1-2.6-0.1-3.9-0.1c-1.1,0.1-1.1,1.9,0,2c1.3,0.1,2.6,0,3.9-0.1
		C290.6,196.3,290.6,194.7,289.6,194.6z"/>
	<path class="st0" d="M6.8,20.5c0.1-1.3,0.1-2.5,0-3.8c-0.2-1.1-1.7-1.1-1.8,0c-0.2,1.3-0.1,2.5,0,3.8C5,21.9,6.7,21.9,6.8,20.5z"/>
	<path class="st0" d="M6.2,35.5c0.1-1.9,0.1-3.7,0-5.6c0-1.4-1.8-1.4-1.8,0c0,1.9-0.1,3.7,0,5.6C4.5,36.8,6.1,36.8,6.2,35.5z"/>
	<path class="st0" d="M5.2,45.8c0.1-0.5,0.3-0.9,0.3-1.5c0-0.5,0.1-1,0.1-1.5c0-0.8-1-0.9-1.1-0.2c-0.1,0.5-0.2,1-0.3,1.5
		c-0.1,0.5-0.1,1-0.1,1.5C4.1,46.3,5,46.5,5.2,45.8z"/>
	<path class="st0" d="M5.4,59.8c0.3-1.4,0.4-2.7,0.5-4.1c0-0.6-0.5-1.1-1-1.1c-0.6,0-0.9,0.5-1,1.1c-0.1,1.3-0.2,2.5-0.2,3.8
		C3.9,60.6,5.2,60.9,5.4,59.8z"/>
	<path class="st0" d="M5.6,76.9c0.2-1.1,0.1-2.2,0-3.4c-0.1-1-1.3-1-1.4,0c-0.1,1.1-0.1,2.2,0,3.4C4.4,77.7,5.5,77.7,5.6,76.9z"/>
	<path class="st0" d="M6.3,92.1c0-0.3,0-0.7,0-1c0-0.7-0.9-0.7-0.9,0c0,0.3,0,0.7,0,1C5.5,92.7,6.3,92.7,6.3,92.1z"/>
	<path class="st0" d="M7.6,108.1c0-1-0.1-2,0-3c0.1-0.7-0.8-1.3-1.1-0.5c-0.5,1.1-0.8,2.5-0.4,3.8C6.3,109.3,7.6,109.2,7.6,108.1z"
		/>
	<path class="st0" d="M8.5,125.2c0.2-1.7-0.2-3.5-0.4-5.2c-0.2-1.2-1.9-0.9-1.8,0.3c0,1.7,0,3.5,0.5,5.2
		C7.1,126.7,8.4,126.4,8.5,125.2z"/>
	<path class="st0" d="M8.2,143.4c0.1-1.5,0.1-3,0.1-4.5c-0.1-1.3-1.6-1.3-1.7,0c-0.1,1.5,0,3,0.1,4.5C6.7,144.6,8.1,144.6,8.2,143.4
		z"/>
	<path class="st0" d="M7.8,161.2c0.2-2.1,0.1-4.1-0.3-6.2c-0.2-0.9-1.5-0.7-1.4,0.2c0.2,2,0.3,4,0.3,5.9
		C6.4,162.3,7.7,162.2,7.8,161.2z"/>
	<path class="st0" d="M7.5,174.1c-0.1-1.2-0.3-2.3-0.2-3.5c0.1-1.1-1.5-1.3-1.6-0.3c-0.2,1.5-0.2,2.8,0.4,4.2
		C6.5,175.3,7.6,175,7.5,174.1z"/>
	<path class="st0" d="M6.9,188.5c0-0.6,0-1.2,0-1.7c0-0.7-1-0.7-1,0c0,0.6,0,1.2,0,1.7C6.1,189.2,6.9,189.2,6.9,188.5z"/>
	<path class="st0" d="M296.2,25c0.1-1.3,0.1-2.5,0-3.8c-0.2-1.1-1.7-1.1-1.8,0c-0.2,1.3-0.1,2.5,0,3.8
		C294.4,26.5,296.1,26.5,296.2,25z"/>
	<path class="st0" d="M295.6,40.1c0.1-1.9,0.1-3.7,0-5.6c0-1.4-1.8-1.4-1.8,0c0,1.9-0.1,3.7,0,5.6C293.9,41.4,295.5,41.4,295.6,40.1
		z"/>
	<path class="st0" d="M294.6,50.4c0.1-0.5,0.3-0.9,0.3-1.5c0-0.5,0.1-1,0.1-1.5c0-0.8-1-0.9-1.1-0.2c-0.1,0.5-0.2,1-0.3,1.5
		c-0.1,0.5-0.1,1-0.1,1.5C293.5,50.9,294.4,51,294.6,50.4z"/>
	<path class="st0" d="M294.8,64.4c0.3-1.4,0.4-2.7,0.5-4.1c0-0.6-0.5-1.1-1-1.1c-0.6,0-0.9,0.5-1,1.1c-0.1,1.3-0.2,2.5-0.2,3.8
		C293.3,65.2,294.6,65.5,294.8,64.4z"/>
	<path class="st0" d="M295,81.5c0.2-1.1,0.1-2.2,0-3.4c-0.1-1-1.3-1-1.4,0c-0.1,1.1-0.1,2.2,0,3.4C293.8,82.2,294.9,82.2,295,81.5z"
		/>
	<path class="st0" d="M295.7,96.6c0-0.3,0-0.7,0-1c0-0.7-0.9-0.7-0.9,0c0,0.3,0,0.7,0,1C294.9,97.3,295.7,97.3,295.7,96.6z"/>
	<path class="st0" d="M297,112.7c0-1-0.1-2,0-3c0.1-0.7-0.8-1.3-1.1-0.5c-0.5,1.1-0.8,2.5-0.4,3.8C295.7,113.9,297,113.7,297,112.7z
		"/>
	<path class="st0" d="M297.9,129.8c0.2-1.7-0.2-3.5-0.4-5.2c-0.2-1.2-1.9-0.9-1.8,0.3c0,1.7,0,3.5,0.5,5.2
		C296.5,131.3,297.8,131,297.9,129.8z"/>
	<path class="st0" d="M297.6,148c0.1-1.5,0.1-3,0.1-4.5c-0.1-1.3-1.6-1.3-1.7,0c-0.1,1.5,0,3,0.1,4.5
		C296.1,149.2,297.5,149.2,297.6,148z"/>
	<path class="st0" d="M297.2,165.8c0.2-2.1,0.1-4.1-0.3-6.2c-0.2-0.9-1.5-0.7-1.4,0.2c0.2,2,0.3,4,0.3,5.9
		C295.8,166.9,297.1,166.8,297.2,165.8z"/>
	<path class="st0" d="M296.9,178.7c-0.1-1.2-0.3-2.3-0.2-3.5c0.1-1.1-1.5-1.3-1.6-0.3c-0.2,1.5-0.2,2.8,0.4,4.2
		C295.9,179.9,297,179.6,296.9,178.7z"/>
	<path class="st0" d="M296.3,193c0-0.6,0-1.2,0-1.7c0-0.7-1-0.7-1,0c0,0.6,0,1.2,0,1.7C295.5,193.7,296.3,193.7,296.3,193z"/>
	<path class="st0" d="M296.5,12.3c0-1-0.1-2,0-3c0.1-0.7-0.8-1.3-1.1-0.5c-0.5,1.1-0.8,2.5-0.4,3.8
		C295.2,13.4,296.5,13.3,296.5,12.3z"/>
</g>
<g>
	<path class="st0" d="M76.1,85.8c-1.7,2.2-1.7,5.9-0.6,10.4c1.6,6.4,4.3,12.8,5.6,17.1c1.5,4.4,1.5,6.6,2,6.9c0.1,0,0.1,0,0.2,0
		c0.7,0,2.6-1.2,6.6-2.4c4.2-1.4,11.1-2.9,17.2-5.3c4.3-1.7,7.2-3.8,8.1-6.4c-1.4,1.8-3.9,3.4-7.2,4.7c-6.1,2.4-12.9,3.9-17.2,5.3
		c-4,1.2-5.9,2.4-6.6,2.4c-0.1,0-0.1,0-0.2,0c-0.6-0.3-0.6-2.5-2.1-6.9c-1.3-4.3-4-10.7-5.6-17.1C75.6,90.9,75.4,87.9,76.1,85.8
		 M88.1,89.1c-1,0-1.9,0.1-2.6,0.4c-3,0.9-4.1,3.7-3.9,7.5c0.2,3.9,1.4,7.9,2.3,10.8c1,3,1.6,4.8,2.9,5.4c0.4,0.2,0.8,0.3,1.3,0.3
		c1.2,0,2.7-0.5,4.8-1.1c2.9-1,6.8-2.3,10.1-4.3c3.3-2,4.9-4.6,3.9-7.6c-0.9-2.9-4.3-6.2-9.1-8.6C94.3,90,90.8,89.1,88.1,89.1
		 M88.9,112.5c-0.7,0-1.3-0.1-1.7-0.3c-2.1-1.1-3.9-6.5-3.8-12c0-3.6,2.3-5.6,5.7-5.6c1.8,0,4,0.6,6.3,1.8c6.6,3.4,8.3,8.8,3.8,12
		C95.7,110.9,91.6,112.5,88.9,112.5"/>
	<g>
		<path class="st0" d="M75.8,85.8c-4,6.3,0.9,15.9,3.1,22c1.2,3.5,1.9,7.5,3.3,10.9c0.4,0.9,0.2,1.3,1,1.5c1.1,0.3,3.8-1.4,4.6-1.7
			c4.4-1.6,8.9-2.6,13.4-4c5-1.5,12-3.3,14.3-8.6c0.1-0.1-0.6,0-0.7,0.1c-4.7,5.5-13.4,6.7-20,8.7c-2.4,0.7-9.2,4.3-10.9,2.5
			c-0.9-1-1.3-5.1-1.8-6.4c-0.8-2.4-1.7-4.8-2.5-7.2c-1.9-5.5-4.7-12-3.2-17.9C76.5,85.6,75.8,85.6,75.8,85.8
			c-1.6,6.2,1.5,13,3.5,18.7c1.1,3.1,2.3,6.2,3.1,9.5c0.2,0.9,0.3,3.9,1.3,4.5c1.3,0.7,5-1.6,5.7-1.9c6.2-2.2,12.7-3.4,18.8-5.8
			c2.1-0.9,3.6-2,5.6-3c1-0.5,2-1.7-0.7,1.1c-2,2.1-5.2,3.3-7.8,4.2c-4,1.5-8.1,2.5-12.1,3.7c-2.4,0.7-4.9,1.9-7.4,2.5
			c-2.9,0.6-2.8-0.3-3.4-2.8c-0.9-3.5-2.2-6.8-3.4-10.2c-2-5.8-6.3-14.6-2.6-20.4C76.5,85.6,75.9,85.6,75.8,85.8L75.8,85.8z"/>
		<path class="st0" d="M88.3,88.9c-6.6,0.4-7.7,5.5-6.7,11.5c0.6,3.3,1.5,10.1,4.1,12.4c1.5,1.3,3.3,0.7,5,0.3
			c5-1.2,15.8-4.1,16.7-10.3C108.6,94.5,94.6,89.3,88.3,88.9c-0.1,0-0.7,0.3-0.4,0.3c5.8,0.3,12,3.1,16,7.4c5.7,6,0.8,10.9-5.6,13.7
			c-1.4,0.6-2.8,1.1-4.3,1.6c-2.1,0.7-6.2,1.4-8.1-0.1c-1.2-1-1.8-4.6-2.2-6.1c-1.5-5.2-4.7-15.8,4.3-16.4
			C88.1,89.2,88.7,88.9,88.3,88.9L88.3,88.9z"/>
		<path class="st0" d="M89.2,112.4c-4.2-0.4-5-6.5-5.3-9.8c-0.2-1.8-0.3-3.8,0.6-5.4c2.4-4.2,8.2-2.1,11.1-0.4
			c2.6,1.4,5.7,3.9,5.8,7.2C101.5,109.1,93.1,112.2,89.2,112.4c-0.3,0-0.9,0.3-0.4,0.3c4.1-0.2,10.3-2.5,12.5-6.1
			c3.4-5.5-4.7-10.5-8.9-11.6c-3.3-0.9-7.6-0.5-9,3.2c-1.5,4-0.1,14.1,5.3,14.6C88.9,112.7,89.5,112.4,89.2,112.4L89.2,112.4z"/>
	</g>
</g>
<g>
	<path class="st0" d="M83.4,81.5c-1.3,0-2.4,0.2-3.4,0.5c-2,0.6-3.3,1.9-3.9,3.7c0.7-0.9,1.7-1.6,3-2c1-0.3,2.1-0.5,3.4-0.5
		c4.4,0,10.6,1.9,17,5.2c8.3,4.3,14.4,9.7,15.6,13.9c0.4,1.3,0.4,2.5,0.1,3.6c1.2-1.6,1.5-3.4,0.8-5.4c-1.3-4.3-7.4-9.7-15.6-13.9
		C94,83.4,87.8,81.5,83.4,81.5"/>
	<g>
		<path class="st0" d="M83.5,81.4c-3.5,0.2-6.3,1-7.8,4.4c-0.1,0.1,0.6,0,0.7-0.1c6.6-6.9,22.3,2.2,28.1,6c4.6,3,11.6,8,10.3,14.4
			c0,0.2,0.6,0,0.7-0.1c3.8-6.5-4-12.5-8.7-15.8C100.1,85.6,91.9,81.7,83.5,81.4c-0.1,0-0.7,0.3-0.4,0.3
			c10.2,0.4,21.8,6.2,28.9,13.5c1.4,1.4,2.8,3.1,3.5,5.1c0.4,1.3,0,4.1,0.3,4.5c-0.6-0.8-0.7-3.5-1.4-4.7c-0.7-1.2-1.7-2.3-2.7-3.3
			c-6.3-6.4-15.5-11.2-24.3-13c-2.4-0.5-5-0.8-7.4-0.3c-0.9,0.2-1.6,0.5-2.4,0.8c-0.4,0.1-0.7,0.5-1.1,0.7c1.8-0.9-4.3-2.5,6.6-3.2
			C83.4,81.7,84,81.4,83.5,81.4L83.5,81.4z"/>
	</g>
</g>
<g>
	<path class="st0" d="M82.5,83.3c-1.3,0-2.4,0.2-3.4,0.5c-1.3,0.4-2.3,1.1-3,2c-0.7,2.2-0.6,5.1,0.3,8.6c1.6,6.4,4.3,12.8,5.6,17.1
		c1.5,4.4,1.5,6.6,2.1,6.9c0.1,0,0.1,0,0.2,0c0.8,0,2.6-1.2,6.6-2.4c4.2-1.4,11.1-2.9,17.2-5.3c3.3-1.3,5.8-2.8,7.2-4.7
		c0.4-1.1,0.3-2.3-0.1-3.6c-1.3-4.3-7.4-9.7-15.6-13.9C93.1,85.2,86.9,83.3,82.5,83.3 M88,113.5c-0.5,0-0.9-0.1-1.3-0.3
		c-1.2-0.6-1.9-2.5-2.9-5.4c-0.9-2.9-2.1-6.9-2.3-10.8c-0.2-3.9,0.9-6.6,3.9-7.5c0.8-0.3,1.6-0.4,2.6-0.4c2.7,0,6.2,1,9.7,2.8
		c4.7,2.4,8.2,5.7,9.1,8.6c1,3-0.6,5.5-3.9,7.6c-3.3,2-7.2,3.4-10.1,4.4C90.7,113,89.2,113.5,88,113.5"/>
	<g>
		<path class="st0" d="M82.6,83.2c-2.9,0.1-6.2,0.7-7.2,3.8c-1.7,5.7,2.5,13.9,4.3,19.1c1.1,3.1,2.2,6.1,2.9,9.3
			c0.2,0.7,0.2,2.7,1,3.1c0.3,0.2,0.7-0.1,1-0.1c1.7,0.3,5.7-2.1,7.5-2.7c6.3-1.9,13.2-3.1,19-6.3c3.9-2.2,5.7-4.5,3.4-8.8
			c-2.7-5.1-8.4-8.6-13.3-11.3C95.7,86,89.3,83.4,82.6,83.2c-0.1,0-0.7,0.3-0.4,0.3c9.5,0.3,19.6,5.5,26.8,11.6
			c2.4,2.1,5.9,5.2,6,8.7c0.2,6.7-13.1,8.9-17.9,10.3c-3.3,0.9-6.6,2.1-9.9,3.1c-1.2,0.4-2.4,1.1-3.4,0c-0.8-0.9-0.9-3.8-1.3-5
			c-1.7-5.8-13.2-28.2-0.3-28.7C82.5,83.4,83.1,83.1,82.6,83.2L82.6,83.2z"/>
		<path class="st0" d="M88.3,113.3c-4.2-0.9-5.4-9.7-6-13.1c-0.4-2.2-1-5.7,0.1-7.6c0.8-1.4,7.5-3.1,9.1-2.9c2,0.3,4.1,1.3,5.9,2.2
			c3.6,1.8,8.4,5,9.2,9.2c1.3,7.3-12.8,11.7-18.4,12.1c-0.2,0-0.8,0.3-0.3,0.3c5.6-0.5,13.9-3.3,17.8-7.5c6.4-6.9-5.7-14-11-15.9
			c-3.9-1.4-10.3-2.6-12.7,2c-2,3.8-0.3,9.1,0.7,12.9c0.9,3.1,1.4,7.7,5,8.5C87.9,113.7,88.5,113.4,88.3,113.3L88.3,113.3z"/>
	</g>
</g>
<g>
	<path class="st0" d="M134.7,109.8c0.9-0.1,1.5-0.3,1.8-0.6c0.3-0.3,0.3-1,0.1-1.4c-0.7-1.5-2.4-2.7-4.7-2.7c-3.5,0-5.9,2.2-5.9,5.7
		C126,110.8,134.3,109.8,134.7,109.8 M136.7,112.2l-10.7,1.1c0.4,3.4,3,4.7,5.7,4.7h6.9c1,0,1.6,0.7,1.6,1.6l0,1.4h-8.6
		c-4.8,0-8.8-3.1-8.8-9.5c0-5.4,3.8-9.1,9.2-9.1c3.9,0,7,2.4,7.9,5.9C140.3,110.5,139.2,111.9,136.7,112.2"/>
	<g>
		<path class="st0" d="M134.6,109.9c1.4-0.2,2.9-0.5,2.3-2.3c-0.7-1.9-3-2.7-4.8-2.7c-3.6-0.1-6.4,2.3-6.5,5.9
			c0,0.1,0.3,0.1,0.3,0.1C128.8,110.6,131.7,110.3,134.6,109.9c0.3,0,0.6-0.4,0.1-0.3c-2.6,0.3-5.2,0.6-7.7,0.9
			c-0.1,0-0.9,0.2-1,0.1c-0.4-0.4,1.2-3.3,1.6-3.6c1.6-1.9,4.8-2.2,6.9-1c1.2,0.7,3.4,3.2,0.3,3.6
			C134.5,109.7,134.1,110,134.6,109.9L134.6,109.9z"/>
		<path class="st0" d="M136.8,112.1c-3.6,0.4-7.2,0.7-10.7,1.1c-0.1,0-0.6,0.1-0.5,0.3c1,4.6,4.7,4.7,8.6,4.7c1.6,0,6.5-0.5,5.6,2.6
			c-0.1,0.3,0.6-0.3,0.2,0.1c-0.1,0.1-0.9,0-1.1,0c-1.1,0-2.2,0-3.3,0c-5.4,0-10.9-0.4-12.3-6.8c-0.9-4.3,0.6-9.1,5-10.9
			c3.1-1.2,7.1-0.5,9.4,1.9C139.6,107.1,141,111.2,136.8,112.1c-0.4,0.1-0.7,0.4-0.2,0.3c5.6-1.1,3.7-7.2-0.5-9.3
			c-4.1-2-9.7-0.6-12.2,3.2c-3.3,5.1-1.2,13,4.9,14.6c3.5,0.9,7.6,0.3,11.2,0.3c0.1,0,0.5-0.1,0.5-0.3c0-2.1-0.4-2.9-2.4-3
			c-2.7-0.2-6.1,0.6-8.7-0.4c-1.4-0.6-2.3-1.7-2.8-3.1c-0.9-2.5-0.8-0.2-0.2-0.8c0.5-0.5,2.7-0.3,3.4-0.3c2.3-0.2,4.5-0.5,6.8-0.7
			C136.8,112.4,137.3,112,136.8,112.1L136.8,112.1z"/>
	</g>
</g>
<g>
	<path class="st0" d="M174.2,102.3c1,0,1.8,0.5,1.8,1.5c0,1-0.7,1.5-1.8,1.5h-7.5c-1.6,0.1-1.8,1.7-1.6,2.7c0,0.3,0.2,0.6,0.4,0.8
		c0.5,0.4,1.3,0.6,2.2,0.7l5.7,1c3,0.5,4.1,2.1,4.1,4.8c0,4.2-2.6,5.8-6.6,5.8h-9.5l0-1.5c0-1,0.7-1.5,1.8-1.5h7.5
		c2.9,0,3.7-0.9,3.7-2.5c0-1.5-0.4-2-2.4-2.3l-5.8-0.9c-2.9-0.5-4.2-2-4.3-4c-0.2-2.9,1-5.9,4.9-5.9
		C166.7,102.3,174.2,102.3,174.2,102.3z M191.6,114.3c0,3.2-1.8,4.3-4.8,4.3c-2.7,0-4.3-1-4.3-3.2c0-1.6,1.4-2.7,3-3
		c1.7-0.3,4.2-0.4,6.1-0.8V114.3L191.6,114.3z M194.8,108.9c0-3.2-0.9-6.6-5.7-6.6h-6.8c-1.1,0-1.8,0.5-1.8,1.5c0,1,0.7,1.5,1.8,1.5
		h6.3c2.2,0,3,0.5,3,2.1v0.5c-0.1,1-1.2,1.2-1.8,1.3c-4.5,1.1-10.6-0.1-10.6,6.4c0,3.5,3,5.5,7,5.5c0,0,4.1,0.2,5.6-1.8l0,0.2
		c0.1,1,0.6,1.6,1.6,1.6h1.3L194.8,108.9L194.8,108.9z M215.9,114.3c0,3.2-1.8,4.3-4.8,4.3c-2.7,0-4.3-1-4.3-3.2c0-1.6,1.4-2.7,3-3
		c1.7-0.3,4.2-0.4,6.1-0.8C215.9,111.6,215.9,114.3,215.9,114.3z M219.2,108.9c0-3.2-0.9-6.6-5.7-6.6h-6.8c-1.1,0-1.8,0.5-1.8,1.5
		c0,1,0.7,1.5,1.8,1.5h6.3c2.2,0,3,0.5,3,2.1v0.5c-0.1,1-1.2,1.2-1.8,1.3c-4.5,1.1-10.6-0.1-10.6,6.4c0,3.5,3,5.5,7,5.5
		c0,0,4.1,0.2,5.6-1.8l0,0.2c0.1,1,0.6,1.6,1.6,1.6h1.3L219.2,108.9L219.2,108.9z M201.1,97.3h-1.8c-1.6,0-1.4,1.4-1.4,1.4V116l0,5
		l3.2,0C201.1,121,201.1,97.3,201.1,97.3z M150.6,118.2c-2.4,0-3.4-0.1-3.4-1.9v-11h2.8c1,0,1.8-0.5,1.8-1.5c0-1-0.7-1.5-1.8-1.5
		h-2.8v-5l-1.4,0c-0.3,0-0.5,0-0.7,0c-1.3,0.1-1.2,1.4-1.2,1.4v3.5h-0.9c-1,0-1.8,0.5-1.8,1.5c0,1,0.7,1.5,1.8,1.5h0.9V117
		c0,3.9,2.7,4,6.6,4l1.9,0l0-1.3C152.5,118.8,151.8,118.2,150.6,118.2 M230.1,118.2c-2.4,0-3.4-0.1-3.4-1.9v-11h2.8
		c1,0,1.8-0.5,1.8-1.5c0-1-0.7-1.5-1.8-1.5h-2.8v-5l-1.4,0c-0.3,0-0.5,0-0.7,0c-1.3,0.1-1.2,1.4-1.2,1.4v3.5h-0.9
		c-1,0-1.8,0.5-1.8,1.5c0,1,0.7,1.5,1.8,1.5h0.9V117c0,3.9,2.7,4,6.6,4l1.9,0l0-1.3C232,118.8,231.2,118.2,230.1,118.2"/>
	<g>
		<path class="st0" d="M174.1,102.6c0.3,0.1-0.2,2.4-0.2,2.4c-0.1,0.1-0.5-0.1-0.6,0c-0.5,0.2-1.5,0-2.1,0c-1.4,0-3-0.3-4.4,0
			c-1.7,0.3-3.1,2.3-1.7,3.9c1.3,1.5,5.9,1.3,7.7,1.8c3.1,0.7,4.6,2.3,4.2,5.6c-0.4,3.6-3.6,4.4-6.7,4.5c-1.5,0-3.1,0-4.6,0
			c-0.7,0-3.7,0.5-4.2,0c-0.5-0.5,1.2-2.2,2-2.4c1.5-0.3,3.4,0,4.9,0c1.8,0,4.8,0.4,5.8-1.5c1.3-2.3-0.6-3.5-2.4-3.9
			c-4-0.9-12.3-1.1-9.4-7.6C164.3,101.5,170.8,102.6,174.1,102.6c0.5,0,0.6-0.5,0.2-0.5c-3.1,0-8.4-1-11,1.2c-3.2,2.7-2,7.9,1.8,9.1
			c2,0.6,4.4,0.3,6.4,1.1c2.5,1,4.4,3.4-0.8,4.3c-0.9,0.2-2,0-3,0c-3.4,0-6.6-0.9-6.6,3.3c0,0.2,0.2,0.3,0.3,0.3
			c4,0,9.3,0.9,13.1-0.6c4.1-1.7,4.9-8.4,0.5-10.1c-2-0.8-4.4-0.6-6.4-1.3c-1.8-0.6-4.9-2.7-1.3-3.7c1-0.3,2.6,0,3.6,0
			c1.3,0,3.8,0.4,4.9-0.5c1.5-1.3,0.2-2.8-1.3-3C173.9,102,173.6,102.5,174.1,102.6z"/>
		<path class="st0" d="M191.2,114.3c-0.1,1.8-0.7,3.3-2.6,3.8c-1.6,0.4-4.3,0.4-5.3-1.1c-0.6-0.8-0.6-1.8-0.2-2.7
			c0.6-1.3,2-1.6,3.3-1.8c1.7-0.2,3.5-0.4,5.2-0.7c-0.1-0.1-0.3-0.2-0.4-0.2C191.2,112.5,191.2,113.4,191.2,114.3
			c0.2-0.1,0.4-0.2,0.6-0.3c0,0,0,0,0,0c-0.3-0.1-0.9,0.4-0.4,0.5c0,0,0,0,0,0c0.2,0,0.6,0,0.6-0.3c0-0.9,0-1.8,0-2.7
			c0-0.2-0.3-0.3-0.4-0.2c-2.5,0.5-6.3,0-8.4,1.9c-1.3,1.2-1.4,3.5,0.1,4.7c1.5,1.2,4.2,1.2,6,0.6c2-0.6,2.8-2.3,2.8-4.3
			C191.9,113.9,191.2,114,191.2,114.3z"/>
		<path class="st0" d="M195.1,108.9c-0.2-6.5-4.4-6.8-9.8-6.8c-1.3,0-4-0.5-4.9,0.8c-1.2,1.8,0.8,2.5,2.1,2.7c1.8,0.2,7.7-1,8.6,1.2
			c1,2.6-7.4,2.8-9.1,3.6c-5.4,2.5-3.2,9.7,2,10.8c2.3,0.5,4.8,0.3,6.9-0.8c0.1-0.1,1.2-0.7,0.5-0.9c-0.1,0,0.6,1.4,0.8,1.5
			c0.6,0.4,1.8,0.3,2.5,0.3c0.1,0,0.4-0.1,0.4-0.3c0-2,0-4,0-6c0-1.3,0-2.7,0-4c0-0.8,0.3-1.9-0.3-1.8c0.5-0.1,0.3-0.6-0.1-0.5
			c0,0,0,0,0,0c-0.1,0-0.3,0.1-0.3,0.3c0,2.3,0,4.5,0,6.8c0,1.3,0.2,2.8,0,4.1c0,0.3,0.1,0.8,0,1c0,0-2.2-0.2-2.2-1.6
			c0-0.4-0.5-0.3-0.7-0.1c-2.8,3-10.2,2.1-11.6-1.9c-1.8-5.3,3.2-6.8,7.2-7.3c1.6-0.2,7.5-1.4,4.2-4.3c-0.8-0.7-2.2-0.6-3.2-0.6
			c-1.1,0-4.7,0.6-5.5,0c-4.9-3.5,0-2.3,0.4-2.4c0.3-0.1,1,0,1.4,0c1.1,0,2.3,0,3.4,0c4.3,0,6.6,2,6.7,6.3
			C194.4,109.3,195.1,109.2,195.1,108.9z"/>
		<path class="st0" d="M215.6,114.3c-0.1,1.8-0.7,3.3-2.6,3.8c-1.6,0.4-4.3,0.4-5.3-1.1c-0.6-0.8-0.6-1.8-0.2-2.7
			c0.6-1.3,2-1.6,3.3-1.8c1.7-0.2,3.5-0.4,5.2-0.7c-0.1-0.1-0.3-0.2-0.4-0.2C215.6,112.5,215.6,113.4,215.6,114.3
			c0,0.4,0.7,0.3,0.7,0c0-0.9,0-1.8,0-2.7c0-0.2-0.3-0.3-0.4-0.2c-2.5,0.5-6.3,0-8.4,1.9c-1.3,1.2-1.4,3.5,0.1,4.7
			c1.5,1.2,4.2,1.2,6,0.6c2-0.6,2.8-2.3,2.8-4.3C216.3,113.9,215.6,114,215.6,114.3z"/>
		<path class="st0" d="M219.5,108.9c-0.2-6.5-4.4-6.8-9.8-6.8c-1.3,0-4-0.5-4.9,0.8c-1.2,1.8,0.8,2.5,2.1,2.7c1.8,0.2,7.7-1,8.6,1.2
			c1,2.6-7.4,2.8-9.1,3.6c-5.4,2.5-3.2,9.7,2,10.8c2.3,0.5,4.8,0.3,6.9-0.8c0.1-0.1,1.2-0.7,0.5-0.9c-0.1,0,0.6,1.4,0.8,1.5
			c0.6,0.4,1.8,0.3,2.5,0.3c0.1,0,0.4-0.1,0.4-0.3C219.5,116.9,219.5,112.9,219.5,108.9c0-0.1-0.1-0.2-0.2-0.2c0,0,0,0,0,0
			c-0.3-0.1-0.9,0.4-0.4,0.5c-0.2,0-0.2,5.7-0.2,6.5c0,1.3,0.2,2.8,0,4.1c0,0.3,0.1,0.8,0,1c0,0-2.1-0.2-2.2-1.6
			c0-0.4-0.5-0.3-0.7-0.1c-2.8,3-10.2,2.1-11.6-1.9c-1.8-5.3,3.2-6.8,7.2-7.3c1.6-0.2,7.5-1.4,4.2-4.3c-0.8-0.7-2.2-0.6-3.2-0.6
			c-1.1,0-4.7,0.6-5.5,0c-4.9-3.5,0-2.3,0.4-2.4c0.3-0.1,1,0,1.4,0c1.1,0,2.3,0,3.4,0c4.3,0,6.6,2,6.7,6.3
			C218.8,109.3,219.5,109.2,219.5,108.9z"/>
		<path class="st0" d="M201.2,97c-5.1,0-3.6,3.9-3.6,8.1c0,5.3,0,10.6,0,15.9c0,0.2,0.2,0.3,0.3,0.3c1.1,0,2.1,0,3.2,0
			c0.1,0,0.4-0.1,0.4-0.3c0-7.9,0-15.8,0-23.7c0-0.4-0.7-0.3-0.7,0c0,4.4,0,8.8,0,13.3c0,2.7,0,5.4,0,8c0,1.7,0.4,3.4-2,2.1
			c-1.1-0.6-0.5-8.6-0.5-10.6c0-3,0-6,0-9c0-2.3-0.2-3.5,2.8-3.5C201.5,97.6,201.6,97,201.2,97z"/>
		<path class="st0" d="M150.6,117.9c-4.6-0.1-3-7.7-3-10.6c0-3.6,1.2-0.4,3.6-2c1.8-1.2,0.7-2.9-1-3.3c-0.5-0.1-2.4,0.3-2.6,0
			c-0.5-0.5,0-4.1,0-4.7c0-0.2-0.2-0.3-0.3-0.3c-1,0-2.5-0.2-3.3,0.7c-0.9,1.1,0.3,3.4-0.4,4.3c-0.7,0.9-2.6-0.2-2.6,1.8
			c0,1.9,1.5,1,2.3,1.7c1.4,1.4,0.1,8.6,0.3,11.4c0.4,4.9,4.9,4.3,8.8,4.3c0.1,0,0.4-0.1,0.4-0.3
			C152.8,119.1,152.7,118.3,150.6,117.9c-0.3-0.1-0.6,0.5-0.2,0.5c1.2,0.4,1.8,1.2,1.7,2.2c0.3,0.1,0.1,0.1-0.6,0
			c-0.2,0.1-4.6-0.3-3.2,0c-3.7-0.7-3.9-2.9-3.9-5.7c0-3.2,0-6.4,0-9.7c0-0.2-0.2-0.3-0.3-0.3c-0.8,0-0.9-2.4-0.1-2.4
			c0.1,0,0.4-0.1,0.4-0.3c0-1-0.4-5.9,2.1-4.7c0.8,0.4,0.3,3.5,0.3,4.7c0,0.2,0.2,0.3,0.3,0.3c1.5,0,2.5-0.6,2.6,1.2
			c0,1.8-1,1.2-2.5,1.2c-0.1,0-0.4,0.1-0.4,0.3c0,3.3-0.1,6.6,0,9.9c0.1,2.8,0.8,3.2,3.7,3.2C151,118.5,151.1,117.9,150.6,117.9
			L150.6,117.9z"/>
		<path class="st0" d="M230.1,117.9c-4.6-0.1-3-7.7-3-10.6c0-3.6,1.2-0.4,3.6-2c1.8-1.2,0.7-2.9-1-3.3c-0.5-0.1-2.4,0.3-2.6,0
			c-0.5-0.5,0-4.1,0-4.7c0-0.2-0.2-0.3-0.3-0.3c-1,0-2.5-0.2-3.3,0.7c-0.9,1.1,0.3,3.4-0.4,4.3c-0.7,0.9-2.6-0.2-2.6,1.8
			c0,1.9,1.5,1,2.3,1.7c1.4,1.4,0.1,8.6,0.3,11.4c0.4,4.9,4.9,4.3,8.8,4.3c0.1,0,0.4-0.1,0.4-0.3
			C232.3,119.1,232.2,118.3,230.1,117.9c-0.3-0.1-0.6,0.5-0.2,0.5c1.2,0.4,1.8,1.2,1.7,2.2c0.3,0.1,0.1,0.1-0.6,0
			c-0.2,0.1-4.6-0.3-3.2,0c-3.7-0.7-3.9-2.9-3.9-5.7c0-3.2,0-6.4,0-9.7c0-0.2-0.2-0.3-0.3-0.3c-0.8,0-0.9-2.4-0.1-2.4
			c0.1,0,0.4-0.1,0.4-0.3c0-1-0.4-5.9,2.1-4.7c0.8,0.4,0.3,3.5,0.3,4.7c0,0.2,0.2,0.3,0.3,0.3c1.5,0,2.5-0.6,2.6,1.2
			c0,1.8-1,1.2-2.5,1.2c-0.1,0-0.4,0.1-0.4,0.3c0,3.3-0.1,6.6,0,9.9c0.1,2.8,0.8,3.2,3.7,3.2C230.5,118.5,230.6,117.9,230.1,117.9
			L230.1,117.9z"/>
	</g>
</g>
<g>
	<path class="st0" d="M158.5,121l0-18.6l-1.8,0c-1.2,0-1.4,0.8-1.4,1.4V121H158.5z M156.5,99.2c0.8,0,1.2,0,1.6-0.4
		c0.3-0.3,0.3-0.9,0.3-1.5l0-1.6h-1.8c-1.2,0-1.4,0.8-1.4,1.4l0,2.1L156.5,99.2"/>
	<g>
		<path class="st0" d="M158.8,121c0-6.2,0-12.4,0-18.6c0-0.2-0.2-0.2-0.3-0.2c-1.3,0-2.8-0.3-3.5,1c-0.6,1.1-0.1,3.5-0.1,4.7
			c0,4.4,0,8.8,0,13.2c0,0.2,0.2,0.2,0.3,0.2c1.1,0,2.1,0,3.2,0c0.4,0,0.6-0.5,0.1-0.5c-0.7,0-1.9,0.3-2.6,0c-0.9-0.3,0,0.5-0.3-0.4
			c-0.5-1.5,0-4.2,0-5.8c0-2.4,0-4.7,0-7.1c0-0.9-0.4-2.8,0-3.7c0.4-0.8,2.3-1.4,2.5-1.2c0.2,0.2,0,1.3,0,1.5c0,2.1,0,4.1,0,6.2
			c0,3.6,0,7.2,0,10.8C158.1,121.4,158.8,121.3,158.8,121z"/>
		<path class="st0" d="M156.5,99.4c1.1,0,2.2-0.2,2.3-1.5c0.1-0.8,0-1.6,0-2.3c0-0.2-0.2-0.2-0.3-0.2c-1,0-2.6-0.3-3.3,0.7
			c-0.3,0.4-0.3,1-0.3,1.5c0,0.6,0,1.1,0,1.7c0,0.2,0.2,0.2,0.3,0.2C155.6,99.4,156,99.4,156.5,99.4c0.4,0,0.6-0.5,0.1-0.5
			c-0.4,0-0.8,0-1.3,0c0.1,0.1,0.2,0.1,0.3,0.2c0-0.8-0.1-1.8,0-2.6c0.2-1,2-0.7,2.8-0.7c-0.1-0.1-0.2-0.1-0.3-0.2c0,0.5,0,1,0,1.5
			c0,0.3,0,0.7,0,1c-0.2,0.8-0.9,0.7-1.5,0.7C156.1,98.9,156,99.4,156.5,99.4L156.5,99.4z"/>
	</g>
</g>
</svg>
