<?xml version="1.0" encoding="utf-8"?>
<!-- Generator: Adobe Illustrator 21.0.0, SVG Export Plug-In . SVG Version: 6.00 Build 0)  -->
<svg version="1.1" id="Layer_1" xmlns="http://www.w3.org/2000/svg" xmlns:xlink="http://www.w3.org/1999/xlink" x="0px" y="0px"
	 viewBox="0 0 301.5 205.5" style="enable-background:new 0 0 301.5 205.5;" xml:space="preserve">
<style type="text/css">
	.st0{fill:#F8F0F0;}
	.st1{fill:none;stroke:#F8F0F0;stroke-miterlimit:10;}
	.st2{fill:#40404C;}
</style>
<g id="XMLID_1_">
	<g>
		<path class="st0" d="M295.7,161.4c0.3,9.5,1.6,19.1,0.2,28.4c-0.3,1.8-0.7,3.7-2.1,4.8c-1,0.7-2.3,0.9-3.5,1.1
			c-13.9,1.6-28.8,1.6-42.8,1.7c-12.5,0.1-25,0.1-37.5,0.2c-41.8,0.2-83.7,0.4-125.5,0.6c-21.1,0.1-42.2,0.2-63.3,0.3
			c-5.6,0-12.1-0.4-15.3-5c-2.1-3-2.1-6.9-2-10.5c0.4-10.9,1.7-22,2.7-33C8.9,123.6,9.4,97,8,70.6c-0.4-7.6-1.7-17-1.7-31.2
			c0-11.2,1.3-26.6,1.3-26.6s0-4.5,5.3-4.2c2.2-0.6,4-0.1,4.9,0.2c0.4,0.1,6.1,0.4,17.4,1.1c0,0,5.2,0.3,15,0.3
			c10.4,0,229.1-3.7,237.5-4.1c2.5-0.1,5.5,0,6.6,2.2c0.5,0.9,0.5,1.9,0.5,2.9C296.5,61.3,294.1,111.3,295.7,161.4z"/>
	</g>
	<g>
		<path class="st1" d="M17.8,8.8C16.9,8.5,15,8,12.9,8.6c-5.3-0.3-5.3,4.2-5.3,4.2S6.3,28.2,6.3,39.4C6.3,53.6,7.6,63,8,70.6
			c1.4,26.4,0.9,53-1.4,79.4c-1,11-2.3,22-2.7,33.1c-0.1,3.6-0.1,7.5,2,10.5c3.2,4.6,9.7,5,15.3,5c21.1-0.1,42.2-0.2,63.3-0.3
			c41.8-0.2,83.7-0.4,125.5-0.6c12.5-0.1,25-0.1,37.5-0.2c14-0.1,28.9-0.1,42.8-1.7c1.2-0.1,2.5-0.3,3.5-1.1c1.4-1.1,1.9-3,2.1-4.8
			c1.4-9.4,0.1-18.9-0.2-28.4c-1.6-50.1,0.8-100.2-0.9-150.3c0-1-0.1-2-0.5-2.9c-1.2-2.2-4.2-2.3-6.6-2.2
			c-8.4,0.4-227,4.1-237.5,4.1c-9.9,0-15-0.3-15-0.3C23.8,9.2,18.1,8.9,17.8,8.8z"/>
	</g>
</g>
<g>
	<g id="group">
		<g id="group-1">
		</g>
		<g id="group-2">
			<g id="Path">
				<path class="st2" d="M79.2,102.5c-1.6,0-3-0.6-4.1-1.6c-1-1-1.6-2.4-1.6-4c0-1.2,0.3-2.2,0.9-3.2c1-1.7,2.9-2.7,5-2.7
					c1.6,0,2.9,0.5,4,1.4c1.1,1,1.8,2.5,1.8,4.2c0,1.5-0.5,2.8-1.3,3.8C82.6,101.8,81.1,102.5,79.2,102.5z M92.8,102.5
					c-0.7,0-1.1-0.5-1.7-1.3l-2.7-3.9c-0.1-0.2-0.2-0.3-0.2-0.4c0-0.1,0.1-0.2,0.2-0.2c0.2,0,0.4,0.1,0.8,0.1c2.2,0,3.3-0.8,3.3-2.5
					c0-1.7-1.2-2.8-3.2-2.8c-0.4,0-0.9,0.1-1.6,0.2c-0.1,1-0.1,2-0.1,3v4.1c0,1,0,2,0.1,3c1.1,0.1,1.6,0.2,1.6,0.4
					c0,0.1-0.1,0.1-0.2,0.1c-0.2,0-1-0.1-2.1-0.1c-1,0-1.6,0.1-1.9,0.1c-0.2,0-0.2,0-0.2-0.1c0-0.2,0.5-0.3,1.5-0.4
					c0.1-1,0.1-2,0.1-3v-4.1c0-1,0-2-0.1-3c-1-0.1-1.5-0.2-1.5-0.4c0-0.1,0.1-0.2,0.2-0.2c0.3,0,0.9,0.1,1.9,0.1
					c0.9,0,1.8-0.1,2.8-0.1c2.4,0,3.8,1.1,3.8,2.7c0,1.8-1.5,3.1-4.1,3.3l2.9,3.7c0.5,0.6,0.7,0.9,1.2,0.9c0.3,0,0.6-0.2,0.8-0.2
					c0.1,0,0.1,0,0.1,0.1C94.5,101.9,93.7,102.5,92.8,102.5z M95,102.3c-0.2,0-0.2,0-0.2-0.1c0-0.2,0.5-0.3,1.5-0.4
					c0.1-1,0.1-2,0.1-3v-4.1c0-1.1,0-2.1-0.1-3c-1-0.1-1.5-0.2-1.5-0.4c0-0.1,0.1-0.2,0.2-0.2c0.3,0,0.9,0.1,1.9,0.1
					c0.9,0,1.8-0.2,2.7-0.2c3.4,0,5.6,2.2,5.6,5.6c0,3.4-2.3,5.7-5.7,5.7c-0.8,0-1.7-0.1-2.5-0.1C96,102.2,95.3,102.3,95,102.3z
					 M105.4,102.3c-0.2,0-0.2,0-0.2-0.1c0-0.2,0.5-0.3,1.5-0.4c0.1-1,0.1-2,0.1-3v-4.1c0-1,0-2-0.1-3c-1-0.1-1.5-0.2-1.5-0.4
					c0-0.1,0.1-0.2,0.2-0.2c0.3,0,0.9,0.1,1.9,0.1c1,0,1.7-0.1,1.9-0.1c0.2,0,0.2,0,0.2,0.2c0,0.2-0.5,0.3-1.5,0.4
					c-0.1,1-0.1,2-0.1,3v1.9h5.8v-1.9c0-1.2,0-2.2-0.1-3c-1-0.1-1.5-0.2-1.5-0.4c0-0.1,0.1-0.2,0.2-0.2c0.3,0,0.9,0.1,1.9,0.1
					c1,0,1.7-0.1,2-0.1c0.2,0,0.2,0,0.2,0.2c0,0.2-0.5,0.3-1.5,0.4c-0.1,1-0.1,2-0.1,3v4.1c0,1,0,2,0.1,3c0.9,0.1,1.4,0.2,1.5,0.4
					c0.1-0.2,0.6-0.3,1.5-0.4c0.5-0.9,0.9-1.9,1.4-3l2.4-5.9c-0.3-0.6-0.5-1.2-0.8-1.8l1.3-0.5c0.2,1,0.7,2.4,1.5,4.2l1.8,4.3
					c0.4,1,0.8,1.9,1.2,2.7c0.6,0.1,1,0.1,1.2,0.2c0.2-0.1,0.6-0.1,1.1-0.2c0.3-0.9,0.5-2.5,0.8-4.7l0.4-4.1
					c-0.3-0.8-0.6-1.3-1.1-1.5c-0.3-0.1-0.6-0.1-0.6-0.2c0-0.1,0.1-0.2,0.2-0.2c0.1,0,0.5,0.1,1.3,0.1c0.2,0,0.4,0,0.6,0
					c0.5,1.3,0.9,2.1,1.1,2.6l2.6,5.3l2.9-7.9c0.4,0,0.7,0,0.9,0c0.8,0,1.2-0.1,1.3-0.1c0.2,0,0.2,0,0.2,0.2c0,0.2-0.4,0.2-1.2,0.4
					l0.5,6.9c0.1,1,0.2,2.1,0.4,3.2c0.9,0.1,1.3,0.2,1.3,0.4c0,0.1-0.1,0.1-0.2,0.1c-0.3,0-0.9-0.1-1.9-0.1c-1,0-1.7,0.1-2,0.1
					c-0.2,0-0.2,0-0.2-0.1c0-0.2,0.5-0.3,1.6-0.4c0-0.2,0-0.5,0-0.7c0-0.6,0-1.4-0.1-2.1l-0.5-7l-3.1,8.6c-0.1,0.2-0.1,0.3-0.2,0.3
					c-0.1,0-0.1-0.1-0.2-0.2l-3.4-6.9l-0.3,3.3c-0.1,1.2-0.2,2.4-0.2,3.6c0,0.4,0,0.8,0,1.2c1.1,0.1,1.7,0.2,1.7,0.4
					c0,0.1-0.1,0.1-0.2,0.1c-0.3,0-0.9-0.1-1.9-0.1c-0.6,0-1.1,0.1-1.5,0.1c0,0-0.1,0-0.2,0c0,0-0.1,0-0.1,0c0,0-0.1,0-0.1,0
					c-0.3,0-1-0.1-2-0.1c-1.2,0-1.9,0.1-2.1,0.1c-0.2,0-0.3,0-0.3-0.1c0-0.2,0.6-0.3,1.8-0.4c-0.2-0.8-0.5-1.5-0.8-2.2l-0.4-0.9
					h-4.2l-0.3,0.8c-0.2,0.5-0.4,1.3-0.7,2.3c1.2,0.1,1.8,0.2,1.8,0.4c0,0.1-0.1,0.1-0.2,0.1c-0.3,0-0.9-0.1-1.8-0.1
					c-1,0-1.7,0.1-2,0.1c-0.1,0-0.2,0-0.2-0.1c0,0.1-0.1,0.1-0.2,0.1c-0.3,0-1-0.1-2-0.1c-1,0-1.6,0.1-1.9,0.1c-0.2,0-0.2,0-0.2-0.1
					c0-0.2,0.5-0.3,1.5-0.4c0.1-1,0.1-2,0.1-3v-1.8H108v1.8c0,1,0,2,0.1,3c1,0.1,1.5,0.2,1.5,0.4c0,0.1-0.1,0.1-0.2,0.1
					c-0.3,0-0.9-0.1-1.9-0.1C106.4,102.2,105.7,102.3,105.4,102.3z M64.4,102.3c-0.2,0-0.2,0-0.2-0.1c0-0.2,0.5-0.3,1.5-0.4
					c0.1-1,0.1-2,0.1-3v-4.1c0-1,0-2-0.1-3c-1-0.1-1.5-0.2-1.5-0.4c0-0.1,0.1-0.2,0.2-0.2c0.2,0,0.8,0.1,1.9,0.1H68
					c1.3,0,2.8-0.1,4.4-0.3l0.2-0.5c0-0.1,0.1-0.2,0.2-0.2c0.1,0,0.1,0.1,0.1,0.2c0,0.2-0.1,0.7-0.1,1.5c0,0.9,0.1,1.4,0.1,1.5
					c0,0.1,0,0.2-0.1,0.2c-0.1,0-0.2-0.2-0.2-0.5l-0.1-1c-0.9-0.3-2.2-0.5-3.8-0.5c-0.4,0-0.9,0-1.5,0.1c-0.1,1-0.1,2-0.1,3v1.7h1.7
					c1.2,0,2.3-0.1,3.2-0.3l0.1-0.4c0.1-0.6,0.1-0.8,0.3-0.8c0.1,0,0.1,0.1,0.1,0.2c0,0.2-0.1,0.7-0.1,1.7c0,0.9,0.1,1.4,0.1,1.7
					c0,0.1,0,0.2-0.1,0.2c-0.2,0-0.2-0.3-0.3-0.9l-0.1-0.5c-0.8-0.2-1.9-0.4-3.2-0.4H67v2c0,1,0,2,0.1,3c1.2,0.1,1.8,0.2,1.8,0.4
					c0,0.1-0.1,0.1-0.2,0.1c-0.1,0-0.8-0.1-2.2-0.1C65.2,102.2,64.6,102.3,64.4,102.3z M99.3,102c2.8,0,4.6-2,4.6-5.2
					c0-3.4-1.7-5.3-4.6-5.3c-0.5,0-1,0.1-1.5,0.2c-0.1,1-0.1,2-0.1,3v4.1c0,1,0,2,0.1,3C98.3,101.9,98.8,102,99.3,102z M80.1,101.8
					c0.9,0,1.7-0.3,2.3-0.7c1.2-0.8,1.8-2,1.8-3.3c0-1.4-0.5-2.7-1.4-3.9c-1.2-1.5-2.7-2.2-4.3-2.2c-2.5,0-4.3,1.8-4.3,4.2
					c0,1.2,0.5,2.6,1.5,3.8C77,101,78.6,101.8,80.1,101.8C80.1,101.8,80.1,101.8,80.1,101.8z M120,98.3h3.9l-2-4.9L120,98.3z
					 M146.2,91.4c0-0.1,0.1-0.2,0.2-0.2c0.3,0,0.9,0.1,1.9,0.1c1,0,1.6-0.1,1.9-0.1c0.2,0,0.2,0,0.2,0.2c0,0.2-0.5,0.3-1.5,0.4
					l-0.2,5.9c0,0.2,0,0.4,0,0.6c0,2.7,0.8,3.8,3,3.8c1.5,0,2.6-0.6,3.1-1.7c0.4-0.8,0.4-1.9,0.4-3.3v-1.6c0-1.3-0.1-2.5-0.3-3.7
					c-1-0.1-1.6-0.2-1.6-0.4c0-0.1,0.1-0.2,0.2-0.2c0.2,0,0.8,0.1,1.7,0.1s1.4-0.1,1.7-0.1c0.2,0,0.2,0,0.2,0.2
					c0,0.2-0.4,0.3-1.2,0.4c-0.1,0.7-0.2,2-0.2,3.7l-0.1,1.7c-0.1,1.3-0.1,2.4-0.5,3.3c-0.6,1.2-1.8,1.8-3.6,1.8
					c-1.6,0-2.8-0.6-3.4-1.6c-0.5-0.8-0.5-1.9-0.5-3.5v-5.6C146.7,91.7,146.2,91.6,146.2,91.4z M159.5,97.8c0,1.6,0.1,2.9,0.3,3.9
					c1.1,0.1,1.7,0.2,1.7,0.4c0,0.1-0.1,0.1-0.2,0.1c-0.3,0-0.9-0.1-1.8-0.1c-0.7,0-1.3,0.1-1.6,0.1c-0.2,0-0.2,0-0.2-0.1
					c0-0.2,0.4-0.3,1.3-0.4c0.2-0.7,0.3-1.9,0.3-3.6v-5.5c-0.8-1.1-1.5-1-1.5-1.2c0-0.1,0.1-0.2,0.2-0.2c0.1,0,0.5,0.1,1.3,0.1
					c0.2,0,0.3,0,0.5,0l6.8,8.9v-4.4c0-1.8-0.1-3.1-0.2-4c-1.1-0.1-1.6-0.2-1.6-0.4c0-0.1,0.1-0.2,0.2-0.2c0.3,0,0.9,0.1,1.8,0.1
					c0.7,0,1.3-0.1,1.6-0.1c0.2,0,0.2,0,0.2,0.2c0,0.2-0.5,0.3-1.4,0.4c-0.2,1.2-0.3,2.8-0.3,5v5.4v0.1c0,0.1,0,0.1-0.1,0.1
					c-0.1,0-0.2-0.1-0.3-0.3l-6.9-9.1L159.5,97.8L159.5,97.8z M171.7,101.7c1,0.1,1.5,0.2,1.5,0.4c0,0.1-0.1,0.1-0.2,0.1
					c-0.3,0-0.9-0.1-1.9-0.1c-1,0-1.6,0.1-1.9,0.1c-0.2,0-0.2,0-0.2-0.1c0-0.2,0.5-0.3,1.5-0.4c0.1-0.9,0.1-1.9,0.1-3v-4
					c0-1,0-2-0.1-2.9c-1-0.1-1.5-0.2-1.5-0.4c0-0.1,0.1-0.2,0.2-0.2c0.3,0,0.9,0.1,1.9,0.1c1,0,1.6-0.1,1.9-0.1c0.2,0,0.2,0,0.2,0.2
					c0,0.2-0.5,0.3-1.5,0.4c-0.1,1-0.1,1.9-0.1,2.9v4C171.6,99.8,171.6,100.7,171.7,101.7z M173.4,91.4c0-0.1,0.1-0.2,0.2-0.2
					c0.4,0,0.9,0.1,1.6,0.1c0.7,0,1.2-0.1,1.5-0.1c0.2,0,0.2,0,0.2,0.2c0,0.2-0.4,0.3-1.3,0.4l3.5,9.2l1.4-3.2
					c0.7-1.8,1.4-3.8,1.9-6c-0.8-0.1-1.3-0.2-1.3-0.4c0-0.1,0.1-0.2,0.2-0.2c0.2,0,0.7,0.1,1.4,0.1c0.7,0,1.2-0.1,1.4-0.1
					c0.2,0,0.2,0,0.2,0.2c0,0.2-0.4,0.2-1.1,0.4c-0.6,1.3-1.1,2.6-1.7,3.9l-2.7,6.4c-0.1,0.2-0.2,0.3-0.2,0.3
					c-0.1,0-0.1-0.1-0.2-0.2l-4.2-10.4C173.8,91.6,173.4,91.6,173.4,91.4z M193,91l0.2-0.5c0-0.1,0.1-0.2,0.2-0.2
					c0.1,0,0.1,0.1,0.1,0.2c0,0.2-0.1,0.7-0.1,1.5c0,0.9,0.1,1.4,0.1,1.5c0,0.1,0,0.2-0.1,0.2c-0.1,0-0.2-0.2-0.2-0.5l-0.1-1
					c-0.8-0.3-2.1-0.5-3.7-0.5c-0.4,0-0.9,0-1.4,0.1c-0.1,1-0.1,1.9-0.1,2.9v1.7h1.7c1.2,0,2.2-0.1,3.1-0.3l0.1-0.4
					c0.1-0.6,0.1-0.8,0.3-0.8c0.1,0,0.1,0.1,0.1,0.2c0,0.2-0.1,0.7-0.1,1.7c0,0.9,0.1,1.4,0.1,1.6c0,0.1,0,0.2-0.1,0.2
					c-0.2,0-0.2-0.3-0.3-0.8l-0.1-0.5c-0.8-0.2-1.9-0.4-3.1-0.4h-1.7v1.9c0,1,0,2,0.1,3c0.3,0,0.7,0,1,0c1.7,0,3.1-0.2,4.2-0.7
					l0.1-0.9c0-0.3,0.1-0.5,0.2-0.5c0.1,0,0.1,0.1,0.1,0.2s-0.1,0.6-0.1,1.5c0,0.8,0.1,1.2,0.1,1.3c0,0.1,0,0.2-0.1,0.2
					c-0.1,0-0.1-0.1-0.2-0.2l-0.1-0.3c-1.5-0.2-3.1-0.2-5-0.2h-1.2c-0.9,0-1.5,0.1-1.7,0.1c-0.2,0-0.2,0-0.2-0.1
					c0-0.2,0.5-0.3,1.5-0.4c0.1-0.9,0.1-1.9,0.1-3v-4c0-1,0-2-0.1-2.9c-1-0.1-1.5-0.2-1.5-0.4c0-0.1,0.1-0.2,0.2-0.2
					c0.2,0,0.8,0.1,1.9,0.1h1.6C190,91.3,191.5,91.2,193,91z M197.2,94.7v4c0,1,0,2,0.1,3c1.1,0.1,1.6,0.2,1.6,0.4
					c0,0.1-0.1,0.1-0.2,0.1c-0.2,0-0.9-0.1-2-0.1c-1,0-1.6,0.1-1.9,0.1c-0.2,0-0.2,0-0.2-0.1c0-0.2,0.5-0.3,1.5-0.4
					c0.1-0.9,0.1-1.9,0.1-3v-4c0-1,0-2-0.1-2.9c-1-0.1-1.5-0.2-1.5-0.4c0-0.1,0.1-0.2,0.2-0.2c0.3,0,0.9,0.1,1.9,0.1
					c0.8,0,1.8-0.1,2.8-0.1c2.3,0,3.7,1.1,3.7,2.7c0,1.7-1.5,3.1-4,3.3l2.8,3.6c0.4,0.6,0.7,0.9,1.2,0.9c0.3,0,0.6-0.2,0.8-0.2
					c0.1,0,0.1,0,0.1,0.1c0,0.2-0.8,0.8-1.7,0.8c-0.7,0-1.1-0.5-1.7-1.2l-2.7-3.8c-0.1-0.2-0.2-0.3-0.2-0.4c0-0.1,0.1-0.2,0.2-0.2
					c0.2,0,0.4,0.1,0.8,0.1c2.2,0,3.3-0.8,3.3-2.4c0-1.6-1.2-2.8-3.1-2.8c-0.4,0-0.9,0.1-1.5,0.2C197.2,92.8,197.2,93.7,197.2,94.7z
					 M204.9,102.5c-0.1,0.2-0.1,0.3-0.2,0.3c-0.1,0-0.1,0-0.1-0.1c0-0.2,0.2-1.1,0.2-2.7c0-0.8-0.1-1.3-0.1-1.5c0-0.2,0-0.3,0.1-0.3
					c0.2,0,0.3,0.8,0.5,2.3c1.1,1,2.2,1.4,3.3,1.4c1.7,0,2.9-1.2,2.9-2.5c0-0.5-0.2-0.9-0.5-1.1c-0.8-0.5-1.8-0.6-3.2-0.8
					c-2-0.3-2.9-1.2-2.9-2.8c0-2.1,1.5-3.6,3.7-3.6c0.8,0,1.8,0.2,2.7,0.6l0.3-0.8c0.1-0.2,0.1-0.3,0.2-0.3c0.1,0,0.1,0,0.1,0.1
					c0,0.3-0.3,1.2-0.3,2.8c0,0.4,0,0.6,0,0.8c0,0.2,0,0.3-0.2,0.3c-0.2,0-0.3-0.5-0.3-1.7c-0.8-0.8-1.9-1.2-3-1.2
					c-1.7,0-2.9,1.1-2.9,2.4c0,1.3,1,1.6,3.1,1.9c0.8,0.2,1.7,0.2,2.5,0.6c0.7,0.3,1.2,1.1,1.2,2.1c0,2.1-1.7,3.7-4.1,3.7
					c-0.9,0-1.8-0.2-2.8-0.7L204.9,102.5z M215.6,101.7c1,0.1,1.5,0.2,1.5,0.4c0,0.1-0.1,0.1-0.2,0.1c-0.3,0-0.9-0.1-1.9-0.1
					c-1,0-1.6,0.1-1.9,0.1c-0.2,0-0.2,0-0.2-0.1c0-0.2,0.5-0.3,1.5-0.4c0.1-0.9,0.1-1.9,0.1-3v-4c0-1,0-2-0.1-2.9
					c-1-0.1-1.5-0.2-1.5-0.4c0-0.1,0.1-0.2,0.2-0.2c0.3,0,0.9,0.1,1.9,0.1c1,0,1.6-0.1,1.9-0.1c0.2,0,0.2,0,0.2,0.2
					c0,0.2-0.5,0.3-1.5,0.4c-0.1,1-0.1,1.9-0.1,2.9v4C215.5,99.8,215.5,100.7,215.6,101.7z M222.8,101.7c1.2,0.1,1.7,0.2,1.7,0.4
					c0,0.1-0.1,0.1-0.2,0.1c-0.2,0-0.9-0.1-2.2-0.1c-1.2,0-1.9,0.1-2.2,0.1c-0.2,0-0.2,0-0.2-0.1c0-0.2,0.6-0.3,1.7-0.4
					c0.1-0.9,0.1-1.9,0.1-3v-4c0-1.1,0-2.1-0.1-3c-0.1,0-0.1,0-0.2,0c-1.4,0-2.5,0.2-3.3,0.4l-0.1,1c0,0.3-0.1,0.5-0.2,0.5
					c-0.1,0-0.1-0.1-0.1-0.2c0-0.1,0.1-0.6,0.1-1.5c0-0.8-0.1-1.3-0.1-1.5c0-0.1,0.1-0.2,0.1-0.2c0.1,0,0.1,0.1,0.2,0.2l0.2,0.5
					c1.6,0.2,3,0.3,4.3,0.3c1.3,0,2.7-0.1,4.3-0.3l0.2-0.5c0.1-0.1,0.1-0.2,0.2-0.2c0.1,0,0.1,0.1,0.1,0.2c0,0.2-0.1,0.7-0.1,1.5
					c0,0.9,0.1,1.4,0.1,1.5c0,0.1,0,0.2-0.1,0.2c-0.1,0-0.2-0.2-0.2-0.5l-0.1-1c-0.9-0.3-2-0.4-3.3-0.4c-0.1,0-0.1,0-0.2,0
					c-0.1,1-0.1,2-0.1,3v4C222.7,99.8,222.7,100.7,222.8,101.7z M227.4,91.4c0-0.1,0.1-0.2,0.2-0.2c0.3,0,0.9,0.1,1.7,0.1
					c0.7,0,1.3-0.1,1.6-0.1c0.2,0,0.2,0,0.2,0.2c0,0.2-0.4,0.3-1.3,0.4l2.7,4.6l1.4-2.2c0.5-0.8,0.9-1.6,1.2-2.4
					c-0.9-0.1-1.3-0.2-1.3-0.4c0-0.1,0.1-0.2,0.2-0.2c0.2,0,0.7,0.1,1.4,0.1c0.7,0,1.2-0.1,1.4-0.1c0.2,0,0.2,0,0.2,0.2
					c0,0.2-0.4,0.2-1.1,0.4c-0.5,0.6-1,1.3-1.6,2.2l-1.9,2.8v2c0,1,0,2,0.1,3c1,0.1,1.5,0.2,1.5,0.4c0,0.1-0.1,0.1-0.2,0.1
					c-0.3,0-0.9-0.1-1.9-0.1s-1.6,0.1-1.9,0.1c-0.2,0-0.2,0-0.2-0.1c0-0.2,0.5-0.3,1.5-0.4c0.1-0.9,0.1-1.9,0.1-3v-1.9l-3.1-5.1
					C227.8,91.6,227.4,91.6,227.4,91.4z"/>
				<g>
					<path class="st2" d="M79.2,102.1c-6.6-0.3-7.1-10-0.5-10.8C86.3,90.5,86.5,101.8,79.2,102.1c-0.5,0-0.5,0.8,0,0.8
						c3.5-0.2,6.3-2.6,6.3-6.3c0-3.6-2.9-6.2-6.4-6c-3.4,0.2-5.9,3-5.9,6.3c0,3.5,2.7,5.8,6,6C79.7,102.9,79.7,102.1,79.2,102.1z"/>
					<path class="st2" d="M92.9,102.1c-1.1-0.2-3.7-3.5-4-4.6c-0.2-0.7-0.1-0.3,0.8-0.4c0.7-0.1,1.5-0.2,2.1-0.7
						c1.1-0.9,1.2-2.6,0.5-3.8c-1-1.7-3-1.6-4.8-1.4c-0.2,0-0.3,0.2-0.3,0.4c-0.3,3.3-0.2,6.8,0,10.1c0,0.2,0.2,0.4,0.4,0.4
						c0.4,0,1.7,0.3,0.9-0.2c-0.2-0.2-1.4-0.1-1.6-0.1c-0.8,0-3,0.6-0.7,0.3c0.2,0,0.4-0.2,0.4-0.4c0.3-3.3,0.3-6.8,0-10.1
						c0-0.2-0.2-0.3-0.4-0.4c-1.8-0.2-0.7,0.3,0.3,0.3c1.1,0,2.1-0.1,3.2-0.1c1.5,0,3.3,0.5,3.4,2.3c0.1,2-2.2,2.8-3.7,2.9
						c-0.3,0-0.5,0.4-0.3,0.6c0.9,1.1,1.7,2.2,2.6,3.4c0.3,0.4,0.6,1,1.1,1.2c0.2,0.1,0.4,0.1,0.6,0.2c0.2,0,0.4-0.1,0.6-0.1
						c-0.5,0-1,0-1.5,0.1c-0.5,0.1-0.3,0.8,0.2,0.7c0.8-0.1,1.5-0.3,1.9-1c0.1-0.1,0.1-0.3-0.1-0.5c0,0-0.1-0.1-0.1-0.1
						c-0.1-0.1-0.2-0.1-0.4-0.1c-1.6,0.5-3.6-3.2-4.5-4.3c-0.1,0.2-0.2,0.4-0.3,0.6c2.4-0.3,5.8-2.3,4.1-5.2
						c-0.8-1.3-2.3-1.6-3.7-1.6c-1.2,0-2.3,0.2-3.5,0.1c-0.6,0-1.1-0.3-1.7,0.1c-0.2,0.1-0.3,0.3-0.1,0.5c0.7,0.9,1.3,0.1,1.5,1.7
						c0.2,1.1,0,2.4,0,3.6c0,1.1,0,2.1,0,3.2c0,2.1-0.8,0.9-1.5,2.1c-0.1,0.2,0,0.4,0.1,0.5c0.7,0.4,1.6,0.1,2.4,0.1
						c0.8,0,1.8,0.3,2.5-0.1c0.2-0.1,0.3-0.3,0.1-0.5c-0.3-0.4-0.5-0.2-0.9-0.5c-1-0.6-0.8-1.6-0.8-2.8c0-1.1,0-2.3,0-3.4
						c0-0.6,0-1.2,0-1.8c0-0.8-0.1-1.4,0.8-1.6c1-0.3,2.4,0.4,2.9,1.2c1.3,2.1-0.8,3.4-2.6,3.4c-0.7,0-0.8-0.2-1.3,0.2
						c-0.1,0.1-0.1,0.3-0.1,0.5c0.7,1.2,1.6,2.3,2.4,3.4c0.7,1,1.3,2.1,2.6,2.3C93.2,102.9,93.4,102.2,92.9,102.1z"/>
					<path class="st2" d="M95.2,102c0,0.6,0.3,0.6,1.1,0.2c0.2,0,0.4-0.2,0.4-0.4c0.3-3.3,0.3-6.8,0-10.1c0-0.2-0.2-0.3-0.4-0.4
						c-0.4,0-1.6-0.3-0.8,0.2c0.3,0.2,1.2,0.1,1.5,0.1c1,0,2-0.2,2.9-0.1c2.7,0.1,4.6,1.9,4.9,4.6c0.2,2.3-0.9,4.7-3.2,5.5
						c-2,0.7-4.4,0.2-6.6,0.4c-0.5,0-0.5,0.8,0,0.8c2.7-0.2,5.8,0.6,8.2-1.1c1.9-1.4,2.6-3.8,2.2-6.1c-0.3-2-1.6-3.7-3.6-4.4
						c-1.4-0.5-2.8-0.3-4.2-0.2c-0.9,0-2.3-0.4-3.1,0.1c-0.2,0.1-0.3,0.3-0.1,0.5c0.7,0.9,1.3,0.1,1.5,1.7c0.2,1.1,0,2.4,0,3.6
						c0,1.1,0,2.1,0,3.2c-0.1,2.1-0.8,0.9-1.6,2.1c-0.1,0.2,0,0.4,0.1,0.5c0.1,0,0.2,0.1,0.2,0.1C95.3,102.9,95.7,102.2,95.2,102z"
						/>
					<path class="st2" d="M105.6,102c0.4,0,0.8,0.1,1.2,0.1c0.2,0,0.3-0.2,0.3-0.4c0.2-3.3,0.2-6.8,0-10.1c0-0.1-0.1-0.3-0.3-0.4
						c-1,0.3-0.9,0.4,0.6,0.3c1.4,0.1,1.6,0,0.6-0.3c-0.2,0-0.3,0.2-0.3,0.4c-0.1,1.6-0.1,3.3-0.1,4.9c0,0.2,0.2,0.4,0.4,0.4
						c1.9,0,3.8,0,5.8,0c0.2,0,0.4-0.2,0.4-0.4c0-1.6,0-3.3-0.1-4.9c0-0.1-0.1-0.3-0.3-0.4c-1.1,0.3-0.9,0.4,0.6,0.3
						c1.5,0.1,1.6,0,0.6-0.3c-0.2,0-0.3,0.2-0.3,0.4c-0.2,3.3-0.2,6.8,0,10.1c0,0.1,0.1,0.3,0.3,0.4c3.2,0.5,3.4,0,4.8-3.2
						c0.8-1.9,2.1-4.1,2.4-6.1c0.1-0.5-0.8-1.1-0.8-1.4c0.2-1.5,1.5,2.4,1.3,1.8c0.6,1.7,1.4,3.4,2.1,5.1c1.1,2.7,1.2,4.3,4.4,3.8
						c0.1,0,0.2-0.1,0.3-0.3c0.5-2.1,0.7-4.3,0.9-6.4c0.2-1.9-0.1-2.2-0.4-3.8c-0.1-0.3-0.6-0.4-0.7-0.3c0,0,1,0.3,1.2,0.6
						c0.5,0.6,0.7,1.4,1.1,2.1c0.9,1.7,1.7,3.5,2.5,5.2c0.2,0.3,0.6,0.2,0.7-0.1c0.6-1.6,1.2-3.2,1.8-4.9c0.3-0.8,0.5-1.8,0.9-2.5
						c0.1-0.1,2.6-0.8,1-0.5c-0.2,0-0.3,0.2-0.3,0.4c0.2,3.4,0.4,6.8,0.9,10.2c0,0.1,0.1,0.2,0.3,0.3c0.8-0.4,0.6-0.5-0.8-0.3
						c-1.5-0.1-1.6,0-0.6,0.3c0.2,0,0.4-0.2,0.4-0.4c0.1-3.3-0.4-6.6-0.6-9.8c0-0.4-0.6-0.5-0.7-0.1c-0.4,1.2-2.1,8-3,8.3
						c0,0-2.7-5.6-3.2-6.7c-0.2-0.4-0.7-0.1-0.7,0.2c-0.2,2.7-0.5,5.4-0.4,8.1c0,0.2,0.2,0.3,0.4,0.4c1.8,0.2-1.5-0.2-2.2-0.2
						c-0.3,0-0.6-0.1-0.9-0.1c-0.4,0-4,0.5-1.8,0.3c0.2,0,0.4-0.2,0.4-0.5c-0.3-1.1-0.7-2.1-1.2-3.2c0-0.1-0.2-0.2-0.3-0.2
						c-1.4,0-2.8,0-4.2,0c-0.2,0-0.3,0.1-0.4,0.3c-0.4,1-0.7,2.1-1,3.1c-0.1,0.3,0.1,0.4,0.4,0.5c1.6,0.2,0-0.3-0.9-0.3
						c-0.5,0-1,0-1.6,0c-0.3,0-0.6,0-0.9,0c-0.4,0-3.4,0.5-1.8,0.3c0.2,0,0.3-0.2,0.3-0.4c0.1-1.6,0.1-3.2,0.1-4.8
						c0-0.2-0.2-0.4-0.4-0.4c-1.9,0-3.8,0-5.8,0c-0.2,0-0.4,0.2-0.4,0.4c0,1.6,0,3.2,0.1,4.8c0,0.1,0.1,0.3,0.3,0.4
						c1.5,0.2-1.8-0.3-2.5-0.2c-0.5,0-0.5,0.8,0,0.8c1.3-0.1,3.2,0.4,4.3-0.2c0.3-0.1,0.2-0.5,0-0.6c-1.1-0.7-1.9-2.2-1.4-3.6
						c0.7-2.1-0.8-0.3,0.4-1c0.4-0.3,1.7,0,2.1,0c1.5,0,2.1-0.2,2.5,0.5c0.7,1.3-0.3,3.3-1.4,4c-0.2,0.1-0.3,0.5,0,0.6
						c1,0.6,8,0.6,9,0c0.2-0.1,0.2-0.5,0-0.6c-6.4-3.6,8.6-3.4,2.3,0c-0.2,0.1-0.2,0.5,0,0.6c0.9,0.5,7.8,0.6,8.8,0
						c0.2-0.1,0.2-0.5,0-0.6c-1.9-1.1-1.5-2.8-1.4-4.9c0-0.5,0.2-1.1,0.1-1.7c0-0.5,0.1-0.9,0.1-1.4c-0.6-0.1-0.7,0-0.5,0.3
						c1.3,2.2,1.9,5,3.5,6.9c0.1,0.1,0.4,0.1,0.5,0c0.7-0.8,0.9-2,1.2-2.9c0.4-1.2,0.9-2.4,1.3-3.6c0.1-0.4,0.8-2.7,0.5-2.4
						c-0.7,0.9,0,4.3,0.1,5.8c0.1,2,0.4,2.8-1.3,3.9c-0.2,0.1-0.2,0.5,0,0.6c0.9,0.5,3.8,0.5,4.8,0c0.3-0.1,0.2-0.5,0-0.6
						c-1.8-1.2-1.6-4.4-1.7-6.3c-0.1-0.8-0.5-2.5-0.2-3.3c0.2-0.7,0.4-0.3,1-0.7c0.2-0.2,0.3-0.5,0-0.6c-0.7-0.5-1.8-0.1-2.7-0.1
						c-0.2,0-0.3,0.1-0.4,0.3c-0.7,2-1.3,6-2.8,7.6c0.4-0.4-0.2-1.4-0.9-2.9c-0.8-1.6-1.5-3.1-2.2-4.7c-0.1-0.2-0.2-0.3-0.4-0.3
						c-0.8,0-1.7-0.3-2.4,0.1c-0.2,0.1-0.3,0.5,0,0.6c1.7,0.8,1.4,2.3,1.3,3.9c-0.2,2,0.3,5.5-2,5.1c-2.4-0.4-4.5-7.8-5.1-10.1
						c-0.1-0.2-0.3-0.3-0.5-0.3c-0.4,0.2-0.9,0.4-1.3,0.5c-0.2,0.1-0.3,0.3-0.2,0.6c1,2,0.1,3.3-0.7,5.3c-0.5,1.3-1.7,5.6-3.6,5
						c-1.5-0.5-1-4.1-1-5.3c0-1.8-0.3-3.6,1.4-4.7c0.2-0.2,0.2-0.5,0-0.6c-0.8-0.5-3.9-0.5-4.8,0c-0.2,0.2-0.2,0.5,0,0.6
						c1.2,0.8,1.8,2.1,1.4,3.6c-0.4,1.6-0.3,1-2.5,1c-1.6,0-2.1,0.2-2.5-0.6c-0.7-1.3,0.3-3.3,1.4-4c0.2-0.2,0.2-0.5,0-0.6
						c-0.9-0.5-3.9-0.5-4.8,0c-0.2,0.2-0.2,0.5,0,0.6c2.2,1.4,2.2,8.9,0,10.3c-0.2,0.1-0.3,0.5,0,0.6c0.1,0,0.2,0.1,0.2,0.1
						C105.7,102.9,106,102.2,105.6,102z"/>
					<path class="st2" d="M64.6,102c0,0.6,0.3,0.6,1.1,0.2c0.2,0,0.4-0.2,0.4-0.4c0.3-3.3,0.2-6.8,0-10.1c0-0.2-0.2-0.3-0.4-0.4
						c-1.8-0.2-1,0.2-0.1,0.3c0.5,0,1.1,0,1.6,0c1.7,0,3.5-0.1,5.2-0.3c0.2,0,0.3-0.1,0.4-0.3c0.2-0.6-0.2-0.2-0.4,0.2
						c-0.1,0.4-0.1,1.4,0,1.7c0.4,0.8,0.3-0.6,0.3-0.9c0-0.1-0.1-0.2-0.3-0.3c-1.7-0.5-3.5-0.6-5.3-0.4c-0.2,0-0.4,0.2-0.4,0.4
						c-0.1,1.6-0.1,3.2-0.1,4.7c0,0.2,0.2,0.4,0.4,0.4c1.7,0,3.3,0,5-0.4c0.1,0,0.2-0.1,0.3-0.3c0.1-0.3-0.1-0.4-0.1-0.6
						c0-0.9-0.3,1.4-0.3,1.2c0,0.1,0,1.3,0.1,1.3c0.5,0.1,0.3-0.8,0.3-1c0-0.1-0.1-0.2-0.3-0.3c-1.7-0.4-3.3-0.4-5-0.4
						c-0.2,0-0.4,0.2-0.4,0.4c0,1.7,0,3.3,0.1,5c0,0.2,0.2,0.4,0.4,0.4c1.6,0.2,1.6-0.3,0.1-0.3c-0.9,0-1.8,0-2.7,0.1
						c-0.5,0-0.5,0.8,0,0.8c1.3-0.1,3.5,0.4,4.6-0.2c0.2-0.1,0.2-0.4,0.1-0.6c-0.8-1-1.5,0.1-1.8-1.6c-0.1-0.7-0.2-2.4,0-3.1
						c0.1-0.4,0-0.4-0.2,0c0.2,0,0.5,0,0.7,0c0.3,0.1,0.6,0,0.9,0c1,0,2.3-0.1,2.9,0.6c0.3,0.4,0.1,0.7,0.4,1
						c0.2,0.2,0.5,0.1,0.6-0.1c0.4-0.6,0.1-1.4,0.1-2c0-0.7,0.3-1.4,0-2.1c-0.1-0.2-0.4-0.2-0.6-0.1c-0.3,0.3-0.2,0.9-0.4,1.1
						c-0.5,0.5-2.2,0.4-3,0.4c-0.3,0-1.5-0.1-1.4,0.1c0.2,0.2,0.1-1.1,0.1-1.4c0-0.5-0.2-1.9,0.1-2.4c0.5-0.9,2.4-0.4,3.2-0.3
						c2.1,0.3,0.7,0.8,1.8,1.7c0.2,0.2,0.4,0.1,0.6-0.1c0.5-0.6,0.4-3.1,0.1-3.7c-0.1-0.2-0.4-0.2-0.6-0.1c-0.5,0.6-0.5,0.7-1.5,0.8
						c-1.1,0.1-2.3,0.1-3.4,0.1c-1.1,0-2.7-0.5-3.6,0.1c-0.2,0.1-0.3,0.3-0.1,0.5c0.5,0.8,1.2,0.2,1.5,1.3c0.3,1.1,0,2.8,0,4
						c0,1.2,0.1,2.4,0,3.6c-0.2,1.6-0.9,0.7-1.5,1.7c-0.1,0.2,0,0.4,0.1,0.5c0.1,0,0.2,0.1,0.2,0.1C64.7,102.9,65,102.2,64.6,102z"
						/>
					<path class="st2" d="M99.3,102.4c3.6-0.2,5.2-3.2,4.9-6.5c-0.4-3.6-3.2-5.3-6.6-4.5c-0.2,0-0.3,0.2-0.3,0.4
						c-0.3,3.3-0.3,6.8,0,10.1c0,0.2,0.1,0.3,0.3,0.4C98.2,102.3,98.7,102.3,99.3,102.4c0.5,0,0.5-0.7,0-0.8
						c-1.8-0.1-1.4-1.5-1.4-2.9c0-0.5,0-0.9,0-1.4c0-1.3-0.2-2.9,0-4.2c0.2-0.9,0.2-1.3,1.5-1.3c0.6,0,1.4,0.2,1.9,0.5
						c1.4,0.8,1.9,2.3,2.1,3.8c0.2,2.8-1.1,5.4-4.2,5.5C98.8,101.6,98.8,102.4,99.3,102.4z"/>
					<path class="st2" d="M80.1,102.2c7.5-0.6,4.4-11.7-2.2-10.9C71,92.1,74.3,102.2,80.1,102.2c0.5,0,0.5-0.7,0-0.8
						c-4.3,0-8.1-7.4-3-9.2c5.9-2.1,10,8.6,3,9.2C79.6,101.5,79.6,102.3,80.1,102.2z"/>
					<path class="st2" d="M120,98.7c1.3,0,2.6,0,3.9,0c0.2,0,0.5-0.2,0.4-0.5c-0.7-1.6-1.3-3.3-2-4.9c-0.1-0.3-0.6-0.4-0.7,0
						c-0.6,1.6-1.3,3.3-1.9,4.9c-0.2,0.4,0.5,0.6,0.7,0.2c0.6-1.6,1.3-3.3,1.9-4.9c-0.2,0-0.5,0-0.7,0c0.7,1.6,1.3,3.3,2,4.9
						c0.1-0.2,0.2-0.3,0.4-0.5c-1.3,0-2.6,0-3.9,0C119.5,97.9,119.5,98.7,120,98.7z"/>
					<path class="st2" d="M146.4,91.7c0.5-0.3,1.8,0,2.3,0c0.8,0,2.4-0.6,0.3-0.3c-0.2,0-0.4,0.2-0.4,0.4c-0.1,1.9-0.1,3.7-0.2,5.6
						c-0.1,1.7-0.1,4.1,1.8,4.9c1.9,0.8,4.4,0,5.1-2c0.9-2.4,0.4-6.1,0.1-8.5c0-0.2-0.2-0.3-0.4-0.3c-2-0.2-0.9,0.3,0,0.3
						c0.5,0,1.6-0.3,2.1,0c0-0.2-0.1-0.4-0.1-0.6c-0.3,0.2-0.7,0.3-1.1,0.3c-0.1,0-0.2,0.1-0.3,0.3c-0.2,1.7-0.2,3.5-0.3,5.3
						c-0.1,1.4,0.1,3.1-1,4.2c-1.4,1.4-4.7,1.4-5.8-0.5c-0.8-1.3-0.4-3.5-0.4-5c0-1.3,0-2.6,0-3.8c0-0.2-0.2-0.3-0.4-0.4
						c-0.4,0-0.8-0.1-1.2-0.2c-0.3-0.4-0.9,0-0.6,0.4c0.2,0.2,0.3,0.3,0.6,0.4c0.7,0.2,0.6-0.3,0.8,0.2c0.4,0.9,0,2.9,0,3.9
						c0,2.3-0.4,5.1,2,6.3c2.3,1.2,5.6,0.4,6.4-2.2c0.4-1.4,0.3-3,0.4-4.5c0-0.8-0.1-1.9,0.1-2.7c0.2-0.9,0.8-0.8,1.3-1.3
						c0.2-0.2,0.1-0.4-0.1-0.6c-0.6-0.4-1.4-0.1-2.1-0.1c-0.7,0-1.5-0.3-2.1,0.1c-0.2,0.1-0.3,0.3-0.1,0.5c0.3,0.4,0.8,0.2,1.2,0.5
						c1,0.7,0.6,3.1,0.6,4.2c0,1.5,0.2,3.5-0.9,4.7c-0.8,0.8-2.8,1.2-3.8,0.5c-0.9-0.6-1-1.8-1-2.8c-0.1-1.6,0.1-3.3,0.2-4.9
						c0-0.4-0.1-0.9,0-1.3c0.1-0.5,0-0.3,0.2-0.4c0.2-0.1,1,0.1,1.3-0.4c0.1-0.2,0-0.4-0.1-0.5c-0.7-0.4-1.6-0.1-2.3-0.1
						c-0.7,0-1.7-0.3-2.4,0.1C145.6,91.3,146,92,146.4,91.7z"/>
					<path class="st2" d="M159.1,97.8c0,1.4,0.1,2.7,0.3,4c0,0.2,0.2,0.3,0.4,0.3c1.9,0.2,1.2-0.3,0.3-0.3c-0.6,0-1.8,0.3-2.3,0
						c0,0.2,0.1,0.4,0.1,0.6c0.3-0.2,0.7-0.3,1.1-0.3c0.1,0,0.2-0.1,0.3-0.3c0.5-2.2,0.3-4.5,0.3-6.7c0-0.7,0.2-1.8,0-2.5
						c-0.2-0.9-1.1-0.9-1.6-1.5c0,0.2-0.1,0.4-0.1,0.6c1.9-1.2,3.6,2.5,4.5,3.7c1.3,1.7,2.5,3.3,3.8,5c0.2,0.3,0.7,0.2,0.7-0.2
						c0-2.8,0.2-5.7-0.3-8.5c0-0.2-0.2-0.3-0.4-0.3c-1.6-0.2-1.1,0.3,0.1,0.3c0.8,0,2.8-0.6,0.8-0.3c-0.1,0-0.3,0.1-0.4,0.3
						c-0.3,2-0.3,4.1-0.3,6.1c0,1.1,0.5,3.5,0,4.4c0.2,0,0.4-0.1,0.6-0.1c-1.5-1.2-2.6-3.2-3.7-4.8c-1.2-1.5-2.3-3-3.5-4.6
						c-0.2-0.3-0.7-0.2-0.7,0.2C159.1,94.6,159.1,96.2,159.1,97.8c0,0.2,0.2,0.4,0.4,0.4c0,0,0,0,0,0c0.5,0,0.5-0.8,0-0.8
						c0.7,0,0.2,0.5,0.4-0.4c0.1-0.5,0-1.1,0-1.6c0-0.8,0-1.6,0-2.4c-0.2,0.1-0.5,0.1-0.7,0.2c1.2,1.6,2.5,3.3,3.7,4.9
						c1.1,1.5,2.2,3.4,3.6,4.6c0.2,0.1,0.5,0.2,0.6-0.1c0.7-1.2,0.1-3.8,0.1-5.1c0-1.3-0.1-2.6,0.1-3.9c0.1-0.5,0-1.2,0.4-1.5
						c0.1-0.1,0.4,0,0.5-0.1c0.2-0.2,0.4-0.1,0.6-0.4c0.1-0.2,0-0.4-0.1-0.5c-0.7-0.5-1.6-0.1-2.4-0.1c-0.7,0-1.3-0.3-1.9,0.1
						c-0.2,0.1-0.3,0.3-0.1,0.5c0.3,0.5,0.8,0.2,1.2,0.5c0.9,0.6,0.6,2.8,0.6,3.7c0,1.4,0,2.9,0,4.3c0.2-0.1,0.5-0.1,0.7-0.2
						c-1.6-2.1-3.2-4.2-4.8-6.3c-0.5-0.7-1.2-2-1.9-2.5c-0.6-0.4-1.9-0.5-2.6-0.1c-0.2,0.1-0.2,0.4-0.1,0.6c0.5,0.7,1.2,0.6,1.4,1.6
						c0.2,1,0,2.2,0,3.2c0,0.8,0,1.7,0,2.5c0,0.5,0,0.9-0.1,1.4c0.2,0.7,0,1.1-0.7,1.2c-0.3,0.3-0.5,0.1-0.7,0.4
						c-0.2,0.2-0.1,0.5,0.1,0.6c0.7,0.4,1.6,0.1,2.4,0.1c0.7,0,1.3,0.3,1.9-0.1c0.2-0.1,0.3-0.4,0.1-0.5c-0.4-0.5-0.7-0.2-1.2-0.5
						c-1-0.6-0.7-2.6-0.7-3.6C159.8,97.3,159.1,97.3,159.1,97.8z"/>
					<path class="st2" d="M171.7,102.1c0.4,0,1.6,0.2,0.7-0.2c-0.3-0.1-1.2-0.1-1.4-0.1c-0.8,0-2.9,0.6-0.7,0.3
						c0.2,0,0.4-0.2,0.4-0.4c0.2-3.2,0.3-6.7,0-9.9c0-0.2-0.2-0.3-0.4-0.4c-0.4,0-1.6-0.3-0.7,0.2c0.3,0.1,1.2,0.1,1.4,0.1
						c0.8,0,2.9-0.6,0.7-0.3c-0.2,0-0.4,0.2-0.4,0.4c-0.2,3.3-0.2,6.7,0,9.9c0,0.5,0.8,0.5,0.8,0c-0.2-2.1-0.1-4.2-0.1-6.4
						c0-0.9-0.3-2.4,0.2-3.1c0.3-0.4,1-0.2,1.3-0.7c0.1-0.2,0-0.4-0.1-0.5c-0.7-0.4-1.6-0.1-2.3-0.1c-0.7,0-1.7-0.3-2.3,0.1
						c-0.2,0.1-0.3,0.3-0.1,0.5c0.6,0.9,1.3,0.1,1.5,1.6c0.2,1.1,0,2.4,0,3.5c0,1.1,0,2.1,0,3.2c0,2.1-0.7,0.9-1.5,2
						c-0.1,0.2,0,0.4,0.1,0.5c0.7,0.4,1.6,0.1,2.3,0.1c0.7,0,1.7,0.3,2.3-0.1c0.2-0.1,0.2-0.3,0.1-0.5c-0.4-0.6-1.2-0.5-1.8-0.6
						C171.2,101.3,171.2,102,171.7,102.1z"/>
					<path class="st2" d="M173.6,91.7c0.3-0.2,3-0.2,3.3,0c0-0.2-0.1-0.4-0.1-0.6c-0.3,0.2-0.7,0.3-1.1,0.3c-0.2,0-0.3,0.3-0.3,0.5
						c1.2,3.1,2.4,6.1,3.5,9.2c0.1,0.4,0.6,0.3,0.7,0c1.3-3,2.5-6,3.3-9.2c0-0.2-0.1-0.4-0.3-0.5c-0.4,0-0.8-0.1-1.1-0.3
						c0,0.2-0.1,0.4-0.1,0.6c0.4-0.2,2.6-0.2,3,0c0-0.2-0.1-0.4-0.1-0.6c-0.3,0.3-0.8,0.2-1.1,0.4c-0.6,0.5-0.9,2.1-1.2,2.8
						c-0.3,0.8-0.7,1.6-1,2.4c-0.7,1.8-1.3,3.9-2.4,5.5c0.2,0,0.4-0.1,0.6-0.1c-0.5-0.6-0.7-1.5-1-2.2c-0.6-1.4-1.2-2.9-1.8-4.3
						c-0.5-1.1-0.9-2.4-1.4-3.5c-0.1-0.1-0.1-0.4-0.2-0.5c-0.3-0.4-0.9-0.2-1.2-0.6c-0.3-0.4-0.8,0.2-0.5,0.5
						c0.3,0.4,0.9,0.2,1.1,0.3c0.2,0.1,0.3,0.7,0.3,0.8c0.6,1.4,1.1,2.7,1.7,4.1c0.7,1.8,1.2,4.3,2.5,5.8c0.2,0.2,0.5,0.1,0.6-0.1
						c1-1.4,1.5-3.3,2.1-4.8c0.3-0.7,0.6-1.3,0.8-2c0.5-1.1,0.8-2.6,1.7-3.5c0.3-0.3,0.7-0.4,1-0.7c0.2-0.2,0.1-0.5-0.1-0.6
						c-0.7-0.4-3-0.4-3.7,0c-0.2,0.1-0.2,0.4-0.1,0.6c0.7,0.8,1,0.2,0.8,1.6c-0.3,1.5-0.9,3-1.5,4.4c-0.4,1.1-0.9,2.1-1.4,3.2
						c0.2,0,0.5,0,0.7,0c-0.7-1.8-1.4-3.6-2.1-5.4c-0.4-1-0.9-2-1.2-3.1c-0.3-1.2,0.1,0.1,0.9-0.7c0.2-0.2,0.1-0.5-0.1-0.6
						c-0.6-0.4-1.3-0.1-2-0.1c-0.7,0-1.4-0.3-2,0.1C172.8,91.3,173.2,92,173.6,91.7z"/>
					<path class="st2" d="M193.4,91.1c0.2-0.6-0.2-0.2-0.4,0.2c-0.1,0.3-0.2,1.5,0,1.7c0.5,0.7,0.3-0.5,0.3-0.9
						c0-0.1-0.1-0.2-0.3-0.3c-1.7-0.5-3.5-0.6-5.2-0.4c-0.2,0-0.4,0.2-0.4,0.4c-0.1,1.5-0.1,3.1-0.1,4.7c0,0.2,0.2,0.4,0.4,0.4
						c1.7,0,3.3,0,4.9-0.4c0.1,0,0.2-0.1,0.3-0.3c0.1-0.2-0.1-0.5-0.1-0.6c-0.2-0.3-0.2-0.3-0.2,0.1c-0.1,0.4-0.1,0.7-0.1,1.1
						c0,0.1,0,1.3,0.1,1.3c0.5,0.1,0.3-0.8,0.3-1c0-0.1-0.1-0.2-0.3-0.3c-1.6-0.4-3.2-0.4-4.9-0.4c-0.2,0-0.4,0.2-0.4,0.4
						c0,1.6,0,3.3,0.1,4.9c0,0.2,0.2,0.4,0.4,0.4c1.8,0.1,3.6-0.1,5.3-0.7c0.1,0,0.2-0.1,0.3-0.3c0.1-0.9-0.2-1.5-0.3-0.2
						c-0.1,0.5,0,1,0.1,1.5c0,0.3,0.4,0,0.3-0.3c-0.1-0.1-0.2-0.2-0.3-0.2c-1.7-0.2-3.4-0.2-5.1-0.2c-0.3,0-0.7,0-1,0
						c-0.8,0-2.7,0.6-0.5,0.3c0.2,0,0.4-0.2,0.4-0.4c0.2-3.2,0.2-6.7,0-9.9c0-0.2-0.2-0.3-0.4-0.4c-1.2,0.1-1.4,0.2-0.6,0.2
						c0.4,0,0.9,0.1,1.3,0.1c0.4,0,0.7,0,1.1,0c1.6,0,3.2-0.1,4.9-0.3c0.5-0.1,0.5-0.8,0-0.8c-1.8,0.2-3.7,0.3-5.5,0.3
						c-0.8,0-2-0.4-2.7,0.1c-0.2,0.1-0.2,0.4-0.1,0.6c0.3,0.3,0.6,0.2,0.8,0.4c0.7,0.6,0.6,1,0.6,1.9c0,1.1,0,2.2,0,3.2
						c0,1,0.3,2.5,0,3.4c-0.3,1-1,0.5-1.5,1.3c-0.1,0.2,0,0.4,0.1,0.5c0.9,0.5,2.3,0.1,3.3,0.1c1.3,0,4.2-0.5,5.1,0.6
						c0.1,0.2,0.5,0.1,0.6-0.1c0.3-0.7,0.4-2.9,0-3.5c-0.2-0.2-0.4-0.2-0.6-0.1c-0.3,0.2-0.1,0.4-0.3,0.6c-0.2,0.2-0.1,0.5-0.3,0.7
						c-0.2,0.3-1.2,0.3-1.5,0.4c-0.8,0.1-2.3,0.5-2.8-0.1c-0.4-0.6-0.1-2.1-0.1-2.8c0-0.5,0.2-1.4-0.2-1.1c0.3-0.2,1.1,0,1.5,0
						c0.9,0,2.3-0.2,2.9,0.5c0.2,0.2,0.1,0.8,0.4,1.1c0.2,0.2,0.5,0.1,0.6-0.1c0.4-0.5,0.1-1.4,0.1-2c0-0.7,0.3-1.4,0-2
						c-0.1-0.2-0.4-0.2-0.6-0.1c-0.2,0.3-0.2,0.8-0.4,1c-0.6,0.6-2,0.5-2.9,0.5c-0.4,0-1,0.1-1.4,0c-0.4-0.1,0.2,0.5,0.1,0.1
						c-0.1-0.2,0-0.7,0-1c0-0.7-0.2-1.8,0-2.4c0.5-1.1,1.8-0.7,2.9-0.6c0.2,0,1.5,0.1,1.6,0.3c0.1,0.2,0,0.6,0.1,0.8
						c0.2,0.3,0,0.5,0.3,0.7c0.2,0.2,0.4,0.1,0.6-0.1c0.4-0.6,0.4-3,0.1-3.7c-0.1-0.2-0.4-0.2-0.6-0.1c-0.3,0.3-0.3,0.5-0.4,0.9
						C192.5,91.4,193.3,91.6,193.4,91.1z"/>
					<path class="st2" d="M196.8,94.7c0,2.3-0.1,4.7,0.1,7c0,0.2,0.2,0.4,0.4,0.4c0.4,0,1.7,0.3,0.9-0.3c-0.2-0.2-1.4-0.1-1.5-0.1
						c-0.8,0-2.9,0.6-0.7,0.3c0.2,0,0.4-0.2,0.4-0.4c0.2-3.2,0.3-6.7,0-9.9c0-0.2-0.2-0.3-0.4-0.4c-1.7-0.2-0.7,0.3,0.3,0.3
						c1,0,2.1-0.1,3.1-0.1c1.4,0,3.2,0.5,3.3,2.3c0.1,2-2.1,2.7-3.6,2.9c-0.3,0-0.5,0.4-0.3,0.6c0.6,0.8,1.3,1.7,1.9,2.5
						c0.5,0.6,1.1,1.8,1.8,2c0.2,0.1,0.4,0.1,0.5,0.1c0.8,0.2,0.1-0.1,0.1-0.1c-0.2-0.3-2.1-0.7-2.3-1c-0.1-0.1-0.2-0.3-0.3-0.4
						c-0.5-0.6-2.1-2.3-2.2-3.1c0-0.5-0.4,0,0.3-0.2c0.7-0.2,1.4,0,2.2-0.4c0.8-0.4,1.3-1.1,1.4-1.9c0.5-3.1-2.7-3.8-5.1-3.5
						c-0.2,0-0.3,0.2-0.3,0.4C196.8,92.8,196.8,93.7,196.8,94.7c0,0.5,0.7,0.5,0.8,0c0-1.1-0.3-2.5,1-2.7c1.7-0.3,3.7,1.8,2.7,3.5
						c-1,1.6-2.8,0.4-3.9,1.2c-0.1,0.1-0.1,0.3-0.1,0.5c1,1.7,4.6,8.2,6.9,4.7c0.1-0.1,0.1-0.3-0.1-0.5c0,0-0.1-0.1-0.1-0.1
						c-0.1-0.1-0.2-0.1-0.4-0.1c-1.6,0.5-3.6-3.2-4.4-4.3c-0.1,0.2-0.2,0.4-0.3,0.6c2.4-0.3,5.8-2.3,4-5.1c-0.8-1.2-2.3-1.5-3.7-1.6
						c-1.1,0-2.3,0.2-3.4,0.1c-0.6,0-1.1-0.2-1.7,0.1c-0.2,0.1-0.3,0.3-0.1,0.5c0.6,0.9,1.3,0.1,1.5,1.6c0.2,1.1,0,2.4,0,3.5
						c0,1,0,2.1,0,3.2c-0.1,2.1-0.7,0.9-1.5,2c-0.1,0.2,0,0.4,0.1,0.5c0.7,0.4,1.6,0.1,2.3,0.1c0.8,0,1.8,0.3,2.4-0.1
						c0.2-0.1,0.3-0.3,0.1-0.5c-0.3-0.4-0.7-0.2-1.1-0.5c-0.8-0.6-0.5-1.9-0.5-2.8c0-1.3,0-2.6,0-3.9
						C197.6,94.3,196.8,94.3,196.8,94.7z"/>
					<path class="st2" d="M204.6,102.3c0.4-0.5,0.5-0.6,0.5-1.4c0-0.5,0.1-1.5,0-2.1c-0.4-0.3-0.6-0.2-0.3,0.3
						c0.1,0.5,0.1,1,0.2,1.5c0.2,0.4,0.1,0.2,0.8,0.7c1.6,1.1,4,1.5,5.4-0.1c1.1-1.2,0.9-2.9-0.6-3.6c-1.9-0.9-5.2,0.2-5.4-2.9
						c-0.2-3.4,3.8-3.4,6-2.6c0.2,0.1,0.4-0.1,0.5-0.3c0.2-0.6,0-0.9-0.3-0.2c-0.2,0.4-0.2,1.2-0.2,1.6c0.1,1.3,0.6,0.5,0.3-0.3
						c-0.1-0.4-0.2-0.3-0.6-0.7c-1.4-1.2-4-1.3-5.2,0.1c-0.9,1-1,2.6,0.2,3.4c1.2,0.8,2.9,0.3,4.1,1c2.9,1.4,1.6,4.5-0.7,5.2
						c-1.3,0.4-2.7,0-3.9-0.5c-0.2-0.1-0.4,0.1-0.5,0.3c-0.1,0.3-0.2,0.5-0.3,0.8c-0.2,0.5,0.6,0.7,0.7,0.2c0.3-0.9,1,0,2,0.1
						c0.9,0.1,1.9,0,2.8-0.4c1.6-0.8,2.7-2.6,2.2-4.4c-0.6-2.2-3-2.1-4.9-2.5c-0.4-0.1-0.8-0.2-1.2-0.4c-0.9-1.1-0.7-1.9,0.7-2.2
						c1.7-1.1,2.9-1,3.9,1.1c0.2,0.4,0,0.7,0.4,1c0.2,0.1,0.4,0,0.5-0.1c0.5-0.8,0.2-2.2,0.3-3c0.1-0.4,0.3-0.9,0-1.3
						c-0.1-0.2-0.4-0.3-0.6-0.1c0.1-0.1-0.4,0.5-0.4,0.5c-0.1,0.2-0.1,0.3-0.2,0.5c-0.2-0.4-0.6-0.5-1-0.5c-0.8-0.3-1.9-0.2-2.7,0
						c-1.7,0.5-2.8,2-2.8,3.8c0,1.9,1.5,2.8,3.2,3.1c0.6,0.1,1.7,0,2.2,0.4c0.3,2.8-0.4,3.9-2.1,3.1c-1-0.1-1.7-0.6-2.1-1.6
						c-0.2-0.5,0-1.3-0.5-1.7c-0.2-0.1-0.5-0.2-0.6,0.1c-0.5,1-0.1,2.4-0.2,3.5c-0.1,0.6-0.4,1.2,0.1,1.7c0.1,0.1,0.4,0.2,0.5,0
						c0.1-0.1,0.1-0.2,0.2-0.3C205.5,102.4,205,101.9,204.6,102.3z"/>
					<path class="st2" d="M215.6,102.1c0.4,0,1.6,0.2,0.7-0.2c-0.3-0.1-1.2-0.1-1.4-0.1c-0.8,0-2.9,0.6-0.7,0.3
						c0.2,0,0.4-0.2,0.4-0.4c0.3-3.2,0.3-6.7,0-9.9c0-0.2-0.2-0.3-0.4-0.4c-0.4,0-1.6-0.3-0.7,0.2c0.3,0.1,1.2,0.1,1.4,0.1
						c0.8,0,2.9-0.6,0.7-0.3c-0.2,0-0.4,0.2-0.4,0.4c-0.3,3.2-0.2,6.7,0,9.9c0,0.5,0.8,0.5,0.8,0c-0.2-2.1-0.1-4.2-0.1-6.4
						c0-0.9-0.3-2.4,0.2-3.1c0.3-0.4,1-0.2,1.3-0.7c0.1-0.2,0-0.4-0.1-0.5c-0.7-0.4-1.6-0.1-2.3-0.1c-0.7,0-1.7-0.3-2.3,0.1
						c-0.2,0.1-0.3,0.3-0.1,0.5c0.6,0.9,1.3,0.1,1.5,1.6c0.2,1.1,0,2.4,0,3.5c0,1.1,0,2.1,0,3.2c0,2.1-0.7,0.9-1.5,2
						c-0.1,0.2,0,0.4,0.1,0.5c0.7,0.4,1.6,0.1,2.3,0.1c0.7,0,1.7,0.3,2.3-0.1c0.2-0.1,0.2-0.3,0.1-0.5c-0.4-0.6-1.2-0.5-1.8-0.6
						C215.1,101.3,215.1,102,215.6,102.1z"/>
					<path class="st2" d="M222.8,102.1c0.4,0,1.8,0.3,1-0.2c-0.2-0.2-1.5-0.1-1.7-0.1c-1,0-3.4,0.6-0.7,0.3c0.2,0,0.4-0.2,0.4-0.4
						c0.3-3.3,0.2-6.7,0-10c0-0.2-0.2-0.4-0.4-0.4c-1.2,0-2.4,0.1-3.6,0.5c-0.1,0-0.2,0.1-0.3,0.3c0,0.3-0.1,1.8,0.3,0.9
						c0.1-0.3,0.1-1.4,0-1.7c-0.1-0.4-0.6-0.8-0.4-0.2c0.1,0.2,0.2,0.3,0.4,0.3c2.9,0.3,5.7,0.3,8.6,0c0.2,0,0.3-0.1,0.4-0.3
						c0.1-0.4-0.2-0.5-0.4-0.1c-0.1,0.3-0.1,1.4,0,1.7c0.3,1,0.4,0,0.3-0.6c0-0.2-0.1-0.3-0.3-0.4c-1.2-0.3-2.4-0.5-3.6-0.5
						c-0.2,0-0.4,0.2-0.4,0.4c-0.3,3.3-0.2,6.7,0,10c0,0.5,0.8,0.5,0.8,0c-0.2-2.3-0.1-4.6-0.1-7c0-0.4-0.2-2.2,0-2.5
						c0.1-0.2,2.3-0.3,2.8,0.1c0.3,0.3,0.1,1.1,0.6,1.6c0.2,0.2,0.4,0.1,0.6-0.1c0.4-0.6,0.4-3.1,0.1-3.7c-0.1-0.2-0.4-0.3-0.6-0.1
						c-0.4,0.4-0.3,0.5-0.8,0.7c-0.9,0.4-2.5,0.2-3.5,0.2c-1,0-2.1,0-3.1-0.2c-0.9-0.2-0.7-0.2-1.2-0.7c-0.2-0.2-0.5-0.1-0.6,0.1
						c-0.4,0.6-0.3,3.1,0.1,3.7c0.2,0.2,0.4,0.2,0.6,0.1c0.3-0.3,0.2-0.5,0.3-0.8c0.5-0.9,0.3-0.8,1.7-0.9c0.3-0.1,0.7-0.1,1-0.1
						c0.4-0.1,0.5,0,0.3,0.3c0.2,0.4,0,1.1,0,1.5c0,0.6,0,1.1,0,1.7c0,1,0,2.1,0,3.1c0,0.9,0.3,2.1-0.6,2.7c-0.4,0.2-0.8,0-1.1,0.4
						c-0.1,0.2-0.2,0.5,0.1,0.6c0.7,0.4,1.8,0.1,2.6,0.1c0.8,0,1.9,0.3,2.6-0.1c0.2-0.1,0.2-0.4,0.1-0.6c-0.4-0.5-1.4-0.5-2-0.5
						C222.4,101.3,222.4,102,222.8,102.1z"/>
					<path class="st2" d="M227.6,91.7c0.4-0.2,3-0.2,3.4,0c0-0.2-0.1-0.4-0.1-0.6c-0.3,0.2-0.7,0.3-1.1,0.3c-0.2,0-0.3,0.4-0.2,0.6
						c0.9,1.5,1.8,3,2.7,4.6c0.1,0.2,0.5,0.2,0.6,0c1-1.5,2-3,2.6-4.7c0.1-0.2-0.1-0.4-0.3-0.5c-0.4,0-0.8-0.1-1.1-0.3
						c0,0.2-0.1,0.4-0.1,0.6c0.4-0.2,2.6-0.2,3,0c0-0.2-0.1-0.4-0.1-0.6c-0.2,0.3-0.8,0.2-1.1,0.4c-0.6,0.4-1,1.4-1.4,1.9
						c-0.5,0.8-1.1,1.6-1.6,2.4c-1,1.6-0.6,4-0.4,5.9c0,0.2,0.2,0.3,0.4,0.4c0.4,0,1.6,0.2,0.7-0.2c-0.3-0.1-1.2-0.1-1.4-0.1
						c-0.8,0-2.9,0.6-0.7,0.3c0.2,0,0.4-0.2,0.4-0.4c0.2-2.2,0.5-4.3-0.7-6.2c-0.7-1.1-1.3-2.1-2-3.2c-0.1-0.2-0.3-0.6-0.4-0.7
						c-0.3-0.3-0.9-0.2-1.2-0.5c-0.3-0.4-0.8,0.2-0.5,0.5c0.3,0.4,0.8,0.1,1.1,0.4c0.3,0.2,0.5,0.9,0.7,1.1c0.7,1.1,1.6,2.3,2.1,3.4
						c0.3,0.7,0.3,1.2,0.2,2.2c0,1.2,0.1,2-0.7,2.7c-0.3,0.2-0.6,0.1-0.8,0.4c-0.1,0.2,0,0.4,0.1,0.5c0.7,0.4,1.6,0.1,2.3,0.1
						c0.8,0,1.7,0.3,2.3-0.1c0.2-0.1,0.2-0.3,0.1-0.5c-0.6-0.9-1.3-0.1-1.5-1.7c-0.1-0.8-0.2-2.6,0-3.3c0.2-0.8,1.1-1.7,1.6-2.4
						c0.3-0.5,0.6-1,1-1.5c0.5-0.6,1.3-0.8,1.8-1.3c0.2-0.2,0.1-0.5-0.1-0.6c-0.7-0.4-3-0.4-3.7,0c-0.2,0.1-0.2,0.4-0.1,0.6
						c0,0,0.8,0.5,0.7,0.4c0.3,0.6-0.5,1.6-0.8,2c-0.4,0.7-0.9,1.4-1.3,2.1c0.2,0,0.4,0,0.6,0c-0.9-1.5-1.8-3-2.7-4.6
						c-0.1,0.2-0.1,0.4-0.2,0.6c0.5-0.1,1.1-0.1,1.4-0.5c0.2-0.2,0.1-0.5-0.1-0.6c-0.6-0.4-1.3-0.1-2-0.1c-0.7,0-1.5-0.3-2.1,0.1
						C226.8,91.3,227.2,92,227.6,91.7z"/>
				</g>
			</g>
		</g>
	</g>
	<g id="Path-1">
		<line class="st2" x1="235.8" y1="107.5" x2="65.5" y2="107.5"/>
		<g>
			<path class="st2" d="M235.8,107.2c-49.8,0-99.6,0-149.5,0c-7,0-13.9,0-20.9,0c-0.5,0-0.5,0.8,0,0.8c49.8,0,99.6,0,149.5,0
				c7,0,13.9,0,20.9,0C236.3,107.9,236.3,107.2,235.8,107.2L235.8,107.2z"/>
		</g>
	</g>
	<g id="group-3">
		<g id="Path-2">
			<path class="st2" d="M66.7,116.7c0.5,0,0.7,0.1,0.7,0.2c0,0,0,0.1-0.1,0.1c-0.1,0-0.4,0-0.9,0c-0.5,0-0.8,0-0.9,0
				c-0.1,0-0.1,0-0.1-0.1c0-0.1,0.2-0.1,0.7-0.2c0-0.4,0-0.8,0-1.2v-1.6c0-0.4,0-0.8,0-1.2c0,0,0,0-0.1,0c-0.5,0-1,0.1-1.3,0.2
				l-0.1,0.4c0,0.1,0,0.2-0.1,0.2c0,0,0,0,0-0.1c0,0,0-0.2,0-0.6c0-0.3,0-0.5,0-0.6c0,0,0-0.1,0-0.1c0,0,0,0,0.1,0.1l0.1,0.2
				c0.6,0.1,1.2,0.1,1.7,0.1c0.5,0,1.1,0,1.7-0.1l0.1-0.2c0-0.1,0-0.1,0.1-0.1c0,0,0,0,0,0.1c0,0.1,0,0.3,0,0.6c0,0.3,0,0.5,0,0.6
				c0,0,0,0.1,0,0.1c-0.1,0-0.1-0.1-0.1-0.2l0-0.4c-0.3-0.1-0.8-0.2-1.3-0.2c0,0,0,0-0.1,0c0,0.4,0,0.8,0,1.2v1.6
				C66.7,115.9,66.7,116.3,66.7,116.7z"/>
			<g>
				<path class="st2" d="M66.7,117.1c0.4,0.1,0.5,0.1,0.4,0c0-0.2,0.1-0.3,0.1-0.5c-0.1,0.1-1.4,0.1-1.6,0c0,0.2,0.1,0.3,0.1,0.5
					c-0.1,0.2,0,0.2,0.4,0c0.2,0,0.4-0.2,0.4-0.4c0.1-1.3,0.1-2.7,0-4c0-0.2-0.2-0.4-0.4-0.4c-0.5,0-1,0.1-1.5,0.2
					c-0.1,0-0.2,0.1-0.3,0.3c0,0.1,0,0.4,0,0.4c0.2,0,0.4,0.1,0.6,0.1c0,0.1-0.1-0.9,0-0.9c-0.2,0-0.4,0.1-0.6,0.1c0,0,0,0.1,0,0.1
					c0.1,0.2,0.2,0.3,0.4,0.3c1.2,0.1,2.3,0.1,3.4,0c0.2,0,0.3-0.1,0.4-0.3c0,0,0-0.1,0-0.1c-0.2,0-0.4-0.1-0.6-0.1c0,0,0,1,0,0.9
					c0.2,0,0.4-0.1,0.6-0.1c0,0,0-0.3,0-0.3c0-0.2-0.1-0.3-0.3-0.4c-0.5-0.1-1-0.2-1.5-0.2c-0.2,0-0.4,0.2-0.4,0.4
					c-0.1,1.3-0.1,2.7,0,4c0,0.5,0.8,0.5,0.8,0c-0.1-1.3-0.1-2.7,0-4c-0.1,0.1-0.3,0.3-0.4,0.4c0.5,0,0.9,0,1.3,0.2
					c-0.1-0.1-0.2-0.2-0.3-0.4c0,0.3,0,0.7,0.2,0.9c0.2,0.2,0.4,0.1,0.6-0.1c0.2-0.3,0.2-1.4,0-1.7c-0.1-0.2-0.4-0.3-0.6-0.1
					c-0.1,0.1-0.2,0.3-0.2,0.5c0.1-0.1,0.2-0.2,0.4-0.3c-1.2,0.1-2.3,0.1-3.4,0c0.1,0.1,0.2,0.2,0.4,0.3c-0.1-0.2-0.1-0.3-0.2-0.5
					c-0.2-0.2-0.5-0.1-0.6,0.1c-0.2,0.3-0.1,0.6-0.1,0.9c0,0.3-0.1,0.6,0.1,0.8c0.1,0.2,0.4,0.2,0.6,0.1c0.2-0.2,0.1-0.4,0.2-0.6
					c0,0,0-0.1,0-0.1c-0.1,0.2,0,0.2,0.2,0.1c0.3,0,0.6-0.1,0.8-0.1c-0.1-0.1-0.3-0.3-0.4-0.4c0.1,1.3,0.1,2.7,0,4
					c0.1-0.1,0.3-0.3,0.4-0.4c-0.4,0-0.8,0-1,0.3c-0.1,0.2,0,0.4,0.1,0.5c0.3,0.2,0.8,0.1,1.2,0.1c0.4,0,0.8,0.1,1.2-0.1
					c0.2-0.1,0.3-0.4,0.1-0.5c-0.2-0.3-0.6-0.3-1-0.3C66.2,116.3,66.2,117,66.7,117.1z"/>
			</g>
		</g>
		<g id="Path-3">
			<path class="st2" d="M73.6,114.7v-0.8c0-0.5,0-0.8,0-1.2c-0.4,0-0.6-0.1-0.6-0.2c0,0,0-0.1,0.1-0.1c0.1,0,0.4,0.1,0.8,0.1
				c0.4,0,0.7-0.1,0.8-0.1c0.1,0,0.1,0,0.1,0.1c0,0.1-0.2,0.1-0.6,0.2c0,0.4,0,0.8,0,1.2v1.6c0,0.4,0,0.8,0,1.2
				c0.4,0,0.6,0.1,0.6,0.2c0,0,0,0.1-0.1,0.1c-0.1,0-0.4,0-0.8,0c-0.4,0-0.6,0-0.8,0c-0.1,0-0.1,0-0.1-0.1c0-0.1,0.2-0.1,0.6-0.2
				c0-0.4,0-0.8,0-1.2v-0.7h-2.3v0.7c0,0.4,0,0.8,0,1.2c0.4,0,0.6,0.1,0.6,0.2c0,0,0,0.1-0.1,0.1c-0.1,0-0.4,0-0.8,0s-0.6,0-0.8,0
				c-0.1,0-0.1,0-0.1-0.1c0-0.1,0.2-0.1,0.6-0.2c0-0.4,0-0.8,0-1.2v-1.6c0-0.4,0-0.8,0-1.2c-0.4,0-0.6-0.1-0.6-0.2
				c0,0,0-0.1,0.1-0.1c0.1,0,0.4,0.1,0.8,0.1s0.7-0.1,0.8-0.1c0.1,0,0.1,0,0.1,0.1c0,0.1-0.2,0.1-0.6,0.2c0,0.4,0,0.8,0,1.2v0.8
				H73.6z"/>
			<g>
				<path class="st2" d="M74,114.7c0-0.6,0-1.3,0-1.9c0-0.2-0.2-0.3-0.4-0.4c-0.3-0.1-0.4-0.1-0.3,0c0,0.2-0.1,0.3-0.1,0.5
					c0.1,0,1.3,0,1.3,0c0-0.2-0.1-0.3-0.1-0.5c0.2-0.1,0.1-0.1-0.3,0c-0.2,0-0.4,0.2-0.4,0.4c-0.1,1.3-0.1,2.7,0,4
					c0,0.2,0.2,0.3,0.4,0.4c0.3,0.1,0.4,0.1,0.3,0c0-0.2,0.1-0.3,0.1-0.5c-0.1,0-1.3,0-1.3,0c0,0.2,0.1,0.3,0.1,0.5
					c-0.2,0.1-0.1,0.1,0.3,0c0.2,0,0.4-0.2,0.4-0.4c0-0.6,0-1.3,0-1.9c0-0.2-0.2-0.4-0.4-0.4c-0.8,0-1.5,0-2.3,0
					c-0.2,0-0.4,0.2-0.4,0.4c0,0.6,0,1.3,0,1.9c0,0.2,0.2,0.3,0.4,0.4c0.3,0.1,0.4,0.1,0.3,0c0-0.2,0.1-0.3,0.1-0.5
					c-0.1,0-1.3,0-1.3,0c0,0.2,0.1,0.3,0.1,0.5c-0.2,0.1-0.1,0.1,0.3,0c0.2,0,0.4-0.2,0.4-0.4c0.1-1.3,0.1-2.7,0-4
					c0-0.2-0.2-0.3-0.4-0.4c-0.3-0.1-0.4-0.1-0.3,0c0,0.2-0.1,0.3-0.1,0.5c0.1,0,1.3,0,1.3,0c0-0.2-0.1-0.3-0.1-0.5
					c0.2-0.1,0.1-0.1-0.3,0c-0.2,0-0.4,0.2-0.4,0.4c0,0.6,0,1.3,0,1.9c0,0.2,0.2,0.4,0.4,0.4c0.8,0,1.5,0,2.3,0c0.5,0,0.5-0.8,0-0.8
					c-0.8,0-1.5,0-2.3,0c0.1,0.1,0.3,0.3,0.4,0.4c0-0.6,0-1.3,0-1.9c-0.1,0.1-0.3,0.3-0.4,0.4c0.3,0,0.7,0,0.9-0.3
					c0.1-0.2,0-0.4-0.1-0.5c-0.3-0.2-0.7-0.1-1.1-0.1c-0.4,0-0.7-0.1-1.1,0.1c-0.2,0.1-0.3,0.3-0.1,0.5c0.2,0.3,0.6,0.3,0.9,0.3
					c-0.1-0.1-0.3-0.3-0.4-0.4c0.1,1.3,0.1,2.7,0,4c0.1-0.1,0.3-0.3,0.4-0.4c-0.3,0-0.7,0-0.9,0.3c-0.1,0.2,0,0.4,0.1,0.5
					c0.3,0.2,0.7,0.1,1.1,0.1c0.4,0,0.7,0.1,1.1-0.1c0.2-0.1,0.3-0.3,0.1-0.5c-0.2-0.3-0.6-0.3-0.9-0.3c0.1,0.1,0.3,0.3,0.4,0.4
					c0-0.6,0-1.3,0-1.9c-0.1,0.1-0.3,0.3-0.4,0.4c0.8,0,1.5,0,2.3,0c-0.1-0.1-0.3-0.3-0.4-0.4c0,0.6,0,1.3,0,1.9
					c0.1-0.1,0.3-0.3,0.4-0.4c-0.3,0-0.7,0-0.9,0.3c-0.1,0.2,0,0.4,0.1,0.5c0.3,0.2,0.7,0.1,1.1,0.1c0.4,0,0.7,0.1,1.1-0.1
					c0.2-0.1,0.3-0.3,0.1-0.5c-0.2-0.3-0.6-0.3-0.9-0.3c0.1,0.1,0.3,0.3,0.4,0.4c-0.1-1.3-0.1-2.7,0-4c-0.1,0.1-0.3,0.3-0.4,0.4
					c0.3,0,0.7,0,0.9-0.3c0.1-0.2,0-0.4-0.1-0.5c-0.3-0.2-0.7-0.1-1.1-0.1c-0.4,0-0.7-0.1-1.1,0.1c-0.2,0.1-0.3,0.3-0.1,0.5
					c0.2,0.3,0.6,0.3,0.9,0.3c-0.1-0.1-0.3-0.3-0.4-0.4c0.1,0.6,0,1.3,0,1.9C73.2,115.1,74,115.1,74,114.7z"/>
			</g>
		</g>
		<g id="Path-4">
			<path class="st2" d="M80,112.4l0.1-0.2c0-0.1,0-0.1,0.1-0.1c0,0,0,0,0,0.1c0,0.1,0,0.3,0,0.6c0,0.3,0,0.5,0,0.6c0,0,0,0.1,0,0.1
				c-0.1,0-0.1-0.1-0.1-0.2l-0.1-0.4c-0.3-0.1-0.9-0.2-1.5-0.2c-0.2,0-0.3,0-0.6,0c0,0.4,0,0.8,0,1.2v0.7h0.7c0.5,0,0.9,0,1.2-0.1
				l0-0.2c0-0.2,0.1-0.3,0.1-0.3c0,0,0,0,0,0.1c0,0.1-0.1,0.3-0.1,0.7c0,0.3,0,0.6,0,0.7c0,0,0,0.1,0,0.1c-0.1,0-0.1-0.1-0.1-0.3
				l0-0.2c-0.3-0.1-0.8-0.1-1.2-0.1h-0.7v0.8c0,0.4,0,0.8,0,1.2c0.1,0,0.3,0,0.4,0c0.7,0,1.2-0.1,1.7-0.3l0.1-0.4
				c0-0.1,0-0.2,0.1-0.2c0,0,0,0,0,0.1s0,0.2,0,0.6c0,0.3,0,0.5,0,0.5c0,0.1,0,0.1,0,0.1c0,0,0,0-0.1-0.1L80,117
				c-0.6-0.1-1.3-0.1-2-0.1h-0.5c-0.4,0-0.6,0-0.7,0c-0.1,0-0.1,0-0.1-0.1c0-0.1,0.2-0.1,0.6-0.2c0-0.4,0-0.8,0-1.2v-1.6
				c0-0.4,0-0.8,0-1.2c-0.4,0-0.6-0.1-0.6-0.2c0,0,0-0.1,0.1-0.1c0.1,0,0.3,0,0.8,0h0.7C78.8,112.5,79.3,112.5,80,112.4z"/>
			<g>
				<path class="st2" d="M80.3,112.5c0,0,0-0.1,0-0.1c-0.2,0-0.4-0.1-0.6-0.1c0,0,0,1,0,0.9c0.2,0,0.4-0.1,0.6-0.1c0,0,0-0.4,0-0.4
					c0-0.1-0.1-0.2-0.3-0.3c-0.7-0.2-1.4-0.2-2.2-0.2c-0.2,0-0.4,0.2-0.4,0.4c0,0.6,0,1.2,0,1.9c0,0.2,0.2,0.4,0.4,0.4
					c0.7,0,1.4,0,2-0.1c0.1,0,0.2-0.1,0.3-0.3c0-0.1,0-0.3,0.1-0.3c-0.2,0-0.4-0.1-0.6-0.1c0,0,0,1.1,0,1.1c0.2,0,0.4-0.1,0.6-0.1
					c0,0,0-0.3,0-0.4c0-0.1-0.1-0.2-0.3-0.3c-0.7-0.2-1.3-0.2-2-0.2c-0.2,0-0.4,0.2-0.4,0.4c0,0.7,0,1.3,0,2c0,0.2,0.2,0.4,0.4,0.4
					c0.7,0,1.5,0,2.2-0.3c0.1,0,0.2-0.1,0.3-0.3c0-0.1,0-0.4,0-0.4c-0.2,0-0.4-0.1-0.6-0.1c0,0,0,0.5,0,0.6c0,0.2-0.1,0.5,0,0.3
					c0.2,0,0.4-0.1,0.6-0.1c0,0,0-0.1-0.1-0.1c-0.1-0.1-0.2-0.2-0.3-0.2c-0.7-0.1-1.3-0.1-2-0.1c-0.2,0-0.9,0.1-1.1,0
					c0,0.2,0.1,0.3,0.1,0.5c-0.2,0.1-0.1,0.1,0.3,0c0.2,0,0.4-0.2,0.4-0.4c0.1-1.3,0.1-2.7,0-4c0-0.2-0.2-0.3-0.4-0.4
					c-0.3-0.1-0.4-0.1-0.3,0c0,0.2-0.1,0.3-0.1,0.5c0.1-0.1,0.8,0,1.1,0c0.7,0,1.3,0,1.9-0.1c0.5-0.1,0.5-0.8,0-0.8
					c-0.7,0.1-1.5,0.1-2.2,0.1c-0.4,0-0.9-0.1-1.2,0.1c-0.2,0.1-0.3,0.3-0.1,0.5c0.2,0.3,0.6,0.3,0.9,0.3c-0.1-0.1-0.3-0.3-0.4-0.4
					c0.1,1.3,0.1,2.7,0,4c0.1-0.1,0.3-0.3,0.4-0.4c-0.3,0-0.7,0-0.9,0.3c-0.1,0.2,0,0.4,0.1,0.5c0.4,0.2,1,0.1,1.4,0.1
					c0.6,0,1.6-0.1,1.9,0.2c0.1,0.2,0.5,0.1,0.6-0.1c0.2-0.3,0.2-1.3,0-1.6c-0.1-0.2-0.4-0.2-0.6-0.1c-0.2,0.1-0.2,0.5-0.2,0.6
					c-0.2,0.2-1.4,0.1-1.7,0.1c0.1,0.1,0.3,0.3,0.4,0.4c0-0.7,0-1.3,0-2c-0.1,0.1-0.3,0.3-0.4,0.4c0.3,0,0.7,0,1,0
					c0.9,0.1,0.3,0,0.8,0.6c0.2,0.2,0.5,0.1,0.6-0.1c0.2-0.3,0.1-0.6,0.1-0.9c0-0.3,0.1-0.6,0-0.9c-0.1-0.2-0.4-0.2-0.6-0.1
					c-0.5,0.6,0.2,0.5-0.8,0.5c-0.3,0-0.7,0-1,0c0.1,0.1,0.3,0.3,0.4,0.4c0-0.6,0-1.2,0-1.9c-0.1,0.1-0.3,0.3-0.4,0.4
					c0.3,0,0.6,0,0.9,0c0.3,0,0.5,0,0.8,0.1c0-0.2,0-0.2,0-0.1c0.1,0.2,0,0.4,0.2,0.6c0.2,0.2,0.4,0.1,0.6-0.1
					c0.2-0.3,0.2-1.4,0-1.7c-0.1-0.2-0.4-0.2-0.6-0.1c-0.1,0.1-0.2,0.3-0.2,0.5C79.5,112.8,80.2,113,80.3,112.5z"/>
			</g>
		</g>
		<g id="Path-5">
			<path class="st2" d="M86.6,116.5c0,0.4-0.2,0.7-0.5,1c-0.2,0.2-0.4,0.4-0.6,0.5c-0.2,0.1-0.3,0.2-0.3,0.2c0,0,0,0,0-0.1
				c0-0.1,0.2-0.2,0.5-0.4c0.2-0.2,0.4-0.4,0.5-0.7c0.1-0.3,0.1-0.7,0.1-1.2c0-0.1,0-0.2,0-0.3v-1.7c0-0.4,0-0.8,0-1.2
				c-0.4,0-0.6-0.1-0.6-0.2c0,0,0-0.1,0.1-0.1c0.1,0,0.4,0.1,0.8,0.1c0.4,0,0.7-0.1,0.8-0.1c0.1,0,0.1,0,0.1,0.1
				c0,0.1-0.2,0.1-0.6,0.2c0,0.4,0,0.8,0,1.2v1.5C86.7,115.9,86.7,116.3,86.6,116.5z"/>
			<g>
				<path class="st2" d="M86.3,116.4c-0.1,0.4-0.3,0.7-0.6,1c-0.2,0.2-0.5,0.2-0.3,0.5c0,0.2,0,0.3,0.1,0.5c0.3-0.4,0.8-0.7,1-1.2
					c0.2-0.5,0.2-1.1,0.2-1.6c0-0.9,0-1.9,0-2.9c0-0.2-0.2-0.3-0.4-0.4c-0.1,0-0.2,0-0.3-0.1c0,0.2-0.1,0.4-0.1,0.6
					c0.1,0,1.3,0,1.3,0c0-0.2-0.1-0.4-0.1-0.6c-0.1,0-0.2,0-0.3,0.1c-0.2,0-0.4,0.2-0.4,0.4C86.2,114,86.3,115.3,86.3,116.4
					c0,0.6,0.7,0.6,0.7,0.1c0.1-1.3,0-2.5,0.1-3.8c-0.1,0.1-0.3,0.3-0.4,0.4c0.3,0,0.6,0,0.9-0.3c0.2-0.2,0.1-0.5-0.1-0.6
					c-0.3-0.2-0.7-0.1-1.1-0.1c-0.4,0-0.7-0.1-1.1,0.1c-0.2,0.1-0.2,0.4-0.1,0.6c0.2,0.2,0.5,0.2,0.9,0.3c-0.1-0.1-0.3-0.3-0.4-0.4
					c0.1,0.9,0,1.7,0,2.6c0,0.5,0.1,1,0,1.4c-0.2,0.6-0.7,0.8-1,1.3c-0.1,0.2,0,0.3,0.1,0.5c0,0,0,0,0,0.1c0.1,0.1,0.3,0.1,0.4,0.1
					c0.9-0.3,1.6-1.1,1.7-2C87.1,116.2,86.4,116,86.3,116.4z"/>
			</g>
		</g>
		<g id="Path-6">
			<path class="st2" d="M92.4,112.4l0.1-0.2c0-0.1,0-0.1,0.1-0.1c0,0,0,0,0,0.1c0,0.1,0,0.3,0,0.6c0,0.3,0,0.5,0,0.6
				c0,0,0,0.1,0,0.1c-0.1,0-0.1-0.1-0.1-0.2l-0.1-0.4c-0.3-0.1-0.9-0.2-1.5-0.2c-0.2,0-0.4,0-0.6,0c0,0.4,0,0.8,0,1.2v0.7H91
				c0.5,0,0.9,0,1.2-0.1l0-0.2c0-0.2,0.1-0.3,0.1-0.3c0,0,0,0,0,0.1c0,0.1-0.1,0.3-0.1,0.7c0,0.3,0,0.6,0,0.7c0,0,0,0.1,0,0.1
				c-0.1,0-0.1-0.1-0.1-0.3l0-0.2c-0.3-0.1-0.7-0.1-1.2-0.1h-0.7v0.8c0,0.4,0,0.8,0,1.2c0.1,0,0.3,0,0.4,0c0.7,0,1.2-0.1,1.7-0.3
				l0.1-0.4c0-0.1,0-0.2,0.1-0.2c0,0,0,0,0,0.1s0,0.2,0,0.6c0,0.3,0,0.5,0,0.5c0,0.1,0,0.1,0,0.1c0,0,0,0-0.1-0.1l0-0.1
				c-0.6-0.1-1.3-0.1-2-0.1H90c-0.4,0-0.6,0-0.7,0c-0.1,0-0.1,0-0.1-0.1c0-0.1,0.2-0.1,0.6-0.2c0-0.4,0-0.8,0-1.2v-1.6
				c0-0.4,0-0.8,0-1.2c-0.4,0-0.6-0.1-0.6-0.2c0,0,0-0.1,0.1-0.1c0.1,0,0.3,0,0.8,0h0.6C91.2,112.5,91.8,112.5,92.4,112.4z"/>
			<g>
				<path class="st2" d="M92.8,112.5c0,0,0-0.1,0-0.1c-0.2,0-0.4-0.1-0.6-0.1c0,0,0,1,0,0.9c0.2,0,0.4-0.1,0.6-0.1c0,0,0-0.4,0-0.4
					c0-0.1-0.1-0.2-0.3-0.3c-0.7-0.2-1.4-0.2-2.2-0.2c-0.2,0-0.4,0.2-0.4,0.4c0,0.6,0,1.2,0,1.9c0,0.2,0.2,0.4,0.4,0.4
					c0.7,0,1.4,0,2-0.1c0.1,0,0.2-0.1,0.3-0.3c0-0.1,0-0.3,0.1-0.3c-0.2,0-0.4-0.1-0.6-0.1c0,0,0,1.1,0,1.1c0.2,0,0.4-0.1,0.6-0.1
					c0,0,0-0.3,0-0.4c0-0.1-0.1-0.2-0.3-0.3c-0.7-0.2-1.3-0.2-2-0.2c-0.2,0-0.4,0.2-0.4,0.4c0,0.7,0,1.3,0,2c0,0.2,0.2,0.4,0.4,0.4
					c0.7,0,1.5,0,2.2-0.3c0.1,0,0.2-0.1,0.3-0.3c0-0.1,0-0.4,0-0.4c-0.2,0-0.4-0.1-0.6-0.1c0,0,0,0.5,0,0.6c0,0.2-0.1,0.5,0,0.3
					c0.2,0,0.4-0.1,0.6-0.1c0,0,0,0,0,0c-0.1-0.2-0.2-0.3-0.4-0.3c-0.7-0.1-1.3-0.1-2-0.1c-0.2,0-0.9,0.1-1.1,0
					c0,0.2,0.1,0.3,0.1,0.5c-0.2,0.1-0.1,0.1,0.3,0c0.2,0,0.4-0.2,0.4-0.4c0.1-1.3,0.1-2.7,0-4c0-0.2-0.2-0.3-0.4-0.4
					c-0.3-0.1-0.4-0.1-0.3,0c0,0.2-0.1,0.3-0.1,0.5c0.1-0.1,0.8,0,1.1,0c0.7,0,1.3,0,1.9-0.1c0.5-0.1,0.5-0.8,0-0.8
					c-0.7,0.1-1.5,0.1-2.2,0.1c-0.4,0-0.9-0.1-1.2,0.1c-0.2,0.1-0.3,0.3-0.1,0.5c0.2,0.3,0.6,0.3,0.9,0.3c-0.1-0.1-0.3-0.3-0.4-0.4
					c0.1,1.3,0.1,2.7,0,4c0.1-0.1,0.3-0.3,0.4-0.4c-0.3,0-0.7,0-0.9,0.3c-0.1,0.2,0,0.4,0.1,0.5c0.4,0.2,0.8,0.1,1.2,0.1
					c0.7,0,1.5,0,2.2,0.1c-0.1-0.1-0.2-0.2-0.4-0.3c0.1,0.1,0.1,0.2,0.2,0.4c0.1,0.2,0.5,0.1,0.6-0.1c0.2-0.3,0.2-1.3,0-1.6
					c-0.1-0.2-0.4-0.2-0.6-0.1c-0.2,0.1-0.2,0.5-0.2,0.6c-0.2,0.2-1.4,0.1-1.7,0.1c0.1,0.1,0.3,0.3,0.4,0.4c0-0.7,0-1.3,0-2
					c-0.1,0.1-0.3,0.3-0.4,0.4c0.3,0,0.7,0,1,0c0.9,0.1,0.3,0,0.8,0.6c0.2,0.2,0.5,0.1,0.6-0.1c0.2-0.3,0.1-0.6,0.1-0.9
					c0-0.3,0.1-0.6,0-0.9c-0.1-0.2-0.4-0.2-0.6-0.1c-0.5,0.6,0.2,0.5-0.8,0.5c-0.3,0-0.7,0-1,0c0.1,0.1,0.3,0.3,0.4,0.4
					c0-0.6,0-1.2,0-1.9c-0.1,0.1-0.3,0.3-0.4,0.4c0.3,0,0.6,0,0.9,0c0.3,0,0.5,0,0.8,0.1c0-0.2,0-0.2,0-0.1c0.1,0.2,0,0.4,0.2,0.6
					c0.2,0.2,0.4,0.1,0.6-0.1c0.2-0.3,0.2-1.4,0-1.7c-0.1-0.2-0.4-0.2-0.6-0.1c-0.1,0.1-0.2,0.3-0.2,0.5
					C92,112.8,92.7,113,92.8,112.5z"/>
			</g>
		</g>
		<g id="Path-7">
			<path class="st2" d="M95.3,117c0,0.1,0,0.1-0.1,0.1c0,0-0.1,0-0.1-0.1c0-0.1,0.1-0.4,0.1-1.1c0-0.3,0-0.5,0-0.6
				c0-0.1,0-0.1,0.1-0.1c0.1,0,0.1,0.3,0.2,0.9c0.4,0.4,0.9,0.6,1.3,0.6c0.7,0,1.2-0.5,1.2-1c0-0.2-0.1-0.4-0.2-0.5
				c-0.3-0.2-0.7-0.2-1.3-0.3c-0.8-0.1-1.2-0.5-1.2-1.1c0-0.8,0.6-1.4,1.5-1.4c0.3,0,0.7,0.1,1.1,0.3l0.1-0.3c0-0.1,0-0.1,0.1-0.1
				c0,0,0,0,0,0.1c0,0.1-0.1,0.5-0.1,1.1c0,0.1,0,0.2,0,0.3c0,0.1,0,0.1-0.1,0.1c-0.1,0-0.1-0.2-0.1-0.7c-0.3-0.3-0.7-0.5-1.2-0.5
				c-0.7,0-1.2,0.5-1.2,1c0,0.5,0.4,0.6,1.2,0.8c0.3,0.1,0.7,0.1,1,0.2c0.3,0.1,0.5,0.4,0.5,0.9c0,0.8-0.7,1.5-1.6,1.5
				c-0.3,0-0.7-0.1-1.1-0.3L95.3,117z"/>
			<g>
				<path class="st2" d="M95,116.8c0,0-0.1,0.1-0.1,0.1c0.2,0,0.4,0,0.5,0c0.2,0.2,0.1-1.3,0.1-1.4c-0.2,0-0.4,0.1-0.6,0.1
					c0.1,0.1,0,0.7,0.2,0.9c0.2,0.3,0.8,0.6,1.2,0.6c0.7,0.1,1.5-0.2,1.8-0.9c0.3-0.8-0.2-1.3-1-1.5c-0.7-0.2-1.7,0-1.6-1
					c0.1-1.1,1.4-0.9,2.1-0.6c0.2,0.1,0.4-0.1,0.5-0.3c0-0.1,0-0.2,0.1-0.2c-0.2,0-0.4-0.1-0.6-0.1c-0.1-0.1-0.1,1.1-0.1,1.2
					c0.2,0,0.3-0.1,0.5-0.1c0.1,0.1,0.1-0.4,0-0.5c-0.1-0.2-0.2-0.2-0.3-0.3c-0.3-0.2-0.6-0.4-1-0.4c-0.8-0.1-1.6,0.3-1.8,1.1
					c-0.1,0.6,0.3,1,0.8,1.2c0.7,0.2,2,0.1,1.8,1.1c-0.2,1.1-1.5,0.9-2.2,0.6c-0.2-0.1-0.4,0.1-0.5,0.3c0,0.1-0.1,0.2-0.1,0.3
					c-0.2,0.5,0.6,0.7,0.7,0.2c0-0.1,0.1-0.2,0.1-0.3c-0.2,0.1-0.3,0.2-0.5,0.3c0.8,0.3,1.7,0.4,2.5-0.1c0.6-0.4,0.9-1.3,0.7-2
					c-0.4-1-1.4-0.7-2.2-1.1c-0.5-0.2-0.8-0.8,0.4-0.9c0.5,0,0.7,0.3,0.9,0.6c0.1,0.2,0.1,0.3,0.3,0.5c0.2,0.1,0.4,0,0.5-0.1
					c0.2-0.3,0.1-0.9,0.1-1.3c0-0.2,0.1-0.5,0-0.7c-0.1-0.2-0.4-0.3-0.6-0.1c-0.2,0.2-0.2,0.3-0.3,0.6c0.2-0.1,0.3-0.2,0.5-0.3
					c-1.4-0.5-3.5,0.1-3,2c0.2,0.8,1,1,1.7,1.1c0.1,0,0.3,0,0.4,0.1c0.4,0,0.3,0.4-0.3,0.9c-0.4,0.1-0.9-0.4-1-0.6
					c-0.1-0.3,0-0.6-0.3-0.7c-0.2-0.1-0.5-0.2-0.6,0.1c-0.2,0.4-0.1,1-0.1,1.5c0,0.3-0.2,0.6,0.1,0.9c0.1,0.1,0.4,0.2,0.5,0
					c0,0,0.1-0.1,0.1-0.1C95.9,116.9,95.3,116.4,95,116.8z"/>
			</g>
		</g>
		<g id="Path-8">
			<path class="st2" d="M100.4,112.6C100.4,112.5,100.5,112.5,100.4,112.6c0.2-0.1,0.5,0,0.9,0c0.4,0,0.6-0.1,0.8-0.1
				c0.1,0,0.1,0,0.1,0.1c0,0.1-0.2,0.1-0.6,0.2l-0.1,2.4c0,0.1,0,0.2,0,0.2c0,1.1,0.3,1.5,1.2,1.5c0.6,0,1-0.2,1.2-0.7
				c0.1-0.3,0.2-0.7,0.2-1.3v-0.6c0-0.5,0-1-0.1-1.5c-0.4,0-0.6-0.1-0.6-0.2c0,0,0-0.1,0.1-0.1c0.1,0,0.3,0,0.7,0c0.4,0,0.6,0,0.7,0
				c0.1,0,0.1,0,0.1,0.1c0,0.1-0.2,0.1-0.5,0.2c0,0.3-0.1,0.8-0.1,1.5l0,0.7c0,0.5,0,1-0.2,1.3c-0.2,0.5-0.7,0.7-1.4,0.7
				c-0.6,0-1.1-0.2-1.4-0.7c-0.2-0.3-0.2-0.8-0.2-1.4v-2.2C100.6,112.7,100.4,112.6,100.4,112.6z"/>
			<g>
				<path class="st2" d="M100.6,112.9c0.1,0,1.3,0,1.3,0c0-0.2-0.1-0.3-0.1-0.5c0.2-0.1,0.1-0.1-0.3,0c-0.2,0-0.4,0.2-0.4,0.4
					c0,1.2-0.6,3.8,0.8,4.4c0.9,0.4,2,0,2.3-1c0.4-1,0.2-2.5,0-3.5c0-0.2-0.2-0.3-0.4-0.3c-0.4-0.1-0.5-0.1-0.3,0
					c0,0.2-0.1,0.3-0.1,0.5c0.1,0,1.1,0,1.1,0c0-0.2-0.1-0.4-0.1-0.6c-0.1,0-0.2,0.1-0.3,0.1c-0.2,0-0.3,0.2-0.3,0.4
					c-0.1,0.7-0.1,1.4-0.1,2.1c0,0.6,0,1.3-0.6,1.6c-0.6,0.3-1.5,0.1-1.8-0.5c-0.2-0.5-0.1-1.3-0.1-1.8c0-0.5,0-1,0-1.5
					c0-0.2-0.2-0.3-0.4-0.4c-0.3-0.1-0.4-0.1-0.3,0c-0.3-0.4-0.9,0-0.6,0.4c0.2,0.3,0.6,0.3,0.9,0.3c-0.1-0.1-0.3-0.3-0.4-0.4
					c0,1.4-0.5,4,1.2,4.5c1,0.3,2.2,0,2.6-1c0.4-1,0.2-2.4,0.3-3.5c-0.1,0.1-0.2,0.2-0.3,0.4c0.2,0,0.5-0.1,0.7-0.3
					c0.2-0.2,0.1-0.4-0.1-0.6c-0.3-0.2-0.6-0.1-0.9-0.1c-0.3,0-0.7-0.1-1,0.1c-0.2,0.1-0.3,0.3-0.1,0.5c0.2,0.3,0.6,0.3,0.9,0.3
					c-0.1-0.1-0.2-0.2-0.4-0.3c0.1,0.8,0.1,1.6,0.1,2.3c0,0.7-0.2,1.3-1,1.3c-0.7,0-0.8-0.4-0.8-1c0-0.9,0.1-1.8,0.1-2.7
					c-0.1,0.1-0.3,0.3-0.4,0.4c0.3,0,0.7,0,0.9-0.3c0.1-0.2,0-0.4-0.1-0.5c-0.3-0.2-0.7-0.1-1.1-0.1c-0.4,0-0.7-0.1-1.1,0.1
					C99.8,112.5,100.2,113.1,100.6,112.9z"/>
			</g>
		</g>
		<g id="Path-9">
			<path class="st2" d="M108,116.7c0.4,0,0.6,0.1,0.6,0.2c0,0,0,0.1-0.1,0.1c-0.1,0-0.4,0-0.8,0s-0.6,0-0.8,0c-0.1,0-0.1,0-0.1-0.1
				c0-0.1,0.2-0.1,0.6-0.2c0-0.4,0-0.8,0-1.2v-1.6c0-0.4,0-0.8,0-1.2c-0.4,0-0.6-0.1-0.6-0.2c0,0,0-0.1,0.1-0.1
				c0.1,0,0.4,0.1,0.8,0.1c0.4,0,0.7-0.1,0.8-0.1c0.1,0,0.1,0,0.1,0.1c0,0.1-0.2,0.1-0.6,0.2c0,0.4,0,0.8,0,1.2v1.6
				C107.9,115.9,107.9,116.3,108,116.7z"/>
			<g>
				<path class="st2" d="M108,117.1c0.3,0.1,0.4,0.1,0.3,0c0-0.2,0.1-0.3,0.1-0.5c-0.1,0-1.3,0-1.3,0c0,0.2,0.1,0.3,0.1,0.5
					c-0.2,0.1-0.1,0.1,0.3,0c0.2,0,0.4-0.2,0.4-0.4c0.1-1.3,0.1-2.7,0-4c0-0.2-0.2-0.3-0.4-0.4c-0.3-0.1-0.4-0.1-0.3,0
					c0,0.2-0.1,0.3-0.1,0.5c0.1,0,1.3,0,1.3,0c0-0.2-0.1-0.3-0.1-0.5c0.2-0.1,0.1-0.1-0.3,0c-0.2,0-0.4,0.2-0.4,0.4
					c-0.1,1.3-0.1,2.7,0,4c0,0.5,0.8,0.5,0.8,0c-0.1-1.3-0.1-2.7,0-4c-0.1,0.1-0.3,0.3-0.4,0.4c0.3,0,0.7,0,0.9-0.3
					c0.1-0.2,0-0.4-0.1-0.5c-0.3-0.2-0.7-0.1-1.1-0.1c-0.4,0-0.7-0.1-1.1,0.1c-0.2,0.1-0.3,0.3-0.1,0.5c0.2,0.3,0.6,0.3,0.9,0.3
					c-0.1-0.1-0.3-0.3-0.4-0.4c0.1,1.3,0.1,2.7,0,4c0.1-0.1,0.3-0.3,0.4-0.4c-0.3,0-0.7,0-0.9,0.3c-0.1,0.2,0,0.4,0.1,0.5
					c0.3,0.2,0.7,0.1,1.1,0.1c0.4,0,0.7,0.1,1.1-0.1c0.2-0.1,0.3-0.3,0.1-0.5c-0.2-0.3-0.6-0.3-0.9-0.3
					C107.5,116.3,107.5,117,108,117.1z"/>
			</g>
		</g>
		<g id="Path-10">
			<path class="st2" d="M112.6,116.7c0.5,0,0.7,0.1,0.7,0.2c0,0,0,0.1-0.1,0.1c-0.1,0-0.4,0-0.9,0c-0.5,0-0.8,0-0.9,0
				c-0.1,0-0.1,0-0.1-0.1c0-0.1,0.2-0.1,0.7-0.2c0-0.4,0-0.8,0-1.2v-1.6c0-0.4,0-0.8,0-1.2c0,0-0.1,0-0.1,0c-0.5,0-1,0.1-1.3,0.2
				l-0.1,0.4c0,0.1,0,0.2-0.1,0.2c0,0,0,0,0-0.1c0,0,0-0.2,0-0.6c0-0.3,0-0.5,0-0.6c0,0,0-0.1,0-0.1c0,0,0.1,0,0.1,0.1l0.1,0.2
				c0.6,0.1,1.2,0.1,1.7,0.1c0.5,0,1.1,0,1.7-0.1l0.1-0.2c0-0.1,0-0.1,0.1-0.1c0,0,0,0,0,0.1c0,0.1-0.1,0.3-0.1,0.6
				c0,0.3,0,0.5,0,0.6c0,0,0,0.1,0,0.1c-0.1,0-0.1-0.1-0.1-0.2l0-0.4c-0.3-0.1-0.8-0.2-1.3-0.2c0,0,0,0-0.1,0c0,0.4,0,0.8,0,1.2v1.6
				C112.6,115.9,112.6,116.3,112.6,116.7z"/>
			<g>
				<path class="st2" d="M112.6,117.1c0.4,0.2,0.5,0.1,0.4,0c0-0.2,0.1-0.3,0.1-0.5c-0.1,0.1-1.4,0.1-1.6,0c0,0.2,0.1,0.3,0.1,0.5
					c-0.1,0.2,0,0.2,0.4,0c0.2,0,0.4-0.2,0.4-0.4c0.1-1.3,0.1-2.7,0-4c0-0.2-0.2-0.4-0.4-0.4c-0.5,0-1,0.1-1.5,0.2
					c-0.1,0-0.2,0.1-0.3,0.3c0,0.1,0,0.4,0,0.4c0.2,0,0.4,0.1,0.6,0.1c0,0.1-0.1-0.9,0-0.9c-0.2,0-0.4,0.1-0.6,0.1c0,0,0,0.1,0,0.1
					c0.1,0.2,0.2,0.3,0.4,0.3c1.2,0.1,2.3,0.1,3.4,0c0.2,0,0.3-0.1,0.4-0.3c0,0,0-0.1,0-0.1c-0.2,0-0.4-0.1-0.6-0.1c0,0-0.1,1,0,0.9
					c0.2,0,0.4-0.1,0.6-0.1c0,0,0-0.3,0-0.3c0-0.2-0.1-0.3-0.3-0.4c-0.5-0.1-1-0.2-1.5-0.2c-0.2,0-0.4,0.2-0.4,0.4
					c-0.1,1.3-0.1,2.7,0,4c0,0.5,0.8,0.5,0.8,0c-0.1-1.3-0.1-2.7,0-4c-0.1,0.1-0.3,0.3-0.4,0.4c0.5,0,0.9,0,1.3,0.2
					c-0.1-0.1-0.2-0.2-0.3-0.4c0,0.3,0,0.7,0.2,0.9c0.2,0.2,0.4,0.1,0.6-0.1c0.2-0.3,0.2-1.4,0-1.7c-0.1-0.2-0.4-0.3-0.6-0.1
					c-0.1,0.1-0.2,0.3-0.2,0.5c0.1-0.1,0.2-0.2,0.4-0.3c-1.2,0.1-2.3,0.1-3.4,0c0.1,0.1,0.2,0.2,0.4,0.3c-0.1-0.2-0.1-0.3-0.2-0.5
					c-0.2-0.2-0.5-0.1-0.6,0.1c-0.2,0.3-0.1,0.6-0.1,0.9c0,0.3-0.1,0.6,0.1,0.8c0.1,0.2,0.4,0.2,0.6,0.1c0.2-0.2,0.1-0.4,0.2-0.6
					c0,0,0-0.1,0-0.1c-0.1,0.2,0,0.2,0.2,0.1c0.3,0,0.6-0.1,0.8-0.1c-0.1-0.1-0.3-0.3-0.4-0.4c0.1,1.3,0.1,2.7,0,4
					c0.1-0.1,0.3-0.3,0.4-0.4c-0.4,0-0.8,0-1,0.3c-0.1,0.2,0,0.4,0.1,0.5c0.3,0.2,0.8,0.1,1.2,0.1c0.4,0,0.8,0.1,1.2-0.1
					c0.2-0.1,0.3-0.4,0.1-0.5c-0.2-0.3-0.6-0.3-1-0.3C112.1,116.3,112.1,117,112.6,117.1z"/>
			</g>
		</g>
		<g id="Path-11">
			<path class="st2" d="M119.3,112.6C119.3,112.5,119.4,112.5,119.3,112.6c0.2-0.1,0.5,0,0.9,0s0.7-0.1,0.8-0.1c0.1,0,0.1,0,0.1,0.1
				c0,0.1-0.2,0.1-0.6,0.2l-0.1,2.4c0,0.1,0,0.2,0,0.2c0,1.1,0.3,1.5,1.2,1.5c0.6,0,1-0.2,1.2-0.7c0.1-0.3,0.2-0.7,0.2-1.3v-0.6
				c0-0.5,0-1-0.1-1.5c-0.4,0-0.6-0.1-0.6-0.2c0,0,0-0.1,0.1-0.1c0.1,0,0.3,0,0.7,0c0.4,0,0.6,0,0.7,0c0.1,0,0.1,0,0.1,0.1
				c0,0.1-0.2,0.1-0.5,0.2c-0.1,0.3-0.1,0.8-0.1,1.5l0,0.7c0,0.5,0,1-0.2,1.3c-0.2,0.5-0.7,0.7-1.4,0.7c-0.7,0-1.1-0.2-1.4-0.7
				c-0.2-0.3-0.2-0.8-0.2-1.4v-2.2C119.5,112.7,119.3,112.6,119.3,112.6z"/>
			<g>
				<path class="st2" d="M119.5,112.9c0.1,0,1.3,0,1.3,0c0-0.2-0.1-0.3-0.1-0.5c0.2-0.1,0.1-0.1-0.3,0c-0.2,0-0.4,0.2-0.4,0.4
					c0,1.2-0.6,3.8,0.8,4.4c0.9,0.4,2,0,2.3-1c0.4-1,0.2-2.5,0-3.5c0-0.2-0.2-0.3-0.4-0.3c-0.4-0.1-0.5-0.1-0.3,0
					c0,0.2-0.1,0.3-0.1,0.5c0,0,1.1,0,1.1,0c0-0.2-0.1-0.4-0.1-0.6c-0.1,0-0.2,0.1-0.3,0.1c-0.1,0-0.2,0.1-0.3,0.3
					c-0.1,0.7-0.1,1.4-0.1,2.2c0,0.5,0,1.1-0.3,1.5c-0.5,0.5-1.6,0.5-2-0.2c-0.3-0.5-0.1-1.3-0.1-1.9c0-0.5,0-1,0-1.5
					c0-0.2-0.2-0.3-0.4-0.4c-0.3-0.1-0.4-0.1-0.3,0c-0.3-0.4-0.9,0-0.6,0.4c0.2,0.3,0.6,0.3,0.9,0.3c-0.1-0.1-0.3-0.3-0.4-0.4
					c0,1.4-0.5,3.9,1.1,4.5c0.9,0.4,2.2,0.1,2.6-0.8c0.5-1,0.2-2.5,0.4-3.6c-0.1,0.1-0.2,0.2-0.3,0.3c0.2,0,0.5-0.1,0.7-0.3
					c0.2-0.2,0.1-0.5-0.1-0.6c-0.3-0.2-0.5-0.1-0.8-0.1c-0.4,0-0.8-0.1-1.1,0.1c-0.2,0.1-0.3,0.3-0.1,0.5c0.2,0.3,0.6,0.3,0.9,0.3
					c-0.1-0.1-0.2-0.2-0.4-0.3c0.1,0.8,0.1,1.6,0.1,2.3c0,0.7-0.2,1.3-1,1.3c-0.7,0-0.8-0.4-0.8-1c0-0.9,0.1-1.8,0.1-2.7
					c-0.1,0.1-0.3,0.3-0.4,0.4c0.3,0,0.7,0,0.9-0.3c0.1-0.2,0-0.4-0.1-0.5c-0.3-0.2-0.7-0.1-1.1-0.1c-0.4,0-0.7-0.1-1.1,0.1
					C118.7,112.5,119.1,113.1,119.5,112.9z"/>
			</g>
		</g>
		<g id="Path-12">
			<path class="st2" d="M126.5,115.1c0,0.6,0,1.2,0.1,1.6c0.5,0,0.7,0.1,0.7,0.2c0,0,0,0.1-0.1,0.1c-0.1,0-0.4,0-0.7,0
				c-0.3,0-0.5,0-0.7,0c-0.1,0-0.1,0-0.1-0.1c0-0.1,0.2-0.1,0.5-0.2c0.1-0.3,0.1-0.8,0.1-1.4v-2.2c-0.3-0.4-0.6-0.4-0.6-0.5
				c0,0,0-0.1,0.1-0.1c0,0,0.2,0,0.5,0c0.1,0,0.1,0,0.2,0l2.7,3.5v-1.8c0-0.7,0-1.3-0.1-1.6c-0.4,0-0.6-0.1-0.6-0.2
				c0,0,0-0.1,0.1-0.1c0.1,0,0.3,0.1,0.7,0.1c0.3,0,0.5-0.1,0.6-0.1c0.1,0,0.1,0,0.1,0.1c0,0.1-0.2,0.1-0.6,0.2
				c-0.1,0.5-0.1,1.1-0.1,2v2.2v0c0,0,0,0.1,0,0.1c0,0-0.1,0-0.1-0.1l-2.8-3.7L126.5,115.1L126.5,115.1z"/>
			<g>
				<path class="st2" d="M126.1,115.1c0,0.6,0,1.1,0.1,1.7c0,0.2,0.2,0.3,0.4,0.3c0.4,0.1,0.5,0.1,0.4,0c0-0.2,0.1-0.3,0.1-0.5
					c-0.1,0-1.2,0-1.2,0c0,0.2,0.1,0.4,0.1,0.6c0.1,0,0.2,0,0.3-0.1c0.1,0,0.2-0.1,0.3-0.3c0.2-0.9,0.1-1.8,0.1-2.7
					c0-0.3,0.1-0.7,0-1c-0.1-0.4-0.5-0.5-0.7-0.8c0,0.2-0.1,0.4-0.1,0.6c0.1,0,0.5,0,0.6,0c-0.1-0.1-0.2-0.1-0.3-0.2
					c0.9,1.2,1.8,2.4,2.7,3.5c0.2,0.3,0.7,0.2,0.7-0.2c0-1.1,0.1-2.3-0.1-3.5c0-0.2-0.2-0.3-0.4-0.3c-0.4-0.1-0.5-0.1-0.3,0
					c0,0.2-0.1,0.3-0.1,0.5c0,0,1.2,0,1.2,0c0-0.2-0.1-0.3-0.1-0.5c0.2-0.1,0.1-0.1-0.2,0c-0.1,0-0.3,0.1-0.4,0.3
					c-0.1,0.8-0.1,1.7-0.1,2.5c0,0.4,0,0.8,0,1.2c0,0.1-0.1,0.6,0,0.5c0.2,0,0.4-0.1,0.6-0.1c-0.6-0.5-1-1.3-1.5-1.9
					c-0.5-0.6-0.9-1.2-1.4-1.8c-0.2-0.3-0.7-0.2-0.7,0.2C126.1,113.9,126.1,114.5,126.1,115.1c0.1-0.1,0.3-0.3,0.4-0.4c0,0,0,0,0,0
					c-0.5,0-0.5,0.8,0,0.8c0,0,0,0,0,0c0.2,0,0.4-0.2,0.4-0.4c0-0.6,0-1.3,0-1.9c-0.2,0.1-0.5,0.1-0.7,0.2c0.5,0.7,1,1.3,1.5,2
					c0.5,0.6,0.9,1.4,1.5,1.9c0.2,0.2,0.5,0.1,0.6-0.1c0.2-0.4,0.1-1.2,0.1-1.6c0-0.9,0-1.8,0.1-2.7c-0.1,0.1-0.2,0.2-0.4,0.3
					c0.3,0,0.7,0,0.9-0.3c0.1-0.2,0-0.4-0.1-0.5c-0.3-0.2-0.7-0.1-1.1-0.1c-0.3,0-0.6-0.1-0.9,0.1c-0.2,0.1-0.3,0.3-0.1,0.5
					c0.2,0.3,0.6,0.3,1,0.3c-0.1-0.1-0.2-0.2-0.4-0.3c0.2,1.1,0.1,2.2,0.1,3.3c0.2-0.1,0.5-0.1,0.7-0.2c-0.6-0.8-1.3-1.7-1.9-2.5
					c-0.2-0.3-0.5-0.7-0.8-1c-0.3-0.3-1-0.3-1.4-0.1c-0.2,0.1-0.2,0.4-0.1,0.6c0.2,0.2,0.4,0.1,0.5,0.4c0.1,0.3,0,0.8,0,1
					c0,0.8,0,1.6-0.1,2.4c0.1-0.1,0.2-0.2,0.3-0.3c-0.3,0-0.5,0.1-0.7,0.3c-0.2,0.2-0.1,0.5,0.1,0.6c0.3,0.2,0.7,0.1,1.1,0.1
					c0.3,0,0.6,0.1,0.9-0.1c0.2-0.1,0.3-0.4,0.1-0.5c-0.2-0.3-0.6-0.3-1-0.3c0.1,0.1,0.2,0.2,0.4,0.3c-0.1-0.5-0.1-1-0.1-1.5
					C126.9,114.7,126.1,114.6,126.1,115.1z"/>
			</g>
		</g>
		<g id="Path-13">
			<path class="st2" d="M133.3,116.7c0.4,0,0.6,0.1,0.6,0.2c0,0,0,0.1-0.1,0.1c-0.1,0-0.4,0-0.8,0c-0.4,0-0.6,0-0.8,0
				c-0.1,0-0.1,0-0.1-0.1c0-0.1,0.2-0.1,0.6-0.2c0-0.4,0-0.8,0-1.2v-1.6c0-0.4,0-0.8,0-1.2c-0.4,0-0.6-0.1-0.6-0.2
				c0,0,0-0.1,0.1-0.1c0.1,0,0.4,0.1,0.8,0.1c0.4,0,0.6-0.1,0.8-0.1c0.1,0,0.1,0,0.1,0.1c0,0.1-0.2,0.1-0.6,0.2c0,0.4,0,0.8,0,1.2
				v1.6C133.2,115.9,133.3,116.3,133.3,116.7z"/>
			<g>
				<path class="st2" d="M133.3,117.1c0.3,0.1,0.4,0.1,0.3,0c0-0.2,0.1-0.3,0.1-0.5c-0.1,0-1.3,0-1.3,0c0,0.2,0.1,0.3,0.1,0.5
					c-0.2,0.1-0.1,0.1,0.3,0c0.2,0,0.4-0.2,0.4-0.4c0.1-1.3,0.1-2.7,0-4c0-0.2-0.2-0.3-0.4-0.4c-0.3-0.1-0.4-0.1-0.3,0
					c0,0.2-0.1,0.3-0.1,0.5c0.1,0,1.3,0,1.3,0c0-0.2-0.1-0.3-0.1-0.5c0.2-0.1,0.1-0.1-0.3,0c-0.2,0-0.4,0.2-0.4,0.4
					c-0.1,1.3-0.1,2.7,0,4c0,0.5,0.8,0.5,0.8,0c-0.1-1.3-0.1-2.7,0-4c-0.1,0.1-0.3,0.3-0.4,0.4c0.3,0,0.7,0,0.9-0.3
					c0.1-0.2,0-0.4-0.1-0.5c-0.3-0.2-0.7-0.1-1.1-0.1c-0.4,0-0.7-0.1-1.1,0.1c-0.2,0.1-0.3,0.3-0.1,0.5c0.2,0.3,0.6,0.3,0.9,0.3
					c-0.1-0.1-0.3-0.3-0.4-0.4c0.1,1.3,0.1,2.7,0,4c0.1-0.1,0.3-0.3,0.4-0.4c-0.3,0-0.7,0-0.9,0.3c-0.1,0.2,0,0.4,0.1,0.5
					c0.3,0.2,0.7,0.1,1.1,0.1c0.4,0,0.7,0.1,1.1-0.1c0.2-0.1,0.3-0.3,0.1-0.5c-0.2-0.3-0.6-0.3-0.9-0.3
					C132.8,116.3,132.8,117,133.3,117.1z"/>
			</g>
		</g>
		<g id="Path-14">
			<path class="st2" d="M135.6,112.6C135.6,112.5,135.6,112.5,135.6,112.6c0.2-0.1,0.5,0,0.7,0c0.3,0,0.5-0.1,0.6-0.1
				c0.1,0,0.1,0,0.1,0.1c0,0.1-0.2,0.1-0.5,0.2l1.4,3.7l0.5-1.3c0.3-0.7,0.6-1.5,0.8-2.4c-0.3-0.1-0.5-0.1-0.5-0.2
				c0,0,0-0.1,0.1-0.1c0.1,0,0.3,0,0.6,0c0.3,0,0.5,0,0.6,0c0.1,0,0.1,0,0.1,0.1c0,0.1-0.1,0.1-0.4,0.2c-0.2,0.5-0.5,1-0.7,1.6
				l-1.1,2.6c0,0.1-0.1,0.1-0.1,0.1c0,0-0.1,0-0.1-0.1l-1.7-4.2C135.8,112.7,135.6,112.6,135.6,112.6z"/>
			<g>
				<path class="st2" d="M135.8,112.9c0,0,1,0,1.1,0c0-0.2-0.1-0.4-0.1-0.6c-0.1,0-0.2,0.1-0.3,0.1c-0.2,0-0.3,0.3-0.3,0.5
					c0.5,1.2,0.9,2.5,1.4,3.7c0.1,0.4,0.6,0.3,0.7,0c0.5-1.2,1-2.4,1.3-3.7c0-0.2-0.1-0.4-0.3-0.5c-0.1,0-0.2,0-0.3-0.1
					c0,0.2-0.1,0.4-0.1,0.6c0.1,0,0.9,0,1,0c0-0.2-0.1-0.4-0.1-0.6c-0.1,0.1-0.3,0.1-0.5,0.2c-0.2,0.2-0.4,0.8-0.5,1.1
					c-0.1,0.3-0.3,0.7-0.4,1c-0.3,0.7-0.5,1.5-0.9,2.1c0.2,0,0.4-0.1,0.6-0.1c0.1,0.1-0.1-0.1-0.1-0.2c0-0.2-0.2-0.4-0.2-0.6
					c-0.2-0.6-0.5-1.2-0.7-1.7c-0.2-0.5-0.4-0.9-0.6-1.4c0-0.1,0-0.1-0.1-0.2c-0.2-0.3-0.4-0.1-0.5-0.3c-0.3-0.4-0.9,0.2-0.5,0.5
					c0.2,0.2,0.4,0.2,0.6,0.3c-0.1-0.1-0.2-0.2-0.3-0.3c0.3,0.8,0.6,1.6,0.9,2.3c0.3,0.7,0.5,1.6,0.9,2.1c0.2,0.2,0.5,0.1,0.6-0.1
					c0.4-0.6,0.6-1.3,0.9-2c0.1-0.3,0.2-0.5,0.3-0.8c0.2-0.4,0.3-1,0.6-1.3c0.1-0.1,0.3-0.1,0.4-0.3c0.2-0.2,0.1-0.5-0.1-0.6
					c-0.4-0.2-1.4-0.2-1.7,0c-0.2,0.1-0.2,0.4-0.1,0.6c0.2,0.2,0.4,0.2,0.7,0.3c-0.1-0.2-0.2-0.3-0.3-0.5c-0.3,1.3-0.8,2.5-1.3,3.7
					c0.2,0,0.5,0,0.7,0c-0.5-1.2-0.9-2.5-1.4-3.7c-0.1,0.2-0.2,0.3-0.3,0.5c0.2,0,0.5-0.1,0.7-0.3c0.2-0.2,0.1-0.5-0.1-0.6
					c-0.3-0.2-0.6-0.1-0.9-0.1c-0.3,0-0.6-0.1-0.9,0.1C135,112.5,135.4,113.1,135.8,112.9z"/>
			</g>
		</g>
		<g id="Path-15">
			<path class="st2" d="M145.1,112.4l0.1-0.2c0-0.1,0-0.1,0.1-0.1c0,0,0,0,0,0.1c0,0.1,0,0.3,0,0.6c0,0.3,0,0.5,0,0.6
				c0,0,0,0.1,0,0.1c-0.1,0-0.1-0.1-0.1-0.2l-0.1-0.4c-0.3-0.1-0.9-0.2-1.5-0.2c-0.2,0-0.4,0-0.6,0c0,0.4,0,0.8,0,1.2v0.7h0.7
				c0.5,0,0.9,0,1.2-0.1l0-0.2c0-0.2,0.1-0.3,0.1-0.3c0,0,0,0,0,0.1c0,0.1-0.1,0.3-0.1,0.7c0,0.3,0,0.6,0,0.7c0,0,0,0.1,0,0.1
				c-0.1,0-0.1-0.1-0.1-0.3l0-0.2c-0.3-0.1-0.7-0.1-1.2-0.1h-0.7v0.8c0,0.4,0,0.8,0,1.2c0.1,0,0.3,0,0.4,0c0.7,0,1.2-0.1,1.7-0.3
				l0.1-0.4c0-0.1,0-0.2,0.1-0.2c0,0,0,0,0,0.1s0,0.2,0,0.6c0,0.3,0,0.5,0,0.5c0,0.1,0,0.1,0,0.1c0,0,0,0-0.1-0.1l-0.1-0.1
				c-0.6-0.1-1.3-0.1-2-0.1h-0.5c-0.4,0-0.6,0-0.7,0c-0.1,0-0.1,0-0.1-0.1c0-0.1,0.2-0.1,0.6-0.2c0-0.4,0-0.8,0-1.2v-1.6
				c0-0.4,0-0.8,0-1.2c-0.4,0-0.6-0.1-0.6-0.2c0,0,0-0.1,0.1-0.1c0.1,0,0.3,0,0.8,0h0.7C143.9,112.5,144.5,112.5,145.1,112.4z"/>
			<g>
				<path class="st2" d="M145.4,112.5c0,0,0-0.1,0-0.1c-0.2,0-0.4-0.1-0.6-0.1c0,0,0,1,0,0.9c0.2,0,0.4-0.1,0.6-0.1c0,0,0-0.4,0-0.4
					c0-0.1-0.1-0.2-0.3-0.3c-0.7-0.2-1.4-0.2-2.2-0.2c-0.2,0-0.4,0.2-0.4,0.4c0,0.6,0,1.2,0,1.9c0,0.2,0.2,0.4,0.4,0.4
					c0.7,0,1.4,0,2-0.1c0.1,0,0.2-0.1,0.3-0.3c0-0.1,0-0.3,0.1-0.3c-0.2,0-0.4-0.1-0.6-0.1c0,0,0,1.1,0,1.1c0.2,0,0.4-0.1,0.6-0.1
					c0,0,0-0.3,0-0.4c0-0.1-0.1-0.2-0.3-0.3c-0.7-0.2-1.3-0.2-2-0.2c-0.2,0-0.4,0.2-0.4,0.4c0,0.7,0,1.3,0,2c0,0.2,0.2,0.4,0.4,0.4
					c0.7,0,1.5,0,2.2-0.3c0.1,0,0.2-0.1,0.3-0.3c0-0.1,0-0.3,0-0.4c-0.2,0-0.4-0.1-0.6-0.1c0,0,0,0.5,0,0.6c0,0.2-0.1,0.5,0,0.3
					c0.2,0,0.4-0.1,0.6-0.1c0,0,0-0.1-0.1-0.1c-0.1-0.1-0.2-0.2-0.3-0.2c-0.7-0.1-1.3-0.1-2-0.1c-0.2,0-0.9,0.1-1,0
					c0,0.2,0.1,0.3,0.1,0.5c-0.2,0.1-0.1,0.1,0.3,0c0.2,0,0.4-0.2,0.4-0.4c0.1-1.3,0.1-2.7,0-4c0-0.2-0.2-0.3-0.4-0.4
					c-0.3-0.1-0.4-0.1-0.3,0c0,0.2-0.1,0.3-0.1,0.5c0.1-0.1,0.8,0,1.1,0c0.7,0,1.3,0,1.9-0.1c0.5-0.1,0.5-0.8,0-0.8
					c-0.7,0.1-1.5,0.1-2.2,0.1c-0.4,0-0.9-0.1-1.2,0.1c-0.2,0.1-0.3,0.3-0.1,0.5c0.2,0.3,0.6,0.3,0.9,0.3c-0.1-0.1-0.3-0.3-0.4-0.4
					c0.1,1.3,0.1,2.7,0,4c0.1-0.1,0.3-0.3,0.4-0.4c-0.3,0-0.7,0-0.9,0.3c-0.1,0.2,0,0.4,0.1,0.5c0.4,0.2,1,0.1,1.4,0.1
					c0.6,0,1.6-0.1,1.9,0.2c0.1,0.2,0.5,0.1,0.6-0.1c0.2-0.3,0.2-1.3,0-1.6c-0.1-0.2-0.4-0.2-0.6-0.1c-0.2,0.1-0.2,0.5-0.2,0.6
					c-0.2,0.2-1.4,0.1-1.7,0.1c0.1,0.1,0.3,0.3,0.4,0.4c0-0.7,0-1.3,0-2c-0.1,0.1-0.3,0.3-0.4,0.4c0.3,0,0.7,0,1,0
					c0.9,0.1,0.3,0,0.8,0.6c0.2,0.2,0.5,0.1,0.6-0.1c0.2-0.3,0.1-0.6,0.1-0.9c0-0.3,0.1-0.6,0-0.9c-0.1-0.2-0.4-0.2-0.6-0.1
					c-0.5,0.6,0.2,0.5-0.8,0.5c-0.3,0-0.7,0-1,0c0.1,0.1,0.3,0.3,0.4,0.4c0-0.6,0-1.2,0-1.9c-0.1,0.1-0.3,0.3-0.4,0.4
					c0.3,0,0.6,0,0.9,0c0.3,0,0.5,0,0.8,0.1c0-0.2,0-0.2,0-0.1c0.1,0.2,0,0.4,0.2,0.6c0.2,0.2,0.4,0.1,0.6-0.1
					c0.2-0.3,0.2-1.4,0-1.7c-0.1-0.2-0.4-0.2-0.6-0.1c-0.1,0.1-0.2,0.3-0.2,0.5C144.6,112.8,145.3,113,145.4,112.5z"/>
			</g>
		</g>
		<g id="Path-16">
			<path class="st2" d="M148.6,113.9v1.6c0,0.4,0,0.8,0,1.2c0.4,0,0.6,0.1,0.6,0.2c0,0,0,0.1-0.1,0.1c-0.1,0-0.4,0-0.8,0
				c-0.4,0-0.6,0-0.8,0c-0.1,0-0.1,0-0.1-0.1c0-0.1,0.2-0.1,0.6-0.2c0-0.4,0-0.8,0-1.2v-1.6c0-0.4,0-0.8,0-1.2
				c-0.4,0-0.6-0.1-0.6-0.2c0,0,0-0.1,0.1-0.1c0.1,0,0.4,0.1,0.8,0.1c0.3,0,0.7,0,1.1,0c0.9,0,1.5,0.4,1.5,1.1
				c0,0.7-0.6,1.2-1.6,1.3l1.1,1.5c0.2,0.2,0.3,0.4,0.5,0.4c0.1,0,0.2-0.1,0.3-0.1c0,0,0.1,0,0.1,0c0,0.1-0.3,0.3-0.7,0.3
				c-0.3,0-0.4-0.2-0.7-0.5l-1.1-1.5c0-0.1-0.1-0.1-0.1-0.2c0,0,0-0.1,0.1-0.1c0.1,0,0.2,0,0.3,0c0.9,0,1.3-0.3,1.3-1
				c0-0.7-0.5-1.1-1.2-1.1c-0.2,0-0.4,0-0.6,0.1C148.6,113.1,148.6,113.5,148.6,113.9z"/>
			<g>
				<path class="st2" d="M148.3,113.9c0,0.9,0,1.9,0,2.8c0,0.2,0.2,0.4,0.4,0.4c0.4,0.1,0.5,0.1,0.3,0c0-0.2,0.1-0.3,0.1-0.5
					c-0.1,0-1.3,0-1.4,0c0,0.2,0.1,0.3,0.1,0.5c-0.2,0.1-0.1,0.1,0.3,0c0.2,0,0.4-0.2,0.4-0.4c0.1-1.3,0.1-2.7,0-4
					c0-0.2-0.2-0.3-0.4-0.4c-0.3-0.1-0.4-0.1-0.3,0c0,0.2-0.1,0.3-0.1,0.5c0.1-0.1,0.6,0,0.7,0c0.4,0,0.9-0.1,1.3,0
					c0.5,0.1,1,0.3,0.9,0.8c-0.1,0.5-0.7,0.7-1.2,0.8c-0.3,0-0.5,0.4-0.3,0.6c0.5,0.7,1.2,2.2,2.3,1.8c-0.1,0-0.2-0.1-0.4-0.1
					c0,0,0,0,0.1,0c0-0.2,0-0.3-0.1-0.5c-0.4,0.5-1.7-1.6-1.9-1.9c0,0.2,0,0.3-0.1,0.5c-0.1,0.1,0.5,0,0.7,0c0.2,0,0.5-0.1,0.6-0.2
					c0.4-0.3,0.5-0.7,0.5-1.2c-0.1-1.3-1.3-1.5-2.3-1.3c-0.2,0-0.3,0.2-0.3,0.4C148.3,113.1,148.3,113.5,148.3,113.9
					c0,0.5,0.7,0.5,0.8,0c0-0.4,0-0.8,0-1.2c-0.1,0.1-0.2,0.2-0.3,0.4c0.4-0.1,1-0.1,1.3,0.3c0.3,0.5,0,0.8-0.4,1
					c-0.4,0.1-0.7-0.1-1.1,0.2c-0.1,0.1-0.1,0.3-0.1,0.5c0.5,0.9,2,3.5,3.2,1.9c0.1-0.1,0.1-0.3-0.1-0.5c-0.2-0.2-0.3,0-0.5-0.1
					c-0.2-0.1-0.3-0.3-0.5-0.5c-0.3-0.4-0.6-0.8-1-1.2c-0.1,0.2-0.2,0.4-0.3,0.6c1.1-0.1,2.6-1.1,1.8-2.4c-0.4-0.6-1-0.7-1.7-0.7
					c-0.5,0-0.9,0.1-1.4,0c-0.3,0-0.5-0.1-0.8,0.1c-0.2,0.1-0.3,0.3-0.1,0.5c0.2,0.3,0.6,0.3,0.9,0.3c-0.1-0.1-0.3-0.3-0.4-0.4
					c0.1,1.3,0.1,2.7,0,4c0.1-0.1,0.3-0.3,0.4-0.4c-0.3,0-0.7,0-0.9,0.3c-0.1,0.2,0,0.4,0.1,0.5c0.3,0.2,0.7,0.1,1.1,0.1
					c0.4,0,0.8,0.1,1.1-0.1c0.2-0.1,0.3-0.3,0.1-0.5c-0.2-0.3-0.6-0.3-1-0.3c0.1,0.1,0.3,0.3,0.4,0.4c-0.1-0.9,0-1.9,0-2.8
					C149,113.4,148.3,113.4,148.3,113.9z"/>
			</g>
		</g>
		<g id="Path-17">
			<path class="st2" d="M153.5,117c0,0.1,0,0.1-0.1,0.1s-0.1,0-0.1-0.1c0-0.1,0.1-0.4,0.1-1.1c0-0.3,0-0.5,0-0.6
				c0-0.1,0-0.1,0.1-0.1c0.1,0,0.1,0.3,0.2,0.9c0.4,0.4,0.9,0.6,1.3,0.6c0.7,0,1.2-0.5,1.2-1c0-0.2-0.1-0.4-0.2-0.5
				c-0.3-0.2-0.7-0.2-1.3-0.3c-0.8-0.1-1.2-0.5-1.2-1.1c0-0.8,0.6-1.4,1.5-1.4c0.3,0,0.7,0.1,1.1,0.3l0.1-0.3c0-0.1,0-0.1,0.1-0.1
				c0,0,0,0,0,0.1c0,0.1-0.1,0.5-0.1,1.1c0,0.1,0,0.2,0,0.3c0,0.1,0,0.1-0.1,0.1c-0.1,0-0.1-0.2-0.1-0.7c-0.3-0.3-0.7-0.5-1.2-0.5
				c-0.7,0-1.2,0.5-1.2,1c0,0.5,0.4,0.6,1.2,0.8c0.3,0.1,0.7,0.1,1,0.2c0.3,0.1,0.5,0.4,0.5,0.9c0,0.8-0.7,1.5-1.6,1.5
				c-0.4,0-0.7-0.1-1.1-0.3L153.5,117z"/>
			<g>
				<path class="st2" d="M153.2,116.8c0,0-0.1,0.1-0.1,0.1c0.2,0,0.4,0,0.5,0c0.2,0.2,0.1-1.3,0.1-1.4c-0.2,0-0.3,0.1-0.5,0.1
					c-0.2-0.1,0,0.4,0,0.6c0,0.1,0,0.2,0.1,0.3c0.2,0.3,0.8,0.6,1.2,0.6c0.7,0.1,1.5-0.2,1.8-0.9c0.3-0.8-0.2-1.3-1-1.5
					c-0.7-0.2-1.7,0-1.6-1c0.1-1.1,1.4-0.9,2.1-0.6c0.2,0.1,0.4-0.1,0.5-0.3c0-0.1,0-0.2,0.1-0.2c-0.2,0-0.4-0.1-0.6-0.1
					c-0.1-0.1-0.1,1.1-0.1,1.2c0.2,0,0.3-0.1,0.5-0.1c0.1,0.1,0.1-0.4,0-0.5c-0.1-0.2-0.2-0.2-0.3-0.3c-0.3-0.2-0.6-0.4-1-0.4
					c-0.8-0.1-1.6,0.3-1.8,1.1c-0.1,0.6,0.3,1,0.8,1.2c0.7,0.2,2,0.1,1.8,1.1c-0.2,1.1-1.5,0.9-2.2,0.6c-0.2-0.1-0.4,0.1-0.5,0.3
					c0,0.1-0.1,0.2-0.1,0.3c-0.2,0.5,0.6,0.7,0.7,0.2c0-0.1,0.1-0.2,0.1-0.3c-0.2,0.1-0.3,0.2-0.5,0.3c0.8,0.3,1.7,0.4,2.5-0.1
					c0.6-0.4,0.9-1.3,0.7-2c-0.4-1-1.4-0.7-2.2-1.1c-0.5-0.2-0.8-0.8,0.4-0.9c0.5,0,0.7,0.3,0.9,0.6c0.1,0.2,0.1,0.3,0.3,0.5
					c0.2,0.1,0.4,0,0.5-0.1c0.2-0.3,0.1-0.9,0.2-1.3c0-0.2,0.1-0.5,0-0.7c-0.1-0.2-0.4-0.3-0.6-0.1c-0.2,0.2-0.2,0.3-0.3,0.6
					c0.2-0.1,0.3-0.2,0.5-0.3c-0.8-0.3-1.7-0.4-2.4,0.1c-0.6,0.4-0.9,1.3-0.6,2c0.1,0.3,0.3,0.5,0.6,0.7c0.4,0.3,1,0.1,1.4,0.4
					c0.1,0,0.2,0,0.3,0.1c0,0.9-0.4,1.1-1,0.8c-0.3-0.2-0.3-0.3-0.4-0.6c-0.1-0.3,0-0.5-0.3-0.7c-0.2-0.1-0.4,0-0.5,0.1
					c-0.2,0.4-0.1,1-0.1,1.5c0,0.3-0.2,0.6,0.1,0.9c0.1,0.1,0.4,0.2,0.5,0c0,0,0.1-0.1,0.1-0.1C154.1,116.9,153.6,116.4,153.2,116.8
					z"/>
			</g>
		</g>
		<g id="Path-18">
			<path class="st2" d="M159.8,116.7c0.4,0,0.6,0.1,0.6,0.2c0,0,0,0.1-0.1,0.1c-0.1,0-0.4,0-0.8,0s-0.6,0-0.8,0
				c-0.1,0-0.1,0-0.1-0.1c0-0.1,0.2-0.1,0.6-0.2c0-0.4,0-0.8,0-1.2v-1.6c0-0.4,0-0.8,0-1.2c-0.4,0-0.6-0.1-0.6-0.2
				c0,0,0-0.1,0.1-0.1c0.1,0,0.4,0.1,0.8,0.1s0.6-0.1,0.8-0.1c0.1,0,0.1,0,0.1,0.1c0,0.1-0.2,0.1-0.6,0.2c0,0.4,0,0.8,0,1.2v1.6
				C159.8,115.9,159.8,116.3,159.8,116.7z"/>
			<g>
				<path class="st2" d="M159.8,117.1c0.3,0.1,0.4,0.1,0.3,0c0-0.2,0.1-0.3,0.1-0.5c-0.1,0-1.3,0-1.3,0c0,0.2,0.1,0.3,0.1,0.5
					c-0.2,0.1-0.1,0.1,0.3,0c0.2,0,0.4-0.2,0.4-0.4c0.1-1.3,0.1-2.7,0-4c0-0.2-0.2-0.3-0.4-0.4c-0.3-0.1-0.4-0.1-0.3,0
					c0,0.2-0.1,0.3-0.1,0.5c0.1,0,1.3,0,1.3,0c0-0.2-0.1-0.3-0.1-0.5c0.2-0.1,0.1-0.1-0.3,0c-0.2,0-0.4,0.2-0.4,0.4
					c-0.1,1.3-0.1,2.7,0,4c0,0.5,0.8,0.5,0.8,0c-0.1-1.3-0.1-2.7,0-4c-0.1,0.1-0.3,0.3-0.4,0.4c0.3,0,0.7,0,0.9-0.3
					c0.1-0.2,0-0.4-0.1-0.5c-0.3-0.2-0.7-0.1-1.1-0.1c-0.4,0-0.7-0.1-1.1,0.1c-0.2,0.1-0.3,0.3-0.1,0.5c0.2,0.3,0.6,0.3,0.9,0.3
					c-0.1-0.1-0.3-0.3-0.4-0.4c0.1,1.3,0.1,2.7,0,4c0.1-0.1,0.3-0.3,0.4-0.4c-0.3,0-0.7,0-0.9,0.3c-0.1,0.2,0,0.4,0.1,0.5
					c0.3,0.2,0.7,0.1,1.1,0.1c0.4,0,0.7,0.1,1.1-0.1c0.2-0.1,0.2-0.3,0.1-0.5c-0.2-0.3-0.6-0.3-0.9-0.3
					C159.3,116.3,159.3,117,159.8,117.1z"/>
			</g>
		</g>
		<g id="Path-19">
			<path class="st2" d="M164.5,116.7c0.5,0,0.7,0.1,0.7,0.2c0,0,0,0.1-0.1,0.1c-0.1,0-0.4,0-0.9,0c-0.5,0-0.8,0-0.9,0
				c-0.1,0-0.1,0-0.1-0.1c0-0.1,0.2-0.1,0.7-0.2c0-0.4,0-0.8,0-1.2v-1.6c0-0.4,0-0.8,0-1.2c0,0,0,0-0.1,0c-0.5,0-1,0.1-1.3,0.2
				l-0.1,0.4c0,0.1,0,0.2-0.1,0.2c0,0-0.1,0-0.1-0.1c0,0,0-0.2,0-0.6c0-0.3,0-0.5,0-0.6c0,0,0-0.1,0-0.1c0,0,0,0,0.1,0.1l0.1,0.2
				c0.6,0.1,1.2,0.1,1.7,0.1c0.5,0,1.1,0,1.7-0.1l0.1-0.2c0-0.1,0-0.1,0.1-0.1c0,0,0,0,0,0.1c0,0.1,0,0.3,0,0.6c0,0.3,0,0.5,0,0.6
				c0,0,0,0.1,0,0.1c-0.1,0-0.1-0.1-0.1-0.2l-0.1-0.4c-0.3-0.1-0.8-0.2-1.3-0.2c0,0-0.1,0-0.1,0c0,0.4,0,0.8,0,1.2v1.6
				C164.4,115.9,164.4,116.3,164.5,116.7z"/>
			<g>
				<path class="st2" d="M164.5,117.1c0.4,0.2,0.5,0.1,0.4,0c0-0.2,0.1-0.3,0.1-0.5c-0.1,0.1-1.4,0.1-1.6,0c0,0.2,0.1,0.3,0.1,0.5
					c-0.1,0.2,0,0.2,0.4,0c0.2,0,0.4-0.2,0.4-0.4c0.1-1.3,0.1-2.7,0-4c0-0.2-0.2-0.4-0.4-0.4c-0.5,0-1,0.1-1.5,0.2
					c-0.1,0-0.2,0.1-0.3,0.3c0,0.1,0,0.4,0,0.4c0.2,0,0.4,0,0.5,0c0.2,0.3,0-0.8,0-0.9c-0.2,0-0.4,0.1-0.6,0.1c0,0,0,0.1,0,0.1
					c0.1,0.2,0.2,0.3,0.4,0.3c1.2,0.1,2.3,0.1,3.4,0c0.2,0,0.3-0.1,0.4-0.3c0,0,0-0.1,0-0.1c-0.2,0-0.4-0.1-0.6-0.1c0,0,0,1,0,0.9
					c0.2,0,0.4-0.1,0.6-0.1c0,0,0-0.3,0-0.3c0-0.2-0.1-0.3-0.3-0.4c-0.5-0.1-1-0.2-1.5-0.2c-0.2,0-0.4,0.2-0.4,0.4
					c-0.1,1.3-0.1,2.7,0,4c0,0.5,0.8,0.5,0.8,0c-0.1-1.3-0.1-2.7,0-4c-0.1,0.1-0.3,0.3-0.4,0.4c0.5,0,0.9,0,1.3,0.2
					c-0.1-0.1-0.2-0.2-0.3-0.4c0,0.3,0,0.7,0.2,0.9c0.2,0.2,0.4,0.1,0.6-0.1c0.2-0.3,0.2-1.4,0-1.7c-0.1-0.2-0.4-0.3-0.6-0.1
					c-0.1,0.1-0.2,0.3-0.2,0.5c0.1-0.1,0.2-0.2,0.4-0.3c-1.2,0.1-2.3,0.1-3.4,0c0.1,0.1,0.2,0.2,0.4,0.3c-0.1-0.2-0.1-0.3-0.2-0.5
					c-0.2-0.2-0.5-0.1-0.6,0.1c-0.2,0.3-0.1,0.7-0.1,1c0,0.3-0.1,0.5,0.1,0.8c0.1,0.2,0.4,0.1,0.5,0c0.2-0.2,0.1-0.4,0.2-0.6
					c0,0,0-0.1,0-0.1c-0.1,0.2,0,0.2,0.2,0.1c0.3,0,0.6-0.1,0.8-0.1c-0.1-0.1-0.3-0.3-0.4-0.4c0.1,1.3,0.1,2.7,0,4
					c0.1-0.1,0.3-0.3,0.4-0.4c-0.4,0-0.8,0-1,0.3c-0.1,0.2,0,0.4,0.1,0.5c0.3,0.2,0.8,0.1,1.2,0.1c0.4,0,0.8,0.1,1.2-0.1
					c0.2-0.1,0.3-0.4,0.1-0.5c-0.2-0.3-0.6-0.3-1-0.3C164,116.3,164,117,164.5,117.1z"/>
			</g>
		</g>
		<g id="Path-20">
			<path class="st2" d="M167.7,112.6C167.7,112.5,167.7,112.5,167.7,112.6c0.2-0.1,0.4,0,0.8,0c0.3,0,0.5-0.1,0.6-0.1
				c0.1,0,0.1,0,0.1,0.1c0,0.1-0.2,0.1-0.5,0.2l1.1,1.8l0.6-0.9c0.2-0.3,0.4-0.6,0.5-1c-0.3-0.1-0.5-0.1-0.5-0.2c0,0,0-0.1,0.1-0.1
				c0.1,0,0.3,0,0.6,0c0.3,0,0.5,0,0.6,0c0.1,0,0.1,0,0.1,0.1c0,0.1-0.1,0.1-0.4,0.2c-0.2,0.2-0.4,0.5-0.6,0.9l-0.7,1.1v0.8
				c0,0.4,0,0.8,0,1.2c0.4,0,0.6,0.1,0.6,0.2c0,0,0,0.1-0.1,0.1c-0.1,0-0.4,0-0.8,0c-0.4,0-0.6,0-0.8,0c-0.1,0-0.1,0-0.1-0.1
				c0-0.1,0.2-0.1,0.6-0.2c0-0.4,0-0.8,0-1.2v-0.7l-1.3-2C167.8,112.7,167.7,112.6,167.7,112.6z"/>
			<g>
				<path class="st2" d="M167.9,112.9c0,0,1.1,0,1.1,0c0-0.2-0.1-0.4-0.1-0.6c-0.1,0-0.2,0.1-0.3,0.1c-0.2,0-0.3,0.4-0.2,0.6
					c0.4,0.6,0.7,1.2,1.1,1.8c0.1,0.2,0.5,0.2,0.6,0c0.4-0.6,0.8-1.2,1.1-1.9c0.1-0.2-0.1-0.4-0.3-0.5c-0.1,0-0.2,0-0.4-0.1
					c0,0.2-0.1,0.4-0.1,0.6c0.1,0,0.9,0,1,0c0-0.2-0.1-0.4-0.1-0.6c-0.1,0.1-0.3,0.1-0.4,0.2c-0.2,0.2-0.4,0.6-0.6,0.8
					c-0.2,0.3-0.4,0.6-0.6,1c-0.4,0.7-0.3,1.7-0.2,2.5c0,0.2,0.2,0.3,0.4,0.4c0.3,0.1,0.4,0.1,0.3,0c0-0.2,0.1-0.3,0.1-0.5
					c-0.1,0-1.3,0-1.3,0c0,0.2,0.1,0.3,0.1,0.5c-0.2,0.1-0.1,0.1,0.3,0c0.2,0,0.4-0.2,0.4-0.4c0.1-0.9,0.2-1.8-0.3-2.6
					c-0.3-0.4-0.5-0.9-0.8-1.3c-0.1-0.1-0.1-0.2-0.2-0.3c-0.1-0.1-0.4-0.1-0.5-0.2c-0.3-0.4-0.9,0.2-0.5,0.5
					C167.5,113,167.7,113,167.9,112.9c-0.1,0.1,0,0.2,0.1,0.3c0.3,0.3,0.5,0.8,0.7,1.2c0.1,0.1,0.2,0.3,0.3,0.4c0.2,0.2,0-0.1,0,0.1
					c0,0.6,0,1.2,0,1.8c0.1-0.1,0.3-0.3,0.4-0.4c-0.3,0-0.7,0-0.9,0.3c-0.1,0.2,0,0.4,0.1,0.5c0.3,0.2,0.7,0.1,1.1,0.1
					c0.4,0,0.7,0.1,1.1-0.1c0.2-0.1,0.3-0.3,0.1-0.5c-0.2-0.3-0.6-0.3-0.9-0.3c0.1,0.1,0.3,0.3,0.4,0.4c0-0.5,0-1,0-1.5
					c0-0.1,0.1-0.6,0-0.3c0-0.1,0.2-0.2,0.2-0.3c0.2-0.3,0.3-0.5,0.5-0.8c0.2-0.3,0.4-0.5,0.7-0.8c0.1-0.1,0.2-0.1,0.4-0.2
					c0.2-0.2,0.1-0.5-0.1-0.6c-0.4-0.2-1.4-0.2-1.7,0c-0.2,0.1-0.2,0.4-0.1,0.6c0.2,0.2,0.4,0.2,0.7,0.3c-0.1-0.2-0.2-0.3-0.3-0.5
					c-0.3,0.6-0.6,1.2-1,1.7c0.2,0,0.4,0,0.6,0c-0.4-0.6-0.7-1.2-1.1-1.8c-0.1,0.2-0.1,0.4-0.2,0.6c0.2,0,0.5-0.1,0.7-0.3
					c0.2-0.2,0.1-0.5-0.1-0.6c-0.3-0.2-0.6-0.1-0.9-0.1c-0.3,0-0.7-0.1-1,0.1C167.1,112.5,167.4,113.1,167.9,112.9z"/>
			</g>
		</g>
		<g id="Path-21">
			<path class="st2" d="M180.5,116.2c-0.4,0.5-1,0.8-1.8,0.8c-0.6,0-1.2-0.2-1.6-0.6c-0.4-0.4-0.6-0.9-0.6-1.6
				c0-0.5,0.1-0.9,0.3-1.3c0.4-0.7,1.1-1.1,2-1.1c0.6,0,1.1,0.2,1.6,0.6c0.4,0.4,0.7,1,0.7,1.7C181.1,115.2,180.9,115.8,180.5,116.2
				z M180,116.4c0.5-0.3,0.7-0.8,0.7-1.3c0-0.5-0.2-1.1-0.6-1.5c-0.5-0.6-1.1-0.9-1.7-0.9c-1,0-1.7,0.7-1.7,1.6c0,0.5,0.2,1,0.6,1.5
				c0.5,0.6,1.1,0.9,1.7,0.9C179.4,116.7,179.8,116.6,180,116.4z"/>
			<g>
				<path class="st2" d="M180.3,115.9c-1.6,1.7-4.3-0.2-3.1-2.2c0.6-1,2.1-1.2,2.9-0.4C180.9,114,180.8,115.2,180.3,115.9
					c-0.3,0.5,0.3,0.8,0.6,0.5c0.9-1.2,0.8-3-0.5-3.8c-1.1-0.8-2.9-0.6-3.7,0.6c-0.8,1.1-0.7,2.8,0.4,3.7c1.1,0.9,2.8,0.7,3.7-0.3
					C181.1,116.1,180.6,115.6,180.3,115.9z"/>
				<path class="st2" d="M180.3,116.7c2.3-1.8-0.7-5.7-3.1-4C175,114.4,177.9,118.1,180.3,116.7c0.3-0.2,0-0.8-0.5-0.6
					c-1.6,1-3.7-1.9-2.1-2.9c1.6-1,3.5,1.7,2,2.9C179.4,116.5,179.9,117,180.3,116.7z"/>
			</g>
		</g>
		<g id="Path-22">
			<path class="st2" d="M186,112.4l0.1-0.2c0-0.1,0-0.1,0.1-0.1c0,0,0,0,0,0.1c0,0.1,0,0.3,0,0.6c0,0.3,0,0.5,0,0.6c0,0,0,0.1,0,0.1
				c-0.1,0-0.1-0.1-0.1-0.2l-0.1-0.4c-0.3-0.1-0.9-0.2-1.5-0.2c-0.2,0-0.4,0-0.6,0c0,0.4,0,0.8,0,1.2v0.7h0.7c0.5,0,0.9,0,1.2-0.1
				l0-0.2c0.1-0.2,0.1-0.3,0.1-0.3c0,0,0,0,0,0.1c0,0.1-0.1,0.3-0.1,0.7c0,0.3,0,0.6,0,0.7c0,0,0,0.1,0,0.1c-0.1,0-0.1-0.1-0.1-0.3
				l0-0.2c-0.3-0.1-0.8-0.1-1.2-0.1h-0.7v0.8c0,0.4,0,0.8,0,1.2c0.5,0,0.7,0.1,0.7,0.2c0,0,0,0.1-0.1,0.1c-0.1,0-0.3,0-0.9,0
				c-0.4,0-0.7,0-0.8,0c-0.1,0-0.1,0-0.1-0.1c0-0.1,0.2-0.1,0.6-0.2c0-0.4,0-0.8,0-1.2v-1.6c0-0.4,0-0.8,0-1.2
				c-0.4,0-0.6-0.1-0.6-0.2c0,0,0-0.1,0.1-0.1c0.1,0,0.3,0,0.8,0h0.6C184.8,112.5,185.4,112.5,186,112.4z"/>
			<g>
				<path class="st2" d="M186.4,112.5c0,0,0-0.1,0-0.1c-0.2,0-0.4-0.1-0.6-0.1c0,0,0,1,0,0.9c0.2,0,0.4-0.1,0.6-0.1c0,0,0-0.4,0-0.4
					c0-0.1-0.1-0.2-0.3-0.3c-0.7-0.2-1.4-0.2-2.2-0.2c-0.2,0-0.4,0.2-0.4,0.4c0,0.6,0,1.2,0,1.9c0,0.2,0.2,0.4,0.4,0.4
					c0.7,0,1.4,0,2-0.1c0.1,0,0.2-0.1,0.3-0.3c0-0.1,0-0.3,0.1-0.3c-0.2,0-0.4-0.1-0.6-0.1c0,0,0,1.1,0,1.1c0.2,0,0.4-0.1,0.6-0.1
					c0,0,0-0.3,0-0.4c0-0.1-0.1-0.2-0.3-0.3c-0.7-0.2-1.3-0.2-2-0.2c-0.2,0-0.4,0.2-0.4,0.4c0,0.7,0,1.3,0,2c0,0.2,0.2,0.4,0.4,0.4
					c0.4,0.2,0.5,0.1,0.4,0c0-0.2,0.1-0.3,0.1-0.5c0,0-1.3,0.1-1.5,0c0,0.2,0.1,0.3,0.1,0.5c-0.2,0.1-0.1,0.1,0.3,0
					c0.2,0,0.4-0.2,0.4-0.4c0.1-1.3,0.1-2.7,0-4c0-0.2-0.2-0.3-0.4-0.4c-0.3-0.1-0.4-0.1-0.3,0c0,0.2-0.1,0.3-0.1,0.5
					c0.2-0.1,0.8,0,1.1,0c0.7,0,1.3,0,2-0.1c0.5-0.1,0.5-0.8,0-0.8c-0.7,0.1-1.5,0.1-2.2,0.1c-0.4,0-0.9-0.1-1.2,0.1
					c-0.2,0.1-0.3,0.3-0.1,0.5c0.2,0.3,0.6,0.3,0.9,0.3c-0.1-0.1-0.3-0.3-0.4-0.4c0.1,1.3,0.1,2.7,0,4c0.1-0.1,0.3-0.3,0.4-0.4
					c-0.3,0-0.7,0-0.9,0.3c-0.1,0.2,0,0.4,0.1,0.5c0.4,0.2,0.8,0.1,1.2,0.1c0.3,0,0.7,0.1,1-0.1c0.2-0.1,0.3-0.4,0.1-0.5
					c-0.2-0.3-0.6-0.3-1-0.3c0.1,0.1,0.3,0.3,0.4,0.4c-0.1-0.7,0-1.3,0-2c-0.1,0.1-0.3,0.3-0.4,0.4c0.3,0,0.7,0,1,0
					c0.9,0.1,0.3,0,0.8,0.6c0.2,0.2,0.5,0.1,0.6-0.1c0.2-0.3,0.1-0.6,0.1-0.9c0-0.3,0.1-0.6,0-0.9c-0.1-0.2-0.4-0.2-0.6-0.1
					c-0.1,0.1-0.1,0.4-0.2,0.5c0,0,0,0.1,0,0.1c0-0.3-0.2-0.3-0.5-0.1c-0.3,0-0.7,0-1,0c0.1,0.1,0.3,0.3,0.4,0.4c0-0.6,0-1.2,0-1.9
					c-0.1,0.1-0.3,0.3-0.4,0.4c0.4,0,0.8-0.1,1.2,0c0.1,0,0.8,0.2,0.5,0c0.2,0.2,0,0.5,0.2,0.7c0.2,0.2,0.4,0.1,0.6-0.1
					c0.2-0.3,0.2-1.4,0-1.7c-0.1-0.2-0.4-0.2-0.6-0.1c-0.1,0.1-0.2,0.3-0.2,0.5C185.6,112.8,186.3,113,186.4,112.5z"/>
			</g>
		</g>
		<g id="Path-23">
			<path class="st2" d="M192.1,115.1c0,0.6,0,1.2,0.1,1.6c0.5,0,0.7,0.1,0.7,0.2c0,0,0,0.1-0.1,0.1c-0.1,0-0.4,0-0.7,0
				c-0.3,0-0.5,0-0.6,0c-0.1,0-0.1,0-0.1-0.1c0-0.1,0.2-0.1,0.5-0.2c0.1-0.3,0.1-0.8,0.1-1.4v-2.2c-0.3-0.4-0.6-0.4-0.6-0.5
				c0,0,0-0.1,0.1-0.1c0,0,0.2,0,0.5,0c0.1,0,0.1,0,0.2,0l2.7,3.5v-1.8c0-0.7,0-1.3-0.1-1.6c-0.4,0-0.6-0.1-0.6-0.2
				c0,0,0-0.1,0.1-0.1c0.1,0,0.3,0.1,0.7,0.1c0.3,0,0.5-0.1,0.6-0.1c0.1,0,0.1,0,0.1,0.1c0,0.1-0.2,0.1-0.6,0.2
				c-0.1,0.5-0.1,1.1-0.1,2v2.2v0c0,0,0,0.1,0,0.1c0,0-0.1,0-0.1-0.1l-2.8-3.7V115.1z"/>
			<g>
				<path class="st2" d="M191.7,115.1c0,0.6,0,1.1,0.1,1.7c0,0.2,0.2,0.3,0.4,0.3c0.4,0.1,0.5,0.1,0.4,0c0-0.2,0.1-0.3,0.1-0.5
					c-0.1,0-1.2,0-1.2,0c0,0.2,0.1,0.4,0.1,0.6c0.1,0,0.2,0,0.3-0.1c0.1,0,0.2-0.1,0.3-0.3c0.2-0.9,0.1-1.8,0.1-2.7
					c0-0.3,0.1-0.7,0-1c-0.1-0.4-0.5-0.5-0.7-0.8c0,0.2-0.1,0.4-0.1,0.6c0.1,0,0.5,0,0.6,0c-0.1-0.1-0.2-0.1-0.3-0.2
					c0.9,1.2,1.8,2.4,2.7,3.5c0.2,0.3,0.7,0.2,0.7-0.2c0-1.1,0.1-2.3-0.1-3.5c0-0.2-0.2-0.3-0.4-0.3c-0.4-0.1-0.5-0.1-0.3,0
					c0,0.2-0.1,0.3-0.1,0.5c0,0,1.2,0,1.2,0c0-0.2-0.1-0.3-0.1-0.5c0.2-0.1,0.1-0.1-0.2,0c-0.1,0-0.3,0.1-0.4,0.3
					c-0.1,0.8-0.1,1.7-0.1,2.5c0,0.4,0,0.8,0,1.2c0,0.1-0.1,0.6,0,0.5c0.2,0,0.4-0.1,0.6-0.1c-0.6-0.5-1-1.3-1.5-1.9
					c-0.5-0.6-0.9-1.2-1.4-1.8c-0.2-0.3-0.7-0.2-0.7,0.2C191.7,113.9,191.7,114.5,191.7,115.1c0,0.5,0.8,0.5,0.8,0
					c0-0.6,0-1.3,0-1.9c-0.2,0.1-0.5,0.1-0.7,0.2c0.5,0.7,1,1.3,1.5,2c0.5,0.6,0.9,1.4,1.5,1.9c0.2,0.2,0.5,0.1,0.6-0.1
					c0.2-0.4,0.1-1.2,0.1-1.6c0-0.9,0-1.8,0.1-2.7c-0.1,0.1-0.2,0.2-0.4,0.3c0.3,0,0.7,0,0.9-0.3c0.1-0.2,0-0.4-0.1-0.5
					c-0.3-0.2-0.7-0.1-1.1-0.1c-0.3,0-0.6-0.1-0.9,0.1c-0.2,0.1-0.3,0.3-0.1,0.5c0.2,0.3,0.6,0.3,1,0.3c-0.1-0.1-0.2-0.2-0.4-0.3
					c0.2,1.1,0.1,2.2,0.1,3.3c0.2-0.1,0.5-0.1,0.7-0.2c-0.6-0.8-1.3-1.7-1.9-2.5c-0.2-0.3-0.5-0.7-0.8-1c-0.3-0.3-1-0.3-1.4-0.1
					c-0.2,0.1-0.2,0.4-0.1,0.6c0.2,0.2,0.4,0.1,0.5,0.4c0.1,0.3,0,0.8,0,1c0,0.8,0.1,1.6-0.1,2.4c0.1-0.1,0.2-0.2,0.3-0.3
					c-0.2,0-0.5,0.1-0.7,0.3c-0.2,0.2-0.1,0.5,0.1,0.6c0.3,0.2,0.7,0.1,1.1,0.1c0.3,0,0.6,0.1,0.9-0.1c0.2-0.1,0.3-0.4,0.1-0.5
					c-0.2-0.3-0.6-0.3-1-0.3c0.1,0.1,0.2,0.2,0.4,0.3c-0.1-0.5-0.1-1-0.1-1.5C192.4,114.7,191.7,114.6,191.7,115.1z"/>
			</g>
		</g>
		<g id="Path-24">
			<path class="st2" d="M200.9,112.4l0.1-0.2c0-0.1,0-0.1,0.1-0.1c0,0,0,0,0,0.1c0,0.1-0.1,0.3-0.1,0.6c0,0.3,0,0.5,0,0.6
				c0,0,0,0.1-0.1,0.1c-0.1,0-0.1-0.1-0.1-0.2l-0.1-0.4c-0.3-0.1-0.9-0.2-1.5-0.2c-0.2,0-0.4,0-0.6,0c0,0.4,0,0.8,0,1.2v0.7h0.7
				c0.5,0,0.9,0,1.2-0.1l0-0.2c0-0.2,0.1-0.3,0.1-0.3c0,0,0,0,0,0.1c0,0.1-0.1,0.3-0.1,0.7c0,0.3,0,0.6,0,0.7c0,0,0,0.1,0,0.1
				c-0.1,0-0.1-0.1-0.1-0.3l0-0.2c-0.3-0.1-0.8-0.1-1.2-0.1h-0.7v0.8c0,0.4,0,0.8,0,1.2c0.1,0,0.3,0,0.4,0c0.7,0,1.2-0.1,1.7-0.3
				l0.1-0.4c0-0.1,0-0.2,0.1-0.2c0,0,0,0,0,0.1s0,0.2,0,0.6c0,0.3,0,0.5,0,0.5c0,0.1,0,0.1,0,0.1c0,0-0.1,0-0.1-0.1L201,117
				c-0.6-0.1-1.3-0.1-2-0.1h-0.5c-0.4,0-0.6,0-0.7,0c-0.1,0-0.1,0-0.1-0.1c0-0.1,0.2-0.1,0.6-0.2c0-0.4,0-0.8,0-1.2v-1.6
				c0-0.4,0-0.8,0-1.2c-0.4,0-0.6-0.1-0.6-0.2c0,0,0-0.1,0.1-0.1c0.1,0,0.3,0,0.8,0h0.6C199.7,112.5,200.3,112.5,200.9,112.4z"/>
			<g>
				<path class="st2" d="M201.3,112.5c0,0,0-0.1,0-0.1c-0.2,0-0.4-0.1-0.6-0.1c0,0.1-0.2,1.1,0,0.9c0.2,0,0.4,0,0.5,0
					c0,0,0-0.4,0-0.4c0-0.1-0.1-0.2-0.3-0.3c-0.7-0.2-1.4-0.2-2.2-0.2c-0.2,0-0.4,0.2-0.4,0.4c0,0.6,0,1.2,0,1.9
					c0,0.2,0.2,0.4,0.4,0.4c0.7,0,1.4,0,2-0.1c0.1,0,0.2-0.1,0.3-0.3c0-0.1,0-0.3,0.1-0.3c-0.2,0-0.4-0.1-0.6-0.1c0,0,0,1.1,0,1.1
					c0.2,0,0.4-0.1,0.6-0.1c0,0,0-0.3,0-0.4c0-0.1-0.1-0.2-0.3-0.3c-0.7-0.2-1.3-0.2-2-0.2c-0.2,0-0.4,0.2-0.4,0.4c0,0.7,0,1.3,0,2
					c0,0.2,0.2,0.4,0.4,0.4c0.7,0,1.5,0,2.2-0.3c0.1,0,0.2-0.1,0.3-0.3c0-0.1,0-0.3,0-0.4c-0.2,0-0.4-0.1-0.6-0.1c0,0,0,0.9,0,0.9
					c0.2,0,0.4-0.1,0.6-0.1c0,0,0-0.1-0.1-0.1c-0.1-0.1-0.2-0.2-0.3-0.2c-0.7-0.1-1.3-0.1-2-0.1c-0.2,0-0.9,0.1-1.1,0
					c0,0.2,0.1,0.3,0.1,0.5c-0.2,0.1-0.1,0.1,0.3,0c0.2,0,0.4-0.2,0.4-0.4c0.1-1.3,0.1-2.7,0-4c0-0.2-0.2-0.3-0.4-0.4
					c-0.3-0.1-0.4-0.1-0.3,0c0,0.2-0.1,0.3-0.1,0.5c0.1-0.1,0.8,0,1.1,0c0.7,0,1.3,0,2-0.1c0.5-0.1,0.5-0.8,0-0.8
					c-0.7,0.1-1.5,0.1-2.2,0.1c-0.4,0-0.9-0.1-1.2,0.1c-0.2,0.1-0.3,0.3-0.1,0.5c0.2,0.3,0.6,0.3,0.9,0.3c-0.1-0.1-0.3-0.3-0.4-0.4
					c0.1,1.3,0.1,2.7,0,4c0.1-0.1,0.3-0.3,0.4-0.4c-0.3,0-0.7,0-0.9,0.3c-0.1,0.2,0,0.4,0.1,0.5c0.4,0.2,1,0.1,1.4,0.1
					c0.5,0,1,0.1,1.4,0c0.4,0,0.3-0.1,0.5,0.1c0.1,0.2,0.5,0.1,0.6-0.1c0.2-0.4,0.2-1.3,0-1.6c-0.1-0.2-0.4-0.2-0.6-0.1
					c-0.2,0.1-0.2,0.5-0.2,0.6c-0.2,0.2-1.4,0.1-1.8,0.1c0.1,0.1,0.3,0.3,0.4,0.4c0-0.7,0-1.3,0-2c-0.1,0.1-0.3,0.3-0.4,0.4
					c0.3,0,0.7,0,1,0c0.9,0.1,0.3,0,0.8,0.6c0.2,0.2,0.5,0.1,0.6-0.1c0.2-0.3,0.1-0.6,0.1-0.9c0-0.3,0.1-0.6,0-0.9
					c-0.1-0.2-0.4-0.2-0.6-0.1c-0.5,0.6,0.2,0.5-0.8,0.5c-0.3,0-0.7,0-1,0c0.1,0.1,0.3,0.3,0.4,0.4c0-0.6,0-1.2,0-1.9
					c-0.1,0.1-0.3,0.3-0.4,0.4c0.3,0,0.6,0,0.9,0c0.3,0,0.5,0,0.8,0.1c0-0.2,0-0.2,0-0.1c0.1,0.2,0,0.4,0.2,0.6
					c0.1,0.1,0.4,0.2,0.5,0c0.3-0.4,0.3-1.4,0.1-1.8c-0.1-0.2-0.4-0.2-0.6-0.1c-0.1,0.1-0.2,0.3-0.2,0.5
					C200.4,112.8,201.2,113,201.3,112.5z"/>
			</g>
		</g>
		<g id="Path-25">
			<path class="st2" d="M205.4,116.9c0,0.1-0.1,0.1-0.1,0.1c0,0-0.1,0-0.1-0.1l-1.7-4.2c-0.3-0.1-0.5-0.1-0.5-0.2c0,0,0-0.1,0.1-0.1
				c0.1,0,0.3,0,0.6,0h1.2c0.5,0,0.8,0,0.9,0c0.1,0,0.1,0,0.1,0.1c0,0.1-0.2,0.1-0.5,0.2l0.7,1.8c0.3-0.8,0.5-1.4,0.5-1.8
				c-0.3-0.1-0.5-0.1-0.5-0.2c0,0,0-0.1,0.1-0.1c0,0,0.3,0,0.8,0h1.1c0.5,0,0.7,0,0.8,0c0.1,0,0.1,0,0.1,0.1c0,0.1-0.1,0.1-0.4,0.2
				c-0.2,0.5-0.5,1-0.7,1.6l-1.1,2.6c0,0.1-0.1,0.1-0.1,0.1c0,0-0.1,0-0.1-0.1l-0.6-1.6L205.4,116.9z M205,112.7c-0.2,0-0.3,0-0.5,0
				c-0.2,0-0.3,0-0.5,0l1.4,3.7l0.5-1.3L205,112.7z M206.9,116.4l0.5-1.3c0.3-0.7,0.6-1.5,0.8-2.4c-0.2,0-0.4,0-0.5,0
				c-0.2,0-0.4,0-0.5,0c-0.3,0.7-0.5,1.2-0.7,1.6l-0.2,0.5L206.9,116.4z"/>
			<g>
				<path class="st2" d="M205.1,116.7c0,0-0.1,0.1-0.1,0.1c0.2,0,0.4-0.1,0.6-0.1c-0.4-0.4-0.8-1.9-1.1-2.6
					c-0.2-0.4-0.3-0.9-0.5-1.3c-0.2-0.5-0.3-0.3-0.7-0.6c0,0.2,0,0.4,0,0.6c0.2-0.1,2.5-0.1,2.6,0c0-0.2-0.1-0.4-0.1-0.6
					c-0.1,0-0.2,0.1-0.3,0.1c-0.2,0-0.3,0.3-0.3,0.5c0.2,0.6,0.5,1.2,0.7,1.8c0.1,0.3,0.6,0.4,0.7,0c0.2-0.6,0.4-1.2,0.5-1.8
					c0-0.2-0.1-0.4-0.3-0.5c-0.1,0-0.2,0-0.3-0.1c0,0.2-0.1,0.4-0.1,0.6c0.1-0.1,2.3-0.1,2.4,0c0-0.2,0-0.4,0-0.6
					c-0.2,0.2-0.4,0.1-0.6,0.3c-0.2,0.2-0.4,0.9-0.5,1.2c-0.1,0.3-0.3,0.6-0.4,1c-0.3,0.7-0.5,1.5-0.9,2.1c0.2,0,0.4-0.1,0.6-0.1
					c-0.2-0.3-0.4-1.1-0.6-1.5c-0.1-0.4-0.6-0.4-0.7,0C205.5,115.7,205.3,116.2,205.1,116.7c-0.2,0.5,0.5,0.7,0.7,0.3
					c0.2-0.5,0.4-1,0.7-1.6c-0.2,0-0.5,0-0.7,0c0.2,0.6,0.4,1.4,0.8,1.9c0.2,0.2,0.5,0.1,0.6-0.1c0.9-1.2,0.9-3.4,2.1-4.3
					c0.2-0.2,0.3-0.5,0-0.6c-0.4-0.3-1.2-0.1-1.7-0.1c-0.5,0-1.1-0.2-1.5,0.1c-0.2,0.1-0.2,0.4-0.1,0.6c0.2,0.2,0.4,0.2,0.7,0.3
					c-0.1-0.2-0.2-0.3-0.3-0.5c-0.1,0.6-0.3,1.2-0.5,1.8c0.2,0,0.5,0,0.7,0c-0.2-0.6-0.5-1.2-0.7-1.8c-0.1,0.2-0.2,0.3-0.3,0.5
					c0.2,0,0.5-0.1,0.7-0.3c0.2-0.2,0.1-0.5-0.1-0.6c-0.4-0.3-1.2-0.1-1.7-0.1c-0.5,0-1.2-0.2-1.7,0.1c-0.3,0.2-0.2,0.5,0,0.6
					c0.2,0.1,0.3,0,0.3,0c0.1,0.1,0.1,0.4,0.2,0.5c0.2,0.6,0.4,1.1,0.7,1.7c0.3,0.7,0.5,1.7,1,2.2c0.2,0.2,0.5,0.1,0.6-0.1
					c0,0,0.1-0.1,0.1-0.1C206,116.7,205.4,116.3,205.1,116.7z"/>
				<path class="st2" d="M205,112.4c-0.3,0-0.6,0-1,0c-0.2,0-0.5,0.2-0.4,0.5c0.5,1.2,0.9,2.5,1.4,3.7c0.1,0.4,0.6,0.3,0.7,0
					c0.2-0.6,0.7-1.1,0.4-1.7c-0.3-0.7-0.6-1.4-0.9-2.1c-0.2-0.4-0.9-0.2-0.7,0.2c0.3,0.7,0.5,1.3,0.8,2c0,0.1,0.1,0.2,0.1,0.4
					c0,0.1,0-0.1,0-0.1c0,0.1,0,0.1-0.1,0.2c-0.2,0.3-0.3,0.7-0.4,1.1c0.2,0,0.5,0,0.7,0c-0.5-1.2-0.9-2.5-1.4-3.7
					c-0.1,0.2-0.2,0.3-0.4,0.5c0.3,0,0.6,0,1,0C205.5,113.2,205.5,112.4,205,112.4z"/>
				<path class="st2" d="M207.3,116.5c0.5-1.2,1-2.4,1.3-3.7c0.1-0.3-0.1-0.4-0.4-0.5c-0.3,0-0.9-0.1-1.2,0
					c-0.3,0.2-0.4,0.6-0.5,0.9c-0.2,0.4-0.5,0.9-0.6,1.3c-0.1,0.6,0.4,1.4,0.6,1.9c0.2,0.4,0.9,0.3,0.7-0.2c-0.2-0.5-0.4-1-0.6-1.5
					c-0.1-0.3-0.1,0.2,0,0c0-0.1,0.1-0.2,0.1-0.3c0.2-0.5,0.4-1,0.6-1.5c-0.1,0.1-0.2,0.1-0.3,0.2c0.4,0,0.7,0,1.1,0
					c-0.1-0.2-0.2-0.3-0.4-0.5c-0.3,1.3-0.8,2.5-1.3,3.7C206.4,116.7,207.1,116.9,207.3,116.5z"/>
			</g>
		</g>
		<g id="Path-26">
			<path class="st2" d="M213.6,112.6C213.6,112.5,213.6,112.5,213.6,112.6c0.2-0.1,0.4,0,0.8,0c0.3,0,0.5-0.1,0.6-0.1
				c0.1,0,0.1,0,0.1,0.1c0,0.1-0.2,0.1-0.5,0.2l1.1,1.8l0.6-0.9c0.2-0.3,0.4-0.6,0.5-1c-0.3-0.1-0.5-0.1-0.5-0.2c0,0,0-0.1,0.1-0.1
				c0.1,0,0.3,0,0.6,0c0.3,0,0.5,0,0.6,0c0.1,0,0.1,0,0.1,0.1c0,0.1-0.1,0.1-0.4,0.2c-0.2,0.2-0.4,0.5-0.6,0.9l-0.7,1.1v0.8
				c0,0.4,0,0.8,0,1.2c0.4,0,0.6,0.1,0.6,0.2c0,0,0,0.1-0.1,0.1c-0.1,0-0.4,0-0.8,0c-0.4,0-0.6,0-0.8,0c-0.1,0-0.1,0-0.1-0.1
				c0-0.1,0.2-0.1,0.6-0.2c0-0.4,0-0.8,0-1.2v-0.7l-1.2-2C213.7,112.7,213.6,112.6,213.6,112.6z"/>
			<g>
				<path class="st2" d="M213.8,112.9c0,0,1.1,0,1.1,0c0-0.2-0.1-0.4-0.1-0.6c-0.1,0-0.2,0.1-0.3,0.1c-0.2,0-0.3,0.4-0.2,0.6
					c0.4,0.6,0.7,1.2,1.1,1.8c0.1,0.2,0.5,0.2,0.6,0c0.4-0.6,0.8-1.2,1.1-1.9c0.1-0.2-0.1-0.4-0.3-0.5c-0.1,0-0.2,0-0.4-0.1
					c0,0.2-0.1,0.4-0.1,0.6c0,0,0.9,0,1,0c0-0.2-0.1-0.4-0.1-0.6c-0.1,0.1-0.3,0.1-0.4,0.2c-0.2,0.2-0.4,0.6-0.6,0.8
					c-0.2,0.3-0.4,0.6-0.6,1c-0.4,0.7-0.3,1.7-0.2,2.5c0,0.2,0.2,0.3,0.4,0.4c0.3,0.1,0.4,0.1,0.3,0c0-0.2,0.1-0.3,0.1-0.5
					c-0.1,0-1.3,0-1.3,0c0,0.2,0.1,0.3,0.1,0.5c-0.2,0.1-0.1,0.1,0.3,0c0.2,0,0.4-0.2,0.4-0.4c0.1-0.9,0.2-1.8-0.3-2.6
					c-0.3-0.4-0.5-0.9-0.8-1.3c-0.1-0.1-0.1-0.2-0.2-0.3c-0.1-0.1-0.4-0.1-0.5-0.2c-0.3-0.4-0.9,0.2-0.5,0.5
					C213.4,113,213.6,113,213.8,112.9c-0.1,0.1,0,0.2,0.1,0.3c0.3,0.3,0.5,0.8,0.7,1.2c0.1,0.1,0.2,0.3,0.3,0.4c0.2,0.2,0-0.1,0,0.1
					c0,0.6,0,1.2,0,1.8c0.1-0.1,0.3-0.3,0.4-0.4c-0.3,0-0.7,0-0.9,0.3c-0.1,0.2,0,0.4,0.1,0.5c0.3,0.2,0.7,0.1,1.1,0.1
					c0.4,0,0.7,0.1,1.1-0.1c0.2-0.1,0.3-0.3,0.1-0.5c-0.2-0.3-0.6-0.3-0.9-0.3c0.1,0.1,0.3,0.3,0.4,0.4c0-0.5,0-1,0-1.5
					c0-0.1,0.1-0.6,0-0.3c0-0.1,0.2-0.2,0.2-0.3c0.2-0.3,0.3-0.5,0.5-0.8c0.2-0.3,0.3-0.5,0.6-0.8c0.1-0.1,0.2-0.1,0.4-0.2
					c0.2-0.2,0.1-0.5-0.1-0.6c-0.3-0.2-1.4-0.2-1.7,0c-0.2,0.1-0.2,0.4-0.1,0.6c0.2,0.2,0.4,0.2,0.7,0.3c-0.1-0.2-0.2-0.3-0.3-0.5
					c-0.3,0.6-0.6,1.2-1,1.7c0.2,0,0.4,0,0.6,0c-0.4-0.6-0.7-1.2-1.1-1.8c-0.1,0.2-0.1,0.4-0.2,0.6c0.2,0,0.5-0.1,0.7-0.3
					c0.2-0.2,0.1-0.5-0.1-0.6c-0.3-0.2-0.6-0.1-0.9-0.1c-0.3,0-0.7-0.1-1,0.1C213,112.5,213.3,113.1,213.8,112.9z"/>
			</g>
		</g>
		<g id="Path-27">
			<path class="st2" d="M222.9,116.2c-0.4,0.5-1,0.8-1.8,0.8c-0.6,0-1.2-0.2-1.6-0.6c-0.4-0.4-0.6-0.9-0.6-1.6
				c0-0.5,0.1-0.9,0.3-1.3c0.4-0.7,1.1-1.1,2-1.1c0.6,0,1.1,0.2,1.6,0.6c0.4,0.4,0.7,1,0.7,1.7C223.5,115.2,223.3,115.8,222.9,116.2
				z M222.4,116.4c0.5-0.3,0.7-0.8,0.7-1.3c0-0.5-0.2-1.1-0.6-1.5c-0.5-0.6-1.1-0.9-1.7-0.9c-1,0-1.7,0.7-1.7,1.6
				c0,0.5,0.2,1,0.6,1.5c0.5,0.6,1.1,0.9,1.7,0.9C221.8,116.7,222.2,116.6,222.4,116.4z"/>
			<g>
				<path class="st2" d="M222.7,115.9c-1.6,1.7-4.3-0.2-3.1-2.2c0.6-1,2.1-1.2,2.9-0.4C223.3,114,223.2,115.2,222.7,115.9
					c-0.3,0.5,0.3,0.8,0.6,0.5c0.9-1.2,0.8-2.9-0.5-3.8c-1.1-0.8-2.9-0.6-3.7,0.6c-0.8,1.1-0.7,2.8,0.4,3.7c1.1,0.9,2.8,0.7,3.7-0.3
					C223.5,116.1,223,115.6,222.7,115.9z"/>
				<path class="st2" d="M222.7,116.7c2.3-1.8-0.7-5.7-3.1-4C217.3,114.4,220.3,118.1,222.7,116.7c0.3-0.2,0-0.8-0.5-0.6
					c-1.6,0.9-3.7-1.9-2.1-2.9c1.6-1,3.5,1.7,2,2.9C221.8,116.5,222.3,117,222.7,116.7z"/>
			</g>
		</g>
		<g id="Path-28">
			<path class="st2" d="M226.1,113.9v1.6c0,0.4,0,0.8,0,1.2c0.4,0,0.6,0.1,0.6,0.2c0,0,0,0.1-0.1,0.1c-0.1,0-0.4,0-0.8,0
				c-0.4,0-0.6,0-0.8,0c-0.1,0-0.1,0-0.1-0.1c0-0.1,0.2-0.1,0.6-0.2c0-0.4,0-0.8,0-1.2v-1.6c0-0.4,0-0.8,0-1.2
				c-0.4,0-0.6-0.1-0.6-0.2c0,0,0-0.1,0.1-0.1c0.1,0,0.4,0.1,0.8,0.1c0.3,0,0.7,0,1.1,0c0.9,0,1.5,0.4,1.5,1.1
				c0,0.7-0.6,1.2-1.6,1.3l1.1,1.5c0.2,0.2,0.3,0.4,0.5,0.4c0.1,0,0.2-0.1,0.3-0.1c0,0,0.1,0,0.1,0c0,0.1-0.3,0.3-0.7,0.3
				c-0.3,0-0.4-0.2-0.7-0.5l-1.1-1.5c0-0.1-0.1-0.1-0.1-0.2c0,0,0-0.1,0.1-0.1c0.1,0,0.2,0,0.3,0c0.9,0,1.3-0.3,1.3-1
				c0-0.7-0.5-1.1-1.2-1.1c-0.2,0-0.4,0-0.6,0.1C226.2,113.1,226.1,113.5,226.1,113.9z"/>
			<g>
				<path class="st2" d="M225.8,113.9c0,0.9,0,1.9,0,2.8c0,0.2,0.2,0.4,0.4,0.4c0.4,0.1,0.5,0.1,0.3,0c0-0.2,0.1-0.3,0.1-0.5
					c-0.1,0-1.3,0.1-1.4,0c0,0.2,0.1,0.3,0.1,0.5c-0.2,0.1-0.1,0.1,0.3,0c0.2,0,0.4-0.2,0.4-0.4c0.1-1.3,0.1-2.7,0-4
					c0-0.2-0.2-0.3-0.4-0.4c-0.3-0.1-0.4-0.1-0.3,0c0,0.2-0.1,0.3-0.1,0.5c0.1-0.1,0.5,0,0.7,0c0.4,0,0.9-0.1,1.3,0
					c0.5,0.1,1,0.3,0.9,0.8c-0.1,0.5-0.7,0.7-1.2,0.8c-0.3,0-0.5,0.4-0.3,0.6c0.5,0.7,1.2,2.2,2.3,1.8c-0.1,0-0.2-0.1-0.4-0.1
					c0,0,0,0,0.1,0c0-0.2,0-0.3-0.1-0.5c-0.4,0.5-1.7-1.6-1.9-1.9c0,0.2,0,0.3-0.1,0.5c-0.1,0.1,0.5,0,0.7,0c0.2,0,0.5-0.1,0.6-0.2
					c0.4-0.3,0.5-0.7,0.5-1.2c-0.1-1.3-1.3-1.5-2.3-1.3c-0.2,0-0.3,0.2-0.3,0.4C225.8,113.1,225.8,113.5,225.8,113.9
					c0,0.5,0.7,0.5,0.8,0c0-0.4,0-0.8,0.1-1.2c-0.1,0.1-0.2,0.2-0.3,0.4c0.4-0.1,1-0.1,1.3,0.3c0.3,0.5,0,0.8-0.4,1
					c-0.4,0.1-0.7-0.1-1.1,0.2c-0.1,0.1-0.1,0.3-0.1,0.5c0.5,0.9,2,3.5,3.2,1.9c0.1-0.1,0.1-0.3-0.1-0.5c-0.2-0.2-0.3,0-0.5-0.1
					c-0.2-0.1-0.3-0.3-0.5-0.5c-0.3-0.4-0.6-0.8-1-1.2c-0.1,0.2-0.2,0.4-0.3,0.6c1.1-0.1,2.6-1.1,1.8-2.4c-0.4-0.6-1-0.7-1.7-0.7
					c-0.5,0-0.9,0.1-1.4,0c-0.3,0-0.5-0.1-0.8,0.1c-0.2,0.1-0.3,0.3-0.1,0.5c0.2,0.3,0.6,0.3,0.9,0.3c-0.1-0.1-0.3-0.3-0.4-0.4
					c0.1,1.3,0.1,2.7,0,4c0.1-0.1,0.3-0.3,0.4-0.4c-0.3,0-0.7,0-0.9,0.3c-0.1,0.2,0,0.4,0.1,0.5c0.3,0.2,0.7,0.1,1.1,0.1
					c0.4,0,0.8,0.1,1.1-0.1c0.2-0.1,0.3-0.4,0.1-0.5c-0.2-0.3-0.6-0.3-1-0.3c0.1,0.1,0.3,0.3,0.4,0.4c-0.1-0.9,0-1.9,0-2.8
					C226.5,113.4,225.8,113.4,225.8,113.9z"/>
			</g>
		</g>
		<g id="Path-29">
			<path class="st2" d="M232.2,114.3l1.5-1.6c-0.3-0.1-0.4-0.1-0.4-0.2c0,0,0-0.1,0.1-0.1c0.1,0,0.3,0,0.6,0c0.3,0,0.5,0,0.6,0
				c0.1,0,0.1,0,0.1,0.1c0,0.1-0.1,0.1-0.4,0.2c-0.4,0.3-1,0.8-1.7,1.4l-0.6,0.6h0.2c0.3,0,0.5,0,0.6,0.1c0.3,0.1,0.5,0.4,0.7,0.7
				l0.6,0.8c0.2,0.3,0.4,0.4,0.5,0.4c0.1,0,0.2-0.1,0.2-0.1c0,0,0.1,0,0.1,0.1c0,0.1-0.3,0.3-0.5,0.3c-0.2,0-0.4-0.2-0.6-0.5
				l-0.6-0.9c-0.3-0.5-0.5-0.8-1.1-0.8c0,0-0.1,0-0.2,0v0.6c0,0.4,0,0.8,0,1.2c0.4,0,0.6,0.1,0.6,0.2c0,0,0,0.1-0.1,0.1
				c-0.1,0-0.4,0-0.8,0c-0.4,0-0.6,0-0.8,0c-0.1,0-0.1,0-0.1-0.1c0-0.1,0.2-0.1,0.6-0.2c0-0.4,0-0.8,0-1.2v-1.6c0-0.4,0-0.8,0-1.2
				c-0.4,0-0.6-0.1-0.6-0.2c0,0,0-0.1,0.1-0.1c0.1,0,0.4,0.1,0.8,0.1c0.4,0,0.6-0.1,0.8-0.1c0.1,0,0.1,0,0.1,0.1
				c0,0.1-0.2,0.1-0.6,0.2c0,0.4,0,0.8,0,1.2v0.8C231.9,114.6,232,114.5,232.2,114.3z"/>
			<g>
				<path class="st2" d="M232.5,114.6c0.5-0.5,1-1,1.5-1.6c0.2-0.2,0.1-0.6-0.2-0.6c-0.1,0-0.2,0-0.2-0.1c0,0.2-0.1,0.4-0.1,0.6
					c0,0,0.9,0,1,0c0-0.2-0.1-0.3-0.1-0.5c0.1-0.2-0.5,0.2-0.5,0.3c-0.3,0.2-0.6,0.4-0.8,0.7c-0.4,0.4-0.8,0.8-1.3,1.2
					c-0.2,0.2-0.1,0.6,0.3,0.6c0.9,0,1.2,0.7,1.6,1.3c0.3,0.4,0.7,0.8,1.2,0.5c-0.2,0-0.3,0-0.5-0.1c0,0,0,0,0.1,0.1
					c0-0.2,0-0.3-0.1-0.5c-0.2,0.4-1.1-1.1-1.2-1.2c-0.4-0.5-0.8-0.8-1.4-0.8c-0.2,0-0.4,0.2-0.4,0.4c0,0.6,0,1.2,0,1.8
					c0,0.2,0.2,0.3,0.4,0.4c0.3,0.1,0.4,0.1,0.3,0c0-0.2,0.1-0.3,0.1-0.5c-0.1,0-1.3,0-1.3,0c0,0.2,0.1,0.3,0.1,0.5
					c-0.2,0.1-0.1,0.1,0.3,0c0.2,0,0.4-0.2,0.4-0.4c0.1-1.3,0.1-2.7,0-4c0-0.2-0.2-0.3-0.4-0.4c-0.3-0.1-0.4-0.1-0.3,0
					c0,0.2-0.1,0.3-0.1,0.5c0.1,0,1.3,0,1.3,0c0-0.2-0.1-0.3-0.1-0.5c0.2-0.1,0.1-0.1-0.3,0c-0.2,0-0.4,0.2-0.4,0.4
					c-0.1,0.7,0,1.3,0,2c0,0.3,0.4,0.5,0.6,0.3C232.2,114.9,232.3,114.7,232.5,114.6c0.3-0.3-0.2-0.9-0.5-0.5
					c-0.1,0.2-0.3,0.3-0.5,0.4c0.2,0.1,0.4,0.2,0.6,0.3c0-0.7,0-1.3,0-2c-0.1,0.1-0.3,0.3-0.4,0.4c0.3,0,0.7,0,0.9-0.3
					c0.1-0.2,0-0.4-0.1-0.5c-0.3-0.2-0.7-0.1-1.1-0.1c-0.4,0-0.7-0.1-1.1,0.1c-0.2,0.1-0.3,0.3-0.1,0.5c0.2,0.3,0.6,0.3,0.9,0.3
					c-0.1-0.1-0.3-0.3-0.4-0.4c0.1,1.3,0.1,2.7,0,4c0.1-0.1,0.3-0.3,0.4-0.4c-0.3,0-0.7,0-0.9,0.3c-0.1,0.2,0,0.4,0.1,0.5
					c0.3,0.2,0.7,0.1,1.1,0.1c0.4,0,0.7,0.1,1.1-0.1c0.2-0.1,0.3-0.3,0.1-0.5c-0.2-0.3-0.6-0.3-0.9-0.3c0.1,0.1,0.3,0.3,0.4,0.4
					c0-0.6,0-1.2,0-1.8c-0.1,0.1-0.3,0.3-0.4,0.4c0.8,0,1.2,1.2,1.7,1.7c0.4,0.5,1.2,0.6,1.6-0.1c0.1-0.2,0.1-0.3-0.1-0.5
					c0,0,0,0-0.1-0.1c-0.1-0.1-0.3-0.1-0.5-0.1c-0.1,0-0.8-1.1-0.9-1.2c-0.4-0.6-0.9-0.7-1.6-0.7c0.1,0.2,0.2,0.4,0.3,0.6
					c0.4-0.4,0.8-0.8,1.3-1.2c0.3-0.3,0.6-0.5,1-0.7c0.2-0.1,0.4-0.1,0.5-0.3c0.1-0.2,0-0.4-0.1-0.5c-0.3-0.2-1.4-0.2-1.7,0
					c-0.2,0.1-0.2,0.4-0.1,0.6c0.1,0.2,0.4,0.2,0.6,0.3c-0.1-0.2-0.1-0.4-0.2-0.6c-0.5,0.5-1,1-1.5,1.6
					C231.6,114.4,232.1,114.9,232.5,114.6z"/>
			</g>
		</g>
	</g>
</g>
</svg>
