<?xml version="1.0" encoding="utf-8"?>
<!-- Generator: Adobe Illustrator 21.0.0, SVG Export Plug-In . SVG Version: 6.00 Build 0)  -->
<svg version="1.1" id="Layer_1" xmlns="http://www.w3.org/2000/svg" xmlns:xlink="http://www.w3.org/1999/xlink" x="0px" y="0px"
	 viewBox="0 0 301.5 205.5" style="enable-background:new 0 0 301.5 205.5;" xml:space="preserve">
<style type="text/css">
	.st0{fill:#9E9EA5;}
</style>
<g>
	<path class="st0" d="M14.8,7.4c-1.1-0.1-2.2-0.2-3.2,0.1c-0.9,0.2-0.9,1.9,0,2.1c1.1,0.2,2.2,0.2,3.2,0.1C16,9.6,16,7.6,14.8,7.4z"
		/>
	<path class="st0" d="M27.7,8.2c-1.6-0.2-3.2-0.1-4.8,0c-1.2,0-1.2,2.1,0,2.1c1.6,0.1,3.2,0.1,4.8,0C28.8,10.2,28.8,8.3,27.7,8.2z"
		/>
	<path class="st0" d="M36.5,9.4c-0.4-0.2-0.8-0.3-1.2-0.3c-0.4,0-0.9-0.1-1.3-0.1c-0.6-0.1-0.8,1.2-0.2,1.3c0.4,0.1,0.8,0.2,1.3,0.3
		c0.4,0.1,0.8,0.1,1.3,0.1C37,10.6,37.1,9.6,36.5,9.4z"/>
	<path class="st0" d="M48.5,9.1c-1.2-0.3-2.3-0.5-3.5-0.6c-0.5,0-1,0.6-1,1.1c0,0.7,0.5,1.1,1,1.1c1.1,0.2,2.2,0.2,3.3,0.2
		C49.2,10.9,49.4,9.3,48.5,9.1z"/>
	<path class="st0" d="M63.2,8.8c-1-0.2-1.9-0.1-2.9,0c-0.9,0.1-0.9,1.6,0,1.6c1,0.1,1.9,0.2,2.9,0C63.8,10.2,63.8,9,63.2,8.8z"/>
	<path class="st0" d="M76.2,8.1c-0.3,0-0.6,0-0.9,0c-0.6,0-0.6,1,0,1c0.3,0,0.6,0,0.9,0C76.7,9,76.7,8.1,76.2,8.1z"/>
	<path class="st0" d="M89.9,6.6c-0.9,0-1.7,0.1-2.6-0.1c-0.6-0.1-1.1,0.9-0.5,1.3c1,0.6,2.1,0.9,3.2,0.5C90.9,8,90.8,6.6,89.9,6.6z"
		/>
	<path class="st0" d="M104.6,5.4c-1.5-0.2-3,0.2-4.5,0.5c-1,0.2-0.8,2.2,0.2,2.1c1.5-0.1,3,0,4.4-0.6C105.9,7.1,105.6,5.6,104.6,5.4
		z"/>
	<path class="st0" d="M120.2,5.9c-1.3-0.1-2.6-0.1-3.9-0.1c-1.1,0.1-1.1,1.9,0,2c1.3,0.1,2.6,0,3.9-0.1C121.2,7.6,121.2,6,120.2,5.9
		z"/>
	<path class="st0" d="M135.5,6.4c-1.8-0.3-3.5-0.1-5.3,0.3c-0.8,0.2-0.6,1.8,0.2,1.7c1.7-0.2,3.4-0.3,5.1-0.4
		C136.4,7.9,136.3,6.5,135.5,6.4z"/>
	<path class="st0" d="M146.6,6.6c-1,0.2-2,0.3-3,0.2c-0.9-0.1-1.2,1.7-0.2,1.9c1.3,0.2,2.4,0.2,3.6-0.5
		C147.6,7.9,147.3,6.5,146.6,6.6z"/>
	<path class="st0" d="M158.8,7.3c-0.5,0-1,0-1.5,0c-0.6,0-0.6,1.1,0,1.1c0.5,0,1,0,1.5,0C159.4,8.4,159.4,7.4,158.8,7.3z"/>
	<path class="st0" d="M170.5,5.6c-1.1-0.4-2.2-0.3-3.3-0.3c-1.7,0.1-1.7,2.9,0,3c1.1,0,2.2,0.1,3.3-0.3C171.5,7.6,171.5,6,170.5,5.6
		z"/>
	<path class="st0" d="M184.1,5.6c-1.1-0.1-2.2-0.2-3.2,0.1c-0.9,0.2-0.9,1.9,0,2.1c1.1,0.2,2.2,0.2,3.2,0.1
		C185.3,7.7,185.3,5.7,184.1,5.6z"/>
	<path class="st0" d="M197,6.3c-1.6-0.2-3.2-0.1-4.8,0c-1.2,0-1.2,2.1,0,2.1c1.6,0.1,3.2,0.1,4.8,0C198.1,8.3,198.1,6.5,197,6.3z"/>
	<path class="st0" d="M205.8,7.5c-0.4-0.2-0.8-0.3-1.2-0.3c-0.4,0-0.9-0.1-1.3-0.1c-0.6-0.1-0.8,1.2-0.2,1.3
		c0.4,0.1,0.8,0.2,1.3,0.3c0.4,0.1,0.8,0.1,1.3,0.1C206.3,8.7,206.4,7.7,205.8,7.5z"/>
	<path class="st0" d="M217.8,7.2c-1.2-0.3-2.3-0.5-3.5-0.6c-0.5,0-1,0.6-1,1.1c0,0.7,0.5,1.1,1,1.1c1.1,0.2,2.2,0.2,3.3,0.2
		C218.5,9,218.8,7.4,217.8,7.2z"/>
	<path class="st0" d="M232.5,7c-1-0.2-1.9-0.1-2.9,0c-0.9,0.1-0.9,1.6,0,1.6c1,0.1,1.9,0.2,2.9,0C233.1,8.4,233.1,7.1,232.5,7z"/>
	<path class="st0" d="M245.5,6.2c-0.3,0-0.6,0-0.9,0c-0.6,0-0.6,1,0,1c0.3,0,0.6,0,0.9,0C246,7.2,246,6.2,245.5,6.2z"/>
	<path class="st0" d="M259.3,4.7c-0.9,0-1.7,0.1-2.6-0.1c-0.6-0.1-1.1,0.9-0.5,1.3c1,0.6,2.1,0.9,3.2,0.5
		C260.3,6.1,260.1,4.7,259.3,4.7z"/>
	<path class="st0" d="M273.9,3.6c-1.5-0.2-3,0.2-4.5,0.5c-1,0.2-0.8,2.2,0.2,2.1c1.5-0.1,3,0,4.4-0.6C275.2,5.2,274.9,3.7,273.9,3.6
		z"/>
	<path class="st0" d="M289.5,4c-1.3-0.1-2.6-0.1-3.9-0.1c-1.1,0.1-1.1,1.9,0,2c1.3,0.1,2.6,0,3.9-0.1C290.5,5.8,290.5,4.1,289.5,4z"
		/>
	<path class="st0" d="M14.9,198c-1.1-0.1-2.2-0.2-3.2,0.1c-0.9,0.2-0.9,1.9,0,2.1c1.1,0.2,2.2,0.2,3.2,0.1
		C16.1,200.1,16.1,198.1,14.9,198z"/>
	<path class="st0" d="M27.8,198.8c-1.6-0.2-3.2-0.1-4.8,0c-1.2,0-1.2,2.1,0,2.1c1.6,0.1,3.2,0.1,4.8,0
		C28.9,200.8,28.9,198.9,27.8,198.8z"/>
	<path class="st0" d="M36.6,200c-0.4-0.2-0.8-0.3-1.2-0.3c-0.4,0-0.9-0.1-1.3-0.1c-0.6-0.1-0.8,1.2-0.2,1.3c0.4,0.1,0.8,0.2,1.3,0.3
		c0.4,0.1,0.8,0.1,1.3,0.1C37.1,201.2,37.2,200.2,36.6,200z"/>
	<path class="st0" d="M48.6,199.7c-1.2-0.3-2.3-0.5-3.5-0.6c-0.5,0-1,0.6-1,1.1c0,0.7,0.5,1.1,1,1.1c1.1,0.2,2.2,0.2,3.3,0.2
		C49.3,201.5,49.6,199.9,48.6,199.7z"/>
	<path class="st0" d="M63.3,199.4c-1-0.2-1.9-0.1-2.9,0c-0.9,0.1-0.9,1.6,0,1.6c1,0.1,1.9,0.2,2.9,0
		C63.9,200.8,63.9,199.5,63.3,199.4z"/>
	<path class="st0" d="M76.3,198.6c-0.3,0-0.6,0-0.9,0c-0.6,0-0.6,1,0,1c0.3,0,0.6,0,0.9,0C76.8,199.6,76.8,198.6,76.3,198.6z"/>
	<path class="st0" d="M90.1,197.2c-0.9,0-1.7,0.1-2.6-0.1c-0.6-0.1-1.1,0.9-0.5,1.3c1,0.6,2.1,0.9,3.2,0.5
		C91.1,198.6,90.9,197.2,90.1,197.2z"/>
	<path class="st0" d="M104.7,196c-1.5-0.2-3,0.2-4.5,0.5c-1,0.2-0.8,2.2,0.2,2.1c1.5-0.1,3,0,4.4-0.6
		C106,197.7,105.7,196.2,104.7,196z"/>
	<path class="st0" d="M120.3,196.5c-1.3-0.1-2.6-0.1-3.9-0.1c-1.1,0.1-1.1,1.9,0,2c1.3,0.1,2.6,0,3.9-0.1
		C121.3,198.2,121.3,196.5,120.3,196.5z"/>
	<path class="st0" d="M135.6,196.9c-1.8-0.3-3.5-0.1-5.3,0.3c-0.8,0.2-0.6,1.8,0.2,1.7c1.7-0.2,3.4-0.3,5.1-0.4
		C136.5,198.5,136.4,197.1,135.6,196.9z"/>
	<path class="st0" d="M146.7,197.2c-1,0.2-2,0.3-3,0.2c-0.9-0.1-1.2,1.7-0.2,1.9c1.3,0.2,2.4,0.2,3.6-0.5
		C147.7,198.5,147.4,197.1,146.7,197.2z"/>
	<path class="st0" d="M158.9,197.9c-0.5,0-1,0-1.5,0c-0.6,0-0.6,1.1,0,1.1c0.5,0,1,0,1.5,0C159.5,198.9,159.5,197.9,158.9,197.9z"/>
	<path class="st0" d="M170.6,196.2c-1.1-0.4-2.2-0.3-3.3-0.3c-1.7,0.1-1.7,2.9,0,3c1.1,0,2.2,0.1,3.3-0.3
		C171.6,198.2,171.6,196.6,170.6,196.2z"/>
	<path class="st0" d="M184.2,196.1c-1.1-0.1-2.2-0.2-3.2,0.1c-0.9,0.2-0.9,1.9,0,2.1c1.1,0.2,2.2,0.2,3.2,0.1
		C185.4,198.3,185.4,196.3,184.2,196.1z"/>
	<path class="st0" d="M197.1,196.9c-1.6-0.2-3.2-0.1-4.8,0c-1.2,0-1.2,2.1,0,2.1c1.6,0.1,3.2,0.1,4.8,0
		C198.2,198.9,198.2,197,197.1,196.9z"/>
	<path class="st0" d="M205.9,198.1c-0.4-0.2-0.8-0.3-1.2-0.3c-0.4,0-0.9-0.1-1.3-0.1c-0.6-0.1-0.8,1.2-0.2,1.3
		c0.4,0.1,0.8,0.2,1.3,0.3c0.4,0.1,0.8,0.1,1.3,0.1C206.4,199.3,206.5,198.3,205.9,198.1z"/>
	<path class="st0" d="M218,197.8c-1.2-0.3-2.3-0.5-3.5-0.6c-0.5,0-1,0.6-1,1.1c0,0.7,0.5,1.1,1,1.1c1.1,0.2,2.2,0.2,3.3,0.2
		C218.6,199.6,218.9,198,218,197.8z"/>
	<path class="st0" d="M232.6,197.5c-1-0.2-1.9-0.1-2.9,0c-0.9,0.1-0.9,1.6,0,1.6c1,0.1,1.9,0.2,2.9,0
		C233.3,198.9,233.3,197.7,232.6,197.5z"/>
	<path class="st0" d="M245.6,196.7c-0.3,0-0.6,0-0.9,0c-0.6,0-0.6,1,0,1c0.3,0,0.6,0,0.9,0C246.2,197.7,246.2,196.8,245.6,196.7z"/>
	<path class="st0" d="M259.4,195.3c-0.9,0-1.7,0.1-2.6-0.1c-0.6-0.1-1.1,0.9-0.5,1.3c1,0.6,2.1,0.9,3.2,0.5
		C260.4,196.7,260.3,195.3,259.4,195.3z"/>
	<path class="st0" d="M274.1,194.1c-1.5-0.2-3,0.2-4.5,0.5c-1,0.2-0.8,2.2,0.2,2.1c1.5-0.1,3,0,4.4-0.6
		C275.3,195.8,275,194.3,274.1,194.1z"/>
	<path class="st0" d="M289.6,194.6c-1.3-0.1-2.6-0.1-3.9-0.1c-1.1,0.1-1.1,1.9,0,2c1.3,0.1,2.6,0,3.9-0.1
		C290.6,196.3,290.6,194.7,289.6,194.6z"/>
	<path class="st0" d="M6.8,20.5c0.1-1.3,0.1-2.5,0-3.8c-0.2-1.1-1.7-1.1-1.8,0c-0.2,1.3-0.1,2.5,0,3.8C5,21.9,6.7,21.9,6.8,20.5z"/>
	<path class="st0" d="M6.2,35.5c0.1-1.9,0.1-3.7,0-5.6c0-1.4-1.8-1.4-1.8,0c0,1.9-0.1,3.7,0,5.6C4.5,36.8,6.1,36.8,6.2,35.5z"/>
	<path class="st0" d="M5.2,45.8c0.1-0.5,0.3-0.9,0.3-1.5c0-0.5,0.1-1,0.1-1.5c0-0.8-1-0.9-1.1-0.2c-0.1,0.5-0.2,1-0.3,1.5
		c-0.1,0.5-0.1,1-0.1,1.5C4.1,46.3,5,46.5,5.2,45.8z"/>
	<path class="st0" d="M5.4,59.8c0.3-1.4,0.4-2.7,0.5-4.1c0-0.6-0.5-1.1-1-1.1c-0.6,0-0.9,0.5-1,1.1c-0.1,1.3-0.2,2.5-0.2,3.8
		C3.9,60.6,5.2,60.9,5.4,59.8z"/>
	<path class="st0" d="M5.6,76.9c0.2-1.1,0.1-2.2,0-3.4c-0.1-1-1.3-1-1.4,0c-0.1,1.1-0.1,2.2,0,3.4C4.4,77.7,5.5,77.7,5.6,76.9z"/>
	<path class="st0" d="M6.3,92.1c0-0.3,0-0.7,0-1c0-0.7-0.9-0.7-0.9,0c0,0.3,0,0.7,0,1C5.5,92.7,6.3,92.7,6.3,92.1z"/>
	<path class="st0" d="M7.6,108.1c0-1-0.1-2,0-3c0.1-0.7-0.8-1.3-1.1-0.5c-0.5,1.1-0.8,2.5-0.4,3.8C6.3,109.3,7.6,109.2,7.6,108.1z"
		/>
	<path class="st0" d="M8.5,125.2c0.2-1.7-0.2-3.5-0.4-5.2c-0.2-1.2-1.9-0.9-1.8,0.3c0,1.7,0,3.5,0.5,5.2
		C7.1,126.7,8.4,126.4,8.5,125.2z"/>
	<path class="st0" d="M8.2,143.4c0.1-1.5,0.1-3,0.1-4.5c-0.1-1.3-1.6-1.3-1.7,0c-0.1,1.5,0,3,0.1,4.5C6.7,144.6,8.1,144.6,8.2,143.4
		z"/>
	<path class="st0" d="M7.8,161.2c0.2-2.1,0.1-4.1-0.3-6.2c-0.2-0.9-1.5-0.7-1.4,0.2c0.2,2,0.3,4,0.3,5.9
		C6.4,162.3,7.7,162.2,7.8,161.2z"/>
	<path class="st0" d="M7.5,174.1c-0.1-1.2-0.3-2.3-0.2-3.5c0.1-1.1-1.5-1.3-1.6-0.3c-0.2,1.5-0.2,2.8,0.4,4.2
		C6.5,175.3,7.6,175,7.5,174.1z"/>
	<path class="st0" d="M6.9,188.5c0-0.6,0-1.2,0-1.7c0-0.7-1-0.7-1,0c0,0.6,0,1.2,0,1.7C6.1,189.2,6.9,189.2,6.9,188.5z"/>
	<path class="st0" d="M296.2,25c0.1-1.3,0.1-2.5,0-3.8c-0.2-1.1-1.7-1.1-1.8,0c-0.2,1.3-0.1,2.5,0,3.8
		C294.4,26.5,296.1,26.5,296.2,25z"/>
	<path class="st0" d="M295.6,40.1c0.1-1.9,0.1-3.7,0-5.6c0-1.4-1.8-1.4-1.8,0c0,1.9-0.1,3.7,0,5.6C293.9,41.4,295.5,41.4,295.6,40.1
		z"/>
	<path class="st0" d="M294.6,50.4c0.1-0.5,0.3-0.9,0.3-1.5c0-0.5,0.1-1,0.1-1.5c0-0.8-1-0.9-1.1-0.2c-0.1,0.5-0.2,1-0.3,1.5
		c-0.1,0.5-0.1,1-0.1,1.5C293.5,50.9,294.4,51,294.6,50.4z"/>
	<path class="st0" d="M294.8,64.4c0.3-1.4,0.4-2.7,0.5-4.1c0-0.6-0.5-1.1-1-1.1c-0.6,0-0.9,0.5-1,1.1c-0.1,1.3-0.2,2.5-0.2,3.8
		C293.3,65.2,294.6,65.5,294.8,64.4z"/>
	<path class="st0" d="M295,81.5c0.2-1.1,0.1-2.2,0-3.4c-0.1-1-1.3-1-1.4,0c-0.1,1.1-0.1,2.2,0,3.4C293.8,82.2,294.9,82.2,295,81.5z"
		/>
	<path class="st0" d="M295.7,96.6c0-0.3,0-0.7,0-1c0-0.7-0.9-0.7-0.9,0c0,0.3,0,0.7,0,1C294.9,97.3,295.7,97.3,295.7,96.6z"/>
	<path class="st0" d="M297,112.7c0-1-0.1-2,0-3c0.1-0.7-0.8-1.3-1.1-0.5c-0.5,1.1-0.8,2.5-0.4,3.8C295.7,113.9,297,113.7,297,112.7z
		"/>
	<path class="st0" d="M297.9,129.8c0.2-1.7-0.2-3.5-0.4-5.2c-0.2-1.2-1.9-0.9-1.8,0.3c0,1.7,0,3.5,0.5,5.2
		C296.5,131.3,297.8,131,297.9,129.8z"/>
	<path class="st0" d="M297.6,148c0.1-1.5,0.1-3,0.1-4.5c-0.1-1.3-1.6-1.3-1.7,0c-0.1,1.5,0,3,0.1,4.5
		C296.1,149.2,297.5,149.2,297.6,148z"/>
	<path class="st0" d="M297.2,165.8c0.2-2.1,0.1-4.1-0.3-6.2c-0.2-0.9-1.5-0.7-1.4,0.2c0.2,2,0.3,4,0.3,5.9
		C295.8,166.9,297.1,166.8,297.2,165.8z"/>
	<path class="st0" d="M296.9,178.7c-0.1-1.2-0.3-2.3-0.2-3.5c0.1-1.1-1.5-1.3-1.6-0.3c-0.2,1.5-0.2,2.8,0.4,4.2
		C295.9,179.9,297,179.6,296.9,178.7z"/>
	<path class="st0" d="M296.3,193c0-0.6,0-1.2,0-1.7c0-0.7-1-0.7-1,0c0,0.6,0,1.2,0,1.7C295.5,193.7,296.3,193.7,296.3,193z"/>
	<path class="st0" d="M296.5,12.3c0-1-0.1-2,0-3c0.1-0.7-0.8-1.3-1.1-0.5c-0.5,1.1-0.8,2.5-0.4,3.8
		C295.2,13.4,296.5,13.3,296.5,12.3z"/>
</g>
<g transform="translate(0.000000,300.000000) scale(0.100000,-0.100000)">
	<g>
		<path class="st0" d="M1272.3,2308.5c-6.8-3.5-28.6-26.1-63.5-66.5c-70.8-81.4-71.4-82-70-92.3c0.8-4.4,2.2-10.4,3.3-12.8
			c2.7-6.8,19.3-13.6,28.6-11.7c7.6,1.6,12,5.7,40.3,36.8c10.9,12,11.2,12,15.3,6.8c3.5-4.9,3-6.3-5.2-15.3
			c-25.3-28.3-49-73-60.5-115.5c-6.3-23.4-7.4-32.7-7.4-65.4c0-21.5,1.4-44.1,3.3-51.8c1.9-7.4,3.8-16.1,4.6-19.1
			c1.6-9,11.2-34.6,18.8-50.4c25.1-52.8,70-100.5,125.8-134.3c15.8-9.5,49.8-25.9,58.3-28.1c2.2-0.5,12.8-3.8,23.2-7.4
			c10.6-3.5,25.1-7.4,32.1-8.4c7.4-1.1,16.1-2.5,19.1-3.3c36.2-7.4,98.1-6,141.4,3c140,29.1,252,138.6,265.6,260.1
			c2.5,20.2,2.5,57.5,0,79c-6.5,59.7-50.1,134-105.4,180c-66.2,55-151.7,84.7-242.4,84.2c-27.8,0-40.9-1.4-72.2-6.8
			c-41.7-7.4-92.3-27.2-130.5-51.8c-8.2-5.2-16.1-9.5-17.7-9.5c-1.4,0-4.9,3.3-7.9,7.4l-5.4,7.4l18.8,21.5
			c25.9,29.1,28.1,32.7,26.1,44.4C1305.5,2308.8,1289.5,2317.5,1272.3,2308.5z M1556.1,2258.4c30.8-4.1,79.3-19.6,110.3-34.9
			c47.7-23.7,96.4-64.3,116.9-97.8c3.5-5.7,7.9-12,10.1-13.9c1.9-2.2,7.1-10.9,11.7-19.6c21.5-43.3,28.9-73,28.6-120.9
			c0-33-4.6-64.3-12-80.4c-1.4-3-5.7-13.1-9.3-22.3c-33.2-81.2-107.9-144.1-203.2-171.9c-39-11.2-63.5-15-102.1-15.3
			c-73-0.5-113,8.4-180.6,41.4c-11.2,5.2-21.5,10.9-23.2,12.5c-1.9,1.6-8.7,6.5-15.3,10.9c-15.8,10.1-59.1,53.7-71.1,71.1
			c-4.9,7.6-9.8,14.2-10.6,15c-4.6,4.1-25.9,50.9-30.8,67.8c-2.7,9.3-3.3,12-7.6,33c-3.8,18.2-1.1,77.6,4.1,96.7
			c2.5,9,4.9,18.8,5.7,21.8c1.1,6.3,25.1,56.4,27.8,58.6c1.1,0.8,5.7,6.8,10.1,13.3c15.3,22.3,28.6,33.8,28.6,24
			c0-1.9,2.5-5.2,5.4-7.4c6.8-4.9,6.8-5.7-0.8-14.2c-11.4-12.8-15.5-18.5-13.3-18.5c1.1,0,0.5-1.1-1.4-2.2
			c-4.4-2.7-20.4-33.8-27.8-53.7c-13.1-34.6-17.7-85.3-10.9-118.8c1.6-8.2,3.3-17.7,4.1-21.2s2.5-8.7,4.1-11.7
			c1.4-2.7,1.9-4.9,1.1-4.9s0.5-3,3-6.8c2.5-3.8,3.8-6.8,2.7-6.8c-2.2,0,20.2-42.5,25.6-48.5c2.5-2.5,5.2-6.8,6.3-9.5
			c0.8-2.5,3-4.6,4.6-4.6c1.4,0,2.7-1.1,2.7-2.7c0-2.2,29.7-32.7,43.6-44.7c18.8-16.3,64.8-41.4,68.6-37.6c1.1,1.1,0.3,10.6-1.9,21
			c-10.6,49.8,1.6,101.9,26.7,113.9c12.8,6.3,21.8,4.4,32.1-6.5c13.1-14.2,17.4-31.9,17.2-71.9c0-19.3-1.6-44.9-3.5-56.9
			c-2.2-13.1-2.5-22.3-0.8-24c5.2-5.2,41.4-8.2,83.1-7.1c23.7,0.8,43.9,2.5,45.2,3.8c1.4,1.4,0.8,12.8-1.4,25.6
			c-1.9,12.8-3.5,38.7-3.5,57.5c-0.3,42.5,4.1,59.1,19.1,74.4c9.5,9.5,11.7,10.4,20.7,9c12.5-2.2,23.4-12.5,31.1-30.2
			c9-19.9,10.4-68.1,3-96.4c-2.7-10.9-4.6-20.2-3.8-20.7c1.1-1.4,41.1,17.2,44.1,20.2c2.7,2.7,12.3,8.4,17.2,9.8
			c2.5,1.1,4.6,2.7,4.6,3.8c0,1.4,2.2,3,4.9,3.8c7.9,2.7,69.5,64.3,64.3,64.3c-1.1,0,1.4,3.3,5.2,7.1c4.1,4.1,6.5,8.2,5.7,9.5
			c-0.8,1.4,0,2.5,1.4,2.5c1.6,0,3,1.9,3,4.1c0,2.2,1.1,4.1,2.5,4.1c1.4,0,3,2.2,3.8,4.6c0.8,2.7,4.6,12.8,8.7,22.1
			c7.9,19.1,7.9,18.5,13.9,45.5c7.4,32.4,3.8,85-8.2,122.6c-0.5,1.6-1.1,3.5-1.4,4.9c0,1.1-2.2,6-4.9,10.9
			c-2.5,4.6-4.4,9.5-4.1,10.9c0.3,1.1-0.8,1.9-2.5,1.9c-1.4,0-1.9,1.4-1.1,2.7c0.8,1.6,0.5,2.7-0.8,2.7c-1.6,0-3.5,3-4.4,6.8
			c-1.1,3.8-3,6.8-4.6,6.8s-1.9,1.4-1.1,2.7c0.8,1.6-0.3,3.5-2.5,4.4c-2.5,0.8-4.4,3-4.4,4.9c0,7.1-60.5,69.7-67.5,69.7
			c-1.6,0-3.3,0.8-3.8,2.2c-1.4,3-34.9,24-46.3,28.9c-5.7,2.5-14.4,6-19.1,8.2c-59.9,25.3-138.1,30.8-210.5,14.4
			c-24.8-5.7-89.3-33.2-94-40c-1.4-1.9-17.7-10.9-20.2-10.9c-0.8,0-4.6,3.3-8.4,7.1c-5.7,5.4-6.3,7.9-3.8,10.9
			c1.6,2.2,4.4,3.8,5.7,3.8c1.6,0,6,2.2,9.8,5.2c16.9,11.7,58.8,31.9,72.2,34.6c3,0.5,9.8,2.5,15.3,4.1c18.8,6.3,52,12.5,70.3,13.1
			c10.1,0.3,19.1,1.1,19.6,1.9C1485,2263,1541.4,2260.6,1556.1,2258.4z"/>
		<g>
			<path class="st0" d="M1272.3,2314.8c-42.6-29.1-76.5-80.4-109.5-119.6c-9.9-11.8-21.9-22.8-24.4-38.2c-1.5-9.5,1-22.9,6.9-29.5
				c14.2-15.9,27.8-7.9,40.3,1.3c9.5,7,35.4,51.4,42.4,27.7c0,4.2,0,8.3,0,12.5c-61.3-80.5-95.4-180.3-65.1-280.5
				c41.8-137.9,181.1-224.9,321.1-229.1c151.8-4.6,320.9,83.8,356.9,241.8c23.8,104.7-10.8,213.7-89.4,287.1
				c-71.7,67-172.3,98-269.2,94.3c-47.8-1.8-94.8-13.1-138.5-32.4c-17.4-7.7-42.3-30.6-60.2-32.7c-11.3-1.3-12.2,1.7-19.7,11.9
				c0-4.2,0-8.3,0-12.5c16.1,18.4,42,38.3,45.5,63C1312.7,2303.4,1297.7,2322,1272.3,2314.8c-1.2-0.3,1-12.2,0-12.5
				c21.1,6,34.8-2.5,37-24.9c0,4.2,0,8.3,0,12.5c-3.3-22.8-30.6-43.6-45.5-60.6c-0.8-0.9-0.7-11.6,0-12.5
				c20.8-28,46.5,5.3,72.6,17.5c41.6,19.5,86.9,31.8,132.7,35.1c96.3,6.9,196.3-20.8,270.8-83.3c82.7-69.4,128.3-178,97.7-285.1
				c-23.1-81-86.2-146.5-159.2-185.7c-141-75.7-328.7-52.2-441.6,62.7c-67.2,68.3-102.5,167.4-73.8,262
				c7.4,24.3,17.8,47.8,30.8,69.7c8.4,14.1,31,31.8,34.2,46.9c0.6,3,0.6,8.2,0,11.2c-5.6,28.1-34.9-22.3-44.9-28.6
				c-10.4-6.5-15.1-11.2-29-4.6c-6.5,3-9,6.1-13,11.6c-5,7,0.3,12.9-1.8,5.3c5,18.7,30.9,40.1,42.6,53.7
				c27.6,31.9,54.9,73.2,90.2,97.3C1274.3,2303.6,1270.4,2313.5,1272.3,2314.8z"/>
			<path class="st0" d="M1556.1,2252.2c160.3-26.6,329.9-175.3,265.6-354.9c-53.7-149.9-208.8-220.3-360.6-208.1
				c-116.4,9.3-228.4,80.9-274.8,189.6c-23.8,55.9-26.8,119.2-4.9,176.4c7.2,18.9,16.9,36.8,28,53.4c5.3,8,18.6,33.3,29.2,35
				c7.3,1.2,10.8-9.2,16.1-15.3c0,4.2,0,8.3,0,12.5c-11.7-16.9-19.7-20.6-19.2-39.2c0,4.1,0,8.2,0,12.3
				c-42-67.2-56.3-148.8-30.8-225c9.1-27.1,24-54.1,42.2-76.3c23.3-28.4,74.3-86.8,114.9-85c0,0.1,0,0.1,0,0.2
				c0.2,6.2-0.3,12.9,0.3,19.1c2.9,30.8-10.7,61.9,4.1,91.8c9.6,19.4,26.7,34.1,47.5,21.2c43-26.7,14.1-97.9,16.8-138.4
				c0.6-8.6-1.5-14.4,5.1-20.4c15.6-14.4,115.6-10,124.6,3.1c1.9,2.7,0.5,12.7,0.4,15.9c-1,30.2-26.4,138.1,26.9,146.7
				c61.5,9.9,39.7-110.9,37.5-135.3c-0.1-1.3,0.3-12.4,0-12.5c42.5,8.6,81.8,44.3,111.2,74.1c12.3,12.5,26.6,21.8,23.9,40.3
				c0-4.2,0-8.3,0-12.5c9.3,26.2,30.3,48.4,38.9,77.2c6.7,22.3,9.1,45.4,9.1,68.7c0,57.3-13.9,108.6-47,154.3
				c-45.4,62.7-117.6,106.2-193.2,120.5c-62.8,11.9-129.2,7.2-188.8-16.1c-18.3-7.2-36.3-14.9-53.3-24.9
				c-17.1-10-21.7-18.4-36.2,0.2c0-4.2,0-8.3,0-12.5c3.9,15.4,47.1,31.1,60.2,37c21.2,9.6,43.8,16,66.5,21.2
				C1462,2257,1509.7,2257.5,1556.1,2252.2c-0.4,0,0.6,12.4,0,12.5c-42.3,4.9-85.1,4.8-127-3c-38.1-7.1-104.3-21.5-130.5-51.8
				c-5.5-6.3-12.5-10.6-8.9-21.4c9.3-28.4,72.7,17.8,89.5,24.4c157.4,61.6,390-15.2,423.6-197.1c11.5-62.1-2.2-117.2-32.8-169.7
				c-6.8-11.7-11.7-12.8-9.7-26.3c0,4.2,0,8.3,0,12.5c-26.6-40.6-86.3-91.1-135.2-101c0-4.2,0-8.3,0-12.5
				c2.8,31.6,31.7,164.4-33.9,160.1c-55.8-3.7-34.4-138.2-30.6-170.6c0,4.2,0,8.3,0,12.5c-1.5-20.3-126.6-22.5-130,2.5
				c0-4.2,0-8.3,0-12.5c4.1,36,21.9,137.3-16.8,161.6c-66.7,41.8-56.6-105.5-51.6-137.7c0,4.1,0,8.2,0,12.3
				c-1-24.9-103.4,64.6-112.5,75.5c-18.2,21.7-32,46-41.9,72.2c-25.4,66.6-12,132.4,18.9,193.9c6.6,13.2,9.2,13.1,8.8,27.1
				c0-4.1,0-8.2,0-12.3c6.2,8.6,13.2,16.3,19.2,25c0.7,1,0.8,11.6,0,12.5c-5.2,5.9-9.1,16.4-16.1,15.3c-9.2-1.4-22.2-25.1-26.1-30.6
				c-11.9-16.8-21.6-34.6-29.4-53.9c-13.9-34.5-17-70.8-17-107.7c-0.1-81,39.6-149.2,97.7-203.3c190.4-177.1,569.7-66.9,569.9,212.5
				c0.1,157.4-129.4,267-277.6,291.7C1556.7,2264.6,1555.3,2252.3,1556.1,2252.2z"/>
		</g>
	</g>
</g>
</svg>
