<?xml version="1.0" encoding="utf-8"?>
<!-- Generator: Adobe Illustrator 21.0.0, SVG Export Plug-In . SVG Version: 6.00 Build 0)  -->
<svg version="1.1" id="Layer_1_1_" xmlns="http://www.w3.org/2000/svg" xmlns:xlink="http://www.w3.org/1999/xlink" x="0px" y="0px"
	 viewBox="0 0 301.5 205.5" style="enable-background:new 0 0 301.5 205.5;" xml:space="preserve">
<style type="text/css">
	.st0{fill:#F8F0F0;}
	.st1{fill:none;stroke:#F8F0F0;stroke-miterlimit:10;}
	.st2{fill:#40404C;}
</style>
<g id="XMLID_1_">
	<g>
		<path class="st0" d="M295.7,161.4c0.3,9.5,1.6,19.1,0.2,28.4c-0.3,1.8-0.7,3.7-2.1,4.8c-1,0.7-2.3,0.9-3.5,1.1
			c-13.9,1.6-28.8,1.6-42.8,1.7c-12.5,0.1-25,0.1-37.5,0.2c-41.8,0.2-83.7,0.4-125.5,0.6c-21.1,0.1-42.2,0.2-63.3,0.3
			c-5.6,0-12.1-0.4-15.3-5c-2.1-3-2.1-6.9-2-10.5C4.3,172.1,5.6,161,6.6,150C8.9,123.6,9.4,97,8,70.6C7.6,63,6.3,53.6,6.3,39.4
			c0-11.2,1.3-26.6,1.3-26.6s0-4.5,5.3-4.2c2.2-0.6,4-0.1,4.9,0.2c0.4,0.1,6.1,0.4,17.4,1.1c0,0,5.2,0.3,15,0.3
			c10.4,0,229.1-3.7,237.5-4.1c2.5-0.1,5.5,0,6.6,2.2c0.5,0.9,0.5,1.9,0.5,2.9C296.5,61.3,294.1,111.3,295.7,161.4z"/>
	</g>
	<g>
		<path class="st1" d="M17.8,8.8C16.9,8.5,15,8,12.9,8.6c-5.3-0.3-5.3,4.2-5.3,4.2S6.3,28.2,6.3,39.4C6.3,53.6,7.6,63,8,70.6
			C9.4,97,8.9,123.6,6.6,150c-1,11-2.3,22-2.7,33.1c-0.1,3.6-0.1,7.5,2,10.5c3.2,4.6,9.7,5,15.3,5c21.1-0.1,42.2-0.2,63.3-0.3
			c41.8-0.2,83.7-0.4,125.5-0.6c12.5-0.1,25-0.1,37.5-0.2c14-0.1,28.9-0.1,42.8-1.7c1.2-0.1,2.5-0.3,3.5-1.1c1.4-1.1,1.9-3,2.1-4.8
			c1.4-9.4,0.1-18.9-0.2-28.4c-1.6-50.1,0.8-100.2-0.9-150.3c0-1-0.1-2-0.5-2.9c-1.2-2.2-4.2-2.3-6.6-2.2
			c-8.4,0.4-227,4.1-237.5,4.1c-9.9,0-15-0.3-15-0.3C23.8,9.2,18.1,8.9,17.8,8.8z"/>
	</g>
</g>
<g transform="translate(0.000000,300.000000) scale(0.100000,-0.100000)">
	<g>
		<path class="st2" d="M1272.3,2308.5c-6.8-3.5-28.6-26.1-63.5-66.5c-70.8-81.4-71.4-82-70-92.3c0.8-4.4,2.2-10.4,3.3-12.8
			c2.7-6.8,19.3-13.6,28.6-11.7c7.6,1.6,12,5.7,40.3,36.8c10.9,12,11.2,12,15.3,6.8c3.5-4.9,3-6.3-5.2-15.3
			c-25.3-28.3-49-73-60.5-115.5c-6.3-23.4-7.4-32.7-7.4-65.4c0-21.5,1.4-44.1,3.3-51.8c1.9-7.4,3.8-16.1,4.6-19.1
			c1.6-9,11.2-34.6,18.8-50.4c25.1-52.8,70-100.5,125.8-134.3c15.8-9.5,49.8-25.9,58.3-28.1c2.2-0.5,12.8-3.8,23.2-7.4
			c10.6-3.5,25.1-7.4,32.1-8.4c7.4-1.1,16.1-2.5,19.1-3.3c36.2-7.4,98.1-6,141.4,3c140,29.1,252,138.6,265.6,260.1
			c2.5,20.2,2.5,57.5,0,79c-6.5,59.7-50.1,134-105.4,180c-66.2,55-151.7,84.7-242.4,84.2c-27.8,0-40.9-1.4-72.2-6.8
			c-41.7-7.4-92.3-27.2-130.5-51.8c-8.2-5.2-16.1-9.5-17.7-9.5c-1.4,0-4.9,3.3-7.9,7.4l-5.4,7.4l18.8,21.5
			c25.9,29.1,28.1,32.7,26.1,44.4C1305.5,2308.8,1289.5,2317.5,1272.3,2308.5z M1556.1,2258.4c30.8-4.1,79.3-19.6,110.3-34.9
			c47.7-23.7,96.4-64.3,116.9-97.8c3.5-5.7,7.9-12,10.1-13.9c1.9-2.2,7.1-10.9,11.7-19.6c21.5-43.3,28.9-73,28.6-120.9
			c0-33-4.6-64.3-12-80.4c-1.4-3-5.7-13.1-9.3-22.3c-33.2-81.2-107.9-144.1-203.2-171.9c-39-11.2-63.5-15-102.1-15.3
			c-73-0.5-113,8.4-180.6,41.4c-11.2,5.2-21.5,10.9-23.2,12.5c-1.9,1.6-8.7,6.5-15.3,10.9c-15.8,10.1-59.1,53.7-71.1,71.1
			c-4.9,7.6-9.8,14.2-10.6,15c-4.6,4.1-25.9,50.9-30.8,67.8c-2.7,9.3-3.3,12-7.6,33c-3.8,18.2-1.1,77.6,4.1,96.7
			c2.5,9,4.9,18.8,5.7,21.8c1.1,6.3,25.1,56.4,27.8,58.6c1.1,0.8,5.7,6.8,10.1,13.3c15.3,22.3,28.6,33.8,28.6,24
			c0-1.9,2.5-5.2,5.4-7.4c6.8-4.9,6.8-5.7-0.8-14.2c-11.4-12.8-15.5-18.5-13.3-18.5c1.1,0,0.5-1.1-1.4-2.2
			c-4.4-2.7-20.4-33.8-27.8-53.7c-13.1-34.6-17.7-85.3-10.9-118.8c1.6-8.2,3.3-17.7,4.1-21.2s2.5-8.7,4.1-11.7
			c1.4-2.7,1.9-4.9,1.1-4.9s0.5-3,3-6.8c2.5-3.8,3.8-6.8,2.7-6.8c-2.2,0,20.2-42.5,25.6-48.5c2.5-2.5,5.2-6.8,6.3-9.5
			c0.8-2.5,3-4.6,4.6-4.6c1.4,0,2.7-1.1,2.7-2.7c0-2.2,29.7-32.7,43.6-44.7c18.8-16.3,64.8-41.4,68.6-37.6c1.1,1.1,0.3,10.6-1.9,21
			c-10.6,49.8,1.6,101.9,26.7,113.9c12.8,6.3,21.8,4.4,32.1-6.5c13.1-14.2,17.4-31.9,17.2-71.9c0-19.3-1.6-44.9-3.5-56.9
			c-2.2-13.1-2.5-22.3-0.8-24c5.2-5.2,41.4-8.2,83.1-7.1c23.7,0.8,43.9,2.5,45.2,3.8c1.4,1.4,0.8,12.8-1.4,25.6
			c-1.9,12.8-3.5,38.7-3.5,57.5c-0.3,42.5,4.1,59.1,19.1,74.4c9.5,9.5,11.7,10.4,20.7,9c12.5-2.2,23.4-12.5,31.1-30.2
			c9-19.9,10.4-68.1,3-96.4c-2.7-10.9-4.6-20.2-3.8-20.7c1.1-1.4,41.1,17.2,44.1,20.2c2.7,2.7,12.3,8.4,17.2,9.8
			c2.5,1.1,4.6,2.7,4.6,3.8c0,1.4,2.2,3,4.9,3.8c7.9,2.7,69.5,64.3,64.3,64.3c-1.1,0,1.4,3.3,5.2,7.1c4.1,4.1,6.5,8.2,5.7,9.5
			c-0.8,1.4,0,2.5,1.4,2.5c1.6,0,3,1.9,3,4.1c0,2.2,1.1,4.1,2.5,4.1c1.4,0,3,2.2,3.8,4.6c0.8,2.7,4.6,12.8,8.7,22.1
			c7.9,19.1,7.9,18.5,13.9,45.5c7.4,32.4,3.8,85-8.2,122.6c-0.5,1.6-1.1,3.5-1.4,4.9c0,1.1-2.2,6-4.9,10.9
			c-2.5,4.6-4.4,9.5-4.1,10.9c0.3,1.1-0.8,1.9-2.5,1.9c-1.4,0-1.9,1.4-1.1,2.7c0.8,1.6,0.5,2.7-0.8,2.7c-1.6,0-3.5,3-4.4,6.8
			c-1.1,3.8-3,6.8-4.6,6.8s-1.9,1.4-1.1,2.7c0.8,1.6-0.3,3.5-2.5,4.4c-2.5,0.8-4.4,3-4.4,4.9c0,7.1-60.5,69.7-67.5,69.7
			c-1.6,0-3.3,0.8-3.8,2.2c-1.4,3-34.9,24-46.3,28.9c-5.7,2.5-14.4,6-19.1,8.2c-59.9,25.3-138.1,30.8-210.5,14.4
			c-24.8-5.7-89.3-33.2-94-40c-1.4-1.9-17.7-10.9-20.2-10.9c-0.8,0-4.6,3.3-8.4,7.1c-5.7,5.4-6.3,7.9-3.8,10.9
			c1.6,2.2,4.4,3.8,5.7,3.8c1.6,0,6,2.2,9.8,5.2c16.9,11.7,58.8,31.9,72.2,34.6c3,0.5,9.8,2.5,15.3,4.1c18.8,6.3,52,12.5,70.3,13.1
			c10.1,0.3,19.1,1.1,19.6,1.9C1485,2263,1541.4,2260.6,1556.1,2258.4z"/>
		<g>
			<path class="st0" d="M1272.3,2333.5c-42.6-29.1-76.5-80.4-109.5-119.6c-14-16.7-22.3-25.2-24.5-45.6c-1.7-15.1-4.1-47.1,7-59.6
				c14.2-15.9,27.8-7.9,40.3,1.3c9.5,7,35.4,51.4,42.4,27.7c0,16.7,0,33.3,0,50c-67.7-88.8-98.4-207.8-65.1-318
				c41.8-137.9,181.1-224.9,321.1-229.1c151.8-4.6,320.9,83.8,356.9,241.8c26.3,115.4-1.7,242.7-89.4,324.6
				c-71.7,67-172.3,98-269.2,94.3c-47.8-1.8-94.8-13.1-138.5-32.4c-17.4-7.7-42.3-30.6-60.2-32.7c-11.3-1.3-12.2,1.7-19.7,11.9
				c0-16.7,0-33.3,0-50c19.1,21.8,43.1,40.7,45.7,70.4C1311.9,2296.5,1313.8,2345.2,1272.3,2333.5c-4.7-1.3,4-48.9,0-50
				c21.1,6,34.8-2.5,37-24.9c0,16.7,0,33.3,0,50c-3.3-22.8-30.6-43.6-45.5-60.6c-3.1-3.5-2.7-46.3,0-50c20.8-28,46.5,5.3,72.6,17.5
				c41.6,19.5,86.9,31.8,132.7,35.1c96.3,6.9,196.3-20.8,270.8-83.3c70.3-59.1,124.3-154.6,97.7-247.6
				c-23.1-81-86.2-146.5-159.2-185.7c-141-75.7-328.7-52.2-441.6,62.7c-56.8,57.7-98.5,143.2-73.8,224.5
				c7.4,24.3,17.8,47.8,30.8,69.7c9.2,15.5,28.5,30.5,34.2,46.9c3.1,8.8,2.9,36.1,0.2,44.6c-10.5,32.2-26.9-13.3-45-24.5
				c-10.4-6.5-15.1-11.2-29-4.6c-5,2.3-10,10.3-13,11.6c-1.1,3.2-1.9,6.6-2.4,10c-5-42.5-4.8-56.6,0.6-42.1
				c12.1,5.8,34.1,43.8,42.6,53.7c27.6,31.9,54.9,73.2,90.2,97.3C1280.3,2289,1264.8,2328.4,1272.3,2333.5z"/>
			<path class="st0" d="M1556.1,2233.4c137.2-22.8,323.8-154.8,265.6-317.4c-53.7-149.9-208.8-220.3-360.6-208.1
				c-116.4,9.3-228.4,80.9-274.8,189.6c-19.9,46.6-23.4,90.5-4.9,138.9c7.2,18.9,16.9,36.8,28,53.4c5.3,8,18.6,33.3,29.2,35
				c7.3,1.2,10.8-9.2,16.1-15.3c0,16.7,0,33.3,0,50c-20.4-29.5-20.2-40.1-19.2-76c0,16.4,0,32.7,0.1,49.1
				c-46.3-74.1-58.9-178.1-30.8-262.5c8.9-26.6,24-54.1,42.2-76.3c23.3-28.4,74.3-86.8,114.9-85c0,0.3,0,0.6,0.1,0.9
				c0.7,18.2,1.6,37,0.3,55.2c-1.9,26.3,4.7,105.2,51.5,76.1c33.8-21,18-74.3,16.6-106.4c-0.6-13.7-5.1-43.2,5.2-52.5
				c15.3-13.8,116.9-10.3,124.6,3.1c6,10.5,1.1,39.1,0.4,50.8c-1.5,26.2-17.3,104.6,26.8,111.7c52.1,8.4,39.7-73,37.5-97.8
				c-0.4-5,1.2-49.7,0-50c42.5,8.6,81.8,44.3,111.2,74.1c24.5,24.9,29.2,42,23.9,77.8c0-16.7,0-33.3,0-50
				c9.3,26.2,30.3,48.4,38.9,77.2c9.3,31,9.4,62.7,9.2,94.6c-0.4,61.6-11.3,116.3-47.2,165.9c-45.4,62.7-117.6,106.2-193.2,120.5
				c-62.8,11.9-129.2,7.2-188.8-16.1c-18.3-7.2-36.3-14.9-53.3-24.9c-17.1-10-21.7-18.4-36.2,0.2c0-16.7,0-33.3,0-50
				c3.9,15.4,47.1,31.1,60.2,37c21.2,9.6,43.8,16,66.5,21.2C1462,2238.3,1509.7,2238.8,1556.1,2233.4c-1.5,0.2,2.3,49.7,0,50
				c-42.3,4.9-85.1,4.8-127-3c-38.7-7.2-103.5-21.6-130.5-51.8c-10.2-11.4-16.3-41-9-58.2c8.6-20.1,19.5-11.4,33.6-3.4
				c18.2,10.3,36.2,19.5,55.9,27.2c157.3,61.6,390-15.2,423.6-197.1c14.2-77.1-53.2-123.1-42.5-196c0,16.7,0,33.3,0,50
				c-26.6-40.6-86.3-91.1-135.2-101c0-16.7,0-33.3,0-50c3.1,34.2,35.1,202.2-33.9,197.6c-60.1-4-34.8-172.1-30.6-208.1
				c0,16.7,0,33.3,0,50c-1.5-20.3-126.6-22.5-130,2.5c0-16.7,0-33.3,0-50c4.8,42.1,27.3,171.4-16.8,199.1
				c-71.3,44.7-56.6-143.5-51.6-175.2c0,16.4,0,32.7-0.1,49.1c-0.6-16.4-58.1,22.9-64.8,28.2c-17.6,13.9-33.3,30.8-47.7,47.9
				c-18.1,21.7-32,46.1-41.9,72.2c-21.6,56.6-6.2,104.1,18.9,156.4c10.5,21.8,9.5,38.3,8.9,63.9c0-16.4,0-32.7-0.1-49.1
				c6.2,8.6,13.2,16.3,19.2,25c2.9,4.2,3,46.5,0,50c-5.2,5.9-9.1,16.4-16.1,15.3c-9.2-1.4-22.2-25.1-26.1-30.6
				c-11.9-16.8-21.6-34.6-29.4-53.9c-15.7-39-17-79.9-17.2-121.5c-0.4-91.5,30.3-164.1,97.9-227c103.6-96.4,270.3-109.1,395.8-51.1
				c68.2,31.5,122.5,84,152.8,153c19.3,43.9,21.7,87.1,21.5,134.3c-0.6,163.7-118.3,278.9-277.8,305.4
				C1558.4,2283,1553,2233.9,1556.1,2233.4z"/>
		</g>
	</g>
</g>
</svg>
