<?xml version="1.0" encoding="utf-8"?>
<!-- Generator: Adobe Illustrator 21.0.0, SVG Export Plug-In . SVG Version: 6.00 Build 0)  -->
<svg version="1.1" id="Layer_1" xmlns="http://www.w3.org/2000/svg" xmlns:xlink="http://www.w3.org/1999/xlink" x="0px" y="0px"
	 viewBox="0 0 301.5 205.5" style="enable-background:new 0 0 301.5 205.5;" xml:space="preserve">
<style type="text/css">
	.st0{fill:#9E9EA5;}
</style>
<g>
	<path class="st0" d="M14.8,7.4c-1.1-0.1-2.2-0.2-3.2,0.1c-0.9,0.2-0.9,1.9,0,2.1c1.1,0.2,2.2,0.2,3.2,0.1C16,9.6,16,7.6,14.8,7.4z"
		/>
	<path class="st0" d="M27.7,8.2c-1.6-0.2-3.2-0.1-4.8,0c-1.2,0-1.2,2.1,0,2.1c1.6,0.1,3.2,0.1,4.8,0C28.8,10.2,28.8,8.3,27.7,8.2z"
		/>
	<path class="st0" d="M36.5,9.4c-0.4-0.2-0.8-0.3-1.2-0.3S34.4,9,34,9c-0.6-0.1-0.8,1.2-0.2,1.3c0.4,0.1,0.8,0.2,1.3,0.3
		c0.4,0.1,0.8,0.1,1.3,0.1C37,10.6,37.1,9.6,36.5,9.4z"/>
	<path class="st0" d="M48.5,9.1c-1.2-0.3-2.3-0.5-3.5-0.6c-0.5,0-1,0.6-1,1.1c0,0.7,0.5,1.1,1,1.1c1.1,0.2,2.2,0.2,3.3,0.2
		C49.2,10.9,49.4,9.3,48.5,9.1z"/>
	<path class="st0" d="M63.2,8.8c-1-0.2-1.9-0.1-2.9,0c-0.9,0.1-0.9,1.6,0,1.6c1,0.1,1.9,0.2,2.9,0C63.8,10.2,63.8,9,63.2,8.8z"/>
	<path class="st0" d="M76.2,8.1c-0.3,0-0.6,0-0.9,0c-0.6,0-0.6,1,0,1c0.3,0,0.6,0,0.9,0C76.7,9,76.7,8.1,76.2,8.1z"/>
	<path class="st0" d="M89.9,6.6c-0.9,0-1.7,0.1-2.6-0.1c-0.6-0.1-1.1,0.9-0.5,1.3c1,0.6,2.1,0.9,3.2,0.5C90.9,8,90.8,6.6,89.9,6.6z"
		/>
	<path class="st0" d="M104.6,5.4c-1.5-0.2-3,0.2-4.5,0.5c-1,0.2-0.8,2.2,0.2,2.1c1.5-0.1,3,0,4.4-0.6C105.9,7.1,105.6,5.6,104.6,5.4
		z"/>
	<path class="st0" d="M120.2,5.9c-1.3-0.1-2.6-0.1-3.9-0.1c-1.1,0.1-1.1,1.9,0,2c1.3,0.1,2.6,0,3.9-0.1C121.2,7.6,121.2,6,120.2,5.9
		z"/>
	<path class="st0" d="M135.5,6.4c-1.8-0.3-3.5-0.1-5.3,0.3c-0.8,0.2-0.6,1.8,0.2,1.7c1.7-0.2,3.4-0.3,5.1-0.4
		C136.4,7.9,136.3,6.5,135.5,6.4z"/>
	<path class="st0" d="M146.6,6.6c-1,0.2-2,0.3-3,0.2c-0.9-0.1-1.2,1.7-0.2,1.9c1.3,0.2,2.4,0.2,3.6-0.5
		C147.6,7.9,147.3,6.5,146.6,6.6z"/>
	<path class="st0" d="M158.8,7.3c-0.5,0-1,0-1.5,0c-0.6,0-0.6,1.1,0,1.1c0.5,0,1,0,1.5,0C159.4,8.4,159.4,7.4,158.8,7.3z"/>
	<path class="st0" d="M170.5,5.6c-1.1-0.4-2.2-0.3-3.3-0.3c-1.7,0.1-1.7,2.9,0,3c1.1,0,2.2,0.1,3.3-0.3C171.5,7.6,171.5,6,170.5,5.6
		z"/>
	<path class="st0" d="M184.1,5.6c-1.1-0.1-2.2-0.2-3.2,0.1c-0.9,0.2-0.9,1.9,0,2.1c1.1,0.2,2.2,0.2,3.2,0.1
		C185.3,7.7,185.3,5.7,184.1,5.6z"/>
	<path class="st0" d="M197,6.3c-1.6-0.2-3.2-0.1-4.8,0c-1.2,0-1.2,2.1,0,2.1c1.6,0.1,3.2,0.1,4.8,0C198.1,8.3,198.1,6.5,197,6.3z"/>
	<path class="st0" d="M205.8,7.5c-0.4-0.2-0.8-0.3-1.2-0.3s-0.9-0.1-1.3-0.1c-0.6-0.1-0.8,1.2-0.2,1.3c0.4,0.1,0.8,0.2,1.3,0.3
		c0.4,0.1,0.8,0.1,1.3,0.1C206.3,8.7,206.4,7.7,205.8,7.5z"/>
	<path class="st0" d="M217.8,7.2c-1.2-0.3-2.3-0.5-3.5-0.6c-0.5,0-1,0.6-1,1.1c0,0.7,0.5,1.1,1,1.1c1.1,0.2,2.2,0.2,3.3,0.2
		C218.5,9,218.8,7.4,217.8,7.2z"/>
	<path class="st0" d="M232.5,7c-1-0.2-1.9-0.1-2.9,0c-0.9,0.1-0.9,1.6,0,1.6c1,0.1,1.9,0.2,2.9,0C233.1,8.4,233.1,7.1,232.5,7z"/>
	<path class="st0" d="M245.5,6.2c-0.3,0-0.6,0-0.9,0c-0.6,0-0.6,1,0,1c0.3,0,0.6,0,0.9,0C246,7.2,246,6.2,245.5,6.2z"/>
	<path class="st0" d="M259.3,4.7c-0.9,0-1.7,0.1-2.6-0.1c-0.6-0.1-1.1,0.9-0.5,1.3c1,0.6,2.1,0.9,3.2,0.5
		C260.3,6.1,260.1,4.7,259.3,4.7z"/>
	<path class="st0" d="M273.9,3.6c-1.5-0.2-3,0.2-4.5,0.5c-1,0.2-0.8,2.2,0.2,2.1c1.5-0.1,3,0,4.4-0.6C275.2,5.2,274.9,3.7,273.9,3.6
		z"/>
	<path class="st0" d="M289.5,4c-1.3-0.1-2.6-0.1-3.9-0.1c-1.1,0.1-1.1,1.9,0,2c1.3,0.1,2.6,0,3.9-0.1C290.5,5.8,290.5,4.1,289.5,4z"
		/>
	<path class="st0" d="M14.9,198c-1.1-0.1-2.2-0.2-3.2,0.1c-0.9,0.2-0.9,1.9,0,2.1c1.1,0.2,2.2,0.2,3.2,0.1
		C16.1,200.1,16.1,198.1,14.9,198z"/>
	<path class="st0" d="M27.8,198.8c-1.6-0.2-3.2-0.1-4.8,0c-1.2,0-1.2,2.1,0,2.1c1.6,0.1,3.2,0.1,4.8,0
		C28.9,200.8,28.9,198.9,27.8,198.8z"/>
	<path class="st0" d="M36.6,200c-0.4-0.2-0.8-0.3-1.2-0.3s-0.9-0.1-1.3-0.1c-0.6-0.1-0.8,1.2-0.2,1.3c0.4,0.1,0.8,0.2,1.3,0.3
		c0.4,0.1,0.8,0.1,1.3,0.1C37.1,201.2,37.2,200.2,36.6,200z"/>
	<path class="st0" d="M48.6,199.7c-1.2-0.3-2.3-0.5-3.5-0.6c-0.5,0-1,0.6-1,1.1c0,0.7,0.5,1.1,1,1.1c1.1,0.2,2.2,0.2,3.3,0.2
		C49.3,201.5,49.6,199.9,48.6,199.7z"/>
	<path class="st0" d="M63.3,199.4c-1-0.2-1.9-0.1-2.9,0c-0.9,0.1-0.9,1.6,0,1.6c1,0.1,1.9,0.2,2.9,0
		C63.9,200.8,63.9,199.5,63.3,199.4z"/>
	<path class="st0" d="M76.3,198.6c-0.3,0-0.6,0-0.9,0c-0.6,0-0.6,1,0,1c0.3,0,0.6,0,0.9,0C76.8,199.6,76.8,198.6,76.3,198.6z"/>
	<path class="st0" d="M90.1,197.2c-0.9,0-1.7,0.1-2.6-0.1c-0.6-0.1-1.1,0.9-0.5,1.3c1,0.6,2.1,0.9,3.2,0.5
		C91.1,198.6,90.9,197.2,90.1,197.2z"/>
	<path class="st0" d="M104.7,196c-1.5-0.2-3,0.2-4.5,0.5c-1,0.2-0.8,2.2,0.2,2.1c1.5-0.1,3,0,4.4-0.6
		C106,197.7,105.7,196.2,104.7,196z"/>
	<path class="st0" d="M120.3,196.5c-1.3-0.1-2.6-0.1-3.9-0.1c-1.1,0.1-1.1,1.9,0,2c1.3,0.1,2.6,0,3.9-0.1
		C121.3,198.2,121.3,196.5,120.3,196.5z"/>
	<path class="st0" d="M135.6,196.9c-1.8-0.3-3.5-0.1-5.3,0.3c-0.8,0.2-0.6,1.8,0.2,1.7c1.7-0.2,3.4-0.3,5.1-0.4
		C136.5,198.5,136.4,197.1,135.6,196.9z"/>
	<path class="st0" d="M146.7,197.2c-1,0.2-2,0.3-3,0.2c-0.9-0.1-1.2,1.7-0.2,1.9c1.3,0.2,2.4,0.2,3.6-0.5
		C147.7,198.5,147.4,197.1,146.7,197.2z"/>
	<path class="st0" d="M158.9,197.9c-0.5,0-1,0-1.5,0c-0.6,0-0.6,1.1,0,1.1c0.5,0,1,0,1.5,0C159.5,198.9,159.5,197.9,158.9,197.9z"/>
	<path class="st0" d="M170.6,196.2c-1.1-0.4-2.2-0.3-3.3-0.3c-1.7,0.1-1.7,2.9,0,3c1.1,0,2.2,0.1,3.3-0.3
		C171.6,198.2,171.6,196.6,170.6,196.2z"/>
	<path class="st0" d="M184.2,196.1c-1.1-0.1-2.2-0.2-3.2,0.1c-0.9,0.2-0.9,1.9,0,2.1c1.1,0.2,2.2,0.2,3.2,0.1
		C185.4,198.3,185.4,196.3,184.2,196.1z"/>
	<path class="st0" d="M197.1,196.9c-1.6-0.2-3.2-0.1-4.8,0c-1.2,0-1.2,2.1,0,2.1c1.6,0.1,3.2,0.1,4.8,0
		C198.2,198.9,198.2,197,197.1,196.9z"/>
	<path class="st0" d="M205.9,198.1c-0.4-0.2-0.8-0.3-1.2-0.3s-0.9-0.1-1.3-0.1c-0.6-0.1-0.8,1.2-0.2,1.3c0.4,0.1,0.8,0.2,1.3,0.3
		c0.4,0.1,0.8,0.1,1.3,0.1C206.4,199.3,206.5,198.3,205.9,198.1z"/>
	<path class="st0" d="M218,197.8c-1.2-0.3-2.3-0.5-3.5-0.6c-0.5,0-1,0.6-1,1.1c0,0.7,0.5,1.1,1,1.1c1.1,0.2,2.2,0.2,3.3,0.2
		C218.6,199.6,218.9,198,218,197.8z"/>
	<path class="st0" d="M232.6,197.5c-1-0.2-1.9-0.1-2.9,0c-0.9,0.1-0.9,1.6,0,1.6c1,0.1,1.9,0.2,2.9,0
		C233.3,198.9,233.3,197.7,232.6,197.5z"/>
	<path class="st0" d="M245.6,196.7c-0.3,0-0.6,0-0.9,0c-0.6,0-0.6,1,0,1c0.3,0,0.6,0,0.9,0C246.2,197.7,246.2,196.8,245.6,196.7z"/>
	<path class="st0" d="M259.4,195.3c-0.9,0-1.7,0.1-2.6-0.1c-0.6-0.1-1.1,0.9-0.5,1.3c1,0.6,2.1,0.9,3.2,0.5
		C260.4,196.7,260.3,195.3,259.4,195.3z"/>
	<path class="st0" d="M274.1,194.1c-1.5-0.2-3,0.2-4.5,0.5c-1,0.2-0.8,2.2,0.2,2.1c1.5-0.1,3,0,4.4-0.6
		C275.3,195.8,275,194.3,274.1,194.1z"/>
	<path class="st0" d="M289.6,194.6c-1.3-0.1-2.6-0.1-3.9-0.1c-1.1,0.1-1.1,1.9,0,2c1.3,0.1,2.6,0,3.9-0.1
		C290.6,196.3,290.6,194.7,289.6,194.6z"/>
	<path class="st0" d="M6.8,20.5c0.1-1.3,0.1-2.5,0-3.8c-0.2-1.1-1.7-1.1-1.8,0c-0.2,1.3-0.1,2.5,0,3.8C5,21.9,6.7,21.9,6.8,20.5z"/>
	<path class="st0" d="M6.2,35.5c0.1-1.9,0.1-3.7,0-5.6c0-1.4-1.8-1.4-1.8,0c0,1.9-0.1,3.7,0,5.6C4.5,36.8,6.1,36.8,6.2,35.5z"/>
	<path class="st0" d="M5.2,45.8c0.1-0.5,0.3-0.9,0.3-1.5c0-0.5,0.1-1,0.1-1.5c0-0.8-1-0.9-1.1-0.2c-0.1,0.5-0.2,1-0.3,1.5
		c-0.1,0.5-0.1,1-0.1,1.5C4.1,46.3,5,46.5,5.2,45.8z"/>
	<path class="st0" d="M5.4,59.8c0.3-1.4,0.4-2.7,0.5-4.1c0-0.6-0.5-1.1-1-1.1c-0.6,0-0.9,0.5-1,1.1c-0.1,1.3-0.2,2.5-0.2,3.8
		C3.9,60.6,5.2,60.9,5.4,59.8z"/>
	<path class="st0" d="M5.6,76.9c0.2-1.1,0.1-2.2,0-3.4c-0.1-1-1.3-1-1.4,0c-0.1,1.1-0.1,2.2,0,3.4C4.4,77.7,5.5,77.7,5.6,76.9z"/>
	<path class="st0" d="M6.3,92.1c0-0.3,0-0.7,0-1c0-0.7-0.9-0.7-0.9,0c0,0.3,0,0.7,0,1C5.5,92.7,6.3,92.7,6.3,92.1z"/>
	<path class="st0" d="M7.6,108.1c0-1-0.1-2,0-3c0.1-0.7-0.8-1.3-1.1-0.5c-0.5,1.1-0.8,2.5-0.4,3.8C6.3,109.3,7.6,109.2,7.6,108.1z"
		/>
	<path class="st0" d="M8.5,125.2c0.2-1.7-0.2-3.5-0.4-5.2c-0.2-1.2-1.9-0.9-1.8,0.3c0,1.7,0,3.5,0.5,5.2
		C7.1,126.7,8.4,126.4,8.5,125.2z"/>
	<path class="st0" d="M8.2,143.4c0.1-1.5,0.1-3,0.1-4.5c-0.1-1.3-1.6-1.3-1.7,0c-0.1,1.5,0,3,0.1,4.5C6.7,144.6,8.1,144.6,8.2,143.4
		z"/>
	<path class="st0" d="M7.8,161.2c0.2-2.1,0.1-4.1-0.3-6.2c-0.2-0.9-1.5-0.7-1.4,0.2c0.2,2,0.3,4,0.3,5.9
		C6.4,162.3,7.7,162.2,7.8,161.2z"/>
	<path class="st0" d="M7.5,174.1c-0.1-1.2-0.3-2.3-0.2-3.5c0.1-1.1-1.5-1.3-1.6-0.3c-0.2,1.5-0.2,2.8,0.4,4.2
		C6.5,175.3,7.6,175,7.5,174.1z"/>
	<path class="st0" d="M6.9,188.5c0-0.6,0-1.2,0-1.7c0-0.7-1-0.7-1,0c0,0.6,0,1.2,0,1.7C6.1,189.2,6.9,189.2,6.9,188.5z"/>
	<path class="st0" d="M296.2,25c0.1-1.3,0.1-2.5,0-3.8c-0.2-1.1-1.7-1.1-1.8,0c-0.2,1.3-0.1,2.5,0,3.8
		C294.4,26.5,296.1,26.5,296.2,25z"/>
	<path class="st0" d="M295.6,40.1c0.1-1.9,0.1-3.7,0-5.6c0-1.4-1.8-1.4-1.8,0c0,1.9-0.1,3.7,0,5.6C293.9,41.4,295.5,41.4,295.6,40.1
		z"/>
	<path class="st0" d="M294.6,50.4c0.1-0.5,0.3-0.9,0.3-1.5c0-0.5,0.1-1,0.1-1.5c0-0.8-1-0.9-1.1-0.2c-0.1,0.5-0.2,1-0.3,1.5
		c-0.1,0.5-0.1,1-0.1,1.5C293.5,50.9,294.4,51,294.6,50.4z"/>
	<path class="st0" d="M294.8,64.4c0.3-1.4,0.4-2.7,0.5-4.1c0-0.6-0.5-1.1-1-1.1c-0.6,0-0.9,0.5-1,1.1c-0.1,1.3-0.2,2.5-0.2,3.8
		C293.3,65.2,294.6,65.5,294.8,64.4z"/>
	<path class="st0" d="M295,81.5c0.2-1.1,0.1-2.2,0-3.4c-0.1-1-1.3-1-1.4,0c-0.1,1.1-0.1,2.2,0,3.4C293.8,82.2,294.9,82.2,295,81.5z"
		/>
	<path class="st0" d="M295.7,96.6c0-0.3,0-0.7,0-1c0-0.7-0.9-0.7-0.9,0c0,0.3,0,0.7,0,1C294.9,97.3,295.7,97.3,295.7,96.6z"/>
	<path class="st0" d="M297,112.7c0-1-0.1-2,0-3c0.1-0.7-0.8-1.3-1.1-0.5c-0.5,1.1-0.8,2.5-0.4,3.8C295.7,113.9,297,113.7,297,112.7z
		"/>
	<path class="st0" d="M297.9,129.8c0.2-1.7-0.2-3.5-0.4-5.2c-0.2-1.2-1.9-0.9-1.8,0.3c0,1.7,0,3.5,0.5,5.2
		C296.5,131.3,297.8,131,297.9,129.8z"/>
	<path class="st0" d="M297.6,148c0.1-1.5,0.1-3,0.1-4.5c-0.1-1.3-1.6-1.3-1.7,0c-0.1,1.5,0,3,0.1,4.5
		C296.1,149.2,297.5,149.2,297.6,148z"/>
	<path class="st0" d="M297.2,165.8c0.2-2.1,0.1-4.1-0.3-6.2c-0.2-0.9-1.5-0.7-1.4,0.2c0.2,2,0.3,4,0.3,5.9
		C295.8,166.9,297.1,166.8,297.2,165.8z"/>
	<path class="st0" d="M296.9,178.7c-0.1-1.2-0.3-2.3-0.2-3.5c0.1-1.1-1.5-1.3-1.6-0.3c-0.2,1.5-0.2,2.8,0.4,4.2
		C295.9,179.9,297,179.6,296.9,178.7z"/>
	<path class="st0" d="M296.3,193c0-0.6,0-1.2,0-1.7c0-0.7-1-0.7-1,0c0,0.6,0,1.2,0,1.7C295.5,193.7,296.3,193.7,296.3,193z"/>
	<path class="st0" d="M296.5,12.3c0-1-0.1-2,0-3c0.1-0.7-0.8-1.3-1.1-0.5c-0.5,1.1-0.8,2.5-0.4,3.8
		C295.2,13.4,296.5,13.3,296.5,12.3z"/>
</g>
<g transform="translate(0.000000,260.000000) scale(0.100000,-0.100000)">
	<g>
		<path class="st0" d="M1472.2,1687.4c0.8-118.6,3-138.3,15.2-158.9c34.2-55.5,105.6-61.6,149.7-13.7
			c68.4,74.5-10.6,186.2-106.4,149.7l-19-7.6l1.5,83.6l0.8,82.8h-21.3h-21.3L1472.2,1687.4z M1606.8,1612.1
			c16-14.4,18.2-22,14.4-41.8c-6.1-29.6-17.5-41.8-42.6-45.6c-54.7-8.4-85.9,50.9-47.9,88.9
			C1554.3,1637.2,1580.2,1636.5,1606.8,1612.1z"/>
	</g>
	<g>
		<path class="st0" d="M1908.5,1730.7c2.3-9.9,3.8-19.8,3.8-22c0.8-2.3,9.1-3,20.5-0.8c27.4,5.3,22.8,35-6.8,38
			C1907.7,1748.2,1905.5,1745.9,1908.5,1730.7z"/>
	</g>
	<g>
		<path class="st0" d="M1920.7,1672.2c-9.9-3.8-11.4-21.3-11.4-95.8v-91.2l19.8-2.3l19-2.3l0.8,95
			C1949.5,1672.2,1946.5,1682.8,1920.7,1672.2z"/>
	</g>
	<g>
		<path class="st0" d="M943.2,1609.1c2.3-68.4,9.1-87.4,39.5-111.7c25.1-19.8,60-20.5,92-1.5c20.5,12.9,25.1,13.7,32.7,4.6
			c16-19,60-22.8,88.2-7.6c35.7,19,48.6,51.7,48.6,120.8c0,56.2-0.8,57.8-19,57.8c-10.6,0-19-2.3-19.8-5.3c0-3.8-0.8-31.2-1.5-61.6
			c-1.5-49.4-3.8-57.8-19.8-70.7c-19.8-16-44.1-13.7-59.3,6.8c-9.9,12.2-12.2,31.9-11.4,95c0.8,34.2,0,35.7-19.8,35.7h-20.5v-60.8
			c0-63.8-6.1-76.8-38.8-86.6c-10.6-3-22.8,0-34.2,9.9c-16,12.9-18.2,20.5-19,74.5c0,58.5-0.8,59.3-20.5,61.6l-19.8,2.3
			L943.2,1609.1z"/>
	</g>
	<g>
		<path class="st0" d="M1323.3,1659.3c-38.8-19-58.5-83.6-38-123.1c19.8-38,40.3-50.2,84.4-50.2c35.7-0.8,44.1,2.3,62.3,20.5
			c20.5,20.5,20.5,22,6.8,31.9c-12.9,9.9-16.7,9.9-27.4,0c-13.7-12.2-60.8-22-60.8-12.2c0,2.3,18.2,23.6,41,45.6
			c54.7,54,59.3,71.4,22,91.2C1390.9,1674.5,1351.4,1673.7,1323.3,1659.3z M1383.3,1628.9c5.3-5.3-50.9-65.4-60.8-64.6
			c-15.2,1.5-1.5,42.6,19.8,59.3C1355.2,1633.4,1375.7,1636.5,1383.3,1628.9z"/>
	</g>
	<g>
		<path class="st0" d="M1733.7,1657c-33.4-20.5-45.6-51.7-44.8-116.3c0-54,0.8-55.5,19.8-57.8c19-2.3,19-1.5,19.8,56.2
			c0.8,49.4,3.8,60.8,19,76.8c13.7,14.4,22,17.5,39.5,14.4c41.8-8.4,50.2-23.6,50.2-89.7v-59.3h21.3h22l-2.3,63.8
			c-0.8,45.6-5.3,69.2-14.4,83.6C1836.3,1670.7,1777,1683.6,1733.7,1657z"/>
	</g>
	<g>
		<path class="st0" d="M2027.8,1661.5c-69.2-35.7-66.9-139.9,4.6-170.3c49.4-19.8,117.8,3,93.5,31.9c-6.1,6.8-15.2,9.9-25.1,6.8
			c-49.4-16-80.6,1.5-85.1,46.4c-3.8,34.2,43.3,65.4,76,50.9c16-7.6,20.5-6.1,30.4,8.4c10.6,15.2,9.9,16.7-6.1,25.8
			C2094.7,1673.7,2051.4,1673.7,2027.8,1661.5z"/>
	</g>
	<g>
		<path class="st0" d="M1175.8,1408.4c0-24.3,2.3-41,5.3-38c7.6,7.6,8.4,73,0.8,77.5C1178.9,1450.2,1175.8,1432,1175.8,1408.4z"/>
	</g>
	<g>
		<path class="st0" d="M1720.8,1445.7c-2.3-3.8-3.8-20.5-3.8-38c-0.8-25.8,2.3-31.9,16-35.7c20.5-5.3,35.7,7.6,35.7,30.4
			c0,18.2-19.8,34.2-36.5,28.1c-6.1-2.3-7.6,0.8-4.6,8.4C1732.2,1451,1726.9,1455.6,1720.8,1445.7z M1755.7,1411.5
			c4.6-14.4-2.3-28.9-14.4-28.9c-6.1,0-10.6,7.6-10.6,19C1730.7,1421.4,1749.7,1428.2,1755.7,1411.5z"/>
	</g>
	<g>
		<path class="st0" d="M1894.1,1443.4c2.3-3.8,6.1-7.6,8.4-7.6c1.5,0,3,3.8,3,7.6c0,4.6-3.8,7.6-8.4,7.6
			C1893.3,1451,1891.8,1448,1894.1,1443.4z"/>
	</g>
	<g>
		<path class="st0" d="M1357.5,1434.3c-2.3-22,3-48.6,9.9-57c14.4-17.5,20.5-9.9,9.9,10.6c-6.8,12.2-8.4,23.6-4.6,27.4
			c8.4,8.4,2.3,28.1-7.6,28.1C1361.3,1443.4,1358.2,1438.8,1357.5,1434.3z"/>
	</g>
	<g>
		<path class="st0" d="M952.4,1430.5c-9.1-9.9-3.8-16,9.9-12.2c7.6,2.3,16.7-0.8,20.5-6.1c3.8-6.8,1.5-8.4-6.1-4.6
			c-6.8,2.3-18.2-0.8-26.6-6.1c-11.4-8.4-12.2-12.2-3.8-20.5c5.3-5.3,18.2-9.9,27.4-9.9c16-0.8,18.2,3,16.7,25.1
			c-0.8,19.8-5.3,28.1-17.5,32.7C964.5,1432,954.6,1432.8,952.4,1430.5z M978.2,1390.2c0-3.8-5.3-7.6-11.4-7.6s-11.4,3.8-11.4,7.6
			c0,4.6,5.3,7.6,11.4,7.6S978.2,1394.8,978.2,1390.2z"/>
	</g>
	<g>
		<path class="st0" d="M1068.6,1423.6c-6.1-7.6-11.4-9.1-17.5-3c-25.1,25.1-60-5.3-42.6-38c9.9-18.2,20.5-19,39.5-2.3
			c7.6,6.8,13.7,8.4,13.7,4.6c0-15.2,25.1-18.2,38.8-5.3c8.4,7.6,14.4,9.1,14.4,5.3c0-10.6,19.8-18.2,34.2-12.9
			c16.7,6.8,13.7,17.5-3,12.9c-7.6-2.3-16,0-19,3.8c-2.3,3.8,6.8,9.9,20.5,12.2l24.3,5.3l-18.2,15.2c-13.7,11.4-20.5,12.9-28.1,6.1
			c-6.1-4.6-10.6-13.7-10.6-19c0-6.1-9.1-15.2-19.8-19.8c-25.1-11.4-40.3,6.1-20.5,24.3c9.1,8.4,12.9,9.1,15.2,2.3
			c3.8-11.4,17.5-12.9,17.5-2.3c0,3.8-6.8,10.6-14.4,14.4C1082.3,1433.5,1076.2,1432.8,1068.6,1423.6z M1042,1416
			c22.8-9.1,9.1-33.4-19-33.4c-7.6,0-9.1,25.1-1.5,32.7C1027.6,1421.4,1027.6,1421.4,1042,1416z M1145.4,1413
			c0-3.8-5.3-7.6-12.2-7.6c-6.1,0-9.1,3.8-6.8,7.6c2.3,4.6,7.6,7.6,12.2,7.6C1142.4,1420.6,1145.4,1417.6,1145.4,1413z"/>
	</g>
	<g>
		<path class="st0" d="M1311.1,1430.5c-7.6-2.3-13.7-6.8-13.7-10.6s9.1-4.6,19.8-2.3c14.4,3.8,19,3,15.2-3.8
			c-3-4.6-9.9-8.4-15.2-8.4c-6.1,0-14.4-4.6-19-10.6c-10.6-12.9,0.8-23.6,27.4-23.6c20.5-0.8,27.4,12.9,17.5,37.2
			C1335.4,1429.7,1328.6,1434.3,1311.1,1430.5z M1331.6,1390.2c-2.3-3.8-9.9-7.6-16-7.6s-9.1,3.8-6.8,7.6c2.3,4.6,9.9,7.6,16,7.6
			S1333.9,1394.8,1331.6,1390.2z"/>
	</g>
	<g>
		<path class="st0" d="M1400,1423.6c-15.2-15.2-12.2-40.3,5.3-51.7c10.6-6.1,16.7-5.3,26.6,5.3c7.6,6.8,9.1,12.9,4.6,12.9
			c-5.3,0-11.4-3.8-13.7-7.6c-5.3-9.1-19-3-19,8.4c0,3.8,8.4,6.8,19,6.8c22.8,0,25.8,19,4.6,30.4
			C1416,1433.5,1409.1,1432.8,1400,1423.6z M1426.6,1413c0-3.8-5.3-7.6-11.4-7.6s-11.4,3.8-11.4,7.6c0,4.6,5.3,7.6,11.4,7.6
			S1426.6,1417.6,1426.6,1413z"/>
	</g>
	<g>
		<path class="st0" d="M1536.8,1425.2c-16-11.4-12.9-41.8,5.3-53.2c19-11.4,40.3,10.6,33.4,35.7
			C1570.3,1430.5,1554.3,1438.1,1536.8,1425.2z M1560.4,1409.2c3-6.1,2.3-17.5,0-24.3c-4.6-11.4-6.1-11.4-17.5-0.8
			c-12.2,12.9-9.1,36.5,5.3,36.5C1552.8,1420.6,1558.1,1415.3,1560.4,1409.2z"/>
	</g>
	<g>
		<path class="st0" d="M2047.6,1427.4c-16.7-9.9-8.4-27.4,16-33.4c15.2-3.8,17.5-6.1,9.1-11.4c-6.8-4.6-14.4-3.8-18.2,0
			c-9.9,9.9-19.8,9.9-19.8,0.8c0-11.4,28.1-17.5,43.3-9.1c9.1,4.6,19,4.6,26.6,0c15.2-8.4,36.5-0.8,36.5,12.9
			c0,6.1-8.4,14.4-19,18.2c-22.8,8.4-25.8,19-3.8,12.9c8.4-2.3,15.2-1.5,15.2,2.3c0,9.9-28.1,14.4-36.5,6.1
			c-11.4-11.4-2.3-28.9,14.4-28.9c7.6,0,14.4-3,14.4-7.6c0-11.4-17.5-9.1-35,3.8c-7.6,6.1-20.5,11.4-27.4,11.4
			c-7.6,0-13.7,3.8-13.7,8.4c0,4.6,6.8,6.1,15.2,3c8.4-2.3,15.2-1.5,15.2,2.3C2080.3,1430.5,2062,1435,2047.6,1427.4z"/>
	</g>
	<g>
		<path class="st0" d="M1203.9,1422.9c-18.2-17.5,6.1-61.6,28.9-52.4c16.7,6.1,13.7,19-3.8,14.4c-8.4-2.3-15.2,0-15.2,4.6
			c0,4.6,6.1,8.4,13.7,8.4c18.2,0,24.3,6.1,19,19.8C1242.7,1428.2,1213.1,1432,1203.9,1422.9z M1232.8,1413c2.3-3.8-0.8-7.6-6.8-7.6
			c-6.8,0-12.2,3.8-12.2,7.6c0,4.6,3,7.6,6.8,7.6C1225.2,1420.6,1230.5,1417.6,1232.8,1413z"/>
	</g>
	<g>
		<path class="st0" d="M1260.9,1401.6c-0.8-14.4,2.3-26.6,6.1-26.6c4.6,0,7.6,7.6,7.6,17.5s3.8,21.3,9.1,26.6
			c6.8,6.8,5.3,9.1-6.1,9.1C1264.7,1428.2,1261.7,1422.9,1260.9,1401.6z"/>
	</g>
	<g>
		<path class="st0" d="M1482.9,1403.1c6.8-16.7,7.6-29.6,3-38c-4.6-8.4-3.8-12.9,0.8-12.9c4.6,0,13.7,12.2,19.8,27.4
			c13.7,33.4,14.4,62.3,0.8,30.4l-9.9-22l-5.3,20.5c-2.3,10.6-8.4,19.8-12.2,19.8C1475.3,1428.2,1476.8,1417.6,1482.9,1403.1z"/>
	</g>
	<g>
		<path class="st0" d="M1586.2,1406.2c0-24.3,9.9-35,34.2-35c12.9-0.8,16,4.6,16.7,28.1c0.8,16-1.5,28.9-6.1,28.9
			c-3.8,0-6.8-8.4-6.8-18.2c0-10.6-3.8-21.3-8.4-24.3c-10.6-6.1-21.3,10.6-18.2,28.9c1.5,7.6,0,13.7-4.6,13.7
			C1589.3,1428.2,1586.2,1418.3,1586.2,1406.2z"/>
	</g>
	<g>
		<path class="st0" d="M1649.3,1401.6c0.8-28.9,12.9-37.2,12.9-9.1c0,9.9,3.8,21.3,9.1,26.6c6.8,6.8,5.3,9.1-6.8,9.1
			C1651.6,1428.2,1649.3,1423.6,1649.3,1401.6z"/>
	</g>
	<g>
		<path class="st0" d="M1777.8,1405.4c-0.8-24.3,7.6-32.7,31.9-34.2c13.7,0,16,3.8,15.2,26.6c-1.5,35.7-3.8,38.8-9.9,12.2
			c-6.8-31.2-23.6-35-23.6-5.3C1791.5,1435,1778.5,1435.8,1777.8,1405.4z"/>
	</g>
	<g>
		<path class="st0" d="M1837.1,1417.6c0-12.2,18.2-28.9,24.3-22.8c2.3,2.3,6.8,0,9.9-5.3c4.6-6.8,0.8-7.6-14.4-5.3
			c-10.6,2.3-19.8,1.5-19.8-1.5c0-9.1,21.3-15.2,34.2-10.6c16.7,6.8,13.7,26.6-3.8,31.2c-8.4,2.3-15.2,7.6-15.2,11.4
			s6.8,4.6,15.2,2.3c8.4-3,15.2-1.5,15.2,3c0,4.6-9.9,8.4-22.8,8.4C1845.4,1428.2,1837.1,1424.4,1837.1,1417.6z"/>
	</g>
	<g>
		<path class="st0" d="M1894.1,1401.6c1.5-38,11.4-42.6,11.4-5.3c0,17.5-3,31.9-6.8,31.9C1895.6,1428.2,1893.3,1416,1894.1,1401.6z"
			/>
	</g>
	<g>
		<path class="st0" d="M1920.7,1397c0-18.2,3-28.9,7.6-25.8c4.6,2.3,7.6,15.2,7.6,27.4c0,31.9,17.5,25.1,23.6-9.1
			c3-14.4,5.3-22,6.1-18.2c9.9,46.4,6.1,57-22.8,57C1922.2,1428.2,1920.7,1426.7,1920.7,1397z"/>
	</g>
	<g>
		<path class="st0" d="M1986.8,1422.9c-9.1-8.4-6.1-38,5.3-47.1c11.4-9.1,35-3.8,35,8.4c0,5.3-3.8,4.6-10.6-0.8
			c-7.6-6.8-12.2-6.1-19.8,3c-8.4,9.9-6.8,11.4,9.1,11.4c22.8,0,28.9,5.3,23.6,19.8C2025.6,1428.2,1995.9,1432,1986.8,1422.9z
			 M2019.5,1413.8c0-4.6-6.8-6.8-14.4-6.1c-8.4,0-12.9,3.8-11.4,6.8C1999,1422.9,2019.5,1422.1,2019.5,1413.8z"/>
	</g>
</g>
</svg>
