<?xml version="1.0" encoding="utf-8"?>
<!-- Generator: Adobe Illustrator 21.0.0, SVG Export Plug-In . SVG Version: 6.00 Build 0)  -->
<svg version="1.1" id="Layer_1" xmlns="http://www.w3.org/2000/svg" xmlns:xlink="http://www.w3.org/1999/xlink" x="0px" y="0px"
	 viewBox="0 0 55 56.2" style="enable-background:new 0 0 55 56.2;" xml:space="preserve">
<style type="text/css">
	.st0{fill:#40404C;stroke:#40404C;stroke-linejoin:round;stroke-miterlimit:10;}
	.st1{fill:#40404C;stroke:#40404C;stroke-miterlimit:10;}
</style>
<g>
	<g>
		<path class="st0" d="M7.4,47.7V9.9c0-2.6-1.8-4.8-4.3-5.1l12.7-1.6V48c0,3.4,1.9,4.3,3.3,4.7h-15C5.5,52.3,7.4,51.3,7.4,47.7z
			 M28,47.5V30.1c0-3.5-1.7-5.6-4.7-5.6c-1.1,0-2.5,0.3-3.7,0.8c3-2.1,6.6-2.5,8.2-2.5c2.1,0,8.7,0.6,8.7,8.5v16.6
			c0,3.5,1.9,4.3,3.3,4.7H25.2C26.4,52.3,28,51.3,28,47.5z"/>
	</g>
	<g>
		<path class="st0" d="M47.1,19.7v14.5c0,2.6,1,3.8,3.2,3.8c0.4,0,0.9,0,1.3-0.2c-2.1,1-4.4,1.1-5.2,1.1c-4.2,0-4.9-2.6-4.9-5.1
			V19.7h-3v-0.8h2.9c2.6-0.6,4.9-4.2,5.7-6.8v6.8h6v0.8H47.1z"/>
	</g>
	<g>
		<path class="st1" d="M45.7,50.3c0-1.5,1.2-2.8,2.8-2.8s2.8,1.2,2.8,2.8c0,1.5-1.2,2.8-2.8,2.8C46.9,53,45.7,51.8,45.7,50.3z"/>
	</g>
</g>
</svg>
