<?xml version="1.0" encoding="utf-8"?>
<!-- Generator: Adobe Illustrator 21.0.0, SVG Export Plug-In . SVG Version: 6.00 Build 0)  -->
<svg version="1.1" id="Layer_1" xmlns="http://www.w3.org/2000/svg" xmlns:xlink="http://www.w3.org/1999/xlink" x="0px" y="0px"
	 viewBox="0 0 477.3 29.9" style="enable-background:new 0 0 477.3 29.9;" xml:space="preserve">
<style type="text/css">
	.st0{fill:#40404C;}
</style>
<path class="st0" d="M462.9,17.5c-5.1-4.7-13-7.1-21.5-6.3c-2.2,0.2-4.2,0.7-6.3,1.2c-4.5,1.2-7.9,1.2-12.3-0.4
	c-4-1.5-7.2-3.6-12-3.8c-3.3-0.1-5.8,0.7-8.1,2.3c-0.3,0.2-1.6,1.8-2.2,2c-1.7,0.5-4.2-0.8-5.4-1.3c-1.5-0.7-2.5-1.8-4.2-2.3
	c-7.2-2.1-11.2,3.1-16.4,5.4c-8.2,3.5-15.4-5.3-24.5-3c-3.2,0.8-5,2.6-7.7,3.9c-6.6,3.2-10.2,0-15.6-2.5c-7.1-3.3-12.9-1.9-19.5,1.2
	c-5,2.3-9.2,4.4-15.2,2.2c-4-1.4-7-3.9-11.3-5c-7.9-2.1-11.8,1.9-18.4,4c-9.1,2.9-15.5-6.6-25.4-4c-3.6,0.9-6.1,3-9.5,4.1
	c-6.8,2.2-9.8-1.5-15.3-3.3c-9-3-11.1,3.8-18.7,4.7c-8,1-12.7-6.7-21.8-4.7c-3.7,0.8-6.5,2.7-9.7,4c-6.8,2.8-10.4,0.1-16.2-2.1
	c-2.7-1-5.4-1.6-8.4-1c-5.3,1-8.1,5.4-14.1,4.4c-7.5-1.2-11.7-7.3-20.3-4.8c-4.9,1.4-7.7,5.1-13.4,5.1c-5.5,0.1-9.9-2.7-15.1-3.7
	c-3.8-0.7-6.9-0.3-10.2,1c-3.9,1.6-6.3,2.4-10.9,0.8c-1.6-0.5-2.7-1.4-4.4-1.8c-3.4-0.8-6.1,0-8.8,1.4c-3,1.6-6,3.2-9.9,1.3
	c-1.6-0.8-2.5-1.9-4.3-2.5c-7.2-2.4-10.4,3.4-11.2,7.3c-0.2,1.2,2.8,1.5,3.1,0.3c0.6-2.5,0.8-4.1,4.7-4.5c3.8-0.4,3.6,0.5,6,1.9
	c2,1.1,4.1,1.9,6.8,1.6c3.1-0.4,4.2-2.3,6.7-3.2c6.6-2.5,8.4,1.1,14,1.9c3,0.4,5.2-0.3,7.7-1.3c6.7-2.7,9.9-1.9,16.6,0.2
	c6.3,2,11.5,2.7,17.4-0.3c5.3-2.7,8.6-5,15.2-2.2c3.1,1.3,5.7,3.2,9.3,3.9c2.7,0.5,5.1,0.3,7.6-0.6c5.7-2.1,8.5-5.4,15.5-2.5
	c6.3,2.6,10.8,4.5,17.7,1.8c3.9-1.5,7.4-4.4,12.1-4.3c5.3,0.1,8.4,3.5,13,4.8c7.3,2.2,9.9-1.7,15.4-4c7.8-3.3,13.7,5.4,22.4,3.8
	c3.4-0.6,6-2.3,8.8-3.6c6-2.7,10.1-0.9,15.5,1.4c6.9,3,11.7,2.1,18.2-0.9c4.9-2.3,9.1-2.8,14.2-0.4c3,1.4,5.6,3.1,8.9,4.1
	c7.8,2.4,13.5-1,19.9-3.8c10.5-4.5,13.8,2.8,22.9,4.4c9,1.6,12.8-6.6,20.9-5.5c8.3,1.2,12.8,6.9,21.8,2.8c4-1.8,7.8-6.5,13.2-4.3
	c2.9,1.2,3.9,3.6,7.6,3.9c4.5,0.3,5.3-2.1,8.3-3.7c6.8-3.6,13.2,2.8,19.3,4c5.3,1.1,9-0.8,14-1.8c7.4-1.4,14.4,0.5,19.6,4.2
	C461,20.8,464.5,19,462.9,17.5z"/>
</svg>
