<?xml version="1.0" encoding="utf-8"?>
<!-- Generator: Adobe Illustrator 21.0.0, SVG Export Plug-In . SVG Version: 6.00 Build 0)  -->
<svg version="1.1" id="Layers" xmlns="http://www.w3.org/2000/svg" xmlns:xlink="http://www.w3.org/1999/xlink" x="0px" y="0px"
	 viewBox="0 0 730 1128" style="enable-background:new 0 0 730 1128;" xml:space="preserve">
<style type="text/css">
	.st0{fill:none;stroke:#40404C;stroke-width:2;stroke-miterlimit:10;}
	.st1{fill:none;stroke:#40404C;stroke-miterlimit:10;}
	.st2{fill:none;stroke:#40404C;stroke-width:0.5;stroke-linejoin:bevel;stroke-miterlimit:10;}
	.st3{fill:#40404C;stroke:#40404C;stroke-width:0.5;stroke-linejoin:bevel;stroke-miterlimit:10;}
	.st4{fill:#40404C;stroke:#40404C;stroke-width:2;stroke-miterlimit:10;}
	.st5{fill:#40404C;stroke:#40404C;stroke-miterlimit:10;}
	.st6{fill:none;stroke:#40404C;stroke-width:0.5;stroke-miterlimit:10;}
	.st7{fill:none;stroke:#40404C;stroke-width:2;stroke-miterlimit:10;stroke-dasharray:1800;}
	.st8{fill:#40404C;stroke:#40404C;stroke-width:2;stroke-linejoin:round;stroke-miterlimit:10;stroke-dasharray:1800;}
	.st9{fill:#40404C;stroke:#40404C;stroke-width:2;stroke-miterlimit:10;stroke-dasharray:1800;}
	.st10{fill:none;stroke:#40404C;stroke-width:0.5;stroke-miterlimit:10;stroke-dasharray:1800;}
</style>
<g id="Layer_1_1_" shape-rendering="geometricPrecision">
	<g>
		<polygon class="st0" points="360.7,558.4 421.6,558.4 480.8,537.3 534.2,503.4 587.1,385.9 507,225.7 457.9,247.1 434.9,195.4 
			377.8,195.4 315.9,294.9 209.1,370.5 202.7,449.4 235.8,506.5 293.5,538.3 		"/>
		<polyline class="st0" points="587.1,385.8 620.9,370 631.2,393.5 596,448.6 554.9,457.3 		"/>
		<polyline class="st0" points="318.2,619.3 264.3,633 188.3,669.7 124.7,584.9 141,515.9 84.6,445.4 130.8,323.7 115.9,135.5 
			434.8,36.2 621.2,157.9 638.3,294.9 620.9,370 		"/>
		<path class="st1" d="M202.7,449.4"/>
		<path class="st1" d="M565.1,455.2"/>
		<path class="st1" d="M623.4,405.7"/>
		<polyline class="st0" points="650.6,422.6 627.1,504.8 598.9,540.9 593.8,592.3 		"/>
		<path class="st0" d="M617.9,278.1"/>
		<polyline class="st0" points="188.3,669.7 107,588.9 105.2,534 88,484.3 42.9,410.6 103.8,325.5 115.9,135.5 		"/>
		<line class="st0" x1="289.7" y1="416.1" x2="277.6" y2="413.8"/>
		<polyline class="st2" points="209.1,370.6 254.7,363.6 335.2,354.2 419.7,329.9 419.7,329.9 315.9,295.1 303.1,335.6 289.3,365.4 
			235.8,506.5 209.1,370.6 264.5,371.4 587.1,385.8 419.7,329.9 235.8,506.5 		"/>
		<line class="st2" x1="421.6" y1="558.3" x2="298.4" y2="363.1"/>
		<polyline class="st2" points="534.2,503.4 475.5,470.9 480.3,429.4 480.3,417.2 488.9,366.9 497.8,348.6 507,225.7 419.7,329.9 
			377.8,195.8 283.7,269.4 		"/>
		<polyline class="st2" points="470.4,405.2 401.8,526.7 534.2,503.4 360.7,558.3 587.1,385.8 202.7,449.5 130.8,323.7 283.7,269.4 
					"/>
		<path class="st3" d="M330.9,413.7"/>
		<path class="st3" d="M475.5,469.8"/>
		<polyline class="st2" points="470.4,405.2 209.1,370.6 261.1,439.7 		"/>
		<polyline class="st2" points="431.6,163.6 434.9,195.8 481.4,223.9 621.2,157.9 575,275.6 587.1,385.8 457.9,247.3 481.4,223.9 		
			"/>
		<polyline class="st2" points="314.8,295.1 344.9,156.5 434.9,195.8 		"/>
		<line class="st2" x1="377.8" y1="195.8" x2="344.9" y2="156.5"/>
		<line class="st2" x1="327.8" y1="235.3" x2="211.2" y2="367.8"/>
		<polyline class="st2" points="316.8,293.7 209.1,370.6 283.7,269.4 344.9,156.5 431.6,163.6 481.4,223.9 507,225.7 575,275.6 
			612.2,374 		"/>
		<path class="st3" d="M130.8,323.7"/>
		<polyline class="st2" points="209.1,370.6 130.8,323.7 181.3,187.7 344.9,156.5 130.5,324.4 180.4,501.6 84.6,445.4 283.7,269.4 
					"/>
		<path class="st3" d="M242.5,236.5"/>
		<line class="st2" x1="631.2" y1="393.5" x2="554.9" y2="457.3"/>
		<line class="st2" x1="631.2" y1="393.5" x2="587.1" y2="386.9"/>
		<polyline class="st2" points="84.6,445.4 42.9,410.6 130.8,323.7 103.8,325.5 		"/>
		<polygon class="st1" points="245.2,376.1 335.2,354.1 325.9,335.4 303.1,335.4 273.2,349.9 254.7,363.5 		"/>
		<polygon class="st1" points="444.4,338.3 436.9,354 525.9,376.1 518,363.2 497.8,348.6 468.9,335.6 		"/>
		<polygon class="st1" points="390.3,434.3 367.8,467.4 409.8,467.4 		"/>
		<polygon class="st4" points="301.8,443.4 293.8,437.8 288.9,427.9 288.9,416.1 293.8,405.6 301.8,399.4 310.3,399.4 317.2,405.6 
			320.9,416.1 320.9,427.9 317.2,437.8 310.3,443.4 		"/>
		<line class="st0" x1="294.2" y1="405.8" x2="279.2" y2="398.3"/>
		<line class="st1" x1="289.7" y1="416.1" x2="277.6" y2="413.8"/>
		<polygon class="st4" points="468.4,445.4 475.7,439.4 479.9,429 479.9,417.2 475.7,406.6 468.4,400.4 459.9,400.4 452.8,406.6 
			448.9,417.2 448.9,429 452.8,439.4 459.9,445.4 		"/>
		<line class="st0" x1="476" y1="406.8" x2="491" y2="399.4"/>
		<line class="st0" x1="480.5" y1="417.2" x2="492.6" y2="414.8"/>
		<polyline class="st2" points="254.7,363.6 264.5,371.4 273.2,350.1 289.3,365.4 302.2,337.5 335.2,354.2 		"/>
		<polyline class="st2" points="518,363.2 488.9,366.9 497.8,348.6 466.9,361.5 468.9,335.6 436.9,354 		"/>
		<polyline class="st3" points="288.9,415.8 311.3,430.1 293.8,437.9 		"/>
		<line class="st2" x1="288.9" y1="427.5" x2="311.3" y2="430.1"/>
		<line class="st2" x1="301.8" y1="443.6" x2="321.6" y2="416.1"/>
		<line class="st2" x1="288.9" y1="416.3" x2="321.4" y2="416.1"/>
		<polyline class="st3" points="317.4,438 310.3,400.1 289.5,414.9 		"/>
		<line class="st2" x1="294.2" y1="406" x2="317.1" y2="438.2"/>
		<polyline class="st3" points="480.5,417.3 458.1,431.6 475.6,439.4 		"/>
		<line class="st2" x1="480.5" y1="429" x2="458.1" y2="431.6"/>
		<line class="st2" x1="467.6" y1="445.1" x2="448.5" y2="417.2"/>
		<line class="st2" x1="288.9" y1="416.3" x2="321.4" y2="416.1"/>
		<polyline class="st3" points="452.6,439.5 460.4,401.5 480.5,417.3 448,417.2 		"/>
		<line class="st2" x1="476" y1="406.9" x2="452.3" y2="439.7"/>
		<polygon class="st2" points="379.3,451.2 400.1,451.3 389.3,467.3 		"/>
		<circle class="st5" cx="434.5" cy="36.2" r="3.1"/>
		<circle class="st5" cx="621.5" cy="157.8" r="3.1"/>
		<circle class="st5" cx="433" cy="106.2" r="3.1"/>
		<circle class="st5" cx="401.9" cy="81.1" r="3.1"/>
		<circle class="st5" cx="116.1" cy="135.8" r="3.1"/>
		<circle class="st5" cx="344.9" cy="156.3" r="3.1"/>
		<circle class="st5" cx="431.5" cy="162.4" r="3.1"/>
		<circle class="st5" cx="180.7" cy="188.2" r="3.1"/>
		<circle class="st5" cx="242.2" cy="236.1" r="3.1"/>
		<circle class="st5" cx="328.1" cy="235.4" r="3.1"/>
		<circle class="st5" cx="284.1" cy="269.6" r="3.1"/>
		<circle class="st5" cx="291.7" cy="275.7" r="3.1"/>
		<circle class="st5" cx="314.5" cy="295.4" r="3.1"/>
		<circle class="st5" cx="377.5" cy="195.8" r="3.1"/>
		<circle class="st5" cx="130.5" cy="325.1" r="3.1"/>
		<circle class="st5" cx="103.9" cy="325.1" r="3.1"/>
		<circle class="st5" cx="185.2" cy="357" r="3.1"/>
		<circle class="st5" cx="161.7" cy="376.7" r="3.1"/>
		<circle class="st5" cx="148.8" cy="388.9" r="3.1"/>
		<circle class="st5" cx="43.1" cy="410.2" r="3.1"/>
		<circle class="st5" cx="84.9" cy="445.2" r="3.1"/>
		<circle class="st5" cx="202.7" cy="449.7" r="3.1"/>
		<circle class="st5" cx="208.8" cy="370.7" r="3.1"/>
		<circle class="st5" cx="435.3" cy="195.8" r="3.1"/>
		<circle class="st5" cx="481.7" cy="224" r="3.1"/>
		<circle class="st5" cx="575.2" cy="275.7" r="3.1"/>
		<circle class="st5" cx="638.3" cy="294.9" r="3.1"/>
		<circle class="st5" cx="621.5" cy="369.9" r="3.1"/>
		<circle class="st5" cx="612.4" cy="373.7" r="3.1"/>
		<circle class="st5" cx="587.3" cy="385.9" r="3.1"/>
		<circle class="st5" cx="631.4" cy="393.5" r="3.1"/>
		<circle class="st5" cx="623.8" cy="407.1" r="3.1"/>
		<circle class="st5" cx="596.4" cy="449" r="3.1"/>
		<circle class="st5" cx="565.3" cy="455" r="3.1"/>
		<circle class="st5" cx="554.6" cy="457.3" r="3.1"/>
		<circle class="st5" cx="400.3" cy="266.5" r="3.1"/>
		<circle class="st5" cx="419.3" cy="329.6" r="3.1"/>
		<circle class="st5" cx="458.1" cy="246.8" r="3.1"/>
		<circle class="st5" cx="507.5" cy="225.5" r="3.1"/>
		<circle class="st5" cx="501.4" cy="293.9" r="3.1"/>
		<circle class="st5" cx="474.1" cy="265" r="3.1"/>
		<circle class="st5" cx="461.2" cy="281" r="3.1"/>
		<circle class="st5" cx="303.1" cy="335.7" r="3.1"/>
		<circle class="st5" cx="253.6" cy="363.1" r="3.1"/>
		<circle class="st5" cx="245.3" cy="376.7" r="3.1"/>
		<circle class="st5" cx="272.6" cy="349.4" r="3.1"/>
		<circle class="st5" cx="325.9" cy="335.7" r="3.1"/>
		<circle class="st5" cx="335" cy="354.7" r="3.1"/>
		<circle class="st5" cx="289.4" cy="364.6" r="3.1"/>
		<circle class="st5" cx="264.3" cy="371.4" r="3.1"/>
		<circle class="st5" cx="443.7" cy="338.7" r="3.1"/>
		<circle class="st5" cx="469.5" cy="335.7" r="3.1"/>
		<circle class="st5" cx="496.9" cy="348.6" r="3.1"/>
		<circle class="st5" cx="436.8" cy="354.7" r="3.1"/>
		<circle class="st5" cx="466.5" cy="361.5" r="3.1"/>
		<circle class="st5" cx="489.3" cy="367.6" r="3.1"/>
		<circle class="st5" cx="518.2" cy="363.1" r="3.1"/>
		<circle class="st5" cx="527.3" cy="376.7" r="3.1"/>
		<circle class="st5" cx="224" cy="445.2" r="3.1"/>
		<circle class="st5" cx="261.2" cy="439.1" r="3.1"/>
		<circle class="st5" cx="236.2" cy="506.7" r="3.1"/>
		<circle class="st5" cx="284.1" cy="379.8" r="3.1"/>
		<circle class="st5" cx="271.9" cy="472.5" r="3.1"/>
		<circle class="st5" cx="281" cy="463.4" r="3.1"/>
		<circle class="st5" cx="305.3" cy="373.7" r="3.1"/>
		<circle class="st5" cx="311.4" cy="384.3" r="3.1"/>
		<circle class="st5" cx="331.2" cy="414.7" r="3.1"/>
		<circle class="st5" cx="356.3" cy="390.4" r="3.1"/>
		<circle class="st5" cx="370.7" cy="376" r="3.1"/>
		<circle class="st5" cx="284.8" cy="512" r="3.1"/>
		<circle class="st5" cx="325.9" cy="518.1" r="3.1"/>
		<circle class="st5" cx="293.2" cy="537.1" r="3.1"/>
		<circle class="st5" cx="339.5" cy="532.6" r="3.1"/>
		<circle class="st5" cx="360.8" cy="558.4" r="3.1"/>
		<circle class="st5" cx="401.9" cy="526.5" r="3.1"/>
		<circle class="st5" cx="411" cy="540.9" r="3.1"/>
		<circle class="st5" cx="421.6" cy="559.2" r="3.1"/>
		<circle class="st5" cx="475.6" cy="469.5" r="3.1"/>
		<circle class="st5" cx="478.6" cy="512.8" r="3.1"/>
		<circle class="st5" cx="478.6" cy="521.2" r="3.1"/>
		<circle class="st5" cx="480.2" cy="537.1" r="3.1"/>
		<circle class="st5" cx="534.1" cy="503.7" r="3.1"/>
		<circle class="st5" cx="468" cy="379.8" r="3.1"/>
		<circle class="st5" cx="486.2" cy="381.3" r="3.1"/>
		<circle class="st5" cx="390.5" cy="434.5" r="3.1"/>
		<circle class="st5" cx="400.3" cy="451.2" r="3.1"/>
		<circle class="st5" cx="409.5" cy="468" r="3.1"/>
		<circle class="st5" cx="379.1" cy="450.5" r="3.1"/>
		<circle class="st5" cx="367.7" cy="468" r="3.1"/>
		<circle class="st5" cx="389.7" cy="468" r="3.1"/>
		<circle class="st5" cx="301.4" cy="400.2" r="1.5"/>
		<circle class="st5" cx="310.6" cy="400.2" r="1.5"/>
		<circle class="st5" cx="317.4" cy="406.3" r="1.5"/>
		<circle class="st5" cx="322" cy="416.2" r="1.5"/>
		<circle class="st5" cx="321.2" cy="427.6" r="1.5"/>
		<circle class="st5" cx="317.4" cy="438.2" r="1.5"/>
		<circle class="st5" cx="310.6" cy="443.5" r="1.5"/>
		<circle class="st5" cx="301.4" cy="443.5" r="1.5"/>
		<circle class="st5" cx="293.8" cy="438.2" r="1.5"/>
		<circle class="st5" cx="289.3" cy="427.6" r="1.5"/>
		<circle class="st5" cx="289.3" cy="416.2" r="1.5"/>
		<circle class="st5" cx="293.8" cy="406.3" r="1.5"/>
		<circle class="st5" cx="279.4" cy="397.9" r="1.5"/>
		<circle class="st5" cx="277.9" cy="413.9" r="1.5"/>
		<circle class="st5" cx="296.9" cy="409.3" r="1.5"/>
		<circle class="st5" cx="312.8" cy="416.2" r="1.5"/>
		<circle class="st5" cx="301.4" cy="416.2" r="1.5"/>
		<circle class="st5" cx="311.3" cy="429.9" r="1.5"/>
		<circle class="st5" cx="315.1" cy="425.3" r="1.5"/>
		<circle class="st5" cx="338.8" cy="426.9" r="3.1"/>
		<circle class="st5" cx="448.9" cy="417.7" r="1.5"/>
		<circle class="st5" cx="451.9" cy="407.1" r="1.5"/>
		<circle class="st5" cx="448.9" cy="429.1" r="1.5"/>
		<circle class="st5" cx="451.9" cy="439" r="1.5"/>
		<circle class="st5" cx="459.5" cy="445.1" r="1.5"/>
		<circle class="st5" cx="467.9" cy="445.1" r="1.5"/>
		<circle class="st5" cx="475.5" cy="439.7" r="1.5"/>
		<circle class="st5" cx="480.8" cy="429.1" r="1.5"/>
		<circle class="st5" cx="480.8" cy="416.9" r="1.5"/>
		<circle class="st5" cx="476.3" cy="407.1" r="1.5"/>
		<circle class="st5" cx="467.9" cy="401" r="1.5"/>
		<circle class="st5" cx="459.5" cy="401" r="1.5"/>
		<circle class="st5" cx="490.7" cy="399.5" r="1.5"/>
		<circle class="st5" cx="492.2" cy="414.7" r="1.5"/>
		<circle class="st5" cx="457.3" cy="416.9" r="1.5"/>
		<circle class="st5" cx="455" cy="426.8" r="1.5"/>
		<circle class="st5" cx="458.8" cy="431.4" r="1.5"/>
		<circle class="st5" cx="467.9" cy="416.9" r="1.5"/>
		<circle class="st5" cx="472.5" cy="410.9" r="1.5"/>
		<line class="st0" x1="569.9" y1="662.6" x2="483.3" y2="633"/>
		<polyline class="st2" points="180.4,501.6 205.7,564 281.7,581 318.2,619.3 		"/>
		<polyline class="st2" points="293.5,538.3 281.7,581 360.7,558.4 		"/>
		<polyline class="st6" points="188.3,669.7 205.7,564 264.3,633 		"/>
		<polyline class="st2" points="88,484.3 141,515.9 180.4,501.6 235.8,506.5 401.8,526.7 293.5,538.3 261.1,439.7 360.7,558.3 		"/>
		<polyline class="st2" points="105.2,534 124.7,584.9 205.7,564 235.8,506.5 		"/>
		<line class="st2" x1="124.7" y1="584.9" x2="107" y2="588.9"/>
		<polyline class="st2" points="623.8,410.2 627.1,504.8 596.4,452.1 		"/>
		<polyline class="st2" points="593.8,592.3 534.2,503.4 598.9,540.9 565.1,455.2 		"/>
		<polyline class="st2" points="115.9,135.5 401.8,80.4 433,106.3 621.2,157.9 431.6,163.6 434.8,36.2 344.9,156.5 115.9,135.5 
			315.9,295.1 457.9,247.3 468.9,335.6 466.9,361.5 468.4,401 467.6,445.1 475.5,470.9 480.8,537.2 571.4,603 		"/>
		<polyline class="st2" points="465.3,619.3 480.8,537.2 421.6,603 		"/>
		<polyline class="st2" points="483.3,633 540.7,608.7 517.7,564 598.9,540.9 617,544 628.3,503.4 653.7,508.9 		"/>
		<circle class="st5" cx="180.4" cy="500.6" r="3.1"/>
		<circle class="st5" cx="141.4" cy="515.2" r="3.1"/>
		<circle class="st5" cx="87.9" cy="484.1" r="3.1"/>
		<circle class="st5" cx="105.2" cy="535.7" r="3.1"/>
		<circle class="st5" cx="106.4" cy="588.7" r="3.1"/>
		<circle class="st5" cx="124.1" cy="584.8" r="3.1"/>
		<circle class="st5" cx="205.6" cy="563.8" r="3.1"/>
		<circle class="st5" cx="188.7" cy="669" r="3.1"/>
		<circle class="st5" cx="283.7" cy="581" r="3.1"/>
		<circle class="st5" cx="264.5" cy="633.2" r="3.1"/>
		<circle class="st5" cx="317.7" cy="619.2" r="3.1"/>
		<circle class="st5" cx="517.7" cy="563.4" r="3.1"/>
		<circle class="st5" cx="650.6" cy="420.5" r="3.1"/>
		<circle class="st5" cx="628.3" cy="503.6" r="3.1"/>
		<circle class="st5" cx="599.5" cy="540.9" r="3.1"/>
		<circle class="st5" cx="565.1" cy="548.8" r="3.1"/>
		<circle class="st5" cx="483.5" cy="632.5" r="3.1"/>
		<line class="st6" x1="575" y1="275.6" x2="638.3" y2="294.9"/>
	</g>
	<polyline class="st0" points="593.8,592.3 617,544 653.7,508.9 650.6,420.5 631.2,393.5 	"/>
	<circle class="st5" cx="653.7" cy="509.7" r="3.1"/>
	<circle class="st5" cx="617.1" cy="543.4" r="3.1"/>
</g>
<g id="Layer_2">
	<polyline class="st7" points="360.7,558.4 360.7,603 380.6,619.3 403.4,619.3 421.6,603 421.6,558.4 	"/>
	<polyline class="st7" points="360.7,603 318.2,619.3 311.8,663 318.8,729 338.8,784 395.2,784 450.3,784 469.3,725 469.3,660 
		465.3,619.3 421.6,603 	"/>
	<polygon class="st8" points="311.8,663 318.2,619.3 265.8,664 314.9,695 	"/>
	<polygon class="st8" points="469.3,660 465.3,619.3 515,657.2 469,687 	"/>
	<polyline class="st9" points="394.9,859 401.2,932 403.4,1014 458,1020.9 521.3,1012.6 501.7,914 476.8,836 450.3,784 337.9,784 
		311.4,836 288.5,914 268.9,1012.6 332.1,1020.9 386.7,1014 389.1,932 394.9,859 	"/>
	<polyline class="st7" points="332.1,1020.9 331.9,1042 363.9,1042 363.9,1016.9 	"/>
	<polyline class="st7" points="331.9,1042 313.5,1057 301.5,1081 327.5,1098.5 376,1077.5 374.5,1057 363.9,1042 	"/>
	<polyline class="st7" points="458.7,1020.9 458.9,1042 426.9,1042 426.9,1016.9 	"/>
	<polyline class="st7" points="458.9,1042 477.3,1057 489.3,1081 463.3,1098.5 414.8,1077.5 416.3,1057 426.9,1042 	"/>
	<polyline class="st7" points="291.7,680.3 220.9,798 211.2,821 224,846 246.7,846 268.9,825 258.1,799 248.4,777 302.2,687 	"/>
	<polyline class="st7" points="486.2,675.9 538.8,747.5 580.2,669.7 606.4,653.2 623.8,622 616.9,597 592.5,592 571.4,603 
		562.2,626 551.5,608.7 540.7,608.7 540.5,619.3 551.5,640.5 569.9,662.6 537.2,727 495.3,670 	"/>
</g>
<g id="Layer_3">
	<polyline class="st10" points="360.7,558.3 421.6,603 360.7,603 403.4,619.3 421.6,559.2 360.7,603 	"/>
	<polyline class="st10" points="318.2,619.3 397.2,717.8 450.3,784 403.4,619.3 338.8,784 469.3,725 318.8,729 465.3,619.3 
		311.8,663 469.3,660 483.3,633 495.3,670 469.3,660 	"/>
	<polygon class="st10" points="311.8,663 296.3,638 291.7,680.3 	"/>
	<line class="st10" x1="401.2" y1="932" x2="476.8" y2="836"/>
	<polyline class="st10" points="360.7,603 338.8,784 476.8,836 458.7,1020.9 501.7,914 403.4,1014 450.3,784 288.5,914 389.1,932 
		332.1,1020.9 288.5,914 	"/>
	<polyline class="st10" points="450.3,784 311.4,836 394.9,859 476.8,836 	"/>
	<line class="st10" x1="394.9" y1="805.1" x2="394.9" y2="859"/>
	<polyline class="st10" points="366.6,851.2 389.1,932 268.9,1012.6 	"/>
	<line class="st10" x1="363.9" y1="1042" x2="332.1" y2="1020.9"/>
	<polyline class="st10" points="426.9,1016.9 458.9,1042 414.8,1077.5 489.3,1081 416.3,1057 	"/>
	<polyline class="st10" points="301.5,1081 374.5,1057 331.9,1042 363.9,1016.9 	"/>
	<polyline class="st10" points="327.5,1098.5 331.9,1042 376,1077.5 313.5,1057 	"/>
	<polyline class="st10" points="458.9,1042 463.3,1098.5 426.9,1042 458.7,1020.9 	"/>
	<polyline class="st10" points="246.7,846 220.9,798 268.9,825 211.2,821 	"/>
	<polyline class="st10" points="224,846 248.4,777 236.2,772.6 265.8,747.9 291.7,680.3 	"/>
	<polyline class="st10" points="592.5,592 606.4,653.2 551.5,640.5 623.8,622 571.4,603 580.2,669.7 616.9,597 	"/>
	<polyline class="st10" points="551.5,640.5 562.2,626 590.4,649.5 	"/>
	<polyline class="st10" points="562.2,626 540.5,619.3 551.5,608.7 	"/>
	<polyline class="st10" points="569.9,662.6 580.2,669.7 548.6,704.5 538.8,747.5 537.2,727 511.3,710.1 495.3,670 	"/>
</g>
<g id="Layer_4">
	<circle class="st5" cx="392.8" cy="581" r="3.1"/>
	<circle class="st5" cx="360.8" cy="603" r="3.1"/>
	<circle class="st5" cx="421.6" cy="603" r="3.1"/>
	<circle class="st5" cx="402.9" cy="619.1" r="3.1"/>
	<circle class="st5" cx="409" cy="603" r="3.1"/>
	<circle class="st5" cx="411" cy="594.6" r="3.1"/>
	<circle class="st5" cx="465.8" cy="619.1" r="3.1"/>
	<circle class="st5" cx="318.2" cy="619.3" r="3.1"/>
	<circle class="st5" cx="311.8" cy="662.6" r="3.1"/>
	<circle class="st5" cx="468.8" cy="659.5" r="3.1"/>
	<circle class="st5" cx="375.8" cy="687" r="3.1"/>
	<circle class="st5" cx="352.9" cy="662.6" r="3.1"/>
	<circle class="st5" cx="395.9" cy="639.5" r="3.1"/>
	<circle class="st5" cx="386.6" cy="662.6" r="3.1"/>
	<circle class="st5" cx="414.1" cy="660.3" r="3.1"/>
	<circle class="st5" cx="348" cy="706.5" r="3.1"/>
	<circle class="st5" cx="319.5" cy="728.8" r="3.1"/>
	<circle class="st5" cx="469" cy="725.3" r="3.1"/>
	<circle class="st5" cx="450" cy="784" r="3.1"/>
	<circle class="st5" cx="338.1" cy="783.8" r="3.1"/>
	<circle class="st5" cx="360.8" cy="727.3" r="3.1"/>
	<circle class="st5" cx="344.9" cy="728.3" r="3.1"/>
	<circle class="st5" cx="433.8" cy="725.7" r="3.1"/>
	<circle class="st5" cx="421.6" cy="747.5" r="3.1"/>
	<circle class="st5" cx="403.5" cy="727.3" r="3.1"/>
	<circle class="st5" cx="436.9" cy="739.5" r="3.1"/>
	<circle class="st5" cx="394.9" cy="805.1" r="3.1"/>
	<circle class="st5" cx="311.9" cy="836" r="3.1"/>
	<circle class="st5" cx="476.8" cy="836" r="3.1"/>
	<circle class="st5" cx="395.1" cy="829" r="3.1"/>
	<circle class="st5" cx="415.4" cy="813" r="3.1"/>
	<circle class="st5" cx="443.1" cy="822.8" r="3.1"/>
	<circle class="st5" cx="367" cy="851.2" r="3.1"/>
	<circle class="st5" cx="395.2" cy="859" r="3.1"/>
	<circle class="st5" cx="436.9" cy="847" r="3.1"/>
	<circle class="st5" cx="288.5" cy="914" r="3.1"/>
	<circle class="st5" cx="389.4" cy="932.3" r="3.1"/>
	<circle class="st5" cx="315" cy="981.3" r="3.1"/>
	<circle class="st5" cx="268.9" cy="1012.6" r="3.1"/>
	<circle class="st5" cx="331.9" cy="1020.9" r="3.1"/>
	<circle class="st5" cx="386.7" cy="1014.3" r="3.1"/>
	<circle class="st5" cx="426.9" cy="898.3" r="3.1"/>
	<circle class="st5" cx="400.7" cy="932" r="3.1"/>
	<circle class="st5" cx="403.8" cy="1014.3" r="3.1"/>
	<circle class="st5" cx="466.4" cy="950.3" r="3.1"/>
	<circle class="st5" cx="501.5" cy="914.8" r="3.1"/>
	<circle class="st5" cx="458.9" cy="1020" r="3.1"/>
	<circle class="st5" cx="522" cy="1013.1" r="3.1"/>
	<circle class="st5" cx="444.1" cy="1029.4" r="3.1"/>
	<circle class="st5" cx="427" cy="1017.8" r="3.1"/>
	<circle class="st5" cx="459.1" cy="1042.5" r="3.1"/>
	<circle class="st5" cx="427.4" cy="1042.2" r="3.1"/>
	<circle class="st5" cx="415.4" cy="1056.6" r="3.1"/>
	<circle class="st5" cx="476.8" cy="1056.6" r="3.1"/>
	<circle class="st5" cx="489.1" cy="1081.2" r="3.1"/>
	<circle class="st5" cx="441" cy="1064.8" r="3.1"/>
	<circle class="st5" cx="415" cy="1078" r="3.1"/>
	<circle class="st5" cx="462" cy="1071" r="3.1"/>
	<circle class="st5" cx="450.3" cy="1078.1" r="3.1"/>
	<circle class="st5" cx="463.5" cy="1098" r="3.1"/>
	<circle class="st5" cx="363.9" cy="1016.9" r="3.1"/>
	<circle class="st5" cx="346.8" cy="1031.4" r="3.1"/>
	<circle class="st5" cx="363.7" cy="1041.5" r="3.1"/>
	<circle class="st5" cx="332.1" cy="1041.5" r="3.1"/>
	<circle class="st5" cx="374.5" cy="1056.6" r="3.1"/>
	<circle class="st5" cx="313.5" cy="1056.6" r="3.1"/>
	<circle class="st5" cx="301.5" cy="1081.2" r="3.1"/>
	<circle class="st5" cx="327.5" cy="1098.5" r="3.1"/>
	<circle class="st5" cx="376" cy="1078.1" r="3.1"/>
	<circle class="st5" cx="330.6" cy="1071" r="3.1"/>
	<circle class="st5" cx="357.5" cy="1061.7" r="3.1"/>
	<circle class="st5" cx="343.7" cy="1067.2" r="3.1"/>
	<circle class="st5" cx="233.5" cy="822.8" r="3.1"/>
	<circle class="st5" cx="211.2" cy="821.5" r="3.1"/>
	<circle class="st5" cx="224" cy="846" r="3.1"/>
	<circle class="st5" cx="245.9" cy="846" r="3.1"/>
	<circle class="st5" cx="220.9" cy="798" r="3.1"/>
	<circle class="st5" cx="269.4" cy="824.8" r="3.1"/>
	<circle class="st5" cx="236.9" cy="806.8" r="3.1"/>
	<circle class="st5" cx="249" cy="777.5" r="3.1"/>
	<circle class="st5" cx="236.9" cy="772.5" r="3.1"/>
	<circle class="st5" cx="292.2" cy="680.8" r="3.1"/>
	<circle class="st5" cx="266.3" cy="749.2" r="3.1"/>
	<circle class="st5" cx="296.3" cy="637.7" r="3.1"/>
	<circle class="st5" cx="265.8" cy="663.3" r="3.1"/>
	<circle class="st5" cx="314.9" cy="695.7" r="3.1"/>
	<circle class="st5" cx="483.3" cy="634" r="3.1"/>
	<circle class="st5" cx="495.3" cy="669.7" r="3.1"/>
	<circle class="st5" cx="515" cy="657.2" r="3.1"/>
	<circle class="st5" cx="469.3" cy="685.3" r="3.1"/>
	<circle class="st5" cx="511.9" cy="709.6" r="3.1"/>
	<circle class="st5" cx="537.2" cy="727.3" r="3.1"/>
	<circle class="st5" cx="538.8" cy="746.5" r="3.1"/>
	<circle class="st5" cx="548.6" cy="703.4" r="3.1"/>
	<circle class="st5" cx="581.5" cy="669.7" r="3.1"/>
	<circle class="st5" cx="568.3" cy="662.6" r="3.1"/>
	<circle class="st5" cx="616.9" cy="597.7" r="3.1"/>
	<circle class="st5" cx="540.5" cy="608.7" r="3.1"/>
	<circle class="st5" cx="562.2" cy="626" r="3.1"/>
	<circle class="st5" cx="551.3" cy="640.7" r="3.1"/>
	<circle class="st5" cx="571.4" cy="603" r="3.1"/>
	<circle class="st5" cx="593.5" cy="592" r="3.1"/>
	<circle class="st5" cx="606.4" cy="653.2" r="3.1"/>
	<circle class="st5" cx="624.3" cy="622.9" r="3.1"/>
	<circle class="st5" cx="590.4" cy="650" r="3.1"/>
	<circle class="st5" cx="575" cy="634.6" r="3.1"/>
	<circle class="st5" cx="600.2" cy="629.1" r="3.1"/>
	<circle class="st5" cx="606.4" cy="616" r="3.1"/>
</g>
</svg>
