<?xml version="1.0" encoding="utf-8"?>
<!-- Generator: Adobe Illustrator 21.0.0, SVG Export Plug-In . SVG Version: 6.00 Build 0)  -->
<svg version="1.1" id="Layer_1" xmlns="http://www.w3.org/2000/svg" xmlns:xlink="http://www.w3.org/1999/xlink" x="0px" y="0px"
	 viewBox="0 0 775.2 29.9" style="enable-background:new 0 0 775.2 29.9;" xml:space="preserve">
<style type="text/css">
	.st0{fill:#9E9EA5;}
</style>
<path class="st0" d="M762.5,18.5c-48.3-1.3-98.1-1.2-146.7-1.6c-48.1-0.4-96.2-0.8-144.3-1.1c-97.1-0.7-194.1-1.2-291.2-1.3
	c-55.6-0.1-111.5-0.4-167.1,0.1c-4.5,0-4.5,1.6,0,1.6c97,0.7,194.2,0.3,291.2,0.5c97.1,0.4,194.1,0.9,291.1,1.7
	c27.8,0.3,55.7,0.5,83.5,0.8c27.7,0.3,55.7,0.9,83.5,0.8C767.3,20.3,767.1,18.7,762.5,18.5z"/>
</svg>
