<?xml version="1.0" encoding="utf-8"?>
<!-- Generator: Adobe Illustrator 21.0.0, SVG Export Plug-In . SVG Version: 6.00 Build 0)  -->
<svg version="1.1" id="Layer_1" xmlns="http://www.w3.org/2000/svg" xmlns:xlink="http://www.w3.org/1999/xlink" x="0px" y="0px"
	 viewBox="0 0 142.3 37" style="enable-background:new 0 0 142.3 37;" xml:space="preserve">
<style type="text/css">
	.st0{fill:#8888A3;stroke:#8888A3;stroke-width:1.5;stroke-miterlimit:10;}
</style>
<g>
	<path class="st0" d="M32.5,21.4c-1.4-1.6-3.1-3-4.9-4.2c1.4-2.4,2.9-4.8,4.6-7c0.7-0.8-0.6-1.7-1.1-1c-1.9,2.1-3.3,4.6-4.7,7.1
		c-0.6-0.4-1.2-0.8-1.7-1.3c-0.9-0.7-1.8-1.4-2.7-2c2-2.6,4.1-5.1,5.7-7.9c0.4-0.6-0.5-1.2-1-0.8c-2.3,2.1-4.3,4.9-6.1,7.6
		c-1.5-1.1-3-2.2-4.5-3.3c-0.5-0.4-1.2,0.5-0.7,0.9c1.4,1.2,2.9,2.4,4.4,3.6c-0.5,0.8-1,1.6-1.5,2.3c-0.7,1-1.4,2-2.1,3.1
		c-1.8-1.4-3.5-2.8-5.2-4.2c-0.6-0.5-1.4,0.3-0.8,0.8c1.7,1.5,3.5,3,5.3,4.5c-1.8,2.7-3.4,5.4-4.7,8.3c-0.3,0.6,0.5,1,0.8,0.5
		c1.8-2.5,3.4-5.2,5.1-7.8c0.5,0.4,1.1,0.9,1.6,1.3c1.1,0.9,2.2,1.8,3.3,2.7c-2.1,3.1-4.5,6.1-6.6,9.3c-0.1,0.1,0.1,0.3,0.2,0.2
		c2.6-2.7,5.1-5.7,7.3-8.8c1.2,0.9,2.5,1.8,3.8,2.5c0.6,0.3,1.3-0.5,0.8-1c-1.1-1.1-2.3-2-3.6-3c0.3-0.4,0.5-0.8,0.8-1.2
		c0.8-1.3,1.6-2.6,2.3-4c1.6,1.4,3.2,2.7,5.1,3.6C32.4,22.8,33,22,32.5,21.4z M23.9,21.2c-0.4,0.7-0.8,1.4-1.3,2.1
		c-1-0.7-2.1-1.4-3-2.2c-0.7-0.5-1.4-1.1-2.1-1.6c0.6-1,1.3-2,1.9-2.9c0.6-0.8,1.1-1.6,1.7-2.4c0.9,0.7,1.7,1.4,2.6,2.1
		c0.6,0.5,1.2,1,1.9,1.6C25.1,19.1,24.5,20.2,23.9,21.2z"/>
	<path class="st0" d="M81.2,21.4c-1.4-1.6-3.1-3-4.9-4.2c1.4-2.4,2.9-4.8,4.6-7c0.7-0.8-0.6-1.7-1.1-1c-1.9,2.1-3.3,4.6-4.7,7.1
		c-0.6-0.4-1.2-0.8-1.7-1.3c-0.9-0.7-1.8-1.4-2.7-2c2-2.6,4.1-5.1,5.7-7.9c0.4-0.6-0.5-1.2-1-0.8c-2.3,2.1-4.3,4.9-6.1,7.6
		c-1.5-1.1-3-2.2-4.5-3.3c-0.5-0.4-1.2,0.5-0.7,0.9c1.4,1.2,2.9,2.4,4.4,3.6c-0.5,0.8-1,1.6-1.5,2.3c-0.7,1-1.4,2-2.1,3.1
		c-1.8-1.4-3.5-2.8-5.2-4.2c-0.6-0.5-1.4,0.3-0.8,0.8c1.7,1.5,3.5,3,5.3,4.5c-1.8,2.7-3.4,5.4-4.7,8.3c-0.3,0.6,0.5,1,0.8,0.5
		c1.8-2.5,3.4-5.2,5.1-7.8c0.5,0.4,1.1,0.9,1.6,1.3c1.1,0.9,2.2,1.8,3.3,2.7c-2.1,3.1-4.5,6.1-6.6,9.3c-0.1,0.1,0.1,0.3,0.2,0.2
		c2.6-2.7,5.1-5.7,7.3-8.8c1.2,0.9,2.5,1.8,3.8,2.5c0.6,0.3,1.3-0.5,0.8-1c-1.1-1.1-2.3-2-3.6-3c0.3-0.4,0.5-0.8,0.8-1.2
		c0.8-1.3,1.6-2.6,2.3-4c1.6,1.4,3.2,2.7,5.1,3.6C81.1,22.8,81.7,22,81.2,21.4z M72.6,21.2c-0.4,0.7-0.8,1.4-1.3,2.1
		c-1-0.7-2.1-1.4-3-2.2c-0.7-0.5-1.4-1.1-2.1-1.6c0.6-1,1.3-2,1.9-2.9c0.6-0.8,1.1-1.6,1.7-2.4c0.9,0.7,1.7,1.4,2.6,2.1
		c0.6,0.5,1.2,1,1.9,1.6C73.8,19.1,73.2,20.2,72.6,21.2z"/>
	<path class="st0" d="M131.1,21.4c-1.4-1.6-3.1-3-4.9-4.2c1.4-2.4,2.9-4.8,4.6-7c0.7-0.8-0.6-1.7-1.1-1c-1.9,2.1-3.3,4.6-4.7,7.1
		c-0.6-0.4-1.2-0.8-1.7-1.3c-0.9-0.7-1.8-1.4-2.7-2c2-2.6,4.1-5.1,5.7-7.9c0.4-0.6-0.5-1.2-1-0.8c-2.3,2.1-4.3,4.9-6.1,7.6
		c-1.5-1.1-3-2.2-4.5-3.3c-0.5-0.4-1.2,0.5-0.7,0.9c1.4,1.2,2.9,2.4,4.4,3.6c-0.5,0.8-1,1.6-1.5,2.3c-0.7,1-1.4,2-2.1,3.1
		c-1.8-1.4-3.5-2.8-5.2-4.2c-0.6-0.5-1.4,0.3-0.8,0.8c1.7,1.5,3.5,3,5.3,4.5c-1.8,2.7-3.4,5.4-4.7,8.3c-0.3,0.6,0.5,1,0.8,0.5
		c1.8-2.5,3.4-5.2,5.1-7.8c0.5,0.4,1.1,0.9,1.6,1.3c1.1,0.9,2.2,1.8,3.3,2.7c-2.1,3.1-4.5,6.1-6.6,9.3c-0.1,0.1,0.1,0.3,0.2,0.2
		c2.6-2.7,5.1-5.7,7.3-8.8c1.2,0.9,2.5,1.8,3.8,2.5c0.6,0.3,1.3-0.5,0.8-1c-1.1-1.1-2.3-2-3.6-3c0.3-0.4,0.5-0.8,0.8-1.2
		c0.8-1.3,1.6-2.6,2.3-4c1.6,1.4,3.2,2.7,5.1,3.6C130.9,22.8,131.5,22,131.1,21.4z M122.4,21.2c-0.4,0.7-0.8,1.4-1.3,2.1
		c-1-0.7-2.1-1.4-3-2.2c-0.7-0.5-1.4-1.1-2.1-1.6c0.6-1,1.3-2,1.9-2.9c0.6-0.8,1.1-1.6,1.7-2.4c0.9,0.7,1.7,1.4,2.6,2.1
		c0.6,0.5,1.2,1,1.9,1.6C123.6,19.1,123,20.2,122.4,21.2z"/>
</g>
</svg>
