<?xml version="1.0" encoding="utf-8"?>
<!-- Generator: Adobe Illustrator 21.0.0, SVG Export Plug-In . SVG Version: 6.00 Build 0)  -->
<svg version="1.1" id="Layer_1" xmlns="http://www.w3.org/2000/svg" xmlns:xlink="http://www.w3.org/1999/xlink" x="0px" y="0px"
	 viewBox="0 0 8.7 775.2" style="enable-background:new 0 0 8.7 775.2;" xml:space="preserve">
<style type="text/css">
	.st0{fill:#9E9EA5;}
</style>
<path class="st0" d="M3.5,760.8c0.6-48.3,0.5-98.1,0.7-146.7c0.2-48.1,0.4-96.2,0.5-144.3C5,372.7,5.2,275.7,5.3,178.6
	c0-55.6,0.2-111.5,0-167.1c0-4.5-0.7-4.5-0.7,0c-0.3,97-0.1,194.2-0.2,291.2c-0.2,97.1-0.4,194.1-0.8,291.1
	c-0.1,27.8-0.2,55.7-0.4,83.5C3,705,2.7,733,2.7,760.8C2.7,765.6,3.4,765.4,3.5,760.8z"/>
</svg>
