<?xml version="1.0" encoding="utf-8"?>
<!-- Generator: Adobe Illustrator 21.0.0, SVG Export Plug-In . SVG Version: 6.00 Build 0)  -->
<svg version="1.1" id="Layer_1" xmlns="http://www.w3.org/2000/svg" xmlns:xlink="http://www.w3.org/1999/xlink" x="0px" y="0px"
	 viewBox="0 0 29.9 775.2" style="enable-background:new 0 0 29.9 775.2;" xml:space="preserve">
<style type="text/css">
	.st0{fill:#9E9EA5;}
</style>
<path class="st0" d="M12.7,760.8c1.3-48.3,1.2-98.1,1.6-146.7c0.4-48.1,0.8-96.2,1.1-144.3c0.7-97.1,1.2-194.1,1.3-291.2
	c0.1-55.6,0.4-111.5-0.1-167.1c0-4.5-1.6-4.5-1.6,0c-0.7,97-0.3,194.2-0.5,291.2c-0.4,97.1-0.9,194.1-1.7,291.1
	c-0.3,27.8-0.5,55.7-0.8,83.5C11.6,705,10.9,733,11,760.8C10.9,765.6,12.5,765.4,12.7,760.8z"/>
</svg>
