<?xml version="1.0" encoding="utf-8"?>
<!-- Generator: Adobe Illustrator 21.0.0, SVG Export Plug-In . SVG Version: 6.00 Build 0)  -->
<svg version="1.1" id="Layer_1_1_" xmlns="http://www.w3.org/2000/svg" xmlns:xlink="http://www.w3.org/1999/xlink" x="0px" y="0px"
	 viewBox="0 0 301.5 205.5" style="enable-background:new 0 0 301.5 205.5;" xml:space="preserve">
<style type="text/css">
	.st0{fill:#F8F0F0;}
	.st1{fill:none;stroke:#F8F0F0;stroke-miterlimit:10;}
	.st2{fill:#40404C;}
</style>
<g id="XMLID_1_">
	<g>
		<path class="st0" d="M295.7,161.4c0.3,9.5,1.6,19.1,0.2,28.4c-0.3,1.8-0.7,3.7-2.1,4.8c-1,0.7-2.3,0.9-3.5,1.1
			c-13.9,1.6-28.8,1.6-42.8,1.7c-12.5,0.1-25,0.1-37.5,0.2c-41.8,0.2-83.7,0.4-125.5,0.6c-21.1,0.1-42.2,0.2-63.3,0.3
			c-5.6,0-12.1-0.4-15.3-5c-2.1-3-2.1-6.9-2-10.5c0.4-10.9,1.7-22,2.7-33C8.9,123.6,9.4,97,8,70.6c-0.4-7.6-1.7-17-1.7-31.2
			c0-11.2,1.3-26.6,1.3-26.6s0-4.5,5.3-4.2c2.2-0.6,4-0.1,4.9,0.2c0.4,0.1,6.1,0.4,17.4,1.1c0,0,5.2,0.3,15,0.3
			c10.4,0,229.1-3.7,237.5-4.1c2.5-0.1,5.5,0,6.6,2.2c0.5,0.9,0.5,1.9,0.5,2.9C296.5,61.3,294.1,111.3,295.7,161.4z"/>
	</g>
	<g>
		<path class="st1" d="M17.8,8.8C16.9,8.5,15,8,12.9,8.6c-5.3-0.3-5.3,4.2-5.3,4.2S6.3,28.2,6.3,39.4C6.3,53.6,7.6,63,8,70.6
			c1.4,26.4,0.9,53-1.4,79.4c-1,11-2.3,22-2.7,33.1c-0.1,3.6-0.1,7.5,2,10.5c3.2,4.6,9.7,5,15.3,5c21.1-0.1,42.2-0.2,63.3-0.3
			c41.8-0.2,83.7-0.4,125.5-0.6c12.5-0.1,25-0.1,37.5-0.2c14-0.1,28.9-0.1,42.8-1.7c1.2-0.1,2.5-0.3,3.5-1.1c1.4-1.1,1.9-3,2.1-4.8
			c1.4-9.4,0.1-18.9-0.2-28.4c-1.6-50.1,0.8-100.2-0.9-150.3c0-1-0.1-2-0.5-2.9c-1.2-2.2-4.2-2.3-6.6-2.2
			c-8.4,0.4-227,4.1-237.5,4.1c-9.9,0-15-0.3-15-0.3C23.8,9.2,18.1,8.9,17.8,8.8z"/>
	</g>
</g>
<g transform="translate(0.000000,260.000000) scale(0.100000,-0.100000)">
	<g>
		<path class="st2" d="M1472.2,1687.4c0.8-118.6,3-138.3,15.2-158.9c34.2-55.5,105.6-61.6,149.7-13.7
			c68.4,74.5-10.6,186.2-106.4,149.7l-19-7.6l1.5,83.6l0.8,82.8h-21.3h-21.3L1472.2,1687.4z M1606.8,1612.1
			c16-14.4,18.2-22,14.4-41.8c-6.1-29.6-17.5-41.8-42.6-45.6c-54.7-8.4-85.9,50.9-47.9,88.9
			C1554.3,1637.2,1580.2,1636.5,1606.8,1612.1z"/>
	</g>
	<g>
		<path class="st2" d="M1908.5,1730.7c2.3-9.9,3.8-19.8,3.8-22c0.8-2.3,9.1-3,20.5-0.8c27.4,5.3,22.8,35-6.8,38
			C1907.7,1748.2,1905.5,1745.9,1908.5,1730.7z"/>
	</g>
	<g>
		<path class="st2" d="M1920.7,1672.2c-9.9-3.8-11.4-21.3-11.4-95.8v-91.2l19.8-2.3l19-2.3l0.8,95
			C1949.5,1672.2,1946.5,1682.8,1920.7,1672.2z"/>
	</g>
	<g>
		<path class="st2" d="M943.2,1609.1c2.3-68.4,9.1-87.4,39.5-111.7c25.1-19.8,60-20.5,92-1.5c20.5,12.9,25.1,13.7,32.7,4.6
			c16-19,60-22.8,88.2-7.6c35.7,19,48.6,51.7,48.6,120.8c0,56.2-0.8,57.8-19,57.8c-10.6,0-19-2.3-19.8-5.3c0-3.8-0.8-31.2-1.5-61.6
			c-1.5-49.4-3.8-57.8-19.8-70.7c-19.8-16-44.1-13.7-59.3,6.8c-9.9,12.2-12.2,31.9-11.4,95c0.8,34.2,0,35.7-19.8,35.7h-20.5v-60.8
			c0-63.8-6.1-76.8-38.8-86.6c-10.6-3-22.8,0-34.2,9.9c-16,12.9-18.2,20.5-19,74.5c0,58.5-0.8,59.3-20.5,61.6l-19.8,2.3
			L943.2,1609.1z"/>
	</g>
	<g>
		<path class="st2" d="M1323.3,1659.3c-38.8-19-58.5-83.6-38-123.1c19.8-38,40.3-50.2,84.4-50.2c35.7-0.8,44.1,2.3,62.3,20.5
			c20.5,20.5,20.5,22,6.8,31.9c-12.9,9.9-16.7,9.9-27.4,0c-13.7-12.2-60.8-22-60.8-12.2c0,2.3,18.2,23.6,41,45.6
			c54.7,54,59.3,71.4,22,91.2C1390.9,1674.5,1351.4,1673.7,1323.3,1659.3z M1383.3,1628.9c5.3-5.3-50.9-65.4-60.8-64.6
			c-15.2,1.5-1.5,42.6,19.8,59.3C1355.2,1633.4,1375.7,1636.5,1383.3,1628.9z"/>
	</g>
	<g>
		<path class="st2" d="M1733.7,1657c-33.4-20.5-45.6-51.7-44.8-116.3c0-54,0.8-55.5,19.8-57.8c19-2.3,19-1.5,19.8,56.2
			c0.8,49.4,3.8,60.8,19,76.8c13.7,14.4,22,17.5,39.5,14.4c41.8-8.4,50.2-23.6,50.2-89.7v-59.3h21.3h22l-2.3,63.8
			c-0.8,45.6-5.3,69.2-14.4,83.6C1836.3,1670.7,1777,1683.6,1733.7,1657z"/>
	</g>
	<g>
		<path class="st2" d="M2027.8,1661.5c-69.2-35.7-66.9-139.9,4.6-170.3c49.4-19.8,117.8,3,93.5,31.9c-6.1,6.8-15.2,9.9-25.1,6.8
			c-49.4-16-80.6,1.5-85.1,46.4c-3.8,34.2,43.3,65.4,76,50.9c16-7.6,20.5-6.1,30.4,8.4c10.6,15.2,9.9,16.7-6.1,25.8
			C2094.7,1673.7,2051.4,1673.7,2027.8,1661.5z"/>
	</g>
	<g>
		<path class="st2" d="M1175.8,1408.4c0-24.3,2.3-41,5.3-38c7.6,7.6,8.4,73,0.8,77.5C1178.9,1450.2,1175.8,1432,1175.8,1408.4z"/>
	</g>
	<g>
		<path class="st2" d="M1720.8,1445.7c-2.3-3.8-3.8-20.5-3.8-38c-0.8-25.8,2.3-31.9,16-35.7c20.5-5.3,35.7,7.6,35.7,30.4
			c0,18.2-19.8,34.2-36.5,28.1c-6.1-2.3-7.6,0.8-4.6,8.4C1732.2,1451,1726.9,1455.6,1720.8,1445.7z M1755.7,1411.5
			c4.6-14.4-2.3-28.9-14.4-28.9c-6.1,0-10.6,7.6-10.6,19C1730.7,1421.4,1749.7,1428.2,1755.7,1411.5z"/>
	</g>
	<g>
		<path class="st2" d="M1894.1,1443.4c2.3-3.8,6.1-7.6,8.4-7.6c1.5,0,3,3.8,3,7.6c0,4.6-3.8,7.6-8.4,7.6
			C1893.3,1451,1891.8,1448,1894.1,1443.4z"/>
	</g>
	<g>
		<path class="st2" d="M1357.5,1434.3c-2.3-22,3-48.6,9.9-57c14.4-17.5,20.5-9.9,9.9,10.6c-6.8,12.2-8.4,23.6-4.6,27.4
			c8.4,8.4,2.3,28.1-7.6,28.1C1361.3,1443.4,1358.2,1438.8,1357.5,1434.3z"/>
	</g>
	<g>
		<path class="st2" d="M952.4,1430.5c-9.1-9.9-3.8-16,9.9-12.2c7.6,2.3,16.7-0.8,20.5-6.1c3.8-6.8,1.5-8.4-6.1-4.6
			c-6.8,2.3-18.2-0.8-26.6-6.1c-11.4-8.4-12.2-12.2-3.8-20.5c5.3-5.3,18.2-9.9,27.4-9.9c16-0.8,18.2,3,16.7,25.1
			c-0.8,19.8-5.3,28.1-17.5,32.7C964.5,1432,954.6,1432.8,952.4,1430.5z M978.2,1390.2c0-3.8-5.3-7.6-11.4-7.6s-11.4,3.8-11.4,7.6
			c0,4.6,5.3,7.6,11.4,7.6S978.2,1394.8,978.2,1390.2z"/>
	</g>
	<g>
		<path class="st2" d="M1068.6,1423.6c-6.1-7.6-11.4-9.1-17.5-3c-25.1,25.1-60-5.3-42.6-38c9.9-18.2,20.5-19,39.5-2.3
			c7.6,6.8,13.7,8.4,13.7,4.6c0-15.2,25.1-18.2,38.8-5.3c8.4,7.6,14.4,9.1,14.4,5.3c0-10.6,19.8-18.2,34.2-12.9
			c16.7,6.8,13.7,17.5-3,12.9c-7.6-2.3-16,0-19,3.8c-2.3,3.8,6.8,9.9,20.5,12.2l24.3,5.3l-18.2,15.2c-13.7,11.4-20.5,12.9-28.1,6.1
			c-6.1-4.6-10.6-13.7-10.6-19c0-6.1-9.1-15.2-19.8-19.8c-25.1-11.4-40.3,6.1-20.5,24.3c9.1,8.4,12.9,9.1,15.2,2.3
			c3.8-11.4,17.5-12.9,17.5-2.3c0,3.8-6.8,10.6-14.4,14.4C1082.3,1433.5,1076.2,1432.8,1068.6,1423.6z M1042,1416
			c22.8-9.1,9.1-33.4-19-33.4c-7.6,0-9.1,25.1-1.5,32.7C1027.6,1421.4,1027.6,1421.4,1042,1416z M1145.4,1413
			c0-3.8-5.3-7.6-12.2-7.6c-6.1,0-9.1,3.8-6.8,7.6c2.3,4.6,7.6,7.6,12.2,7.6C1142.4,1420.6,1145.4,1417.6,1145.4,1413z"/>
	</g>
	<g>
		<path class="st2" d="M1311.1,1430.5c-7.6-2.3-13.7-6.8-13.7-10.6s9.1-4.6,19.8-2.3c14.4,3.8,19,3,15.2-3.8
			c-3-4.6-9.9-8.4-15.2-8.4c-6.1,0-14.4-4.6-19-10.6c-10.6-12.9,0.8-23.6,27.4-23.6c20.5-0.8,27.4,12.9,17.5,37.2
			C1335.4,1429.7,1328.6,1434.3,1311.1,1430.5z M1331.6,1390.2c-2.3-3.8-9.9-7.6-16-7.6s-9.1,3.8-6.8,7.6c2.3,4.6,9.9,7.6,16,7.6
			S1333.9,1394.8,1331.6,1390.2z"/>
	</g>
	<g>
		<path class="st2" d="M1400,1423.6c-15.2-15.2-12.2-40.3,5.3-51.7c10.6-6.1,16.7-5.3,26.6,5.3c7.6,6.8,9.1,12.9,4.6,12.9
			c-5.3,0-11.4-3.8-13.7-7.6c-5.3-9.1-19-3-19,8.4c0,3.8,8.4,6.8,19,6.8c22.8,0,25.8,19,4.6,30.4
			C1416,1433.5,1409.1,1432.8,1400,1423.6z M1426.6,1413c0-3.8-5.3-7.6-11.4-7.6s-11.4,3.8-11.4,7.6c0,4.6,5.3,7.6,11.4,7.6
			S1426.6,1417.6,1426.6,1413z"/>
	</g>
	<g>
		<path class="st2" d="M1536.8,1425.2c-16-11.4-12.9-41.8,5.3-53.2c19-11.4,40.3,10.6,33.4,35.7
			C1570.3,1430.5,1554.3,1438.1,1536.8,1425.2z M1560.4,1409.2c3-6.1,2.3-17.5,0-24.3c-4.6-11.4-6.1-11.4-17.5-0.8
			c-12.2,12.9-9.1,36.5,5.3,36.5C1552.8,1420.6,1558.1,1415.3,1560.4,1409.2z"/>
	</g>
	<g>
		<path class="st2" d="M2047.6,1427.4c-16.7-9.9-8.4-27.4,16-33.4c15.2-3.8,17.5-6.1,9.1-11.4c-6.8-4.6-14.4-3.8-18.2,0
			c-9.9,9.9-19.8,9.9-19.8,0.8c0-11.4,28.1-17.5,43.3-9.1c9.1,4.6,19,4.6,26.6,0c15.2-8.4,36.5-0.8,36.5,12.9
			c0,6.1-8.4,14.4-19,18.2c-22.8,8.4-25.8,19-3.8,12.9c8.4-2.3,15.2-1.5,15.2,2.3c0,9.9-28.1,14.4-36.5,6.1
			c-11.4-11.4-2.3-28.9,14.4-28.9c7.6,0,14.4-3,14.4-7.6c0-11.4-17.5-9.1-35,3.8c-7.6,6.1-20.5,11.4-27.4,11.4
			c-7.6,0-13.7,3.8-13.7,8.4c0,4.6,6.8,6.1,15.2,3c8.4-2.3,15.2-1.5,15.2,2.3C2080.3,1430.5,2062,1435,2047.6,1427.4z"/>
	</g>
	<g>
		<path class="st2" d="M1203.9,1422.9c-18.2-17.5,6.1-61.6,28.9-52.4c16.7,6.1,13.7,19-3.8,14.4c-8.4-2.3-15.2,0-15.2,4.6
			c0,4.6,6.1,8.4,13.7,8.4c18.2,0,24.3,6.1,19,19.8C1242.7,1428.2,1213.1,1432,1203.9,1422.9z M1232.8,1413c2.3-3.8-0.8-7.6-6.8-7.6
			c-6.8,0-12.2,3.8-12.2,7.6c0,4.6,3,7.6,6.8,7.6C1225.2,1420.6,1230.5,1417.6,1232.8,1413z"/>
	</g>
	<g>
		<path class="st2" d="M1260.9,1401.6c-0.8-14.4,2.3-26.6,6.1-26.6c4.6,0,7.6,7.6,7.6,17.5s3.8,21.3,9.1,26.6
			c6.8,6.8,5.3,9.1-6.1,9.1C1264.7,1428.2,1261.7,1422.9,1260.9,1401.6z"/>
	</g>
	<g>
		<path class="st2" d="M1482.9,1403.1c6.8-16.7,7.6-29.6,3-38c-4.6-8.4-3.8-12.9,0.8-12.9c4.6,0,13.7,12.2,19.8,27.4
			c13.7,33.4,14.4,62.3,0.8,30.4l-9.9-22l-5.3,20.5c-2.3,10.6-8.4,19.8-12.2,19.8C1475.3,1428.2,1476.8,1417.6,1482.9,1403.1z"/>
	</g>
	<g>
		<path class="st2" d="M1586.2,1406.2c0-24.3,9.9-35,34.2-35c12.9-0.8,16,4.6,16.7,28.1c0.8,16-1.5,28.9-6.1,28.9
			c-3.8,0-6.8-8.4-6.8-18.2c0-10.6-3.8-21.3-8.4-24.3c-10.6-6.1-21.3,10.6-18.2,28.9c1.5,7.6,0,13.7-4.6,13.7
			C1589.3,1428.2,1586.2,1418.3,1586.2,1406.2z"/>
	</g>
	<g>
		<path class="st2" d="M1649.3,1401.6c0.8-28.9,12.9-37.2,12.9-9.1c0,9.9,3.8,21.3,9.1,26.6c6.8,6.8,5.3,9.1-6.8,9.1
			C1651.6,1428.2,1649.3,1423.6,1649.3,1401.6z"/>
	</g>
	<g>
		<path class="st2" d="M1777.8,1405.4c-0.8-24.3,7.6-32.7,31.9-34.2c13.7,0,16,3.8,15.2,26.6c-1.5,35.7-3.8,38.8-9.9,12.2
			c-6.8-31.2-23.6-35-23.6-5.3C1791.5,1435,1778.5,1435.8,1777.8,1405.4z"/>
	</g>
	<g>
		<path class="st2" d="M1837.1,1417.6c0-12.2,18.2-28.9,24.3-22.8c2.3,2.3,6.8,0,9.9-5.3c4.6-6.8,0.8-7.6-14.4-5.3
			c-10.6,2.3-19.8,1.5-19.8-1.5c0-9.1,21.3-15.2,34.2-10.6c16.7,6.8,13.7,26.6-3.8,31.2c-8.4,2.3-15.2,7.6-15.2,11.4
			s6.8,4.6,15.2,2.3c8.4-3,15.2-1.5,15.2,3c0,4.6-9.9,8.4-22.8,8.4C1845.4,1428.2,1837.1,1424.4,1837.1,1417.6z"/>
	</g>
	<g>
		<path class="st2" d="M1894.1,1401.6c1.5-38,11.4-42.6,11.4-5.3c0,17.5-3,31.9-6.8,31.9C1895.6,1428.2,1893.3,1416,1894.1,1401.6z"
			/>
	</g>
	<g>
		<path class="st2" d="M1920.7,1397c0-18.2,3-28.9,7.6-25.8c4.6,2.3,7.6,15.2,7.6,27.4c0,31.9,17.5,25.1,23.6-9.1
			c3-14.4,5.3-22,6.1-18.2c9.9,46.4,6.1,57-22.8,57C1922.2,1428.2,1920.7,1426.7,1920.7,1397z"/>
	</g>
	<g>
		<path class="st2" d="M1986.8,1422.9c-9.1-8.4-6.1-38,5.3-47.1c11.4-9.1,35-3.8,35,8.4c0,5.3-3.8,4.6-10.6-0.8
			c-7.6-6.8-12.2-6.1-19.8,3c-8.4,9.9-6.8,11.4,9.1,11.4c22.8,0,28.9,5.3,23.6,19.8C2025.6,1428.2,1995.9,1432,1986.8,1422.9z
			 M2019.5,1413.8c0-4.6-6.8-6.8-14.4-6.1c-8.4,0-12.9,3.8-11.4,6.8C1999,1422.9,2019.5,1422.1,2019.5,1413.8z"/>
	</g>
</g>
</svg>
