<?xml version="1.0" standalone="no"?>
<!DOCTYPE svg PUBLIC "-//W3C//DTD SVG 20010904//EN"
 "http://www.w3.org/TR/2001/REC-SVG-20010904/DTD/svg10.dtd">
<svg version="1.0" xmlns="http://www.w3.org/2000/svg"
 width="896.000000pt" height="896.000000pt" viewBox="0 0 896.000000 896.000000"
 preserveAspectRatio="xMidYMid meet">
<metadata>
Created by potrace 1.11, written by Peter Selinger 2001-2013
</metadata>
<g transform="translate(0.000000,896.000000) scale(0.100000,-0.100000)"
fill="#000000" stroke="none">
<path d="M2568 8524 c-2 -1 -30 -6 -63 -9 -92 -10 -198 -23 -245 -30 -32 -5
-127 -17 -160 -20 -14 -1 -50 -6 -80 -10 -82 -11 -95 -12 -163 -20 -34 -3 -69
-8 -77 -10 -8 -2 -44 -7 -80 -10 -36 -4 -74 -9 -85 -11 -11 -2 -42 -6 -70 -9
-27 -3 -68 -8 -90 -10 -22 -3 -58 -8 -80 -11 -22 -3 -51 -7 -65 -9 -28 -4
-123 -16 -160 -20 -22 -2 -98 -12 -170 -21 -14 -2 -45 -5 -70 -8 -25 -3 -61
-8 -81 -11 -20 -3 -52 -8 -70 -10 -19 -2 -53 -7 -77 -10 -23 -3 -61 -7 -84
-10 -59 -8 -93 -57 -76 -108 11 -31 36 -47 82 -54 82 -11 195 -56 271 -106 59
-39 154 -125 155 -139 0 -4 11 -19 25 -33 40 -45 114 -209 130 -292 3 -15 7
-57 10 -92 3 -36 7 -66 10 -69 2 -3 0 -13 -5 -23 -6 -10 -7 -20 -2 -23 4 -2 6
-24 5 -48 -8 -97 -8 -138 -1 -138 4 0 3 -11 -2 -24 -5 -13 -6 -27 -3 -30 8 -8
8 -85 0 -93 -4 -3 -2 -12 4 -19 7 -8 7 -14 -1 -19 -7 -4 -7 -12 0 -25 6 -10 7
-21 2 -24 -6 -4 -8 -50 -2 -66 2 -5 1 -58 -3 -133 -1 -26 1 -47 5 -47 4 0 3
-11 -2 -24 -5 -13 -6 -27 -3 -30 8 -8 8 -85 0 -93 -4 -3 -2 -12 4 -19 7 -8 7
-14 -1 -19 -7 -4 -7 -12 0 -25 6 -10 7 -21 2 -24 -6 -4 -8 -50 -2 -66 2 -5 1
-58 -3 -133 -1 -26 1 -47 5 -47 4 0 3 -11 -2 -24 -5 -13 -6 -27 -3 -30 8 -8 8
-85 0 -93 -4 -3 -2 -12 4 -19 7 -8 7 -14 -1 -19 -7 -4 -7 -12 0 -25 6 -10 7
-21 2 -24 -6 -4 -8 -50 -2 -66 2 -5 1 -58 -3 -133 -1 -26 1 -47 5 -47 4 0 3
-11 -2 -24 -5 -13 -6 -27 -3 -30 8 -8 8 -85 0 -93 -4 -3 -2 -12 4 -19 7 -8 7
-14 -1 -19 -7 -4 -7 -12 0 -25 6 -10 7 -21 2 -24 -6 -4 -8 -50 -2 -66 2 -5 1
-58 -3 -133 -1 -26 1 -47 5 -47 4 0 3 -11 -2 -25 -5 -13 -6 -27 -1 -29 4 -3 5
-26 1 -51 -4 -25 -4 -47 -1 -49 8 -5 6 -64 -2 -72 -3 -4 -2 -15 4 -25 7 -13 6
-19 -1 -19 -7 0 -8 -6 -1 -18 6 -11 6 -24 0 -35 -7 -11 -6 -17 1 -17 7 0 8 -6
1 -18 -5 -10 -6 -24 -2 -31 5 -7 5 -28 1 -47 -4 -19 -5 -36 -1 -38 8 -5 6 -64
-2 -72 -3 -4 -2 -15 4 -25 7 -13 6 -19 -1 -19 -7 0 -8 -6 -1 -18 6 -11 6 -24
0 -35 -7 -11 -6 -17 1 -17 7 0 8 -6 1 -18 -5 -10 -6 -24 -2 -31 5 -7 5 -28 1
-47 -4 -19 -5 -36 -1 -38 8 -5 6 -64 -2 -72 -3 -4 -2 -15 4 -25 7 -13 6 -19
-1 -19 -7 0 -8 -6 -1 -18 6 -11 6 -24 0 -35 -7 -11 -6 -17 1 -17 7 0 8 -6 1
-18 -5 -10 -6 -24 -2 -31 5 -7 5 -28 1 -47 -4 -19 -5 -36 -1 -38 8 -5 6 -64
-2 -72 -3 -4 -2 -15 4 -25 7 -13 6 -19 -1 -19 -7 0 -8 -6 -1 -18 6 -11 6 -24
0 -35 -7 -11 -6 -17 1 -17 7 0 8 -6 1 -18 -5 -10 -6 -24 -2 -31 5 -7 5 -30 1
-52 -4 -21 -4 -39 1 -39 5 0 4 -11 -1 -24 -5 -13 -6 -27 -3 -30 8 -8 8 -85 0
-93 -4 -3 -2 -12 4 -19 7 -8 7 -14 -1 -19 -7 -4 -7 -12 0 -25 6 -10 7 -21 2
-24 -6 -4 -8 -50 -2 -66 2 -5 1 -58 -3 -133 -1 -26 1 -47 5 -47 4 0 3 -11 -2
-24 -5 -13 -6 -27 -3 -30 8 -8 8 -85 0 -93 -4 -3 -2 -12 4 -19 7 -8 7 -14 -1
-19 -7 -4 -7 -12 0 -25 6 -10 7 -21 2 -24 -6 -4 -8 -50 -2 -66 2 -5 1 -58 -3
-133 -1 -26 1 -47 5 -47 4 0 3 -11 -2 -24 -5 -13 -6 -27 -3 -30 8 -8 8 -85 0
-93 -4 -3 -2 -12 4 -19 7 -8 7 -14 -1 -19 -7 -4 -7 -12 0 -25 6 -10 7 -21 2
-24 -6 -4 -8 -50 -2 -66 2 -5 1 -58 -3 -133 -1 -26 1 -47 5 -47 4 0 3 -11 -2
-24 -5 -13 -6 -27 -3 -30 8 -8 8 -85 0 -93 -4 -3 -2 -12 4 -19 7 -8 7 -14 -1
-19 -7 -4 -7 -12 0 -25 6 -10 7 -21 2 -24 -6 -4 -8 -50 -2 -66 2 -5 1 -58 -3
-133 -1 -26 1 -47 5 -47 4 0 3 -11 -2 -24 -5 -13 -6 -27 -3 -30 8 -8 8 -85 0
-93 -4 -3 -2 -12 4 -19 7 -8 7 -14 -1 -19 -7 -4 -7 -12 0 -25 6 -10 7 -21 2
-24 -6 -4 -8 -49 -2 -66 5 -15 4 -58 -2 -77 -4 -13 -3 -23 2 -23 5 0 5 -12 0
-30 -5 -18 -5 -32 1 -36 5 -3 7 -9 4 -14 -10 -16 -12 -80 -3 -80 5 0 7 -4 3
-10 -3 -5 -8 -33 -10 -62 -4 -45 -11 -98 -19 -143 -1 -5 -4 -14 -7 -20 -4 -5
-9 -23 -13 -40 -21 -88 -104 -218 -173 -272 -67 -53 -172 -109 -223 -118 -42
-8 -82 -49 -85 -88 -2 -26 48 -77 77 -78 12 0 559 -1 1214 -1 884 0 1196 2
1212 11 12 6 28 24 36 39 12 23 12 33 1 58 -12 28 -65 64 -95 64 -19 0 -122
50 -176 85 -64 42 -114 98 -156 172 -18 32 -33 60 -34 63 0 3 -3 12 -6 20 -14
37 -38 150 -42 200 -6 63 -9 190 -6 205 1 6 2 15 1 20 -3 14 -3 128 -1 140 1
6 2 15 1 20 -3 14 -3 128 -1 140 1 6 2 15 1 20 -3 14 -3 128 -1 140 1 6 2 15
1 20 -3 14 -3 128 -1 140 1 6 2 15 1 20 -3 14 -3 128 -1 140 1 6 2 15 1 20 -3
14 -3 128 -1 140 1 6 2 15 1 20 -3 14 -3 128 -1 140 1 6 2 15 1 20 -3 14 -3
128 -1 140 1 6 2 15 1 20 -3 14 -3 128 -1 140 1 6 2 15 1 20 -3 14 -3 128 -1
140 1 6 2 15 1 20 -3 14 -3 128 -1 140 1 6 2 15 1 20 -3 14 -3 128 -1 140 1 6
2 15 1 20 -3 14 -3 128 -1 140 1 6 2 15 1 20 -3 14 -3 128 -1 140 1 6 2 15 1
20 -3 14 -3 128 -1 140 1 6 2 12 1 15 -2 8 -3 374 -1 385 1 6 2 15 1 20 -2 14
-3 449 0 461 1 5 1 14 0 19 -2 14 -3 449 0 461 1 5 1 14 0 19 -2 14 -3 449 0
461 1 5 1 14 0 19 -2 14 -3 449 0 461 1 5 1 14 0 19 -2 14 -2 610 0 621 1 5 1
14 0 19 -2 14 -3 449 0 461 1 5 1 14 0 19 -2 14 -3 449 0 461 1 5 1 14 0 19
-2 14 -3 449 0 461 1 5 1 11 0 14 -1 3 -2 64 -3 137 -1 127 -2 133 -25 155
-16 15 -38 23 -64 24 -21 1 -40 0 -41 -2z"/>
<path d="M7558 7083 c-14 -16 -36 -57 -48 -93 -12 -36 -37 -98 -56 -138 -19
-41 -34 -76 -34 -78 0 -17 -171 -300 -190 -314 -4 -3 -11 -12 -16 -21 -29 -51
-171 -202 -249 -265 -77 -61 -167 -115 -217 -129 -5 -2 -9 -3 -10 -5 -12 -9
-75 -12 -285 -13 -236 -2 -242 -2 -266 -25 -15 -14 -24 -35 -25 -53 0 -17 -3
-33 -6 -36 -3 -3 -1 -14 5 -24 5 -11 6 -19 1 -19 -10 0 -8 -28 6 -75 14 -50
37 -55 263 -55 l205 0 -1 -102 c0 -57 3 -111 7 -120 5 -10 5 -18 1 -18 -4 0
-7 -42 -6 -92 2 -51 3 -97 3 -103 0 -5 -1 -47 -3 -92 -1 -46 1 -83 6 -83 4 0
5 -6 0 -12 -10 -17 -10 -38 -1 -65 4 -13 4 -23 0 -23 -9 0 -8 -303 2 -318 4
-7 4 -12 -1 -12 -4 0 -8 -45 -8 -100 0 -55 3 -100 7 -100 4 0 4 -10 0 -22 -5
-13 -7 -45 -5 -73 4 -65 4 -57 0 -152 -1 -46 1 -83 6 -83 4 0 5 -6 0 -12 -10
-17 -10 -38 -1 -65 4 -13 4 -23 0 -23 -9 0 -8 -303 2 -318 4 -7 4 -12 -1 -12
-4 0 -8 -43 -8 -95 0 -52 4 -95 8 -95 4 0 3 -8 -2 -19 -6 -10 -8 -21 -5 -24 4
-3 8 -37 9 -74 3 -68 20 -185 32 -213 3 -8 8 -24 10 -35 5 -29 63 -155 87
-190 57 -84 158 -174 242 -218 40 -21 160 -62 204 -71 19 -3 46 -8 60 -11 20
-4 195 -17 235 -17 22 -1 212 13 240 17 61 8 161 24 185 29 14 3 34 8 45 10
35 7 109 27 125 33 18 8 15 6 70 22 25 7 68 23 95 36 28 12 60 25 71 29 58 18
78 89 37 130 -28 28 -64 33 -110 15 -15 -6 -75 -12 -133 -14 -142 -4 -239 22
-308 80 -54 45 -110 149 -118 218 -1 9 -2 18 -4 20 -11 14 -14 204 -17 1240
l-4 1197 448 1 c246 1 451 1 454 1 4 -1 17 10 30 24 22 23 24 34 24 118 0 82
-3 94 -23 116 l-23 25 -447 2 c-246 0 -450 1 -454 2 -5 1 -8 228 -8 506 0 348
-3 512 -11 528 -12 26 -47 47 -78 47 -9 0 -29 -12 -43 -27z"/>
<path d="M4437 5404 c-1 -1 -40 -5 -87 -9 -47 -3 -92 -8 -100 -10 -8 -2 -37
-6 -65 -10 -27 -3 -102 -17 -165 -31 -63 -14 -119 -27 -125 -28 -5 -1 -15 -5
-21 -8 -6 -4 -24 -9 -40 -12 -16 -3 -56 -15 -89 -26 -33 -11 -64 -22 -70 -24
-5 -2 -23 -8 -38 -14 -16 -7 -30 -12 -32 -12 -12 0 -190 -86 -275 -133 -55
-30 -154 -99 -167 -116 -34 -44 3 -121 58 -121 23 0 123 30 164 49 23 11 77
25 86 23 4 -1 22 3 40 9 113 34 308 51 419 36 103 -14 252 -78 305 -131 9 -9
21 -19 28 -23 14 -9 87 -99 87 -107 0 -3 11 -21 23 -40 43 -62 91 -226 104
-356 7 -67 6 -3013 -1 -3095 -3 -38 -8 -81 -11 -95 -9 -40 -17 -74 -19 -87 -1
-7 -5 -16 -9 -19 -4 -4 -7 -13 -7 -21 0 -7 -7 -30 -17 -51 -9 -20 -17 -39 -17
-42 -1 -3 -13 -25 -28 -50 -31 -54 -102 -126 -140 -143 -15 -6 -28 -15 -28
-19 0 -5 -7 -8 -15 -8 -29 0 -124 -49 -134 -69 -19 -35 -1 -95 32 -106 36 -12
2368 -13 2396 -1 32 14 52 62 40 96 -10 29 -50 56 -93 64 -15 3 -64 23 -109
45 -208 100 -303 275 -313 575 -2 70 -7 132 -9 136 -3 5 -1 11 4 14 4 3 5 24
1 46 -4 22 -4 58 0 80 4 22 4 40 0 40 -4 0 -4 18 0 41 4 22 4 56 0 75 -4 19
-4 36 0 39 4 2 4 24 0 47 -5 24 -6 46 -3 51 3 6 5 107 2 177 0 8 0 54 1 102 1
48 -1 92 -5 97 -3 6 -2 11 3 11 5 0 6 17 3 37 -4 21 -4 64 -1 96 3 32 2 61 -2
63 -5 3 -6 10 -2 15 3 6 5 47 4 92 -1 45 -1 100 1 122 1 22 1 49 1 60 0 11 -1
63 0 115 0 52 -1 106 -2 120 -2 30 -2 23 0 132 1 48 0 91 -3 95 -3 5 -2 28 3
51 4 24 4 59 0 78 -4 19 -4 36 0 39 4 2 4 23 0 45 -4 22 -4 58 0 80 4 22 4 40
0 40 -4 0 -4 18 0 41 4 22 4 56 0 75 -4 19 -4 36 0 39 4 2 4 24 0 47 -5 24 -6
46 -3 51 9 15 1 351 -12 451 -5 43 -15 96 -29 161 -15 70 -59 212 -76 243 -5
9 -23 46 -40 82 -52 106 -120 200 -210 291 -112 113 -231 192 -415 275 -39 17
-184 66 -210 70 -27 5 -60 12 -60 14 0 1 -11 3 -25 6 -14 2 -47 8 -75 14 -78
15 -397 34 -408 24z"/>
<path d="M7709 1450 c-75 -19 -150 -55 -185 -87 -14 -13 -28 -23 -32 -23 -4 0
-18 -14 -32 -31 -14 -17 -32 -39 -41 -48 -35 -35 -89 -154 -104 -232 -7 -32
-7 -138 -1 -169 3 -14 8 -38 12 -55 7 -35 55 -133 81 -167 59 -75 187 -172
242 -183 9 -2 29 -8 44 -14 72 -28 167 -30 292 -7 33 6 137 64 173 95 18 17
37 31 41 33 14 5 101 130 101 144 0 8 3 14 8 14 8 0 43 115 47 157 2 16 4 33
5 38 1 6 2 12 1 15 -1 3 -4 30 -6 60 -3 64 -28 152 -50 187 -9 13 -13 23 -9
23 9 0 -57 82 -102 125 -123 119 -317 169 -485 125z"/>
</g>
</svg>
